<svg xmlns="http://www.w3.org/2000/svg" version="1.1" width="600px" height="600px" viewBox="0 0 200 200" style="overflow:hidden!important;"><defs id="SvgjsDefs14895"></defs><g id="svga-group-wrapper"><g id="svga-group-backs-single"><path id="SvgjsPath15601" d="M0 0h200v200H0V0z" fill="#c4c7f3" stroke-width="none" opacity="1"></path><path id="SvgjsPath15602" d="M0 0v10.1L76.5 100 0 0zm0 34.1V50l76.5 58.3L0 34.1zm0 37.1v13.6l76.5 33.4L0 71.2zM38.3 0H21.1l67.2 108.3L38.3 0zm36.3 0H61l27.2 90L74.6 0zM0 108.3v9.9l76.5 9.9L0 108.3zM0 144v13.6l76.5-22.1L0 144zm0 35.7V200l88.3-64.5L0 179.7zM38.3 200h16.4l26.5-42.4L38.3 200zm85.2-100L200 10.1V0l-76.5 100zM200 50V34.1l-76.5 74.2L200 50zm0 34.8V71.2l-76.5 47L200 84.8zM178.9 0h-17.2l-50 108.3L178.9 0zM139 0h-13.6l-13.6 90L139 0zm61 118.2v-9.9L123.5 128l76.5-9.8zm0 39.4V144l-76.5-8.5 76.5 22.1zm0 42.4v-20.3l-88.3-44.2L200 200zm-54.7 0h16.4l-43-42.4 26.6 42.4zM111.7 0H88.3L100 100 111.7 0zM76.5 200h11.7l6.4-58.5L76.5 200zm35.2 0h11.7l-18.2-58.5 6.5 58.5zm-17 0h10.6l-5.3-42.4-5.3 42.4z" fill="#a1a5e4" stroke-width="none" opacity="1"></path></g><g id="svga-group-humanwrap-move" transform="matrix(1,0,0,1,0,0)"><g id="svga-group-humanwrap" transform="matrix(1,0,0,1,0,0)"><g id="svga-group-hair-back-move" transform="matrix(1,0,0,1,0,0)"><g id="svga-group-hair-back" transform="matrix(1,0,0,1,0,0)"></g></g><g id="svga-group-humanbody-back"><path id="SvgjsPath15296" d="M166.5 181.1c-10.9-6.6-27.6-8.4-35-12.1-4.9-2.5-9.1-4.7-8.9-17.8s1.9-42.4 1.9-42.4H75.4s1.6 29.4 1.9 42.4-4.2 15.6-8.9 17.8c-7.4 3.5-24.1 5.4-35 12.1-10.8 6.6-10 18.9-10 18.9v19.7h153.3V200c-.1 0 .7-12.3-10.2-18.9z" fill="#ffd0bc" stroke-width="none" opacity="1" stroke="none"></path></g><g id="svga-group-chinshadow-single"><path id="SvgjsPath15553" d="M77.2 155.2c5.1 2.8 7.7 4.2 9.6 6.5 2.6 3.2 10.3 4.4 13.2 4.4 3 0 10.7-1.2 13.2-4.4 1.9-2.3 4.5-3.7 9.5-6.4-.1-1.2-.1-2.6-.1-4.1.2-13.1 1.9-42.4 1.9-42.4H75.4s1.6 29.4 1.9 42.4c0 1.5 0 2.8-.1 4z" fill="#e09879" stroke-width="none" opacity="0.65" stroke="none"></path></g><g id="svga-group-humanbody-front"><path id="SvgjsPath15297" d="M78.7 156.8c.5 4.8 1.7 9.4 3.1 13.9.8 2.3 1.6 4.6 2.6 6.9.8 2 1.7 4.2 3.1 5.9.3.4 1 0 .9-.5-.5-2.2-1.6-4.3-2.4-6.4-.9-2.2-1.7-4.4-2.5-6.6-1.5-4.4-2.8-8.9-4.1-13.3-.2-.4-.8-.3-.7.1zm41.3-1c-1.3 8.2-3.9 16.1-5.4 24.2-.1.4.4.5.6.2 3.1-7.7 4.1-16.1 5.1-24.3-.1-.2-.3-.2-.3-.1zm-25.8 11.9c-.9 3.6 1.9 8.6 6.2 7.6.5-.1.4-.8 0-1-1.4-.5-2.9-.9-3.9-2.1-1.1-1.2-1.5-2.9-1.4-4.5 0-.4-.8-.5-.9 0z" fill="#e09879" stroke-width="none" opacity="1" stroke="none"></path><path id="SvgjsPath15298" d="M177.3 219.7c-.1-6.6-.3-13.1-.3-19.7l-.3-.3c.1 0 .1 0 .2.1s.1.2.1.1v-1.4c0-.5-.1-.9-.1-1.4-.1-.9-.3-1.9-.5-2.8-.5-1.8-1.1-3.6-2-5.3-1.7-3.4-4.4-6.2-7.7-8.1-3.6-2.2-7.6-3.8-11.6-5.1-4-1.3-8.1-2.4-12.1-3.5-4-1.2-8.1-2.2-11.8-4.2-1.9-1-3.6-2.1-4.8-3.6-1.2-1.6-1.9-3.5-2.3-5.5-.8-4-.4-8.2-.3-12.4l.7-12.6 1.5-25.2.1-1.4h-1.4c-8.2 0-16.4 0-24.6.1l-24.6.3h-.9l.1.9c.8 11.9 1.6 23.8 2.1 35.7.1 3 .3 6 .2 8.9-.1 2.9-.4 5.9-1.6 8.6-.6 1.3-1.4 2.5-2.4 3.5s-2.3 1.8-3.6 2.4c-2.6 1.3-5.4 2.2-8.3 3-5.8 1.5-11.6 2.8-17.3 4.7-2.8.9-5.7 2-8.4 3.4-1.3.7-2.7 1.4-4 2.4-1.3.9-2.4 1.9-3.5 3.1-2.1 2.3-3.6 5.2-4.5 8.1-.5 1.5-.8 3-1 4.6-.1.8-.1 1.6-.1 2.4v2.3l-.2 17.9v1.3h1.4l38.3.2c12.8.1 25.5.1 38.3 0 12.8-.1 25.6-.1 38.3-.3 12.8-.2 25.6-.5 38.3-.7h.6v-.5zm-77.2-1.6H61.8l-37 .2-.1-16.6v-2.2c0-.7 0-1.4.1-2.1.1-1.4.4-2.8.8-4.2.8-2.7 2.1-5.3 3.9-7.5.9-1.1 2-2.1 3.1-2.9 1.1-.9 2.4-1.6 3.7-2.3 2.6-1.4 5.3-2.5 8.1-3.5 5.6-2 11.4-3.4 17.1-5.1 2.9-.8 5.8-1.7 8.5-3.1 1.3-.7 2.7-1.5 3.8-2.6 1.1-1.1 2-2.4 2.6-3.9 1.2-2.9 1.5-5.9 1.6-8.9 0-3-.1-6-.2-9l-1.3-34.8 23.5.4c7.7.1 15.4.1 23.1.1-.4 7.9-.8 15.9-1.1 23.8-.2 4.2-.2 8.4-.3 12.6 0 4.2-.2 8.5.8 12.8.5 2.1 1.3 4.2 2.8 6 1.4 1.7 3.4 2.9 5.3 3.8 3.9 1.9 8 2.8 12.1 3.8s8.2 2 12.2 3.3c4 1.3 7.9 2.8 11.5 5 3.2 1.9 5.8 4.7 7.5 8 .9 1.6 1.5 3.4 1.9 5.2.2.9.4 1.8.4 2.7.1.5.1.9.1 1.4V200l-.3 19c-12.6-.2-25.1-.5-37.7-.7-12.7-.1-25.5-.1-38.2-.2z" fill="#d17f5b" stroke-width="none" opacity="1" stroke="none"></path></g><g id="svga-group-clothes-single"><path id="SvgjsPath15457" d="M179.3 220.1c0-17.5-1.6-26.7-1.6-26.7-3.2-15.2-21.5-18.1-30.1-20.5-2.8-.8-8.2-1.4-8.2-1.4-4.8 5.3-9.9 9.8-15.9 15.4-7.5 7-14.9 13-21.8 18.1-6.4-4-13.8-9.3-21.4-16.1-7.7-6.9-13.1-12.8-17.9-18.8-3.1.5-7.1.9-10.7 1.7-8.7 1.9-26.5 7.6-29.5 21.6 0 0-1.6 9.2-1.6 26.7h158.7z" fill="#653220" stroke-width="none" opacity="1"></path><path id="SvgjsPath15458" d="M179.6 210.9c0-3.1-.1-6.1-.3-9.2-.1-1.5-.2-3.1-.3-4.6l-.2-2.3-.1-1.2c0-.4-.2-.8-.3-1.2-.2-.8-.4-1.6-.7-2.3l-.9-2.2-1.2-2.1c-.4-.7-1-1.3-1.5-1.9-2.1-2.4-4.7-4.4-7.5-5.9s-5.7-2.6-8.7-3.6c-3-.9-6-1.7-8.9-2.5-2.9-.8-6.1-.8-9.1-1.7-.5-.1-1 0-1.4.4-5.8 6.3-11.5 11.3-17.8 17.1-6.1 5.6-12.4 11.1-19.1 16.1-3.6-2.2-7.2-4.6-10.6-7.1-3.6-2.6-7.1-5.4-10.5-8.4-3.4-3-6.6-6.1-9.7-9.3-3.1-3.3-5.2-5.8-8-9.3-.1-.1-.3-.2-.5-.2-3.2.6-6.9.8-10 1.5-3.1.6-6.2 1.4-9.2 2.4-6 2.1-11.9 4.9-16.5 9.7-2.3 2.4-4.1 5.2-5.1 8.4l-.4 1.2c-.1.2-.1.4-.2.6l.1.7-.3 2.4c-.2 1.6-.4 3.2-.5 4.7-.6 6.3-.8 12.6-.9 19 0 .8.6 1.4 1.4 1.4l40 .2c13.3 0 26.7-.1 39.9-.2l39.7-.5 19.7-.3 19.5-.4c.1-1.5.1-3.2.1-4.7v-4.7zM23 196.6c.1-.8.2-1.6.3-2.3l.1-.6c0-.2.1-.3.1-.5l.3-1.1c.8-2.8 2.4-5.5 4.4-7.7 1.5-1.6 3.2-3.1 5-4.4 1.1 1.1 2 2.4 2.8 3.7.9 1.5 1.7 3 2.4 4.6 1.4 3.2 2.4 6.5 3.2 9.9.4 1.7.8 3.4 1.1 5.1.3 1.7.6 3.4.9 5.2.5 3.3 1 6.6 1.5 10l-22.8.1c0-5.8.1-11.6.5-17.4-.1-1.4 0-3 .2-4.6zm116.1 22.7-39.7-.5c-13.2-.1-26.3-.2-39.4-.2l-15 .1c.3-3.4.2-6.8 0-10.2-.3-3.5-.8-7.1-1.6-10.6-.4-1.7-.9-3.5-1.5-5.2-.6-1.7-1.3-3.4-2.2-4.9-.8-1.6-1.8-3.1-3-4.5-1-1.2-2.1-2.4-3.4-3.2 3.2-2.2 6.8-3.9 10.4-5.2 2.9-1.1 5.9-1.9 9-2.6 3-.7 6.7-.9 9.6-1.5 2.8 3.4 4.9 5.8 7.9 9 3.1 3.3 6.3 6.4 9.7 9.5 6.7 6.1 13.8 11.6 21.4 16.6.3.2.7.2 1 0 7-5 13.8-10.3 20.2-16.1 3.2-2.9 6.4-5.8 9.4-8.9 2.9-2.8 5.3-4.8 8-7.8 2.7.8 5.7.7 8.4 1.4 3 .8 6 1.4 8.9 2.3 2.9.9 5.7 1.9 8.4 3.3.3.1.5.3.8.4-1.1.8-2.1 1.8-2.9 2.9-1.1 1.4-2.1 2.9-3 4.5-.9 1.6-1.6 3.2-2.2 4.9-.6 1.7-1.1 3.4-1.5 5.2-.8 3.5-1.3 7-1.6 10.6-.2 3.5-.3 7.1 0 10.6l1.5-10.5c.3-1.7.6-3.5.9-5.2.3-1.7.6-3.4 1.1-5.1.8-3.4 1.8-6.7 3.2-9.9.7-1.6 1.5-3.1 2.4-4.6.7-1.2 1.5-2.3 2.4-3.3 2.2 1.2 4.3 2.8 6.1 4.6.5.6 1 1.1 1.4 1.7l1.2 1.8.9 2c.3.7.4 1.4.7 2.1.1.4.2.7.3 1.1l.2 1.1.3 2.3.5 4.6c.3 3 .6 6.1.7 9.2l.5 9.1-40.4-.9zm-4.2-34.6c-3.4 3.3-6.9 6.5-10.4 9.5-7.1 6.1-14.3 11.9-21.9 17.3-4.3-2.5-8.5-5.3-12.5-8.3-4.1-3.1-8-6.3-11.8-9.7-3.8-3.4-7.5-6.9-11.1-10.6-3.6-3.6-7.1-7.4-10.4-11.3 3.2 4 6.5 7.9 10 11.6 3.5 3.7 7.2 7.4 10.9 10.8 3.8 3.5 7.8 6.7 11.8 9.9 4.1 3.1 8.4 6 12.8 8.6.2.1.4.1.5 0 3.8-2.8 7.6-5.6 11.3-8.6 3.7-3 7.3-6 10.8-9.2 3.5-3.1 6.9-6.4 10.3-9.8 3.3-3.4 6.5-6.9 9.5-10.4-3.1 3.5-6.3 6.9-9.8 10.2z" fill="#461808" stroke-width="none" opacity="1"></path></g><g id="svga-group-head" transform="matrix(1,0,0,1,0,0)"><g id="svga-group-ears-left-move" transform="matrix(1,0,0,1,0,0)"><g id="svga-group-ears-left" transform="matrix(1,0,0,1,0,0)"><path id="SvgjsPath15467" d="M58.8 91.7s-2.6-4.9-5.3-5.7-4.4.7-3.9 6.6 5.2 23.2 10.6 22.2c5.4-1.1.9-19.6-1.4-23.1z" fill="#ffd0bc" stroke-width="none" opacity="1" stroke="none"></path><path id="SvgjsPath15468" d="M59.8 93.6c.3.7.6 1.5.8 2.2.5 1.5 1 3.1 1.4 4.8.4 1.6.7 3.4.9 5.2.1.9.2 1.8.2 2.7 0 .9 0 1.8-.1 2.8-.1.9-.3 1.8-.7 2.5-.3.7-.8 1.2-1.2 1.5-.9.5-1.9.4-2.8-.1-.9-.5-1.8-1.5-2.6-2.7s-1.4-2.5-2-4c-.6-1.4-1.1-3-1.6-4.5s-1-3.1-1.4-4.7-.8-3.3-1.1-5-.5-3.6-.3-5.4c.1-.9.3-1.8.7-2.4s.8-1 1.3-1.2.9-.2 1.4-.1.9.3 1.4.6c.9.6 1.7 1.5 2.5 2.5s1.5 2.2 2.2 3.4c.4.5.7 1.2 1 1.9zm-3.2-5c-.8-.9-1.6-1.6-2.5-1.9-.8-.3-1.7-.4-2.5-.1-.4.2-.7.4-1 .9s-.5 1.1-.6 1.8c-.2 1.4-.2 3.2.1 4.8.2 1.7.5 3.3.9 5 .8 3.2 1.8 6.3 3.1 8.9.6 1.3 1.3 2.5 2 3.5s1.5 1.8 2.3 2.2c.4.2.8.3 1.2.3s.8-.1 1.2-.4c.3-.2.7-.6.9-1.1s.4-1.2.5-1.9c.2-1.4.1-3.1 0-4.8-.1-1.7-.4-3.3-.7-5s-.7-3.3-1.1-4.9c-.4-1.6-1-3.1-1.7-4.3-.6-1-1.3-2.1-2.1-3z" fill="#f0b399" stroke-width="none" opacity="1" stroke="none"></path><path id="SvgjsPath15469" d="M52.4 89.6c2.3 1.5 4.4 5.7 5.4 9.9v.1c0 .3-.2.4-.2.1-.4-1.2-.9-1.2-1.5 0-.1.8-.1 1.5.1 2.3.2.7.4 1.4.7 2 .5 1.2 1.2 2.1 1.8 3.1.2.3 0 .7-.2.6-1.4-1.1-3.4-4.7-3-7.8.2-1.5 1-2.3 1.6-1.7-.8-2.1-1.7-4-2.8-5.5-.6-.8-2-2.7-2.7-2.4-1.3.6-.6 4.8-.5 6.6 0 .3-.2.4-.3.1-.7-3.3-.8-9 1.6-7.4z" fill="#e09879" stroke-width="none" opacity="1" stroke="none"></path><path id="SvgjsPath15470" d="M58 108.6c-2.4-.9-4.2-4.8-5.2-9-.6-2.6-1.8-8.6.5-8.5.2 0 .3.5.1.6-2.2 1.1.2 9.2.9 11.1 1 2.6 2.2 4.4 3.8 5.4.1.1 0 .5-.1.4z" fill="#e09879" stroke-width="none" opacity="1" stroke="none"></path></g></g><g id="svga-group-ears-right-move" transform="matrix(1,0,0,1,0,0)"><g id="svga-group-ears-right" transform="matrix(1,0,0,1,0,0)"><path id="SvgjsPath15471" d="M141.2 91.7s2.6-4.9 5.3-5.7 4.4.7 3.9 6.6-5.2 23.2-10.6 22.2c-5.4-1.1-.9-19.6 1.4-23.1z" fill="#ffd0bc" stroke-width="none" opacity="1" stroke="none"></path><path id="SvgjsPath15472" d="M141.1 91.7c.7-1.2 1.4-2.4 2.2-3.4s1.6-1.9 2.5-2.5c.5-.3.9-.5 1.4-.6s.9-.1 1.4.1.9.5 1.3 1.2c.4.6.6 1.5.7 2.4.2 1.8 0 3.7-.3 5.4-.3 1.7-.7 3.4-1.1 5-.4 1.6-.9 3.2-1.4 4.7s-1 3.1-1.6 4.5-1.3 2.8-2 4c-.8 1.2-1.6 2.2-2.6 2.7-.9.5-1.9.7-2.8.1-.5-.3-.9-.8-1.2-1.5s-.5-1.6-.7-2.5c-.1-.9-.1-1.8-.1-2.8 0-.9.1-1.8.2-2.7.2-1.8.5-3.5.9-5.2s.9-3.2 1.4-4.8c.3-.8.5-1.5.8-2.2.4-.7.7-1.4 1-1.9zm.1.1c-.7 1.2-1.2 2.7-1.7 4.3-.4 1.6-.8 3.2-1.1 4.9-.3 1.7-.5 3.3-.7 5-.1 1.6-.2 3.3 0 4.8.1.7.3 1.4.5 1.9s.6.9.9 1.1c.3.3.8.3 1.2.4.4 0 .8-.1 1.2-.3.8-.4 1.6-1.2 2.3-2.2s1.4-2.2 2-3.5c1.3-2.6 2.3-5.7 3.1-8.9.4-1.6.7-3.3.9-5 .2-1.6.3-3.4.1-4.8-.1-.7-.3-1.3-.6-1.8-.3-.4-.6-.7-1-.9-.8-.3-1.7-.2-2.5.1-.8.4-1.7 1-2.5 1.9-.7.7-1.4 1.8-2.1 3z" fill="#f0b399" stroke-width="none" opacity="1" stroke="none"></path><path id="SvgjsPath15473" d="M147.6 89.6c-2.3 1.5-4.4 5.7-5.4 9.9v.1c0 .3.2.4.2.1.4-1.2.9-1.2 1.5 0 .1.8.1 1.5-.1 2.3-.2.7-.4 1.4-.7 2-.5 1.2-1.2 2.1-1.8 3.1-.2.3 0 .7.2.6 1.4-1.1 3.4-4.7 3-7.8-.2-1.5-1-2.3-1.6-1.7.8-2.1 1.7-4 2.8-5.5.6-.8 2-2.7 2.7-2.4 1.3.6.6 4.8.5 6.6 0 .3.2.4.3.1.7-3.3.8-9-1.6-7.4z" fill="#e09879" stroke-width="none" opacity="1" stroke="none"></path><path id="SvgjsPath15474" d="M142 108.6c2.4-.9 4.2-4.8 5.2-9 .6-2.5 1.8-8.5-.5-8.5-.2 0-.3.5-.1.6 2.2 1.1-.2 9.2-.9 11.1-1 2.6-2.2 4.4-3.8 5.4-.1.1 0 .5.1.4z" fill="#e09879" stroke-width="none" opacity="1" stroke="none"></path></g></g><g id="svga-group-faceshape-wrap" transform="matrix(1,0,0,1,0,0)"><g id="svga-group-faceshape-single"><path id="SvgjsPath15543" d="M143.2 82.7v-.3C141.9 52 122.5 35.3 100 35.3S58.1 51.9 56.8 82.4v.3c-.1 2-.3 17.2 1.6 30.7 1.4 9.8 2.7 19.6 12.2 25.4s13.6 7.2 16.1 10.4c2.5 3.1 10.2 4.5 13.2 4.5s10.7-1.2 13.2-4.5c2.5-3.1 6.6-4.7 16.1-10.4 9.6-5.8 10.8-15.5 12.2-25.4 2.1-13.5 1.8-28.7 1.8-30.7z" fill="#ffd0bc" stroke-width="none" opacity="1" stroke="none"></path><path id="SvgjsPath15544" d="M141.4 113.4c2.1-13.5 1.8-28.7 1.8-30.7v-.3C141.9 52 122.5 35.3 100 35.3S58.1 51.9 56.8 82.4v.3c-.1 2-.3 17.2 1.6 30.7 1.4 9.8 2.7 19.6 12.2 25.4s13.6 7.2 16.1 10.4c2.5 3.1 10.2 4.5 13.2 4.5s10.7-1.2 13.2-4.5c2.5-3.1 6.6-4.7 16.1-10.4 9.6-5.8 10.8-15.5 12.2-25.4zm-15.2 24.4-9 5c-1.5.9-3.1 1.8-4.7 3.2-.4.3-.8.7-1.1 1.1l-.3.3-.2.2-.2.2c-.4.3-.9.7-1.5 1-2.5 1.2-5.8 1.9-8.8 2.1-1.3.1-2.9-.1-4.5-.4-1.5-.3-3.1-.7-4.4-1.2-.7-.3-1.3-.6-1.9-.9-.3-.2-.5-.3-.7-.5s-.2-.2-.6-.7c-1.4-1.6-3.1-2.7-4.6-3.8-3.1-1.8-6.1-3.4-9-5.1-1.5-.8-3-1.7-4.2-2.5-1.3-.9-2.4-1.8-3.4-3-.5-.5-1-1.2-1.4-1.8-.4-.7-.9-1.3-1.2-2-.7-1.4-1.4-2.8-1.9-4.5-1-3.2-1.6-6.4-2.3-9.8-.6-3.3-1.1-6.8-1.5-10.2-.4-3.4-.7-6.8-.9-10.2s-.3-6.9-.3-10.3c0-1.7.1-3.4.3-5.2.1-.8.1-1.7.2-2.5l.4-2.5c.2-.8.2-1.7.4-2.5l.6-2.4c.2-.8.4-1.6.7-2.4l.9-2.4c1.2-3.2 2.8-6.2 4.6-9 .4-.7 1-1.3 1.5-2 .5-.6 1-1.3 1.6-1.9l1.7-1.8.9-.9 1-.8c5-4.4 11-7.4 17.3-8.8 6.3-1.4 13-1.6 19.3-.2l2.4.5c.8.2 1.5.5 2.3.7 1.6.4 3 1.1 4.5 1.7.8.3 1.4.7 2.2 1.1.7.4 1.5.7 2.1 1.2l2 1.4c.3.2.7.4 1 .7l.9.8c5.1 4.2 9.4 9.6 12.1 15.8 2.7 6.3 4.1 13.1 4.4 20 0 3.4 0 6.9-.2 10.3s-.4 6.9-.9 10.3c-.4 3.4-.9 6.8-1.6 10.2-.7 3.4-1.3 6.8-2.3 9.9-1 3.2-2.4 6.1-4.3 8.5-3.1 3.6-6.7 5.5-7.4 6z" fill="#d17f5b" stroke-width="none" opacity="1" stroke="none"></path></g></g><g id="svga-group-mouth-single-move" transform="matrix(1,0,0,1,0,0)"><g id="svga-group-mouth-single" transform="matrix(1,0,0,1,0,0)"><path id="SvgjsPath15635" d="M84.13 121.38s.02 2.5 1.11 4.36c0 0 4.32 4.53 9.9 8.4.19.14 8.24 1.16 10.36.41 0 0 8.36-5.19 10.19-9.12 0 0 .66-1.94.41-3.27 0 0-6.34 1.76-9.33 2.2-2.99.45-10.62 0-14.41-.57-3.8-.57-7.27-1.92-8.23-2.41z" fill="#000000" stroke-width="none" opacity="1" transform="translate(0 2)"></path><path id="SvgjsPath15636" d="M106.75 124.35c-2.99.45-10.62 0-14.41-.57-3.79-.57-7.26-1.92-8.22-2.41 0 0 .02 2.5 1.11 4.36l.19.19c1.51 1.07 3.66 2.31 6.2 2.99 5.05 1.36 15.17 1.9 22.14-1.92.58-.32 1.09-.63 1.57-.95.14-.21.25-.43.34-.64 0 0 .66-1.94.41-3.27.01.02-6.34 1.79-9.33 2.22z" fill="#ffffff" stroke-width="none" opacity="1" transform="translate(0 2)"></path><path id="SvgjsPath15637" d="M116.59 121.88c.16-.2 0-.49-.28-.48-1.71.52-2.76.73-4.08 1.09-1.18.32-9.11 1.01-11.89.99-9.17-.2-13.39-1.67-16.1-2.4-.22-.06-.44.18-.34.34-.21 1.26 1.06 4.43 1.06 4.45 2.41 3.32 6.15 6.2 9.6 8.45 2.45 1.59 9.23 1.33 10.89.76 2.36-.89 4.78-3.17 6.36-4.68 1.46-1.4 3.54-4 4.23-5.1.29-.44.46-.97.57-1.48.13-.52.3-1.38-.02-1.94zm-5.54 8.28c-2.42 2.24-5.67 3.61-5.82 3.62-1.9.17-3.8.26-5.72.19-1.36-.05-4.19-.4-4.31-.48-1.83-.93-3.63-2.15-5.26-3.53-1.59-1.34-3.52-2.92-4.56-4.42-.65-1.11-1.02-2.25-.86-3.72 4.7 2.47 10.68 3.54 15.92 3.58 2.85.02 5.63-.36 8.4-.92 2.13-.43 5.04-.89 7-2.08-.03.32-.02.66-.07.97-.09.56.23 2.27-4.72 6.79z" fill="#A06B59" stroke-width="none" opacity="1" transform="translate(0 2)" stroke="none"></path></g></g><g id="svga-group-eyes-left-move" transform="matrix(1,0,0,1,0,0)"><g id="svga-group-eyes-left" transform="matrix(1,0,0,1,0,0)"><g id="svga-group-eyesback-left"><path id="SvgjsPath15505" d="M90.3 95.8s-1.3-2.9-2.4-4.3c-1.2-1.5-3.5-3.2-6.2-2.9-2.7.3-6.3 1.3-8.5 2.8-2.2 1.5-3.5 2.5-3.5 2.5s.5 2.8 2.1 4.1c1.6 1.3 6.8 1.7 10.6.8 3.7-.9 7.9-3 7.9-3z" fill="#ffffff" stroke-width="none" opacity="1"></path></g><g id="svga-group-eyesiriswrapper-left" transform="matrix(1,0,0,1,0,0)"><g id="svga-group-eyesiriscontrol-left" transform="matrix(1,0,0,1,0,0)"><g id="svga-group-eyesiris-left" transform="matrix(1,0,0,1,0,0)"><path id="SvgjsPath15557" d="M77.2 88.9c2.5-1.6 5.9-.9 7.6 1.6 1.6 2.5.9 5.9-1.6 7.6-2.5 1.6-5.9.9-7.6-1.6s-.9-5.9 1.6-7.6z" fill="#681711" stroke-width="none" opacity="1"></path><path id="SvgjsPath15558" d="M84.8 90.5c.4.6.7 1.3.8 2 .2.7.2 1.5.1 2.2s-.4 1.5-.8 2.1c-.4.6-1 1.2-1.6 1.6-.7.4-1.4.6-2.1.7-.7.1-1.5.1-2.2-.1-1.4-.3-2.7-1.2-3.6-2.4-.4-.6-.8-1.3-.9-2s-.2-1.5 0-2.3c.2-.8.4-1.5.9-2.1.4-.6 1-1.2 1.6-1.6.7-.4 1.4-.7 2.1-.8.8-.1 1.5-.1 2.2.1 1.5.5 2.8 1.4 3.5 2.6zm0 .1-.3-.4c-.1-.1-.2-.3-.4-.4-.1-.1-.3-.2-.4-.3-.1-.1-.3-.2-.4-.3-.6-.4-1.3-.6-1.9-.7-1.4-.2-2.7.1-3.8.8-1.1.7-1.9 1.9-2.2 3.2-.3 1.3-.1 2.7.6 3.9.3.6.8 1.1 1.4 1.5.6.4 1.2.7 1.9.8.7.1 1.4.1 2.1-.1s1.3-.5 1.8-.8c.6-.4 1-.9 1.4-1.4.4-.6.7-1.2.9-1.8.2-.7.3-1.4.2-2.1-.3-.6-.5-1.3-.9-1.9z" fill="#490500" stroke-width="none" opacity="1"></path><path id="SvgjsPath15559" d="M80.2 91.6c1.1 0 1.9.9 1.9 1.9s-.9 1.9-1.9 1.9-1.9-.9-1.9-1.9.8-1.9 1.9-1.9z" fill="#000000" stroke-width="none" opacity="1"></path><path id="SvgjsPath15560" d="M80.2 95.7c-1.2 0-2.1-.9-2.1-2.1 0-1.2.9-2.1 2.1-2.1s2.1.9 2.1 2.1c0 1.1-.9 2.1-2.1 2.1zm0-3.9c-1 0-1.8.8-1.8 1.8s.8 1.8 1.8 1.8 1.8-.8 1.8-1.8-.8-1.8-1.8-1.8z" fill="#3a0400" stroke-width="none" opacity="1"></path><path id="SvgjsPath15561" d="M77.7 89.5c.4-.3 1.2.3 1.7 1.1.5.9.6 1.8.1 2-.4.3-1.2-.3-1.7-1.1-.5-.9-.5-1.8-.1-2zm3.7 5c.4 0 .7.3.7.7s-.3.7-.7.7-.7-.3-.7-.7.4-.7.7-.7z" fill="#ffffff" stroke-width="none" opacity="1"></path></g></g></g><g id="svga-group-eyesfront-left"><path id="SvgjsPath15513" d="M69.4 94.6c0 6.4 4.7 11.5 10.6 11.5s10.6-5.2 10.6-11.5S85.9 83.1 80 83.1s-10.6 5.1-10.6 11.5zm.2-.8s1.3-1 3.5-2.5 5.8-2.4 8.5-2.8 5 1.5 6.2 2.9 2.4 4.3 2.4 4.3-4.2 2.1-8 2.9c-3.8.9-9 .4-10.6-.8-1.5-1.2-2-4-2-4z" fill="#ffd0bc" stroke-width="none" opacity="1" stroke="none"></path><path id="SvgjsPath15514" d="M68.4 95.4c.3-.3.7-.6 1-.9.5 9 16.4 4.7 20.9 1.5.1.1.1.2.2.3.1.1.3 0 .3-.1-1.3-3.9-3.1-8.4-8-8.5-5.2-.1-10.9 4-15 6.8-.9.5-.1 1.5.6.9zm1.9-1.6c2.9-2.3 6.5-3.9 10-4.5 5-.7 7.6 2.6 9.7 6.5-3.3 1.1-6.3 2.4-9.8 2.6-3.3.2-9.5.2-9.9-4.4.1-.1 0-.2 0-.2z" fill="#302040" stroke-width="none" opacity="1" stroke="none"></path></g></g></g><g id="svga-group-eyes-right-move" transform="matrix(1,0,0,1,0,0)"><g id="svga-group-eyes-right" transform="matrix(1,0,0,1,0,0)"><g id="svga-group-eyesback-right"><path id="SvgjsPath15506" d="M109.7 95.8s1.3-2.9 2.4-4.3c1.2-1.5 3.5-3.2 6.2-2.9 2.7.3 6.3 1.3 8.5 2.8 2.2 1.5 3.5 2.5 3.5 2.5s-.5 2.8-2.1 4.1c-1.6 1.3-6.8 1.7-10.6.8-3.7-.9-7.9-3-7.9-3z" fill="#ffffff" stroke-width="none" opacity="1"></path></g><g id="svga-group-eyesiriswrapper-right" transform="matrix(1,0,0,1,0,0)"><g id="svga-group-eyesiriscontrol-right" transform="matrix(1,0,0,1,0,0)"><g id="svga-group-eyesiris-right" transform="matrix(1,0,0,1,0,0)"><path id="SvgjsPath15562" d="M117 89c2.5-1.6 5.9-.9 7.6 1.6 1.6 2.5.9 5.9-1.6 7.6-2.5 1.6-5.9.9-7.6-1.6-1.7-2.6-1-6 1.6-7.6z" fill="#681711" stroke-width="none" opacity="1"></path><path id="SvgjsPath15563" d="M124.6 90.5c.4.6.7 1.3.8 2 .2.7.2 1.5.1 2.2s-.4 1.5-.8 2.1c-.4.6-1 1.2-1.6 1.6-.7.4-1.4.6-2.1.7-.7.1-1.5.1-2.2-.1-1.4-.3-2.7-1.2-3.6-2.4-.4-.6-.8-1.3-.9-2s-.2-1.5 0-2.3c.2-.8.4-1.5.9-2.1.4-.6 1-1.2 1.6-1.6.7-.4 1.4-.7 2.1-.8.8-.1 1.5-.1 2.2.1 1.5.5 2.7 1.4 3.5 2.6zm-.1.1-.3-.4c-.1-.1-.2-.3-.4-.4-.1-.1-.3-.2-.4-.3-.1-.1-.3-.2-.4-.3-.6-.4-1.3-.6-1.9-.7-1.4-.2-2.7.1-3.8.8-1.1.7-1.9 1.9-2.2 3.2-.3 1.3-.1 2.7.6 3.9.3.6.8 1.1 1.4 1.5.6.4 1.2.7 1.9.8.7.1 1.4.1 2.1-.1s1.3-.5 1.8-.8c.6-.4 1-.9 1.4-1.4.4-.6.7-1.2.9-1.8.2-.7.3-1.4.2-2.1-.3-.6-.5-1.3-.9-1.9z" fill="#490500" stroke-width="none" opacity="1"></path><path id="SvgjsPath15564" d="M119.9 91.6c1.1 0 1.9.9 1.9 1.9s-.9 1.9-1.9 1.9-1.9-.9-1.9-1.9.9-1.9 1.9-1.9z" fill="#000000" stroke-width="none" opacity="1"></path><path id="SvgjsPath15565" d="M119.9 95.7c-1.2 0-2.1-.9-2.1-2.1 0-1.2.9-2.1 2.1-2.1s2.1.9 2.1 2.1c.1 1.1-.9 2.1-2.1 2.1zm0-3.9c-1 0-1.8.8-1.8 1.8s.8 1.8 1.8 1.8 1.8-.8 1.8-1.8-.8-1.8-1.8-1.8z" fill="#3a0400" stroke-width="none" opacity="1"></path><path id="SvgjsPath15566" d="M117.4 89.5c.4-.3 1.2.3 1.7 1.1.5.9.6 1.8.1 2s-1.2-.3-1.7-1.1c-.5-.9-.5-1.8-.1-2zm3.8 5c.4 0 .7.3.7.7s-.3.7-.7.7-.7-.3-.7-.7.3-.7.7-.7z" fill="#ffffff" stroke-width="none" opacity="1"></path></g></g></g><g id="svga-group-eyesfront-right"><path id="SvgjsPath15515" d="M120 83.1c-5.9 0-10.6 5.2-10.6 11.5s4.7 11.5 10.6 11.5 10.6-5.2 10.6-11.5-4.8-11.5-10.6-11.5zm8.3 14.8c-1.6 1.3-6.8 1.7-10.6.8-3.8-.9-8-2.9-8-2.9s1.3-2.9 2.4-4.3 3.5-3.2 6.2-2.9 6.3 1.3 8.5 2.8c2.2 1.5 3.5 2.5 3.5 2.5s-.4 2.7-2 4z" fill="#ffd0bc" stroke-width="none" opacity="1" stroke="none"></path><path id="SvgjsPath15518" d="M132.4 94.5c-4.1-2.8-9.8-7-15-6.8-4.9.1-6.6 4.6-8 8.5-.1.2.2.3.3.1.1-.1.1-.2.2-.3 4.5 3.2 20.3 7.5 20.9-1.5.3.3.7.6 1 .9.5.6 1.3-.4.6-.9zm-2.8-.5c-.4 4.6-6.6 4.5-9.9 4.4-3.5-.2-6.6-1.4-9.8-2.6 2.1-3.9 4.8-7.2 9.7-6.5 3.6.5 7.1 2.2 10 4.5.1 0 0 .1 0 .2z" fill="#302040" stroke-width="none" opacity="1" stroke="none"></path></g></g></g><g id="svga-group-facehighlight-single"></g><g id="svga-group-eyebrows-left-move" transform="matrix(1,0,0,1,0,0)"><g id="svga-group-eyebrows-left-rotate" transform="matrix(1,0,0,1,0,0)"><g id="svga-group-eyebrows-left" transform="matrix(1,0,0,1,0,0)"><path id="SvgjsPath15433" d="M66.1 85c.5-1.2 1.7-2.2 2.6-3.1.8-.9 1.7-1.9 2.6-2.7.4-.9 1.2-1.5 1.9-2.2l.1-.1c.1-.2.2-.3.3-.5.3-.5.7-1 1.2-1.4h.2l.1-.1c.1 0 .1-.1.1-.1.1-.1.2-.2.3-.2.1-.1.2-.1.3 0h.1c.3 0 .4.2.5.4h.2c.5.2.9.3 1.4.4.3.1.4.3.4.5l1.5.6c.4.2.8.3 1.3.6.6.3 1.2.5 1.8.8.2.1.3.2.3.4.1 0 .1.1.2.1s.1.1.1.2c.1.1.2.1.4.2 1.3.4 2.5.9 3.7 1.6.2.1.2.2.3.3.1.1.2.1.3.2.3.1.5.2.8.3 1 .3 1.9.7 2.8 1.3.1.1.1.2.1.3.2.1.3.2.5.4.3.2.1.8-.3.7-.1 0-.2-.1-.3-.1-.2.6-.5 1.2-.9 1.7v.1c0 .2 0 .4-.1.6 0 .4-.4.8-.8.6l-3.6-2.4c-1.3-.8-2.6-1.6-3.8-2.6-1.4-.8-2.8-1.6-4.1-2.5-.8-.4-1.5-.9-2.2-1.4-.2.2-.5.3-.7.4-.6.5-1.1.9-1.7 1.4-.8.6-1.6 1.3-2.6 1.6-.3.4-.7.8-1.1 1.2-.5.5-1.1 1.1-1.8 1.5-.2.2-.4.3-.6.4-.5.5-.9.9-1.5 1.2-.2-.1-.5-.4-.3-.6z" fill="#ddbc9b" stroke-width="none" opacity="1"></path><path id="SvgjsPath15434" d="M89.5 86.3c0-.1.1-.2.2-.3-.1-.1-.2-.2-.2-.3.2-.7.4-1.3.4-2 .1-.9-.2-1.6-.4-2.4-.1-.2.2-.4.4-.3 1.4.9.9 2.9.4 4.3.2-.2.3-.3.4-.5.4-.6.7-1.2 1-1.9.1-.3.6-.2.5.2-.1.7-.4 1.4-.8 2.1-.3.5-.9 1.4-1.5 1.6-.3 0-.5-.2-.4-.5zM76.2 74.7c2.3 1.6 4.2 3.9 6.3 5.7 1.1.9 2.3 1.8 3.5 2.6-.6-.9-1.2-1.7-1.9-2.4-1.2-1.3-2.6-2.3-3.8-3.5-.2-.2 0-.7.3-.5 3 1.4 5.1 4.4 6.6 7.3l1.2.9c-.3-.8-.7-1.7-1.1-2.5-.5-.9-1.2-1.7-1.7-2.6-.1-.2.1-.4.3-.3 1.9 1.1 3 3.8 3.2 6l.1.1c.1.1 0 .3-.1.3-.1.2-.3.2-.4 0 0-.1-.1-.2-.1-.2-2.4-1.2-4.6-2.9-6.7-4.5-2.1-1.7-4.8-3.6-6.2-5.9-.1-.4.2-.7.5-.5zm-4.1 3.2c.4-.5 1.2-.6 1.8-.6.7-.1 1.5-.1 2.1.2.2.1.2.4-.1.4-.7.1-1.3 0-2 0-.6.1-1.2.4-1.8.3 0 .1-.1-.1 0-.3zm-2.3 2.6c.7-.6 1.7-.9 2.5-1.2 1-.4 2.1-.8 3.2-1.2.2-.1.3.2.2.3-.9.5-1.9 1-2.9 1.4-.9.4-1.8.9-2.8 1.1-.3.1-.4-.3-.2-.4z" fill="#ecd5bd" stroke-width="none" opacity="1"></path><path id="SvgjsPath15435" d="M76 78.3c2.1 1.6 4.5 2.9 6.7 4.3 2.4 1.5 4.7 3 7.2 4.4v.1c-.1.2.2.4.4.3.1.1.2.1.3.1.8-.3 1.5-1.3 2-2 .6-.8 1.1-1.6 1.4-2.5.1-.3-.3-.4-.5-.2-.3.4-.6.8-.8 1.2.2-.8.4-1.6.3-2.3 0-.1-.1-.2-.2-.2-.1-.2-.3-.3-.4-.1-.2.2-.3.4-.5.6-5.1-2.9-10.7-5.2-16-7.8h-.4c-2.2 1.9-4.1 4-6 6.1-1.9 2.1-4 4.2-5.4 6.6v.1c-.1.1-.2.3-.4.4-.1.2 0 .4.2.3 2.2-1 4.1-2.8 6-4.3C72 81.6 74 80 76 78.3zm-.2-.4c-2.2 1.4-4.3 3.1-6.4 4.7-.7.6-1.6 1.1-2.3 1.7.9-1.1 1.8-2.3 2.8-3.4 1.9-2.1 3.8-4.1 5.6-6.2 5.3 2.5 10.5 5.4 15.9 7.6-.2.3-.5.5-.6.9-.1.2.1.3.3.3.3-.1.5-.2.7-.4-.2.5-.3.9-.5 1.3-.3.8-.8 1.4-1.3 2.1-2.3-1.6-4.6-3.1-7-4.6-2.2-1.4-4.4-3.1-6.8-4.3-.1-.1-.3 0-.4.3z" fill="#cea57c" stroke-width="none" opacity="1"></path></g></g></g><g id="svga-group-eyebrows-right-move" transform="matrix(1,0,0,1,0,0)"><g id="svga-group-eyebrows-right-rotate" transform="matrix(1,0,0,1,0,0)"><g id="svga-group-eyebrows-right" transform="matrix(1,0,0,1,0,0)"><path id="SvgjsPath15436" d="M134 85c-.5-1.2-1.7-2.1-2.6-3.1-.9-.9-1.7-1.9-2.6-2.7-.4-.8-1.2-1.5-1.9-2.2l-.1-.1c-.1-.2-.2-.3-.3-.5-.3-.5-.7-1-1.2-1.4-.1-.1-.1-.1-.2-.1l-.1-.1c-.1 0-.1-.1-.1-.1-.1-.1-.2-.2-.3-.2-.1-.1-.2-.1-.3 0h-.1c-.3 0-.4.2-.5.4h-.2c-.5.2-.9.3-1.4.4-.3.1-.4.3-.4.5l-1.5.6c-.4.2-.8.3-1.3.6-.6.3-1.2.5-1.8.8-.2.1-.3.2-.3.4-.1 0-.1.1-.2.1-.1.1-.1.1-.1.2-.1.1-.2.1-.4.2-1.3.4-2.5.9-3.7 1.6-.2.1-.2.2-.3.3-.1.1-.2.1-.3.2-.3.1-.5.2-.8.3-1 .3-1.9.7-2.8 1.3-.1.1-.1.2-.1.3-.2.1-.3.2-.5.4-.3.2-.1.8.3.7.1 0 .2-.1.3-.1.2.6.5 1.2.9 1.7v.1c0 .2 0 .4.1.6 0 .4.4.8.8.6l3.6-2.4c1.3-.8 2.6-1.6 3.7-2.6 1.4-.8 2.8-1.6 4.1-2.5.8-.4 1.5-.9 2.2-1.4.2.2.5.3.7.4.6.5 1.1.9 1.7 1.4.8.6 1.6 1.3 2.5 1.6.3.4.6.8 1.1 1.2.5.5 1.1 1.1 1.8 1.5.2.2.4.3.6.4.5.5.9.9 1.5 1.2.3 0 .6-.3.5-.5z" fill="#ddbc9b" stroke-width="none" opacity="1"></path><path id="SvgjsPath15437" d="M110.5 86.3c0-.1-.1-.2-.2-.3.1-.1.2-.2.2-.3-.2-.7-.4-1.3-.4-2-.1-.9.2-1.6.4-2.4.1-.2-.2-.4-.4-.3-1.3.9-.9 2.9-.4 4.3-.2-.2-.3-.3-.4-.5-.4-.6-.7-1.2-1-1.9-.1-.3-.6-.1-.5.2.1.7.4 1.4.8 2.1.3.5.9 1.4 1.5 1.6.3 0 .5-.2.4-.5zm13.3-11.6c-2.3 1.6-4.2 3.9-6.3 5.7-1.1.9-2.3 1.8-3.5 2.7.6-.9 1.2-1.7 1.9-2.4 1.2-1.3 2.6-2.3 3.8-3.5.2-.2 0-.7-.3-.5-3 1.4-5.1 4.4-6.6 7.3l-1.2.9c.3-.8.6-1.7 1.1-2.5.5-.9 1.2-1.7 1.7-2.6.1-.2-.1-.4-.3-.3-1.9 1.1-3 3.8-3.2 6l-.1.1c-.1.1 0 .3.1.3.1.2.3.2.4 0 0-.1.1-.2.1-.2 2.4-1.2 4.6-2.9 6.7-4.6 2.1-1.7 4.8-3.6 6.2-5.9.1-.4-.2-.7-.5-.5zm4.1 3.2c-.4-.5-1.2-.6-1.8-.6-.7-.1-1.5-.1-2.1.2-.2.1-.2.4.1.4.7.1 1.3 0 2 0 .6.1 1.2.4 1.8.3 0 0 .1-.1 0-.3zm2.3 2.6c-.7-.6-1.7-.9-2.5-1.2-1-.4-2.1-.8-3.2-1.2-.2-.1-.3.2-.2.3.9.5 1.9 1 2.9 1.4.9.4 1.8.9 2.8 1.1.3.1.4-.3.2-.4z" fill="#ecd5bd" stroke-width="none" opacity="1"></path><path id="SvgjsPath15438" d="M130.1 83.2c1.9 1.5 3.8 3.3 6 4.3.2.1.4-.2.2-.3-.1-.1-.2-.3-.4-.4v-.1c-1.4-2.4-3.5-4.5-5.4-6.6-1.9-2.1-3.8-4.2-6-6.1-.1-.1-.2-.1-.2 0h-.2c-5.3 2.6-10.8 4.9-16 7.8-.1-.2-.3-.4-.5-.6-.2-.1-.3 0-.4.1-.1 0-.2.1-.2.2-.1.7.1 1.5.3 2.3-.3-.4-.6-.8-.8-1.2-.2-.2-.6-.1-.5.2.3.9.8 1.7 1.4 2.5.5.7 1.2 1.7 2 2 .1 0 .2 0 .3-.1.2.1.5-.1.4-.3v-.1c2.4-1.4 4.8-2.9 7.2-4.4 2.2-1.4 4.6-2.7 6.7-4.3 1.9 1.9 4 3.5 6.1 5.1zm-6.4-5.6c-2.4 1.2-4.6 2.8-6.8 4.3-2.3 1.5-4.7 3-7 4.6-.4-.7-.9-1.3-1.3-2.1-.2-.4-.4-.9-.5-1.3.2.2.4.4.7.4.2 0 .3-.1.3-.3-.1-.3-.4-.6-.6-.9 5.4-2.2 10.7-5.1 15.9-7.6 1.8 2.1 3.8 4.1 5.6 6.2 1 1.1 1.9 2.2 2.8 3.4-.8-.6-1.6-1.1-2.4-1.7-2.1-1.6-4.2-3.2-6.4-4.6.1-.4-.1-.6-.3-.4z" fill="#cea57c" stroke-width="none" opacity="1"></path></g></g></g><g id="svga-group-beardwrap" transform="matrix(1,0,0,1,0,0)"><g id="svga-group-beard-single-move" transform="matrix(1,0,0,1,0,0)"><g id="svga-group-beard-single" transform="matrix(1,0,0,1,0,0)"><path id="SvgjsPath15409" d="M77.4 134.8c.1-.8-.2-1.3-.6-1.7.4-1.3 0-2.7-1.2-3.3-.1-.7-.4-1.3-.9-1.7 0-1.1-.8-2-1.9-2.4-.2-1.7-1.4-3-3-2.6 0-.2-.1-.3-.1-.5.3-.8.4-1.8 0-2.6-.3-.6-.8-1.1-1.4-1.3-.2-.1-.5-.2-.8-.2 0-.3-.1-.5-.2-.8.1-.2.3-.3.4-.6.3-.7.5-1.5.3-2.2-.2-.9-.8-1.5-1.5-1.8.2-.9-.2-1.9-1.2-2 0-.4-.2-.7-.4-1 .1-.2.1-.4.1-.6 0-.5-.1-1-.4-1.3.8-.8.7-2.4-.3-3-.3-.2-.5-.3-.8-.4.9-.8 1.1-2.2.2-2.9 0-.8-.4-1.6-1.5-2.2.3-.6.3-1.3 0-1.9.6-.9.6-2.1-.5-2.8-.2-.2-.4-.4-.5-.6-.1-.2-.3-.4-.5-.5.2-.2.3-.5.3-.8-.1-1.3-.2-1.6-.9-2.5 0 0 0-.1-.1-.1 0-.1-.1-.1-.2-.2-.2-1-.8-1.9-2-1.9-.7 0-1.4.4-1.6 1.1-.2.4-.1.9.1 1.3 0 .1 0 .2-.1.3-.7 0-1.3.3-1.9 1.1-1.3 1.5-.7 2.9.3 4.1-.3.2-.5.4-.7.7-.8 1.7-.7 3.2 0 4.2 0 .1-.1.2-.2.2-.4.2-.7.6-.8 1.1-.5 2.2.4 3.4 1.5 4-.3.3-.5.8-.6 1.4 0 .5.2 1 .5 1.3-1.3.5-1.6 2.3-.7 3.2 0 .1.1.1.2.1.2.3.4.6.7.8.2.1.3.2.5.2-.2.2-.3.4-.3.7-.1.7-.1 1.3 0 1.8-.7 1.5-.4 3.3 1 4.2-.2.3-.4.7-.5 1.1-.9.6-1.2 1.6-1 2.6v.2c0 .3 0 .6.1 1 .3 1.2.9 1.8 1.7 2.2-.1.4 0 .9.3 1.2l.1.1c0 .2 0 .5.1.7-.2.4-.3 1-.2 1.4.3.9 1.1 1.3 1.9 1.3.3 0 .6-.1.8-.3.1 0 .2.1.3.1-.4.9-.3 1.8.5 2.6.1.1.1.2.2.3.7.8 1.8 1.1 2.8.8.2.1.4.2.6.4 0 .1.1.2.1.3 0 .6.1 1.2.5 1.8.8 1.2 2.1 1.4 3.3 1 .4.4.9.7 1.4.8.3.6.9 1.2 1.8 1.3.8.1 1.8-.2 2.4-.9.2.1.4.1.6.1h.1c.5.1 1.1-.1 1.4-.5.3-.4.5-.9.5-1.4v-.1c0-.4-.1-.7-.3-.9v-.1c1.3-.6 2.1-1.4 2.2-2.5z" fill="#ddbc9b" stroke-width="none" opacity="1"></path><path id="SvgjsPath15410" d="M60.8 123.7c-.3.2-.7.4-1 .3-.3-.1-.4-.7-.3-1 .2-.4-.3-.9-.7-.5-.7.8-.5 2 .3 2.4.7.4 2-.1 2-1.1.1-.1-.1-.2-.3-.1zm3.1-5.6c.8 0 1.1-.8 1.1-1.6 0-1.1-.6-2-1.5-2.5-.2-.1-.4.2-.2.3.4.4.7 1 .8 1.6.1.3.3 1.6-.2 1.7-.2 0-.4.4-.1.5h-.4c-.2.1-.2.3 0 .4.6.4 1.3.7 1.2 1.6-.1.7-.8 1.2-1.4 1.1-.3-.1-.5.4-.2.6 1 .4 2.1-.3 2.3-1.4.1-1.1-.6-2.1-1.4-2.3zm-2.3-11.4c-.2.1-.3.4-.1.5.6.3 1.3.7 1.3 1.4 0 .8-.7 1.4-1.5 1.6-.4.1-.2.6.1.6 1.2.1 2.2-.9 2.2-2.2.1-1.1-.8-2.2-2-1.9zm1.4-4.9c-.3-.9-1.4-1.8-2.5-1.4-.2.1-.2.4 0 .5.7.3 1.4.4 1.7 1.2.3.7 0 1.5-.4 2.1-.2.2 0 .6.3.4.9-.7 1.2-1.7.9-2.8zm-5.4 3.1c-.3-.5-.6-.9-.4-1.5.1-.4-.5-.6-.6-.2-.3.8-.2 1.9.7 2.1.2 0 .4-.2.3-.4zm15 31.7c-.1-.1-.3-.1-.3.1-.1.4-.2.9-.5 1.1-.4.4-.9.3-1.2 0-.3-.3-.8.2-.5.5.5.6 1.3.6 2 .2.7-.4 1-1.3.5-1.9zm-.1-6.5c-.7-.9-2.1-1.5-3.2-.9-.2.1-.2.5.1.5 1.1.1 2.1.1 2.7 1.2.3.5.4 1.1.4 1.7-.1.8-.3 1-1 1.1-.4 0-.4.7 0 .7h1c.1 0 .2-.1.3-.2.6-1.4.5-3-.3-4.1zm-3.9-3.5c-.2.1-.2.3-.1.4.4.2.8.4.6 1.1-.1.4.4.5.5.1.3-.8-.2-1.8-1-1.6z" fill="#ecd5bd" stroke-width="none" opacity="1"></path><path id="SvgjsPath15411" d="M57.1 89c-.8.5-1.2 1.6-1.1 2.6-.6 0-1.1.3-1.6.7-.6.5-1.5 1.3-1.7 2.1-.1.8.5 1.6.9 2.2.4.4.8.8 1.3.9-.5.4-.5 1.2-.3 1.9-.8.3-1.5 1-1.6 1.9 0 .4 0 .8.2 1.1-.2.1-.4.2-.5.3-.5.6-.4 1.4-.2 2 .3.8 1.1 1.7 2 1.9-.8.4-.8 1.7-.2 2.6-1.2.6-1.6 2.4-1 3.6.3.6 1 1.3 1.7 1.6-.3.4-.3.9-.2 1.4l.3.6c-.9 1.1-.9 2.8-.1 3.8.2.2.5.4.7.6-.3.3-.5.7-.4 1.1v.1s-.1 0-.1.1c-1.1.9-1.3 2.5-.6 3.6.2.4.7.7 1.1.9-.2.5-.2 1.1.1 1.6.3.5 1 .9 1.6.4.1-.1.1-.4 0-.5-.2-.2-.5-.3-.7-.5-.2-.2-.3-.5-.2-.8.5.1 1-.1 1.3-.4.2-.2.1-.6-.2-.7-.8-.2-1.6.1-2.1-.7-.5-.7-.3-1.7.2-2.4.2.2.6.2.9 0 .1-.1.2-.3.1-.4-.2-.3-.7-.7-.3-1.1 1 .3 2 .2 2.5-.8.1-.2 0-.3-.2-.3-1 0-2 .4-2.8-.4-.8-.7-.6-1.9-.2-2.8.1 0 .2 0 .2-.1.2-.1.3-.3.2-.5-.2-.3-.5-.4-.6-.7-.1-.2-.1-.5 0-.8.6.1 1.2-.1 1.7-.8.2-.3-.1-.5-.4-.5-1 .2-2.1-.2-2.6-1-.6-.9-.2-2 .7-2.6.1 0 .2.1.2.1.3 0 .6-.2.5-.5-.1-.4-.5-.7-.7-1.1-.1-.2-.2-.9.2-1 .2-.1.3-.4.2-.6h.1c.3-.1.3-.5.1-.6-.5-.3-1.1-.5-1.6-1-.5-.4-1.2-1.6-.2-1.9.2.1.3.1.6.1.2 0 .4-.3.3-.4-.3-.4-.6-.8-.6-1.3 0-.6.4-1.1 1-1.3h.1c.6.5 1.5.8 2.2.3.2-.2.2-.4 0-.6-.5-.3-1.2-.2-1.6-.7-.3-.4-.2-.9.1-1.3.1-.1.1-.2 0-.3.1-.1.1-.4 0-.5-.7-.4-2.1-1.4-2-2.3.1-.9 1.4-1.8 2.3-2 .2.3.4.6.7.8.2.1.4 0 .4-.2 0-.9-.6-1.8-.1-2.7.5-1.1 1.8-1 2 .2.1.4.6.3.7 0 .4-2-1.5-2.8-2.7-2zm19.7 44.1c.6-1.2.2-3.8-1.8-3.1-.2.1-.2.4 0 .3.9-.2 1.4.7 1.4 1.5 0 .3 0 .7-.2 1-.1.1-.1.2-.2.2s-.1.1-.1.1l-.2.2c-.1.1 0 .2.1.3.2 0 .3 0 .5-.1.7.5.6 1.7-.1 2.4-.2.2-.3.3-.6.4-.1 0-.3 0-.3.1-.1.1-.2.1-.2.2-.1 0-.1-.1-.1-.1-.2-.1-.4.1-.4.3.1.5.4.9.2 1.4-.2.6-.7.9-1.2 1h-.1c-.5.1-.9.6-1.4.8-.7.3-1.4-.1-1.8-.6l-.1-.1c.1-.1.1-.2.1-.4 0-.1-.2-.2-.3-.2-.4 0-1.1.5-1.2-.2 0-.1 0-.1-.1-.2.1-.2.1-.4.1-.6 0-.3-.3-.4-.5-.2-.8.7-1.4.9-2.3.5-.7-.3-1.9-.9-1.8-1.9 0-.1 0-.2-.1-.2.2-.1.4-.3.6-.5.2.3.4.5.7.7.5.3 1.5.4 1.9-.4.1-.2 0-.4-.2-.5-.4-.1-.8.1-1.2-.1-.4-.1-.8-.4-.9-.9-.1-.4-.6-.2-.6.1v.1c-.9.5-1.8 1-2.8.5-1-.6-1.3-1.8-1.4-3 .2-.1.4-.3.5-.6.1-.3 0-.6-.3-.6-.7.1-1.3.6-2 .2-.6-.3-1-1.1-.9-1.8 0-.4-.6-.5-.7-.1-.3 1.1.1 2.3 1 2.8.4.3 1.1.4 1.7.3-.3 1.6.5 3.2 1.8 3.8.6.3 1.4.3 2.2.1-.5 2.2 2.9 3.7 4.5 2.9.2.5.5.8 1 .8.2 0 .4 0 .6-.1 0 .1 0 .1.1.2.5.9 1.4 1.4 2.4 1.2.6-.1 1.4-.5 1.6-1.1.8 0 1.5-.6 1.8-1.4.2-.4.2-1 0-1.4.9 0 1.8-1.3 1.9-2.1.2-.6-.1-1.6-.6-1.9zm-13.6-5.6c-.5.2-1.1.6-1.7.4-.6-.2-.8-.9-.9-1.6 0-.3-.4-.4-.6-.1-1.2 2.3 2.7 4 3.4 1.6.2-.2 0-.4-.2-.3zm2.6-1.7c-.5.4-1.1.8-1.6.3-.3-.3-.8.2-.5.5.6.7 2.4.7 2.5-.6-.1-.2-.3-.3-.4-.2zm4.5 7.8c-.5-.1-1.1 0-1.5-.5-.4-.5-.3-1.2.1-1.8.2-.3-.2-.6-.5-.4-.7.7-.9 1.9-.3 2.7.5.7 1.6 1.2 2.3.4.2-.1.1-.4-.1-.4zm2.9 1c-.6.4-1.2.8-1.8.4-.3-.2-.7.4-.4.6.7.6 2.3.5 2.5-.7.1-.3-.1-.5-.3-.3zm-12.4-15.8c.1-.1.1-.2 0-.2-.1-.1-.1-.2-.2-.3-.1-.2-.2-.5-.2-.8 0-.4.3-.9.7-1.1.2-.1.1-.4 0-.4-1.2-.3-1.7 1.2-1.4 2.2.1.5.4 1.1.8 1.3.4.2.8.1 1-.4.1-.5-.5-.6-.7-.3zm-.7-10.1c.1-.1.1-.3 0-.3-.5-.2-1.1.2-1.2.8-.2.6.1 1.2.6 1.4.4.2.8-.4.4-.6-.7-.5-.2-1 .2-1.3zm-.3-6c-.3-.2-.8-.4-.9-.8-.1-.4.2-.7.6-.8.2-.1.2-.3.1-.4-.6-.6-1.5.2-1.6.8-.2.9.6 1.6 1.3 1.9.6.2 1-.5.5-.7zm.1-9.3c-.2-.7-1.1-.6-1.5-.2-.7.7-.3 1.8 0 2.5.2.4.9 0 .7-.4-.2-.4-.5-1.1-.2-1.5.2-.2.5-.3.8-.2.1.2.3 0 .2-.2zm1.9 2.3c-.3-.7-1.1-1-1.6-.4-.2.2.1.6.3.4.7-.5.8.8.8 1.2 0 .5-.2 1.1-.2 1.6 0 .2.3.3.4.2.7-.8.7-2.2.3-3zm2.2 6.9c-.1-.1-.2 0-.3.1-.1.3-.1.7-.2 1-.2.4-.4.6-.8.8-.3.2-.2.6.2.6.6 0 1.1-.4 1.4-1 .2-.5.3-1.3-.3-1.5zm1.3 10.3c-.3.2-.1.6.2.6.4-.1.8 1.2 1 1.5.2.5.3 1 .4 1.5.1.2.4.2.5 0 .2-1.1-.5-4.5-2.1-3.6zm1.2 8.4c-.2-.2-.4 0-.4.3.1.4-.1 1-.6 1.1-.3.1-.3.6 0 .6.9-.1 1.6-1.3 1-2zm2.6-1.5c-.2-.3-.7.1-.5.4.8 1.2.7 2.5.4 3.9 0 .2.2.4.4.2 1.2-1.3.7-3.3-.3-4.5zm1.7 6c-.1-.2-.3-.3-.5-.4-.2-.2-.4.2-.2.4.2.1.3.2.6.3.1 0 .2-.2.1-.3zm3.7 1.2c-.5-.8-1.5-1.6-2.6-1.3-.3.1-.2.4.1.5.8 0 1.5.6 1.8 1.2.2.3.3.7.2 1.1-.1.3-.2.5-.2.8 0 .1.1.2.3.2 1.1-.2.7-1.9.4-2.5z" fill="#cea57c" stroke-width="none" opacity="1"></path><path id="SvgjsPath15412" d="M122.6 134.8c-.1-.8.2-1.3.6-1.7-.4-1.3 0-2.7 1.2-3.3.1-.7.4-1.3.9-1.7 0-1.1.8-2 1.9-2.4.2-1.7 1.4-3 3-2.6 0-.2.1-.3.1-.5-.3-.8-.4-1.8 0-2.6.3-.6.8-1.1 1.4-1.3.2-.1.5-.2.8-.2 0-.3.1-.5.1-.8-.1-.2-.3-.3-.4-.6-.3-.7-.5-1.5-.3-2.2.2-.9.8-1.5 1.5-1.8-.2-.9.2-1.9 1.1-2 0-.4.1-.7.4-1-.1-.2-.1-.4-.1-.6 0-.5.1-1 .4-1.3-.8-.8-.6-2.4.3-3 .3-.2.6-.3.8-.4-.9-.8-1.1-2.2-.2-2.9 0-.8.4-1.6 1.4-2.2-.3-.6-.4-1.3.1-1.9-.6-.9-.6-2.1.5-2.8l.6-.6c.1-.2.3-.4.5-.5-.2-.2-.3-.5-.3-.8.1-1.3.2-1.6.9-2.5 0 0 0-.1.1-.1l.2-.2c.2-1 .8-1.9 2-1.9.7 0 1.4.4 1.6 1.1.2.4.1.9-.1 1.3 0 .1 0 .2.1.3.7 0 1.4.3 1.9 1.1 1.3 1.5.7 2.9-.4 4.1.3.2.5.4.7.7.8 1.7.7 3.2 0 4.2.1.1.1.2.1.2.4.2.7.6.8 1.1.5 2.2-.4 3.4-1.5 4 .3.3.6.8.6 1.4 0 .5-.2 1-.5 1.3 1.3.5 1.6 2.3.7 3.2l-.1.1c-.2.3-.4.6-.7.8-.2.1-.4.2-.5.2.1.2.3.4.3.7.1.7.1 1.3 0 1.8.7 1.5.4 3.3-1 4.2.2.3.4.7.5 1.1.9.6 1.2 1.6 1 2.6 0 .1 0 .1-.1.2 0 .3 0 .6-.1 1-.3 1.2-.9 1.8-1.7 2.2.1.4 0 .9-.3 1.2l-.1.1c0 .2 0 .5-.1.7.2.4.3 1 .2 1.4-.3.9-1.1 1.3-1.9 1.3-.3 0-.6-.1-.8-.3-.1 0-.2.1-.3.1.4.9.3 1.8-.5 2.6-.1.1-.1.2-.2.3-.7.8-1.8 1.1-2.8.8-.2.1-.4.2-.6.4 0 .1-.1.2-.1.3.1.6-.1 1.2-.5 1.8-.9 1.2-2.1 1.4-3.3 1-.4.4-.9.7-1.4.8-.3.6-.9 1.2-1.8 1.3-.9.1-1.8-.2-2.4-.9-.2.1-.4.1-.6.1h-.1c-.5.1-1.1-.1-1.4-.5-.3-.4-.5-.9-.5-1.4v-.1c0-.4.1-.7.3-.9v-.1c-1-.6-1.8-1.4-1.9-2.5z" fill="#ddbc9b" stroke-width="none" opacity="1"></path><path id="SvgjsPath15413" d="M138.8 123.9c0 1 1.3 1.5 2 1.1.9-.5 1-1.6.3-2.4-.3-.4-.9.1-.6.5.2.3.1.8-.3 1s-.7-.1-1-.3c-.2-.2-.4-.1-.4.1zm-4-3.7c.2 1.1 1.4 1.8 2.3 1.4.3-.1.1-.7-.2-.6-.6.2-1.4-.3-1.4-1.1-.1-.9.7-1.2 1.2-1.6.1-.1.1-.3 0-.4-.1-.1-.3-.1-.4 0 .2-.1.1-.5-.1-.5-.6-.1-.3-1.3-.2-1.7.1-.6.4-1.1.8-1.6.1-.2-.1-.4-.2-.3-.9.5-1.4 1.4-1.4 2.5 0 .7.3 1.6 1.1 1.6-1 .4-1.7 1.4-1.5 2.3zm1.5-11.6c0 1.2 1.1 2.3 2.2 2.2.3 0 .4-.6.1-.6-.7-.1-1.5-.8-1.4-1.6 0-.8.7-1.2 1.3-1.4.2-.1.1-.4-.1-.5-1.2-.3-2.1.8-2.1 1.9zm1.6-4c.2.2.5-.2.3-.4-.4-.6-.6-1.4-.4-2.1.3-.8 1-.9 1.7-1.2.2-.1.2-.4 0-.5-1-.4-2.1.5-2.4 1.4-.4 1.1-.1 2.1.8 2.8zm4.8.7c.9-.2 1-1.3.7-2.1-.1-.3-.7-.1-.6.2.2.6-.1 1-.4 1.5-.1.2.1.4.3.4zm-14.8 33.3c.6.5 1.5.4 2-.2.3-.3-.2-.8-.5-.5-.3.3-.9.4-1.2 0-.3-.3-.4-.8-.5-1.1 0-.2-.2-.2-.3-.1-.5.5-.2 1.4.5 1.9zm-.6-4.5c.1.1.2.2.3.2h1c.4 0 .4-.6 0-.7-.8-.1-.9-.3-1-1.1-.1-.6.1-1.2.4-1.7.6-1 1.7-1.1 2.7-1.2.2 0 .3-.4.1-.5-1.1-.6-2.5 0-3.2.9-.9 1.2-1 2.8-.3 4.1zm3-5.9c.1.4.6.2.5-.1-.2-.6.2-.8.6-1.1.1-.1.1-.4-.1-.4-.7-.2-1.2.8-1 1.6z" fill="#ecd5bd" stroke-width="none" opacity="1"></path><path id="SvgjsPath15414" d="M140.1 90.6c.1.3.6.4.7 0 .2-1.2 1.5-1.3 2-.2.5.9-.1 1.8-.1 2.7 0 .2.2.3.4.2.3-.2.6-.5.7-.8.9.2 2.2 1.1 2.3 2s-1.3 1.9-2 2.3c-.2.1-.2.4-.1.5v.3c.3.4.5.9.1 1.3-.4.5-1.1.4-1.6.7-.2.2-.2.4 0 .6.6.5 1.6.2 2.2-.3h.1c.6.2 1 .7 1 1.3 0 .5-.4.9-.6 1.3-.1.2.1.4.3.4.2 0 .4-.1.6-.1.9.3.2 1.5-.2 1.9-.5.4-1.1.6-1.6 1-.2.2-.2.5.1.6h.1c-.1.2-.1.4.2.6.4.2.3.8.1 1-.2.4-.6.7-.7 1.1-.1.3.2.6.5.5.1 0 .2-.1.2-.1.9.6 1.2 1.7.7 2.6-.6.9-1.6 1.3-2.6 1-.2-.1-.5.2-.4.5.4.7 1.1.8 1.7.8.1.3 0 .6-.1.8-.1.3-.4.5-.6.7-.1.2 0 .4.2.5.1 0 .2.1.2.1.5.9.6 2.1-.2 2.8-.8.7-1.8.3-2.8.4-.2 0-.3.2-.2.3.5 1 1.5 1.1 2.5.8.4.4-.1.8-.3 1.1-.1.1 0 .3.1.4.3.2.6.2.9 0 .5.7.6 1.7.1 2.4-.6.8-1.4.5-2.1.7-.3.1-.4.4-.2.7.4.4.9.5 1.3.4.1.3-.1.6-.2.8-.2.2-.5.3-.7.5-.1.1-.1.3 0 .5.5.5 1.2.1 1.6-.4.3-.4.3-1 .1-1.6.5-.2.9-.6 1.1-.9.7-1.1.5-2.7-.6-3.6l-.1-.1v-.1c.1-.4-.1-.8-.4-1.1.3-.2.6-.4.7-.6.8-1.1.8-2.8-.1-3.8.2-.2.3-.4.4-.6.1-.5.1-1-.2-1.4.8-.3 1.4-1 1.7-1.6.6-1.2.2-3-1-3.6.6-.8.6-2.1-.2-2.6.9-.2 1.7-1.1 2-1.9.2-.6.3-1.4-.1-2-.1-.2-.3-.3-.5-.3.1-.3.2-.7.2-1.1-.1-.9-.7-1.7-1.6-1.9.2-.6.2-1.4-.3-1.9.5-.1.9-.5 1.3-.9.5-.6 1.1-1.4.9-2.2-.1-.8-1-1.6-1.6-2.1-.5-.4-1-.7-1.6-.7.1-1-.3-2.1-1.1-2.6-1-.4-2.9.4-2.6 2zm-16.9 42.5c-.6-1.2-.2-3.8 1.8-3.1.2.1.2.4 0 .3-.9-.2-1.4.7-1.4 1.5 0 .3 0 .7.2 1 .1.1.1.2.2.2s.1.1.1.1l.2.2c.1.1 0 .2-.1.3-.2 0-.3 0-.5-.1-.7.5-.6 1.7.1 2.4.2.2.3.3.6.4.1 0 .3 0 .3.1.1.1.2.1.2.2.1 0 .1-.1.1-.1.2-.1.4.1.4.3-.1.5-.4.9-.2 1.4.2.6.7.9 1.2 1h.1c.5.1.9.6 1.4.8.7.3 1.4-.1 1.8-.6l.1-.1c-.1-.1-.1-.2-.1-.4 0-.1.2-.2.3-.2.4 0 1.1.5 1.2-.2 0-.1 0-.1.1-.2-.1-.2-.1-.4-.1-.6 0-.3.3-.4.5-.2.8.7 1.4.9 2.3.5.7-.3 1.9-.9 1.8-1.9 0-.1 0-.2.1-.2-.2-.1-.4-.3-.6-.5-.2.3-.4.5-.7.7-.5.3-1.5.4-1.9-.4-.1-.2 0-.4.2-.5.4-.1.8.1 1.2-.1.4-.1.8-.4.9-.9.1-.4.6-.2.6.1v.1c.9.5 1.8 1 2.8.5 1-.6 1.3-1.8 1.4-3-.2-.1-.4-.3-.5-.6-.1-.3 0-.6.3-.6.7.1 1.3.6 2 .2.6-.3.9-1.1.9-1.8 0-.4.6-.5.7-.1.3 1.1-.1 2.3-1 2.8-.4.3-1.1.4-1.7.3.3 1.6-.5 3.2-1.9 3.8-.6.3-1.4.3-2.2.1.5 2.2-2.9 3.7-4.5 2.9-.2.5-.5.8-1 .8-.2 0-.4 0-.6-.1 0 .1 0 .1-.1.2-.5.9-1.4 1.4-2.4 1.2-.6-.1-1.4-.5-1.6-1.1-.8 0-1.5-.6-1.8-1.4-.2-.4-.2-1 0-1.4-.9 0-1.8-1.3-1.9-2.1-.1-.6.2-1.6.7-1.9zm13.3-5.3c.8 2.4 4.6.7 3.4-1.6-.2-.3-.6-.2-.6.1 0 .6-.2 1.4-.9 1.6-.5.2-1.1-.1-1.7-.4-.1-.1-.3.1-.2.3zm-2.6-1.8c.1 1.3 1.8 1.4 2.4.6.3-.3-.2-.8-.5-.5-.5.5-1.1.1-1.6-.3-.1-.1-.3 0-.3.2zm-4.3 8c.7.8 1.9.2 2.3-.4.5-.8.3-2-.3-2.7-.2-.2-.7 0-.5.4.4.6.5 1.3.1 1.8s-.9.4-1.5.5c-.2 0-.3.3-.1.4zm-3.1.8c.3 1.2 1.8 1.3 2.5.7.3-.2-.1-.8-.4-.6-.7.4-1.2 0-1.8-.4-.2-.1-.4.1-.3.3zm12.1-15.7c.2.5.6.6 1 .4.4-.2.7-.8.8-1.3.2-.9-.2-2.5-1.4-2.2-.2.1-.2.3-.1.4.4.2.7.7.7 1.1 0 .3-.1.5-.2.8-.1.1-.1.2-.2.3-.1.1-.1.1 0 .2-.2-.3-.8-.2-.6.3zm1.5-9.2c-.4.2 0 .8.4.6.5-.3.8-.8.6-1.4-.1-.5-.7-1-1.2-.8-.1.1-.2.2 0 .3.4.4.9.9.2 1.3zm.5-6.5c.7-.3 1.5-1 1.3-1.9-.1-.7-1-1.5-1.6-.8-.1.1-.1.4.1.4.4.1.7.4.6.8-.1.4-.5.7-.9.8-.4.2 0 .9.5.7zm-.2-9.7c.3-.1.6-.1.8.2.3.4-.1 1.1-.2 1.5-.2.4.4.8.6.4.4-.8.8-1.8 0-2.5-.4-.4-1.3-.5-1.6.2 0 .1.2.3.4.2zm-2 4.9c.1.2.4 0 .4-.2 0-.5-.2-1.1-.2-1.6 0-.4.1-1.7.8-1.2.2.2.5-.2.3-.4-.6-.6-1.4-.2-1.6.4-.3.9-.3 2.3.3 3zm-2.7 5.5c.3.6.7 1 1.4 1 .3 0 .5-.5.2-.6-.3-.2-.6-.4-.8-.8-.1-.3-.1-.7-.2-1-.1-.1-.2-.2-.3-.1-.6.2-.5 1-.3 1.5zm-3 12.4c.1.2.4.2.5 0 .1-.5.2-1 .4-1.5.1-.3.5-1.6 1-1.5.3.1.6-.4.2-.6-1.7-.9-2.4 2.5-2.1 3.6zm1.8 6.7c.4 0 .3-.5 0-.6-.4-.1-.6-.7-.6-1.1 0-.2-.2-.4-.4-.3-.6.8.1 2 1 2zm-4 1.2c.2.2.5 0 .4-.2-.3-1.4-.4-2.7.4-3.9.2-.3-.3-.7-.5-.4-.9 1.1-1.4 3.1-.3 4.5zm-1.2 1.7.6-.3c.2-.2 0-.6-.2-.4-.2.1-.3.2-.5.4-.1.1 0 .3.1.3zm-3.8.9c.5-.8 1.5-1.6 2.6-1.3.3.1.2.4-.1.5-.8 0-1.5.6-1.8 1.2-.2.3-.3.7-.2 1.1.1.3.2.5.2.8 0 .1-.1.2-.3.2-1.1-.2-.7-1.9-.4-2.5z" fill="#cea57c" stroke-width="none" opacity="1"></path></g></g></g><g id="svga-group-mustache-single-move" transform="matrix(1,0,0,1,0,0)"><g id="svga-group-mustache-single" transform="matrix(1,0,0,1,0,0)"></g></g><g id="svga-group-nose-single-move" transform="matrix(1,0,0,1,0,0)"><g id="svga-group-nose-single" transform="matrix(1,0,0,1,0,0)"><path id="SvgjsPath15611" d="M95.9 99.88c-.64 1.86-1.88 8.93-2.62 11.27s-1.42 5.01-.63 6.49c.8 1.48 1.99 1.54 2.56 1.25.57-.28 1.31-1.25 1.31-1.25s1.31 1.31 2.45 1.59c1.14.28 2.16.06 2.85-.46.68-.51 1.54-1.25 1.54-1.25s1.42 1.37 2.16 1.65c.74.28 1.99-.11 2.5-1.08.51-.97.23-3.64-.34-5.52s-4.1-11.1-4.5-12.35c-.4-1.25-2.16-2.85-3.59-2.79-1.42.06-3.01.46-3.69 2.45z" fill="#ffd0bc" stroke-width="none" opacity="1" transform="translate(0 1)" stroke="none"></path><path id="SvgjsPath15612" d="M95.47 88.46c2.38 3.46 1.17 7.21.28 10.97-.88 3.76-1.77 7.51-2.63 11.27-.5 2.15-1.98 5.52-.47 7.58.86 1.17 2.68 1.53 3.4.06.1-.2-.14-.41-.31-.24-1.51 1.48-3.16-.5-3.12-2.11.02-.84.29-1.76.48-2.59.34-1.46.67-2.91 1.01-4.36.65-2.79 1.27-5.58 1.91-8.37.83-3.66 2.99-9.29-.37-12.34-.1-.08-.26.02-.18.13z" fill="#d17f5b" stroke-width="none" opacity="1" transform="translate(0 1)" stroke="none"></path><path id="SvgjsPath15613" d="M103.44 86.32c-2.8 4.08-1.72 9.96-.31 14.32.92 2.84 2.13 5.56 3.13 8.37.48 1.34.91 2.7 1.23 4.1.2.85.41 1.75.46 2.63.07.58.04 1.15-.08 1.72-.37 1.5-1.38 1.82-3.05.95-.16-.2-.43.05-.33.26.82 1.66 2.92 1.17 3.69-.29 1.36-2.57-.46-6.71-1.32-9.16-1.3-3.7-3.01-7.27-3.95-11.1-1.02-4.13-.69-7.76.66-11.74.03-.09-.08-.13-.13-.06z" fill="#d17f5b" stroke-width="none" opacity="1" transform="translate(0 1)" stroke="none"></path><path id="SvgjsPath15614" d="M94.63 116.97c1.92.74 3.13 2.87 5.36 2.92 2.03.05 2.81-1.91 4.47-2.69.16-.08.13-.37-.05-.4-.61-.09-.97.03-1.48.41-1.24.92-1.74 2.14-3.66 1.72-1.71-.38-2.8-2.58-4.64-2.31-.19.03-.14.29 0 .35z" fill="#d17f5b" stroke-width="none" opacity="1" transform="translate(0 1)" stroke="none"></path><path id="SvgjsPath15615" d="M104.19 113.11c-.07-.66-.34-1.82-1.21-1.78-.9.04-.97 1.24-1.09 1.9-.16.89-.39 1.93-1.32 2.33-.71.31-1.84.27-2.39-.33-.33-.36-.88.02-.78.46.39 1.74 2.14 2.52 3.82 2.04 1.87-.54 3.16-2.71 2.97-4.62z" fill="#ffd9c9" stroke-width="none" opacity="1" transform="translate(0 1)" stroke="none"></path><path id="SvgjsPath15616" d="M100.95 99.77c-.2-2.31-.12-4.66-.5-6.94-.05-.29-.55-.3-.6 0-.76 4.88.44 10.49 1.57 15.24.09.38.64.21.58-.16-.45-2.69-.81-5.41-1.05-8.14z" fill="#ffd9c9" stroke-width="none" opacity="1" transform="translate(0 1)" stroke="none"></path></g></g><g id="svga-group-hair-front" transform="matrix(1,0,0,1,0,0)"></g><g id="svga-group-glasses-single-move" transform="matrix(1,0,0,1,0,0)"><g id="svga-group-glasses-single" transform="matrix(1,0,0,1,0,0)"></g></g></g></g></g><rect id="svga-credit-rect" width="200" height="15" x="0" y="185" fill="#ecf0f1" opacity="0.5" style="display: none;"></rect><text id="svga-credit-text" font-family="Avenir Next, Roboto, Helvetica, Arial, sans-serif" font-size="10px" text-anchor="start" font-weight="400" size="10px" anchor="start" weight="400" fill="#333333" x="33.40447998046875" y="182.60824704170227" style="display: none;"><tspan id="SvgjsTspan14948" dy="13" x="33.40447998046875">Created on AvatarMaker.com</tspan></text></g></svg>