<svg xmlns="http://www.w3.org/2000/svg" version="1.1" width="600px" height="600px" viewBox="0 0 200 200" style="overflow:hidden!important;"><defs id="SvgjsDefs23884"></defs><g id="svga-group-wrapper"><g id="svga-group-backs-single"><path id="SvgjsPath24568" d="M0 0h200v200H0V0z" fill="#036564" stroke-width="none" opacity="1"></path></g><g id="svga-group-humanwrap-move" transform="matrix(1,0,0,1,0,0)"><g id="svga-group-humanwrap" transform="matrix(1,0,0,1,0,0)"><g id="svga-group-hair-back-move" transform="matrix(1,0,0,1,0,0)"><g id="svga-group-hair-back" transform="matrix(1,0,0,1,0,0)"></g></g><g id="svga-group-humanbody-back"><path id="SvgjsPath24285" d="M166.5 181.1c-10.9-6.6-27.6-8.4-35-12.1-4.9-2.5-9.1-4.7-8.9-17.8s1.9-42.4 1.9-42.4H75.4s1.6 29.4 1.9 42.4-4.2 15.6-8.9 17.8c-7.4 3.5-24.1 5.4-35 12.1-10.8 6.6-10 18.9-10 18.9v19.7h153.3V200c-.1 0 .7-12.3-10.2-18.9z" fill="#b2713b" stroke-width="none" opacity="1" stroke="none"></path></g><g id="svga-group-chinshadow-single"><path id="SvgjsPath24518" d="M124.5 108.9H75.4c.1 1.8 1.6 29.7 1.9 42.3.1 2.2 0 4.2-.2 5.8 1.2.2 2.3.4 3.4.6C88 159 88 165 99.9 165s12.1-6 19.5-7.4c1.1-.2 2.3-.4 3.5-.6-.2-1.7-.3-3.6-.3-5.8.2-12.7 1.8-40.5 1.9-42.3z" fill="#934d13" stroke-width="none" opacity="0.65" stroke="none"></path></g><g id="svga-group-humanbody-front"><path id="SvgjsPath24286" d="M78.7 156.8c.5 4.8 1.7 9.4 3.1 13.9.8 2.3 1.6 4.6 2.6 6.9.8 2 1.7 4.2 3.1 5.9.3.4 1 0 .9-.5-.5-2.2-1.6-4.3-2.4-6.4-.9-2.2-1.7-4.4-2.5-6.6-1.5-4.4-2.8-8.9-4.1-13.3-.2-.4-.8-.3-.7.1zm41.3-1c-1.3 8.2-3.9 16.1-5.4 24.2-.1.4.4.5.6.2 3.1-7.7 4.1-16.1 5.1-24.3-.1-.2-.3-.2-.3-.1zm-25.8 11.9c-.9 3.6 1.9 8.6 6.2 7.6.5-.1.4-.8 0-1-1.4-.5-2.9-.9-3.9-2.1-1.1-1.2-1.5-2.9-1.4-4.5 0-.4-.8-.5-.9 0z" fill="#934d13" stroke-width="none" opacity="1" stroke="none"></path><path id="SvgjsPath24287" d="M177.3 219.7c-.1-6.6-.3-13.1-.3-19.7l-.3-.3c.1 0 .1 0 .2.1s.1.2.1.1v-1.4c0-.5-.1-.9-.1-1.4-.1-.9-.3-1.9-.5-2.8-.5-1.8-1.1-3.6-2-5.3-1.7-3.4-4.4-6.2-7.7-8.1-3.6-2.2-7.6-3.8-11.6-5.1-4-1.3-8.1-2.4-12.1-3.5-4-1.2-8.1-2.2-11.8-4.2-1.9-1-3.6-2.1-4.8-3.6-1.2-1.6-1.9-3.5-2.3-5.5-.8-4-.4-8.2-.3-12.4l.7-12.6 1.5-25.2.1-1.4h-1.4c-8.2 0-16.4 0-24.6.1l-24.6.3h-.9l.1.9c.8 11.9 1.6 23.8 2.1 35.7.1 3 .3 6 .2 8.9-.1 2.9-.4 5.9-1.6 8.6-.6 1.3-1.4 2.5-2.4 3.5s-2.3 1.8-3.6 2.4c-2.6 1.3-5.4 2.2-8.3 3-5.8 1.5-11.6 2.8-17.3 4.7-2.8.9-5.7 2-8.4 3.4-1.3.7-2.7 1.4-4 2.4-1.3.9-2.4 1.9-3.5 3.1-2.1 2.3-3.6 5.2-4.5 8.1-.5 1.5-.8 3-1 4.6-.1.8-.1 1.6-.1 2.4v2.3l-.2 17.9v1.3h1.4l38.3.2c12.8.1 25.5.1 38.3 0 12.8-.1 25.6-.1 38.3-.3 12.8-.2 25.6-.5 38.3-.7h.6v-.5zm-77.2-1.6H61.8l-37 .2-.1-16.6v-2.2c0-.7 0-1.4.1-2.1.1-1.4.4-2.8.8-4.2.8-2.7 2.1-5.3 3.9-7.5.9-1.1 2-2.1 3.1-2.9 1.1-.9 2.4-1.6 3.7-2.3 2.6-1.4 5.3-2.5 8.1-3.5 5.6-2 11.4-3.4 17.1-5.1 2.9-.8 5.8-1.7 8.5-3.1 1.3-.7 2.7-1.5 3.8-2.6 1.1-1.1 2-2.4 2.6-3.9 1.2-2.9 1.5-5.9 1.6-8.9 0-3-.1-6-.2-9l-1.3-34.8 23.5.4c7.7.1 15.4.1 23.1.1-.4 7.9-.8 15.9-1.1 23.8-.2 4.2-.2 8.4-.3 12.6 0 4.2-.2 8.5.8 12.8.5 2.1 1.3 4.2 2.8 6 1.4 1.7 3.4 2.9 5.3 3.8 3.9 1.9 8 2.8 12.1 3.8s8.2 2 12.2 3.3c4 1.3 7.9 2.8 11.5 5 3.2 1.9 5.8 4.7 7.5 8 .9 1.6 1.5 3.4 1.9 5.2.2.9.4 1.8.4 2.7.1.5.1.9.1 1.4V200l-.3 19c-12.6-.2-25.1-.5-37.7-.7-12.7-.1-25.5-.1-38.2-.2z" fill="#843e04" stroke-width="none" opacity="1" stroke="none"></path></g><g id="svga-group-clothes-single"><path id="SvgjsPath24421" d="M179.3 220.1c0-17.5-1.6-26.7-1.6-26.7-3-14-21.9-18.2-30.7-20.1-15.2-3-20.1-7.2-20.1-7.2s-6.4 16-27.5 16-26.8-16.6-26.8-16.6-5.3 4.1-21.2 7.1c-8.7 1.9-26.3 6.9-29.3 20.9 0 0-1.6 9.2-1.6 26.7h158.8z" fill="#591956" stroke-width="none" opacity="1"></path><path id="SvgjsPath24422" d="M179.6 209.2c-.1-3.6-.2-7.3-.5-10.9l-.3-2.7c-.1-.9-.2-1.8-.4-2.8-.4-1.9-1.1-3.6-2.1-5.3-1.9-3.3-4.9-5.9-8-7.9-3.2-2-6.6-3.5-10.1-4.7-3.5-1.2-7.1-2.1-10.6-2.9-3.5-.7-7-1.6-10.4-2.7-1.7-.6-3.3-1.2-4.9-1.9-.8-.4-1.6-.7-2.4-1.1-.4-.2-.8-.4-1.1-.6-.3-.2-.7-.5-1-.6-.1-.1-.2-.1-.3-.2-.7-.3-1.5 0-1.8.7-.5 1.1-1.2 2.3-1.9 3.4-.8 1.1-1.6 2.1-2.5 3.1-1.8 1.9-3.9 3.6-6.2 5-4.6 2.7-10.1 4-15.5 4.1-5.4.1-11-1-15.7-3.8-4.7-2.8-8.6-7.1-10.7-12.1 0 0 0-.1-.1-.1-.2-.2-.5-.3-.7-.1-1.4 1-3.1 1.8-4.7 2.4-1.7.7-3.4 1.3-5.1 1.8-3.5 1.1-7 1.9-10.5 2.6-7.1 1.5-14.3 3.5-20.6 7.6-3.1 2-6 4.6-7.9 7.9-1 1.6-1.7 3.4-2.2 5.3-.1.2-.1.5-.2.7l-.1.7-.2 1.4-.3 2.7c-.8 7.3-1.1 14.6-1.2 21.9 0 .7.6 1.4 1.3 1.4l40 .2c13.3 0 26.7-.1 39.9-.2l39.8-.3 36.9-.6 2.2-.4c.1-3.8.1-7.3.1-11zm-20.5 10.4-20-.3-39.7-.5c-13.2-.1-26.3-.2-39.4-.2l-38 .2c0-6.8.1-13.6.7-20.3l.3-2.7.1-1.3.1-.7c0-.2.1-.4.1-.6.4-1.6 1-3.3 1.8-4.8 1.7-3 4.2-5.6 7.1-7.6 2.9-2 6.2-3.6 9.5-4.9s6.8-2.3 10.4-3c3.6-.7 7.1-1.6 10.6-2.7 1.7-.6 3.5-1.2 5.2-1.9 1.5-.6 3-1.3 4.5-2.2 1.1 2.5 2.5 4.7 4.2 6.8 1.8 2.2 4 4.1 6.5 5.6 4.9 3.1 10.7 4.4 16.4 4.5 5.7.1 11.6-1 16.7-3.8 2.6-1.4 4.9-3.2 6.9-5.3 1.7-1.8 3.1-3.6 4.3-5.8.4.2.8.5 1.2.7.8.4 1.7.9 2.5 1.2 1.7.8 3.4 1.4 5.2 2 3.5 1.1 7.1 2 10.7 2.7 7 1.4 14 3.3 20.1 6.9 3 1.8 5.7 4.1 7.6 7 .9 1.4 1.6 3.1 2.1 4.7.2.8.3 1.7.4 2.6l.3 2.7c.4 3.6.8 7.2 1 10.8.2 3.6.4 7.3.6 10.8l-20-.6zM38.3 188.5c1.4 3.2 2.4 6.5 3.2 9.9.4 1.7.8 3.4 1.1 5.1.3 1.7.6 3.4.9 5.2.5 3.2 1 6.4 1.4 9.6h.2c.2-3.2.2-6.5 0-9.8-.3-3.5-.8-7.1-1.6-10.6-.4-1.7-.9-3.5-1.5-5.2-.6-1.7-1.3-3.4-2.2-4.9-.8-1.6-1.8-3.1-3-4.5-1-1.1-2-2.2-3.2-3.1-.1 0-.1.1-.2.1 1 1.1 1.8 2.3 2.6 3.5.8 1.5 1.6 3.1 2.3 4.7zm118.3 20.1c.3-1.7.6-3.5.9-5.2.3-1.7.6-3.4 1.1-5.1.8-3.4 1.8-6.7 3.2-9.9.7-1.6 1.5-3.1 2.4-4.6.7-1.1 1.5-2.3 2.4-3.3-.1-.1-.2-.1-.2-.2-1.1.8-2.1 1.8-3 2.9-1.1 1.4-2.1 2.9-3 4.5-.9 1.6-1.6 3.2-2.2 4.9-.6 1.7-1.1 3.4-1.5 5.2-.8 3.5-1.3 7-1.6 10.6-.2 3.5-.3 7.1 0 10.6.5-3.5 1-6.9 1.5-10.4zM116 183.8c-5.2 2.9-11.3 3.9-17.3 3.5-1.5-.1-3-.2-4.5-.4s-2.9-.5-4.4-.9c-1.4-.4-2.8-.9-4.2-1.5-1.3-.6-2.7-1.3-3.9-2.1-2.5-1.6-4.8-3.6-6.7-5.8-2-2.2-3.7-4.7-5-7.3 2 5.6 5.8 10.7 10.9 14.3 2.5 1.8 5.4 3.2 8.4 4.1 1.5.4 3.1.8 4.6 1 1.6.2 3.1.4 4.7.4 3.1.1 6.3 0 9.4-.7 3.1-.7 6.1-1.8 8.8-3.4 2.7-1.6 5.1-3.6 7.2-5.8 2.1-2.2 4-4.6 5.6-7.1-4 4.5-8.3 8.8-13.6 11.7z" fill="#3a0538" stroke-width="none" opacity="1"></path></g><g id="svga-group-head" transform="matrix(1,0,0,1,0,0)"><g id="svga-group-ears-left-move" transform="matrix(1,0,0,1,0,0)"><g id="svga-group-ears-left" transform="matrix(1,0,0,1,0,0)"><path id="SvgjsPath24431" d="M62 92.9c-.2-.3-3.3-4.3-5.9-6.7-2.6-2.4-3.4-2.4-4.6-.9-1.3 1.5-2.9 9.1-2.5 12.4.4 3.4 3.6 8.7 5.2 11.7 1.7 3 3.3 6.7 5.1 6.3 1.9-.4 4.4-4.6 5.7-7.7 1.3-3.1.5-10.8-3-15.1z" fill="#b2713b" stroke-width="none" opacity="1" stroke="none"></path><path id="SvgjsPath24432" d="M65.8 102c.1.9.2 1.7.2 2.6s0 1.7-.2 2.6c-.1.4-.2.9-.3 1.3-.1.4-.3.7-.4 1.1-.3.7-.6 1.4-1 2.1-.7 1.3-1.5 2.6-2.6 3.6-.5.5-1.1 1-1.8 1.3-.4.1-.9.1-1.3 0-.4-.2-.8-.5-1.1-.8-1.2-1.3-1.9-2.8-2.7-4.3-.7-1.5-1.5-2.9-2.2-4.3-.7-1.5-1.5-2.9-2.1-4.4-.3-.8-.7-1.5-.9-2.3-.3-.8-.5-1.6-.6-2.5-.2-1.7 0-3.4.1-5 .2-1.6.5-3.2.8-4.8.2-.8.4-1.6.8-2.3l.3-.6c.1-.2.3-.4.4-.5.2-.3.5-.6.9-.8.3-.2.8-.3 1.2-.3.4.1.8.3 1.1.5.7.4 1.2 1 1.8 1.5 2.2 2.2 4 4.8 5.9 7.2 1.9 2.4 3.2 5.7 3.7 9.1zM55.7 86.4c-1.1-.9-2.4-1.9-3.1-1.2-.2.1-.4.4-.6.6l-.3.3c-.1.1-.1.3-.2.4-.3.6-.5 1.3-.8 2-.5 1.4-.9 2.9-1.1 4.5-.3 1.5-.5 3.1-.4 4.7.1.8.3 1.6.6 2.3.3.8.6 1.5.9 2.2.7 1.5 1.5 2.8 2.3 4.2.8 1.4 1.7 2.7 2.5 4.1.4.7.8 1.4 1.2 2s.8 1.3 1.3 1.7c.5.4.9.6 1.3.4.5-.2.9-.6 1.4-1.1.9-1 1.6-2.1 2.3-3.4.4-.6.7-1.3 1-1.9.2-.3.3-.7.4-1l.2-.5c0-.2.1-.3.1-.5.3-1.4.4-3 .3-4.6s-.4-3.2-.9-4.8c-.5-1.6-1.2-3-2.2-4.2-1.9-2.1-4-4.3-6.2-6.2z" fill="#a35e26" stroke-width="none" opacity="1" stroke="none"></path><path id="SvgjsPath24433" d="M51.2 99.4c-.3-2.3-.5-7.8.8-9.6 2.2-2.9 6 6.4 6.9 9.3 0 .1.1.2.1.3.2.3-.1.7-.4.6-.4-.2-.9-.6-1.3-.8-1.1-.5-1.6.5-1.3 1.8.4 1.8 1.4 2.9 2.2 4.3.1.2 0 .4-.2.3-1.6-.9-3.5-4.5-3.1-6.6.3-2 1.9-1.8 3.1-.8-.7-1.7-1.5-3.3-2.5-4.8-.6-.9-1.2-2-2.2-2.2-1.2-.2-1 .3-1.2 1.8-.8 4.8-.3 10.4 2.5 14.5.1.1 0 .2-.1.1-1.8-2.3-3-4.9-3.3-8.2z" fill="#934d13" stroke-width="none" opacity="1" stroke="none"></path></g></g><g id="svga-group-ears-right-move" transform="matrix(1,0,0,1,0,0)"><g id="svga-group-ears-right" transform="matrix(1,0,0,1,0,0)"><path id="SvgjsPath24434" d="M138 92.9c.2-.3 3.3-4.3 5.9-6.7 2.6-2.4 3.4-2.4 4.6-.9 1.3 1.5 2.9 9.1 2.5 12.4s-3.6 8.7-5.2 11.7c-1.7 3-3.3 6.7-5.1 6.3-1.9-.4-4.4-4.6-5.7-7.7s-.5-10.8 3-15.1z" fill="#b2713b" stroke-width="none" opacity="1" stroke="none"></path><path id="SvgjsPath24435" d="M138 92.9c1.9-2.4 3.8-5 5.9-7.2.5-.5 1.1-1.1 1.8-1.5.3-.2.7-.4 1.1-.5.4-.1.9.1 1.2.3.3.2.6.5.9.8.1.1.2.3.4.5l.3.6c.3.7.6 1.5.8 2.3.4 1.6.7 3.2.8 4.8.2 1.6.3 3.3.1 5-.1.9-.4 1.7-.6 2.5-.3.8-.6 1.6-.9 2.3-.7 1.5-1.4 3-2.1 4.4-.8 1.5-1.5 2.9-2.2 4.3-.8 1.4-1.4 3-2.7 4.3-.3.3-.7.6-1.1.8-.4.2-.9.2-1.3 0-.8-.3-1.3-.8-1.8-1.3-1-1.1-1.8-2.3-2.6-3.6-.4-.7-.7-1.4-1-2.1-.2-.4-.3-.7-.4-1.1-.1-.4-.3-.8-.3-1.3-.1-.9-.2-1.7-.2-2.6s.1-1.7.2-2.6c.4-3.4 1.7-6.7 3.7-9.1zm.1.1c-1 1.2-1.7 2.7-2.2 4.2-.5 1.6-.8 3.2-.9 4.8-.1 1.6 0 3.2.3 4.6 0 .2.1.3.1.5l.2.5c.1.3.3.7.4 1 .3.7.6 1.3 1 1.9.7 1.2 1.5 2.4 2.3 3.4.4.5.9.9 1.4 1.1.4.2.8 0 1.3-.4s.9-1 1.3-1.7c.4-.6.8-1.3 1.2-2 .8-1.4 1.7-2.8 2.5-4.1.8-1.4 1.6-2.8 2.3-4.2.4-.7.7-1.5.9-2.2.3-.8.5-1.6.6-2.3.1-1.6-.1-3.2-.4-4.7-.3-1.5-.7-3-1.1-4.5-.2-.7-.5-1.4-.8-2-.1-.1-.1-.3-.2-.4-.1-.1-.1-.2-.3-.3-.2-.2-.4-.5-.6-.6-.7-.6-2 .4-3.1 1.2-2.2 1.5-4.3 3.7-6.2 6.2z" fill="#a35e26" stroke-width="none" opacity="1" stroke="none"></path><path id="SvgjsPath24436" d="M148.8 99.4c.3-2.3.5-7.8-.8-9.6-2.2-2.9-6 6.4-6.9 9.3 0 .1-.1.2-.1.3-.2.3.1.7.4.6.4-.2.9-.6 1.3-.8 1.1-.5 1.6.5 1.3 1.8-.4 1.8-1.4 2.9-2.2 4.3-.1.2 0 .4.2.3 1.6-.9 3.5-4.5 3.1-6.6-.3-2-1.9-1.8-3.1-.8.7-1.7 1.5-3.3 2.5-4.8.6-.9 1.2-2 2.2-2.2 1.2-.2 1 .3 1.2 1.8.8 4.8.3 10.4-2.5 14.5-.1.1 0 .2.1.1 1.8-2.3 3-4.9 3.3-8.2z" fill="#934d13" stroke-width="none" opacity="1" stroke="none"></path></g></g><g id="svga-group-faceshape-wrap" transform="matrix(1,0,0,1,0,0)"><g id="svga-group-faceshape-single"><path id="SvgjsPath24507" d="M143.7 94.7c-.4-6.1-.5-11.5-.5-12.7v-.3c-1.3-29.9-20.7-46.4-43.2-46.4S58.1 51.7 56.8 81.7v.3c0 1.2-.1 6.6-.5 12.7-.6 7.8-1.9 11.7-1.6 21.7.3 8.4 3.8 17.8 9.2 21.9 6.3 4.8 12.3 5 17.7 6 7.5 1.4 6.5 7.4 18.4 7.4s11-6 18.4-7.4c5.3-1 11.4-1.3 17.7-6 5.4-4.1 9-13.5 9.2-21.9.3-10-1-13.9-1.6-21.7z" fill="#b2713b" stroke-width="none" opacity="1" stroke="none"></path><path id="SvgjsPath24508" d="M143.7 94.7c-.4-6.1-.5-11.5-.5-12.7v-.3c-1.3-29.9-20.7-46.4-43.2-46.4S58.1 51.7 56.8 81.7v.3c0 1.2-.1 6.6-.5 12.7-.6 7.8-1.9 11.7-1.6 21.7.3 8.4 3.8 17.8 9.2 21.9 6.3 4.8 12.3 5 17.7 6 7.5 1.4 6.5 7.4 18.4 7.4s11-6 18.4-7.4c5.3-1 11.4-1.3 17.7-6 5.4-4.1 9-13.5 9.2-21.9.3-10-1-13.9-1.6-21.7zm.7 20.6c-.1 1.7-.4 5.6-1.9 10.3-1.2 3.2-3 7.1-5.3 9.4-1.1 1.1-2.4 2-3.9 2.8-1.4.8-2.9 1.5-4.5 2-3.1 1-6.4 1.4-10 1.9-.9.1-1.6.3-2.6.6s-1.6.8-2.5 1.3c-1.8 1-2.8 2.1-4.1 2.9s-2.6 1.4-4.1 1.8c-1.5.4-3 .6-4.6.6-3.3.1-6.4-.3-9-1.6-1.3-.7-2.5-1.6-4.1-2.8-1.5-1.1-2.5-2.2-4.6-2.6-1.1-.3-2-.4-2.8-.5l-2.6-.4c-1.7-.3-3.3-.6-4.9-1s-3-1-4.4-1.7l-2.1-1.2-1-.7-.9-.7c-2.3-2-4.1-5.8-5.3-8.8-1.3-3-2.1-6.3-2.4-9.6-.2-1.6-.2-3.4-.2-5.1s.1-3.4.3-5.1c.4-3.4.4-6.3.7-9.9.2-1.8 0-4.2 0-6l.1-5.3c0-1.8 0-3.6.1-5.3L58 78c.1-.9.1-1.7.2-2.6.8-6.9 2.9-13.7 6.5-19.6 1.7-3 4-5.6 6.4-8.1l2-1.7 1-.8c.3-.3.7-.5 1.1-.7l2.1-1.4c.7-.4 1.5-.8 2.2-1.2 6-3.3 12.8-4.6 19.5-4.6 6.7-.1 13.4 1.6 19.4 4.5 5.9 3 11.2 7.5 15.2 13 3.9 5.5 6.7 12.1 8.1 18.9l.5 2.6.3 2.6.3 2.6.1 2.9c.2 3.5.1 6.4.1 9.9.2 3.5.4 7.4 1 10.9s.7 6.6.4 10.1z" fill="#843e04" stroke-width="none" opacity="1" stroke="none"></path></g></g><g id="svga-group-mouth-single-move" transform="matrix(1,0,0,1,0,0)"><g id="svga-group-mouth-single" transform="matrix(1,0,0,1,0,0)"><path id="SvgjsPath24593" d="M85.34 126.92s2.37-.51 5.3-1.54c2.87-1.01 6.09-2.05 8.83-2.14 3.98-.13 6.69.33 9.92 1.61 4.77 1.89 7.89 2.17 7.89 2.17s-2.81 2.71-10.17 4.41c-7.36 1.7-14.09.36-17.26-1.47-3.17-1.83-4.51-3.04-4.51-3.04z" fill="#e2929b" stroke-width="none" opacity="1" transform="translate(0 2)"></path><path id="SvgjsPath24594" d="M118.94 126.28c-.72.2-2.15 1.09-8.57.73-2.91-.16-5.81-.6-8.73-.65-2.85-.05-5.66.33-8.49.57-6.77.58-8.72-.58-9.3-.72-.16-.04-.27.19-.11.27 5.39 2.95 12.12.73 17.9.89 5.62.16 12.32 2.08 17.53-.92.27-.16.09-.26-.23-.17z" fill="#d3737e" stroke-width="none" opacity="1" transform="translate(0 2)"></path></g></g><g id="svga-group-eyes-left-move" transform="matrix(1,0,0,1,0,0)"><g id="svga-group-eyes-left" transform="matrix(1,0,0,1,0,0)"><g id="svga-group-eyesback-left"><path id="SvgjsPath24463" d="M89.4 94.9s-.7-2.1-2.6-3.5-5-2.8-8.5-1.5-8 5.4-8 5.4 0 2.1 1.6 3.9 4.4 3.2 8.2 2.6c3.8-.6 6.7-3.6 7.3-4.1s2-2.8 2-2.8z" fill="#ffffff" stroke-width="none" opacity="1"></path></g><g id="svga-group-eyesiriswrapper-left" transform="matrix(1,0,0,1,0,0)"><g id="svga-group-eyesiriscontrol-left" transform="matrix(1,0,0,1,0,0)"><g id="svga-group-eyesiris-left" transform="matrix(1,0,0,1,0,0)"><path id="SvgjsPath24522" d="M80.1 87.8c3.2 0 5.7 2.6 5.7 5.7s-2.6 5.7-5.7 5.7-5.7-2.6-5.7-5.7 2.5-5.7 5.7-5.7z" fill="#b0b9d9" stroke-width="none" opacity="1"></path><path id="SvgjsPath24523" d="M80.1 88.1c3 0 5.5 2.4 5.5 5.5 0 3-2.4 5.5-5.5 5.5-3 0-5.5-2.4-5.5-5.5s2.4-5.5 5.5-5.5m0-.6c-3.3 0-6 2.7-6 6s2.7 6 6 6 6-2.7 6-6-2.7-6-6-6z" fill="#7282ba" stroke-width="none" opacity="1"></path><path id="SvgjsPath24524" d="M77 95.1c0 1.4.6 2.7 1.4 3.6.5.2 1.1.2 1.6.2 3 0 5.5-2.4 5.5-5.5 0-1.1-.3-2.2-.9-3-.7-.4-1.5-.6-2.4-.6-2.9.1-5.2 2.5-5.2 5.3z" fill="#d4d8e8" stroke-width="none" opacity="1"></path><path id="SvgjsPath24525" d="M80.1 90.6c1.6 0 2.9 1.3 2.9 2.9s-1.3 2.9-2.9 2.9-2.9-1.3-2.9-2.9 1.2-2.9 2.9-2.9z" fill="#000000" stroke-width="none" opacity="1"></path><path id="SvgjsPath24526" d="M78.8 90.4c.8 0 1.5.7 1.5 1.5s-.7 1.5-1.5 1.5-1.5-.7-1.5-1.5.7-1.5 1.5-1.5zm2.9 4.3c.5 0 1 .4 1 1s-.4 1-1 1-1-.4-1-1 .4-1 1-1z" fill="#ffffff" stroke-width="none" opacity="1"></path></g></g></g><g id="svga-group-eyesfront-left"><path id="SvgjsPath24471" d="M69.4 94.6c0 6.4 4.7 11.5 10.6 11.5s10.6-5.2 10.6-11.5S85.9 83.1 80 83.1s-10.6 5.1-10.6 11.5zm2.5 4.5c-1.6-1.9-1.6-3.9-1.6-3.9s4.5-4.1 8-5.4 6.6.2 8.5 1.5 2.6 3.5 2.6 3.5-1.4 2.2-1.9 2.8c-.6.6-3.5 3.6-7.3 4.1-3.9.6-6.7-.7-8.3-2.6z" fill="#b2713b" stroke-width="none" opacity="1" stroke="none"></path><path id="SvgjsPath24472" d="M89.3 94.1c-.7-4.8-5.1-8.4-10-7.4-4.1.8-6.3 4.5-8.5 7.7-.2.2-.5 0-.4-.2 2.3-3.9 5.6-8.1 10.6-8.1 4.6.1 7.9 3.6 8.3 8 .1.1 0 .1 0 0z" fill="#a35e26" stroke-width="none" opacity="1" stroke="none"></path><path id="SvgjsPath24473" d="m69.2 96.1.9-.3c.7 4 4.1 6.5 8.2 6.5 4.6 0 9.2-3 11.2-7.2.2 0 .4-.1.3-.3-1.4-3.7-5.2-6.4-9.2-6.1-4.5.3-8.3 4-11.5 6.8-.4.3-.2.7.1.6zm1.4-.5c2.6-1.2 4.5-3.5 7.1-4.8 4.5-2.2 9.3-.2 11.5 4.2-2.2 3.1-4.9 5.7-8.8 6.4-4.2.8-9.2-1.2-9.8-5.8z" fill="#0f190c" stroke-width="none" opacity="1" stroke="none"></path></g></g></g><g id="svga-group-eyes-right-move" transform="matrix(1,0,0,1,0,0)"><g id="svga-group-eyes-right" transform="matrix(1,0,0,1,0,0)"><g id="svga-group-eyesback-right"><path id="SvgjsPath24464" d="M110.6 94.9s.7-2.1 2.6-3.5 5-2.8 8.5-1.5 8 5.4 8 5.4 0 2.1-1.6 3.9-4.4 3.2-8.2 2.6c-3.8-.6-6.7-3.6-7.3-4.1s-2-2.8-2-2.8z" fill="#ffffff" stroke-width="none" opacity="1"></path></g><g id="svga-group-eyesiriswrapper-right" transform="matrix(1,0,0,1,0,0)"><g id="svga-group-eyesiriscontrol-right" transform="matrix(1,0,0,1,0,0)"><g id="svga-group-eyesiris-right" transform="matrix(1,0,0,1,0,0)"><path id="SvgjsPath24527" d="M119.9 87.8c3.2 0 5.7 2.6 5.7 5.7s-2.6 5.7-5.7 5.7-5.7-2.6-5.7-5.7 2.6-5.7 5.7-5.7z" fill="#b0b9d9" stroke-width="none" opacity="1"></path><path id="SvgjsPath24528" d="M119.9 88.1c3 0 5.5 2.4 5.5 5.5 0 3-2.4 5.5-5.5 5.5s-5.5-2.4-5.5-5.5c.1-3.1 2.5-5.5 5.5-5.5m0-.6c-3.3 0-6 2.7-6 6s2.7 6 6 6 6-2.7 6-6-2.6-6-6-6z" fill="#7282ba" stroke-width="none" opacity="1"></path><path id="SvgjsPath24529" d="M116.9 95.1c0 1.4.6 2.7 1.4 3.6.5.2 1.1.2 1.6.2 3 0 5.5-2.4 5.5-5.5 0-1.1-.3-2.2-.9-3-.7-.4-1.5-.6-2.4-.6-2.9.1-5.2 2.5-5.2 5.3z" fill="#d4d8e8" stroke-width="none" opacity="1"></path><path id="SvgjsPath24530" d="M119.9 90.6c1.6 0 2.9 1.3 2.9 2.9s-1.3 2.9-2.9 2.9-2.9-1.3-2.9-2.9 1.3-2.9 2.9-2.9z" fill="#000000" stroke-width="none" opacity="1"></path><path id="SvgjsPath24531" d="M118.7 90.4c.8 0 1.5.7 1.5 1.5s-.7 1.5-1.5 1.5-1.5-.7-1.5-1.5.7-1.5 1.5-1.5zm2.8 4.3c.5 0 1 .4 1 1s-.4 1-1 1-1-.4-1-1 .5-1 1-1z" fill="#ffffff" stroke-width="none" opacity="1"></path></g></g></g><g id="svga-group-eyesfront-right"><path id="SvgjsPath24474" d="M120 83.1c-5.9 0-10.6 5.2-10.6 11.5s4.7 11.5 10.6 11.5 10.6-5.2 10.6-11.5-4.8-11.5-10.6-11.5zm-.1 18.7c-3.8-.6-6.7-3.6-7.3-4.1-.6-.6-1.9-2.8-1.9-2.8s.7-2.1 2.6-3.5 5-2.8 8.5-1.5 8 5.4 8 5.4 0 2.1-1.6 3.9c-1.7 1.8-4.5 3.1-8.3 2.6z" fill="#b2713b" stroke-width="none" opacity="1" stroke="none"></path><path id="SvgjsPath24477" d="M110.7 94.1c.7-4.8 5.1-8.4 10-7.4 4.1.8 6.3 4.5 8.5 7.7.2.2.5 0 .4-.2-2.3-3.9-5.6-8.1-10.6-8.1-4.6.1-7.9 3.6-8.3 8-.1.1 0 .1 0 0z" fill="#a35e26" stroke-width="none" opacity="1" stroke="none"></path><path id="SvgjsPath24478" d="M131.1 95.6c-3.2-2.8-7-6.6-11.5-6.8-4-.3-7.8 2.4-9.2 6.1-.1.2.1.3.3.3 1.9 4.2 6.6 7.2 11.2 7.2 4.1 0 7.5-2.6 8.2-6.5l.9.3c.1 0 .3-.4.1-.6zm-11.5 5.8c-3.9-.7-6.6-3.3-8.8-6.4 2.2-4.3 7-6.4 11.5-4.2 2.6 1.3 4.5 3.5 7.1 4.8-.6 4.6-5.6 6.6-9.8 5.8z" fill="#0f190c" stroke-width="none" opacity="1" stroke="none"></path></g></g></g><g id="svga-group-facehighlight-single"></g><g id="svga-group-eyebrows-left-move" transform="matrix(1,0,0,1,0,0)"><g id="svga-group-eyebrows-left-rotate" transform="matrix(1,0,0,1,0,0)"><g id="svga-group-eyebrows-left" transform="matrix(1,0,0,1,0,0)"><path id="SvgjsPath24403" d="M71.9 81.2c.2-.2.4-.3.6-.4.2-.1.4-.2.7-.3.4-.2.8-.4 1.3-.5.5-.2 1.4-.5 1.9-.2 1.7-.6 4-.2 5.6.6 2.1.2 4.3.9 5.9 2 .1.1.2.2.2.3l.9.3c1.1.4 2.3.8 3.4 1.3.1 0 .2.1.3.1.4.2.5.7.2.9-.1.1-.1.2-.3.3-.8.6-2 .2-2.9-.1-.8-.3-1.6-.7-2.2-1.3-.8-.3-1.6-.7-2.3-1.2-.1 0-.2-.1-.3-.1-1.4-.2-2.8-.8-4-1.4h-.1c-.7-.2-1.4-.3-2.2-.3-1-.1-2 .2-3-.1h-.1c-.2.1-.4.1-.6.2-.9.3-1.6.4-2.6.4-.1 0-.2-.1-.2-.2H72s-.2-.2-.1-.3z" fill="#73625b" stroke-width="none" opacity="1"></path><path id="SvgjsPath24404" d="M76.9 79.1c3.4-.3 6.8 1.7 9.9 2.9 1.9.7 5.8 1 6.5 3.3.1.3-.3.5-.5.2-1-1.4-2.6-1.5-4.1-2-1.3-.4-2.6-.9-3.8-1.4-2.7-1.1-5.3-1.7-8-2.4-.3-.2-.2-.6 0-.6z" fill="#827874" stroke-width="none" opacity="1"></path><path id="SvgjsPath24405" d="M94.4 85.2c.3-1.5-2-2.1-3.1-2.5-2.7-1.1-5.4-2.3-8.2-3.1-1.7-.5-3.4-.8-5.1-.8-1.3 0-2.6.1-3.8.5-2.2.7-4.3 1.9-6.2 3.4-1 .6-2 1.3-2.8 2.1-.2.2 0 .4.2.3.1 0 .1 0 .1-.1.1.1.1.1.2.1 1.6-.7 3.1-1.8 4.8-2.5 1.6-.7 3.4-1.1 5.1-1.2h.8c2.1 0 4.1.4 6 1.3 2.6 1.2 5.1 2.8 7.7 3.8.5.2 1 .3 1.6.2 1.3.2 2.4-.3 2.7-1.5zm-16.3-5.4c1.8 0 3.6.4 5.3 1 2.2.8 4.4 1.8 6.6 2.6.4.2 2.6.7 2.8 1.3.2.7-.3.9-.8 1-.3 0-.6-.1-.8-.1-.7-.2-1.3-.6-1.9-.9-3.4-1.7-6.9-3.9-10.8-4.1h-1.1c-1.2 0-2.5.1-3.8.3.6-.2 1.1-.4 1.7-.6.8-.4 1.8-.5 2.8-.5z" fill="#644e45" stroke-width="none" opacity="1"></path></g></g></g><g id="svga-group-eyebrows-right-move" transform="matrix(1,0,0,1,0,0)"><g id="svga-group-eyebrows-right-rotate" transform="matrix(1,0,0,1,0,0)"><g id="svga-group-eyebrows-right" transform="matrix(1,0,0,1,0,0)"><path id="SvgjsPath24406" d="M128.1 81.2c-.2-.2-.4-.3-.6-.4-.2-.1-.4-.2-.7-.3-.4-.2-.8-.4-1.3-.5-.5-.2-1.4-.5-1.9-.2-1.7-.6-4-.2-5.6.6-2.1.2-4.3.9-5.9 2-.1.1-.2.2-.2.3l-.9.3c-1.1.4-2.3.8-3.4 1.3-.1 0-.2.1-.3.1-.4.2-.5.7-.2.9.1.1.1.2.3.3.8.6 2 .2 2.9-.1.8-.3 1.6-.7 2.2-1.3.8-.3 1.6-.7 2.3-1.2.1 0 .2-.1.3-.1 1.4-.2 2.8-.8 4-1.4h.1c.7-.2 1.4-.3 2.2-.3 1-.1 2 .2 3-.1h.1c.2.1.4.1.6.2.9.3 1.6.4 2.6.4.1 0 .2-.1.2-.2h.1s.2-.2.1-.3z" fill="#73625b" stroke-width="none" opacity="1"></path><path id="SvgjsPath24407" d="M123.1 79.1c-3.4-.3-6.8 1.7-9.9 2.9-1.9.7-5.8 1-6.5 3.3-.1.3.3.5.5.2 1-1.4 2.6-1.5 4.1-2 1.3-.4 2.6-.9 3.8-1.4 2.7-1.1 5.3-1.7 8-2.4.3-.2.2-.6 0-.6z" fill="#827874" stroke-width="none" opacity="1"></path><path id="SvgjsPath24408" d="M108.2 86.8c.5 0 1.1-.1 1.6-.2 2.7-1 5.1-2.7 7.7-3.8 1.9-.9 3.9-1.3 6-1.3h.8c1.8.1 3.5.6 5.1 1.2 1.7.7 3.1 1.7 4.8 2.5.1 0 .2 0 .2-.1 0 0 .1 0 .1.1.2.1.4-.1.2-.3-.8-.8-1.7-1.5-2.8-2.1-1.9-1.4-4-2.7-6.2-3.4-1.2-.4-2.5-.6-3.8-.5-1.7 0-3.4.3-5.1.8-2.8.8-5.5 2-8.2 3.1-1.1.4-3.4 1-3.1 2.5.4 1.1 1.5 1.6 2.7 1.5zm16.7-6.6c.6.2 1.2.4 1.7.6-1.3-.2-2.6-.4-3.8-.3h-1.1c-3.9.2-7.4 2.4-10.8 4.1-.6.3-1.2.7-1.9.9-.2.1-.5.1-.8.1-.6 0-1.1-.3-.8-1 .2-.6 2.4-1.1 2.8-1.3 2.2-.9 4.4-1.9 6.6-2.6 1.7-.6 3.5-1 5.3-1 .8.1 1.8.2 2.8.5z" fill="#644e45" stroke-width="none" opacity="1"></path></g></g></g><g id="svga-group-beardwrap" transform="matrix(1,0,0,1,0,0)"><g id="svga-group-beard-single-move" transform="matrix(1,0,0,1,0,0)"><g id="svga-group-beard-single" transform="matrix(1,0,0,1,0,0)"></g></g></g><g id="svga-group-mustache-single-move" transform="matrix(1,0,0,1,0,0)"><g id="svga-group-mustache-single" transform="matrix(1,0,0,1,0,0)"><path id="SvgjsPath24607" d="M73.9 130.6c-.2.1 9.4-16 25.9-15.3s23.3 9.9 27.2 16c0 0-3.8-1.3-4.8-1.7s-3.8-4.4-3.8-4.4 1.6 3.3 1.7 3.7c.1.4-4.1-1.1-6-2.3-1.9-1.2-3.6-3.5-3.6-3.5l1.9 3.6s-4.3-.8-5.5-1.3c-1.2-.5-3.1-3.4-3.1-3.4l1.6 3.1s-1.6.2-2.3-.3-1.5-3.1-1.5-3.1.1 2.9-.2 3c-.3.2-2.9.7-2.9.7l1-3s-1.2 2.9-1.9 3-4.6.6-6.2 1-4.3.9-5.2 1.2c0 0 .5-2.6 1-3.7 0 0-1.8 2.7-2.6 4.2 0 0 .6-3 .9-3.8 0 0-1.7 2.2-2.4 3.7 0 0-.5.6-3.1 1.3-2.8.6-3.8.5-6.1 1.3z" fill="#73625b" stroke-width="none" opacity="1"></path><path id="SvgjsPath24608" d="M104.3 117c1.7 2.4 3.2 4.8 4.6 7.4.1.1.2 0 .2-.1-1-2.7-2.6-5.4-4.5-7.5-.1-.1-.3 0-.3.2zm2.7 1.2c-.1-.1-.3 0-.2.2 1 1.3 1.9 2.7 2.9 4 .1.1.2 0 .2-.1-.9-1.5-1.9-2.8-2.9-4.1zm1.5-.1c-.2-.1-.4.1-.2.2 1.4 1.4 2.6 2.8 3.8 4.3.9 1.2 1.7 2.6 2.7 3.8.1.1.2 0 .2-.1-1.4-3.1-4.1-5.9-6.5-8.2zm3.1 1.4c-.2-.2-.4.1-.3.3 2 2.1 3.6 4.3 5.3 6.6.1.1.3 0 .2-.2-1.3-2.5-3.3-4.7-5.2-6.7zm2.8 1.1c-.1-.1-.2 0-.2.1 1.2 1.6 2.3 3.2 3.4 4.9.1.1.3 0 .2-.1-.9-1.8-2.1-3.4-3.4-4.9zm7 6.1c-1.1-2.1-3-3.8-4.9-5.1-.1-.1-.3.1-.2.2 1.9 1.5 3.3 3.2 4.8 5.1.2.2.4 0 .3-.2zm-17.1-9.1c.1.1.2 0 .1-.1-.1-.3-.3-.5-.6-.7-.1-.1-.3.1-.3.2.8 2 1.8 4.1 3 5.9.1.1.2 0 .2-.1-.6-1.7-1.5-3.5-2.4-5.2zm-2.1-1.1c.4 1.4.8 2.9 1.4 4.2.1.2.3 0 .3-.1-.3-1.4-.9-2.9-1.5-4.2 0-.2-.2-.1-.2.1zm-1 .3c.6 2.3 1 4.7 1.6 7 .1.2.4.2.3-.1-.3-2.4-.9-4.7-1.6-7-.1-.2-.4-.1-.3.1zm-.5.5c.1 1.4-.1 2.9-.1 4.3 0 .2.2.2.3 0 .3-1.4.3-2.9.1-4.4 0 0-.3 0-.3.1zm-.9.3c-1.2 1.8-2.5 4.1-2.7 6.3 0 .2.2.2.3 0 .8-2.2 1.4-4.2 2.7-6.2 0-.1-.2-.3-.3-.1zm-1.9.3c-1.1 1.9-2 4.1-2.3 6.3 0 .2.3.2.3.1.6-2.1 1.2-4.2 2.3-6.1.2-.4-.1-.6-.3-.3zm-1.3.8c-1.1 1.4-2.2 3.1-2.7 4.8-.1.2.2.3.3.1.8-1.7 1.5-3.3 2.6-4.8.1 0-.1-.2-.2-.1zm-1.7.3c-1.2 1.7-2.4 3.6-3 5.7-.1.2.3.3.4.2 1-1.9 1.8-3.8 3-5.6.1-.3-.2-.5-.4-.3zm-1.1.2c.1-.1-.1-.3-.2-.1-1.2 1.8-2.7 4-3.1 6.1 0 .2.2.3.3.1.5-1 .9-2.1 1.3-3.1.5-1 1.1-2 1.7-3zm-1.6-.2c-1.4 1.9-2.7 4.1-3.2 6.4-.1.2.3.3.4.1.9-2.2 1.7-4.3 3.1-6.3.1-.2-.2-.4-.3-.2zm-1.6.8c-1.4 2.2-2.6 4.5-3.2 7 0 .1.1.2.2.1 1-2.4 2-4.7 3.3-6.9.1-.2-.2-.4-.3-.2zm-1.7.3c-1.2 1.2-2.4 2.6-3.1 4.2-.1.1.1.3.2.1.9-1.5 1.8-2.9 3-4.2.1-.1-.1-.2-.1-.1zm-1.9.5c-2.5 1.6-4.9 4.1-5.8 7 0 .1.2.2.2.1 1.6-2.7 3.1-5 5.7-6.8.2-.2.1-.4-.1-.3zm-3.1 1.9c-1.7 1.8-3.3 3.7-4.6 5.7-.1.1.1.2.1.1 1.5-1.9 3-3.9 4.7-5.7 0 0-.1-.2-.2-.1zm.2-.7c.1-.1 0-.3-.1-.2-2.6 1.9-5.5 4.1-6.6 7.3 0 .1.2.2.2.1 1.5-3.1 3.9-5.2 6.5-7.2z" fill="#644e45" stroke-width="none" opacity="1"></path></g></g><g id="svga-group-nose-single-move" transform="matrix(1,0,0,1,0,0)"><g id="svga-group-nose-single" transform="matrix(1,0,0,1,0,0)"><path id="SvgjsPath24573" d="M105.29 106.89c.58.27 1.23 1.04 1.94 3.17s1.23 3.69 1.37 4.83c.14 1.14-.99 2.32-1.71 2.46s-1.28-.33-1.56-1.09-.38-1.89-1.23-2.42c0 0-.81 2.27-1.52 2.79s-1.94 1.71-3.65.85c-1.71-.85-1.94-2.08-2.08-2.13-.14-.05-1.28 1.52-1.85 1.89-.57.38-2.37.95-3.13 0-.76-.95-.09-4.59.09-5.73.19-1.14.9-3.74 1.61-4.36.71-.62 1.71-.76 2.37-.33 0 0 .14-3.17.52-4.64.38-1.47 2.37-2.08 4.22-1.89s3.17.71 3.5 1.8c.35 1.1.4 4.46 1.11 4.8z" fill="#b2713b" stroke-width="none" opacity="1" transform="translate(0 1)"></path><path id="SvgjsPath24574" d="M96.01 116.09c-.3.22-.45.35-.75.57-.21.16-.43.32-.64.48-.58.5-1.14.44-1.69-.18-1.07-.57-1.09-.69-1.06-1.78.01-.5.08-1.02.14-1.52.17-1.47.94-7.73 3.61-6.8h.02c0 .31 0 .61.01.92.01.27.42.35.48.07.69-2.93.68-6.14.96-9.14.3-3.15.99-6.54.77-9.7-.01-.15-.23-.2-.28-.04-.78 2.89-.76 6.14-1.06 9.11-.28 2.74-.82 5.61-.88 8.4-3.37-1.25-4.22 6.04-4.41 7.99-.13 1.31-.17 3.14 1.35 3.68 1.5.53 2.91-.64 3.66-1.82.1-.14-.09-.34-.23-.24z" fill="#843e04" stroke-width="none" opacity="1" transform="translate(0 1)"></path><path id="SvgjsPath24575" d="M105.17 115.05c.11.18.15.22.3.33.11.08.26.01.33-.09.03-.04.05-.08.07-.12.07-.16-.01.02.02-.09.03-.15.03-.25-.03-.4-.09-.24-.26-.46-.45-.62-.32-.27-.74-.44-1.16-.4.01-.1.03-.2.03-.29 0-.18-.24-.24-.33-.09-.89 1.4-1.09 3.44-2.94 4.03-2.21.71-3.7-1.7-4.66-3.3.07-.1.08-.25-.02-.33-.86-.72-2.64.33-2.55 1.42.03.3.34.42.57.24.32-.25.51-.6.87-.8.26-.14.54-.23.81-.35.74 2.01 2.24 4.33 4.72 3.96 1.81-.27 3.09-2.13 3.43-3.9.28.08.54.19.75.42.09.11.16.25.24.38z" fill="#843e04" stroke-width="none" opacity="1" transform="translate(0 1)"></path><path id="SvgjsPath24576" d="M107.09 109.08c-.39-.91-.85-2.69-2.05-2.36.04-1.46-.39-2.97-.53-4.42-.14-1.35-.13-2.72-.32-4.07-.02-.12-.17-.07-.19.03-.22 1.63-.03 3.34.18 4.97.15 1.17.26 2.44.77 3.52-.05.02-.1.03-.15.05-.12.06-.03.22.08.2 1.32-.24 2.37 3.95 2.68 4.9.28.87.64 1.86.66 2.78.03 1.4-1.56 3.39-2.71 1.5-.14-.24-.45-.07-.42.18.14.97 1.15 1.48 2.07 1.24 1.25-.33 1.77-1.73 1.71-2.91-.08-1.88-1.05-3.9-1.78-5.61z" fill="#843e04" stroke-width="none" opacity="1" transform="translate(0 1)"></path><path id="SvgjsPath24577" d="M103.73 108.8c-.04-1.57-.42-3.09-.82-4.6-.39-1.48-.61-3.13-1.39-4.47-.18-.31-.73-.28-.8.11-.45 2.35.25 5.03.38 7.41.06 1.21.11 2.45-.17 3.63-.26 1.1-.87 2.06-1.2 3.13-.17.55.41 1.19.98.98 2.41-.87 3.07-3.87 3.02-6.19z" fill="#ba7b47" stroke-width="none" opacity="1" transform="translate(0 1)"></path></g></g><g id="svga-group-hair-front" transform="matrix(1,0,0,1,0,0)"><path id="SvgjsPath24619" d="M55.7 57.9s-10.6 13-9.5 22.2l2.7-3.3s-5.2 15.1-9.3 20.1c0 0 4.1-1.3 6.8-4.6v7.3s4.3-10.4 8.9-14.7c0 0 1.5 8.5 6.2 12.6 0 0-1-9.5 1-15.5 0 0 4.8-10.6 4.5-16.2 0 0 .8 5.6 3.3 8.1 0 0-2.1-11 3.3-17.2 0 0 6.4 2.1 18.2-1.5 0 0 12-1 22.1 11.6 0 0-.4-8.5-5.6-12.8 0 0 7.3 3.5 11.4 2.9 0 0 7.3 5.8 11.2 6 0 0 2.3 8.1 2.3 14.5 0 0 2.9-5.2 3.3-7.7 0 0-1.9 17.2 2.7 24.2 0 0 1-5.6 2.9-7 0 0 6.8 10.2 11.6 11.8 0 0-5.6-6.8-6-14.3l5.8 3.5s-5.6-6.4-5.8-16.1c0 0 3.9.6 6 4.1 0 0-5-13.9-12-18.8 0 0 7.6 5.4 13.4 3.5 0 0-13-5.8-16.2-14.1 0 0 5.4.6 8.7 3.7 0 0-7.6-12.4-20.3-13.9 0 0 8.3-8.3 8.1-12.2 0 0-13.9 8.7-25.2 8.5 0 0 4.6-7.9 4.4-11.6 0 0-7.9 9.7-12 10.5 0 0-.2-3.3 1.2-7.4 0 0-6 8.5-8.7 9.7L97 27s-6 8.1-11 9.7c0 0 1.3-2.9.6-5.6 0 0-1.7 3.1-3.7 4.1 0 0 1.6-6 1.3-7.9 0 0-4.4 7-6.2 7.9l-.2-5.4s-4.3 8.1-7.9 10.1c0 0-.8-2.9-1.9-4.3 0 0-1 3.9-1.3 5.8 0 0-.6-8.5-6.4-11.2 0 0 3.1 13.9.8 16.8 0 0-4.5-7.7-6-8.7 0 0 1.9 9.5 1.5 11.8 0 0-7.9 4.8-9.5 9.7 0 0 6-2.5 9.1-3.7l-.5 1.8z" fill="#f1e0da" stroke-width="none" opacity="1" stroke="none"></path><path id="SvgjsPath24620" d="M116.5 37.2c-7.8 8.4-16.7 13.2-27.8 15.5-.4.1-.3.8.1.8 10.9-1.2 21.4-7.3 28-16 .1-.3-.2-.5-.3-.3zm.6-1.2c-5.2 2.6-10.4 4.2-16 5.3-.3 0-.2.5.1.5 5.7-.5 11.3-2.4 16.2-5.4.2-.1 0-.5-.3-.4zm12.5-7.4c-2.3 4-5.2 7.1-8.7 10.1-.2.2.1.6.3.4 3.8-2.4 6.8-6.2 8.7-10.3.2-.2-.2-.4-.3-.2zM76 50.8c4.7-2.5 7.2-6.5 8.8-11.4.2-.4-.5-.6-.7-.3-1.1 1.5-2.4 2.7-4 3.8-.3.2-.1.6.3.5 1.9-.8 3.2-2.2 4.3-3.9-.2-.1-.5-.2-.7-.3-.8 4.7-4.4 8.7-8.4 11-.3.2.1.8.4.6zm6.4-1.2c2.8-1.3 5.7-3.1 7.6-5.5.2-.2-.1-.5-.3-.3-2.4 2.1-4.7 4-7.5 5.4-.3.1-.1.5.2.4zM71.3 54c-2.4 2.5-4.2 6.1-3.8 9.6.1.5.7.5.7 0 .4-3.5 1.2-6.4 3.5-9.1.4-.3-.1-.8-.4-.5zM60.9 32.3c1.8 6.7 1.1 11.8-.8 18.3-.1.4.4.6.7.3 3.6-5.3 3.5-13.2.9-18.9-.3-.4-.9-.1-.8.3zM56.3 42c-.3 3.8 1.1 7.8 4.2 10.1.3.2.6-.2.4-.5-2.5-2.8-4.1-5.8-4.2-9.6 0-.3-.4-.3-.4 0zm.2 15.9c-3.3 3.1-6 7.9-6.8 12.4-.1.3.5.6.6.3.9-2.2 1.7-4.3 2.8-6.4 1.1-2.1 2.6-3.9 3.9-5.8.3-.4-.2-.8-.5-.5zM60.1 74c-1.6 4.2-2.5 8.8-1.9 13.3.1.4.7.5.7 0 0-4.5.3-8.8 1.7-13.2.1-.3-.4-.4-.5-.1zM46.8 94.8c2.8-3.7 5.7-7.6 7.9-11.7.2-.4-.3-.8-.6-.5-3 3.6-5.4 7.8-7.8 11.8-.2.4.3.7.5.4zm52.1-40.7c4.2.6 6.7 3.1 9.2 6.3.2.2.5 0 .4-.2-1.2-3.9-5.7-6.3-9.5-6.6-.3 0-.4.5-.1.5zm10.8-2.8c5.8 2.1 12.3 3.2 18.5 2.5.4 0 .4-.5 0-.5-6.3-.3-12.3-.8-18.4-2.4-.3-.2-.4.3-.1.4zm18.1 8.5c4.6.6 8.9 1.9 13.3 3.2.4.1.6-.4.3-.6-4.2-2-8.9-2.8-13.5-2.9-.3-.1-.4.2-.1.3zm10.7 8.4c-1.3 6.1-1.5 12.8.2 18.8.1.3.7.3.7-.1-.8-6.4-1.1-12.3-.3-18.7 0-.3-.6-.4-.6 0zm-22.2-21.4c5.2.1 10.2.9 15.1 2.8-.1-.2-.1-.5-.2-.7-1.4 1.2-2.8 1.9-4.6 2.2-.2 0-.2.4.1.4 2 0 3.6-.6 5.1-1.9.3-.2.1-.6-.2-.7-4.9-2-10-2.9-15.3-2.6-.3 0-.4.5 0 .5zm23.9 8c1.4 1.4 3.3 2.9 5.3 3.3.3.1.5-.4.2-.6-.8-.5-1.8-.8-2.6-1.3-.9-.5-1.8-1.1-2.6-1.8-.2-.2-.6.1-.3.4zm2.6 7.4c2.6 2.4 4.3 5.1 6.2 8 .2.3.7.1.6-.2-1.1-3.3-3.8-6.1-6.5-8.1-.2-.3-.5.1-.3.3zm-1.3 8.4c.6 4.8 3 9.9 7 12.8.3.2.6-.2.4-.5-3.4-3.7-5.8-7.4-6.9-12.4-.1-.2-.5-.1-.5.1zm.9 12.9c.5 3.1 1.7 6.6 4.1 8.8.3.2.7-.1.5-.4-1.8-2.8-3.3-5.3-3.8-8.6-.2-.5-.9-.3-.8.2z" fill="#ffffff" stroke-width="none" opacity="1" stroke="none"></path><path id="SvgjsPath24621" d="M106.1 29.8c2.9-1.7 5.5-4.2 7.5-7-1.2 3.5-2.8 6.7-4.7 10-.3.5.4.8.7.4 2.8-4 4.6-8.6 5.8-13.3.1-.5-.5-.8-.8-.3-2.6 3.8-5.4 6.8-8.9 9.8-.4.1 0 .6.4.4zm-17.4 6c2.8-2.1 5.4-4.6 7.6-7.3-.6 1.8-1.4 3.5-2.2 5.2-.2.4.2.9.6.6 3.2-2.2 6.2-5 8.2-8.4-.3 1.1-.7 2.2-1 3.3-.1.3.3.4.4.1.6-1.9 1.1-3.9 1.8-5.7.2-.4-.4-.6-.7-.3-2.3 3.5-4.7 6.6-8 9.2.8-1.9 1.4-3.8 2-5.8.1-.3-.3-.6-.6-.3-2.6 3.3-5.4 6.3-8.6 9 0 .2.2.6.5.4zm-6.1-1.2c-.1.5.6.6.7.2.9-2.6 1.2-5.3 1.2-8 0-.5-.7-.7-.9-.2-1.4 2.7-3.1 5.2-5.2 7.4-.1-1.5-.1-3-.2-4.5 0-.4-.7-.7-.8-.2-1.4 3-3.2 5.6-5.2 8.3-.2.3.2.5.4.3 2-1.9 3.5-4.2 4.7-6.6 0 1.3.1 2.6.1 3.9 0 .4.5.7.8.3 2.1-2 3.8-4.3 5.2-6.8 0 1.9-.3 3.9-.8 5.9zM57 49c-.2-3.3-.8-6.7-1.4-10 2.2 2.5 3.8 5.5 4.9 8.6.1.3.7.2.6-.2-1.3-3.8-3.4-7-5.9-10.1-.2-.3-.8-.1-.8.3.5 3.8 1 7.7 1.9 11.5.2.4.7.3.7-.1zm-9.5 11.5c2.6-1.2 5.5-2.2 7.9-3.8.4-.3.2-.9-.3-.8-2.2.7-4.4 1.8-6.5 2.8 1.7-2.8 3.9-5.2 6.5-7.3.4-.3-.1-.9-.5-.7-3.3 2.3-5.9 5.4-7.7 9-.4.6.1 1.1.6.8zm-2.9 32.4-3.6 3c4.3-5.6 7.3-12.1 8.5-19.1.7-.8 1.3-1.6 2.1-2.3.5-.5-.3-1.3-.8-.8s-.9.9-1.3 1.4c-.2-.1-.5 0-.5.2s-.1.3-.1.5c-.7.9-1.4 1.8-2 2.7 1.7-7.4 4.8-14.2 9.1-20.5.3-.4-.4-.8-.7-.4-5.4 7-8.6 15.2-10.1 23.9-.1.6.7 1 1 .4.6-1.2 1.3-2.4 2.1-3.5-2 7.6-5.6 14.4-11 20.2-.4.5.1 1.3.7.9 2.7-1.7 5.2-3.6 7.3-6 .3-.4-.3-1-.7-.6zm17.3-8.8c-1.4 4.1-1.5 8.5-.9 12.8-2.8-3.5-4.3-7.4-5.2-11.8 0 0 0-.1-.1-.1.3-.4.6-.8.9-1.3.2-.3-.2-.6-.4-.3-4 4.2-7 9.4-9.4 14.6 0-4.5 1.1-8.8 2.9-13 .2-.4-.3-.7-.5-.3-2.6 4.8-3.6 10-3.2 15.4 0 .4.7.7.9.2 2.3-5.2 5.3-9.9 8.5-14.7.5 4.9 2.9 9.4 6.2 13 .3.3.8 0 .8-.4-1-4.8-.6-9.3.3-14.1-.2-.2-.7-.3-.8 0zm10.9-26.6c-2.6 3-3.5 7.4-3.5 11.2 0 1 .1 1.9.2 2.9 0 .1.1.4.2.8l-1-1.5c-.8-1.6-1.2-3.3-1.6-5-.1-.3-.7-.3-.6.1.4 3.3 1.9 6.2 3.8 8.9.2.3.7.1.6-.3-1.6-6.3-.2-11.1 2-16.9.3-.2 0-.4-.1-.2zm-11 18.9c1.2-5.5 3-10.6 5.8-15.5.2-.3-.3-.6-.4-.3-2.9 4.9-4.9 10.1-5.7 15.7 0 .2.2.3.3.1zM76.2 40c-2.2 3.5-4.4 7-6.8 10.4-.1.2.1.4.3.2 2.5-2.7 4.8-5.8 6.6-9.1.2 3.1-.8 6.1-2.7 8.6-.3.3.2.8.5.5 2.6-3 3.6-6.7 2.9-10.6-.1-.3-.6-.3-.8 0zM61.7 60.1c.3-.3-.2-.8-.5-.5-2.2 2.1-4 4.6-5.2 7.4-.4 1-2.2 4.3-.6 5.1.2.1.4.1.6-.1 1-.7 1.6-1.9 2.3-2.9 1-1.3 2-2.6 2.9-4 .2-.4-.3-.8-.6-.5-1 1.1-1.9 2.4-2.8 3.6-.1.1-1.5 2.2-1.6 2.2-.5-.2.1-1.4.2-1.7 1-3.3 2.9-6.2 5.3-8.6zm31.5-14.8c-3.1 1.9-5.9 3.8-9.4 5-.4.1-.2.8.2.7 3.4-1 7-2.6 9.6-5.1.3-.3 0-.8-.4-.6zm21.1-12.5c6.7-1 14.3-3.4 20-7.5-1.1 2.6-2.7 4.9-4.6 7-.2.2.1.6.3.4 2.6-2 4.5-4.7 5.3-7.9v-.2c.3-.2.6-.4.8-.7.2-.2-.1-.6-.3-.4-7.2 3.6-13.7 6.9-21.6 8.8-.4 0-.3.5.1.5zm12.5 4.9c8.4 1.2 14.5 5.1 19.4 11.5-3.7-3.2-8.7-4.8-13.5-4.6-.5 0-.4.7 0 .7 5.2.5 9.4 2.1 13.9 4.9.1.1.3 0 .4-.1.2.3.4.6.7.9.3.4.9.1.7-.4-3.5-8.1-12.8-13.5-21.4-13.6-.5 0-.6.6-.2.7zm-12.6 29.1c.1-5.2-2.4-10.5-7.2-12.9-.2-.1-.5.2-.3.4 3.8 3 6.3 6.8 6.8 11.6-4.5-6.6-12.4-10.6-20.3-10.9 12.1-4.1 22.9-12.2 30.6-22.1.3-.3 0-1-.5-.8-4.9 1.7-9.8 3.6-14.7 5.6-.3.1-.1.6.2.5 3.1-1 6.2-2 9.2-3.1.8-.3 3.2-1.6 3.9-1.5.2 0-1.4 1.8-1.8 2.2-3.6 4-7.6 7.5-12.1 10.5-8.9 6-18.7 9.2-29.2 11.1-.3 0-.2.5.1.5 4.5-.3 8.9-1.2 13.2-2.5 0 .1.1.2.2.2 8.9.8 15.8 5.1 21.3 12 .3.3.8-.1.6-.4.1-.3.1-.3 0-.4zm19.9-10c.4-.1.3-.8-.1-.7-8.6.7-16.2-.2-24.6-1.8-.2 0-.4.3-.2.4 3.2 1.4 6.8 2.3 10.4 2.7 5.7 4.4 13.5 7.2 20.7 6.4.4 0 .4-.5 0-.6-7.2-.8-13.1-2.2-19.2-5.7 4.4.4 8.8.1 13-.7zm5.1-9.6c-.1-.2-.5 0-.4.2 3.1 6 8.5 11.2 15.1 13.2-4.7.2-8.6-.9-12.4-4.2-.2-.2-.6.1-.4.3 3.2 4.2 9.6 6.4 14.6 4.4l.1-.1c.4.1.6-.5.2-.7-7-2.8-12.8-6.6-16.8-13.1zm17.1 53c-2.1-2.4-4.2-4.6-5.7-7.4-1.4-2.6-1.9-5.2-2.8-7.9 1.5 1.2 3.2 2.2 5.1 2.9l.3.3c.1.2.4.1.5-.1.1 0 .1.1.2.1.3.1.5-.4.2-.6-.3-.2-.6-.3-.9-.5-3.2-4.7-4.6-9.3-5.2-15 2.1 1.4 4.1 2.9 5.8 4.9 0 .1.1.2.1.3.1.2.4.2.5 0 .1-.1.2-.3.1-.4-.1-.1-.1-.2-.2-.3-1.7-7.8-7.4-14.6-13.6-19.2-.2-.1-.4.2-.2.3 5.6 4.8 9 10.4 12.1 16.8-1.9-2-4.2-3.6-6.8-4.3-.3-.1-.4.3-.2.5.6.3 1.2.7 1.8 1.1 0 .1-.1.1-.1.2-.4 5 1.3 10.2 4.3 14.3-4.3-2.7-7.8-6.1-10.2-10.7-.2-.4-.7-.1-.6.3 1.4 3.3 3.6 6.3 6.4 8.6-.3 4.1 1.8 8.9 4.7 12.6-4.2-2.8-7.6-6.2-9.8-10.7 0-.1 0-.2-.1-.2-.6-1.3-1.2-2.8-1.6-4.3-.1-.3-.6-.2-.5.1.3 1.5.8 3.1 1.4 4.6-1.2 1.7-2.3 4.3-2.3 6.6-2.6-7.9-3.1-15.1-2-23.4 0-.3-.2-.4-.4-.3.1-.5.2-1 .2-1.5.1-.4-.6-.4-.7-.1-1 2.8-1.9 5.5-3 8.2.2-4-.6-8-2-11.8-.1-.3-.6-.2-.5.2 1.5 4.6 1.7 9.3 1.6 14.1-.1.2-.2.4-.3.7-.2.4.4.6.7.3 1.1-1.7 2.1-3.7 2.8-5.7-1.1 7 .1 14.5 3.2 20.7.1.2.4.2.6.1v.1c.1.3.5.3.6 0 .5-1.3.4-2.8.8-4.2.3-1 .7-2 1.1-3 2.3 5.1 6.4 9.5 11.7 11.3.8.8 1.6 1.6 2.5 2.2.3 0 .6-.5.4-.8zm-96.8-70c1.7 5.5 1.7 10.5 1.2 16.1 0 .5.7.5.8.1 1.3-5.3.6-11-1.2-16.1 3.4 3 5.3 6.2 6.1 10.9 0 .2.4.2.4-.1.1-4.6-2.7-9.7-6.9-11.7-.2-.1-.5.2-.3.4-.1 0-.1.2-.1.4z" fill="#e2c1b6" stroke-width="none" opacity="1" stroke="none"></path></g><g id="svga-group-glasses-single-move" transform="matrix(1,0,0,1,0,0)"><g id="svga-group-glasses-single" transform="matrix(1,0,0,1,0,0)"></g></g></g></g></g><rect id="svga-credit-rect" width="200" height="15" x="0" y="185" fill="#ecf0f1" opacity="0.5" style="display: none;"></rect><text id="svga-credit-text" font-family="Avenir Next, Roboto, Helvetica, Arial, sans-serif" font-size="10px" text-anchor="start" font-weight="400" size="10px" anchor="start" weight="400" fill="#333333" x="33.40447998046875" y="182.60824704170227" style="display: none;"><tspan id="SvgjsTspan23937" dy="13" x="33.40447998046875">Created on AvatarMaker.com</tspan></text></g></svg>