<svg xmlns="http://www.w3.org/2000/svg" version="1.1" width="600px" height="600px" viewBox="0 0 200 200" style="overflow:hidden!important;"><defs id="SvgjsDefs20670"></defs><g id="svga-group-wrapper"><g id="svga-group-backs-single"></g><g id="svga-group-humanwrap-move" transform="matrix(1,0,0,1,0,0)"><g id="svga-group-humanwrap" transform="matrix(1,0,0,1,0,0)"><g id="svga-group-hair-back-move" transform="matrix(1,0,0,1,0,0)"><g id="svga-group-hair-back" transform="matrix(1,0,0,1,0,0)"></g></g><g id="svga-group-humanbody-back"><path id="SvgjsPath21071" d="M166.5 181.1c-10.9-6.6-27.6-8.4-35-12.1-4.9-2.5-9.1-4.7-8.9-17.8s1.9-42.4 1.9-42.4H75.4s1.6 29.4 1.9 42.4-4.2 15.6-8.9 17.8c-7.4 3.5-24.1 5.4-35 12.1-10.8 6.6-10 18.9-10 18.9v19.7h153.3V200c-.1 0 .7-12.3-10.2-18.9z" fill="#f4baa3" stroke-width="none" opacity="1" stroke="none"></path></g><g id="svga-group-chinshadow-single"><path id="SvgjsPath21311" d="M76.6 159.7c11 5 20.4 5.7 23.4 5.7s12.4-.8 23.3-5.7c-.5-2.2-.8-4.9-.7-8.5.2-13.1 1.9-42.4 1.9-42.4H75.4s1.6 29.4 1.9 42.4c.1 3.5-.2 6.3-.7 8.5z" fill="#d58464" stroke-width="none" opacity="0.65" stroke="none"></path></g><g id="svga-group-humanbody-front"><path id="SvgjsPath21072" d="M78.7 156.8c.5 4.8 1.7 9.4 3.1 13.9.8 2.3 1.6 4.6 2.6 6.9.8 2 1.7 4.2 3.1 5.9.3.4 1 0 .9-.5-.5-2.2-1.6-4.3-2.4-6.4-.9-2.2-1.7-4.4-2.5-6.6-1.5-4.4-2.8-8.9-4.1-13.3-.2-.4-.8-.3-.7.1zm41.3-1c-1.3 8.2-3.9 16.1-5.4 24.2-.1.4.4.5.6.2 3.1-7.7 4.1-16.1 5.1-24.3-.1-.2-.3-.2-.3-.1zm-25.8 11.9c-.9 3.6 1.9 8.6 6.2 7.6.5-.1.4-.8 0-1-1.4-.5-2.9-.9-3.9-2.1-1.1-1.2-1.5-2.9-1.4-4.5 0-.4-.8-.5-.9 0z" fill="#d58464" stroke-width="none" opacity="1" stroke="none"></path><path id="SvgjsPath21073" d="M177.3 219.7c-.1-6.6-.3-13.1-.3-19.7l-.3-.3c.1 0 .1 0 .2.1s.1.2.1.1v-1.4c0-.5-.1-.9-.1-1.4-.1-.9-.3-1.9-.5-2.8-.5-1.8-1.1-3.6-2-5.3-1.7-3.4-4.4-6.2-7.7-8.1-3.6-2.2-7.6-3.8-11.6-5.1-4-1.3-8.1-2.4-12.1-3.5-4-1.2-8.1-2.2-11.8-4.2-1.9-1-3.6-2.1-4.8-3.6-1.2-1.6-1.9-3.5-2.3-5.5-.8-4-.4-8.2-.3-12.4l.7-12.6 1.5-25.2.1-1.4h-1.4c-8.2 0-16.4 0-24.6.1l-24.6.3h-.9l.1.9c.8 11.9 1.6 23.8 2.1 35.7.1 3 .3 6 .2 8.9-.1 2.9-.4 5.9-1.6 8.6-.6 1.3-1.4 2.5-2.4 3.5s-2.3 1.8-3.6 2.4c-2.6 1.3-5.4 2.2-8.3 3-5.8 1.5-11.6 2.8-17.3 4.7-2.8.9-5.7 2-8.4 3.4-1.3.7-2.7 1.4-4 2.4-1.3.9-2.4 1.9-3.5 3.1-2.1 2.3-3.6 5.2-4.5 8.1-.5 1.5-.8 3-1 4.6-.1.8-.1 1.6-.1 2.4v2.3l-.2 17.9v1.3h1.4l38.3.2c12.8.1 25.5.1 38.3 0 12.8-.1 25.6-.1 38.3-.3 12.8-.2 25.6-.5 38.3-.7h.6v-.5zm-77.2-1.6H61.8l-37 .2-.1-16.6v-2.2c0-.7 0-1.4.1-2.1.1-1.4.4-2.8.8-4.2.8-2.7 2.1-5.3 3.9-7.5.9-1.1 2-2.1 3.1-2.9 1.1-.9 2.4-1.6 3.7-2.3 2.6-1.4 5.3-2.5 8.1-3.5 5.6-2 11.4-3.4 17.1-5.1 2.9-.8 5.8-1.7 8.5-3.1 1.3-.7 2.7-1.5 3.8-2.6 1.1-1.1 2-2.4 2.6-3.9 1.2-2.9 1.5-5.9 1.6-8.9 0-3-.1-6-.2-9l-1.3-34.8 23.5.4c7.7.1 15.4.1 23.1.1-.4 7.9-.8 15.9-1.1 23.8-.2 4.2-.2 8.4-.3 12.6 0 4.2-.2 8.5.8 12.8.5 2.1 1.3 4.2 2.8 6 1.4 1.7 3.4 2.9 5.3 3.8 3.9 1.9 8 2.8 12.1 3.8s8.2 2 12.2 3.3c4 1.3 7.9 2.8 11.5 5 3.2 1.9 5.8 4.7 7.5 8 .9 1.6 1.5 3.4 1.9 5.2.2.9.4 1.8.4 2.7.1.5.1.9.1 1.4V200l-.3 19c-12.6-.2-25.1-.5-37.7-.7-12.7-.1-25.5-.1-38.2-.2z" fill="#c66c49" stroke-width="none" opacity="1" stroke="none"></path></g><g id="svga-group-clothes-single"><path id="SvgjsPath21211" d="M179.6 220.1s.2-11.6 0-20.3-4.1-14.6-8.3-18.7c-4.2-4.1-19.6-8.5-28.5-10.9s-13.7-9.1-13.7-9.1 0-11.3-.2-12-1.7-1.1-1.7-1.1-2.4 3.5-6.7 5.4c-4.2 1.9-14.3 4.2-16.9 4.8s-2.2 11.1-2.2 11.1h-2.9s.4-10.5-2.2-11.1-12.7-3-16.9-4.8c-4.2-1.9-6.2-5.7-6.2-5.7s-2 .7-2.2 1.4-.2 12-.2 12-4.8 6.7-13.7 9.1c-8.9 2.4-24.2 6.8-28.5 10.9-4.2 4.1-8.1 10-8.3 18.7-.2 8.7 0 20.3 0 20.3h159.3z" fill="#cbe9ee" stroke-width="none" opacity="1"></path><path id="SvgjsPath21212" d="M90.2 178.5h19.4v2.9H90.2v-2.9zm0 16.5h19.4v2.9H90.2V195zm0 15.4h19.4v2.9H90.2v-2.9z" fill="#c9c9c9" stroke-width="none" opacity="1"></path><path id="SvgjsPath21213" d="M38.7 199.4c-.7-3.1-1.7-6.1-3-9s-2.9-5.7-4.9-8.1c.8 1.4 1.6 2.7 2.3 4.1.7 1.4 1.3 2.8 1.9 4.3 1.1 2.9 2.1 5.9 2.7 8.9.7 3.1 1.2 6.1 1.7 9.3.2 1.6.4 3.1.6 4.7.2 1.6.3 3.1.5 4.7.2-3.2 0-6.3-.3-9.5s-.9-6.3-1.5-9.4zm122.9 0c-.7 3.1-1.2 6.2-1.5 9.4-.3 3.1-.4 6.3-.3 9.5.1-1.6.3-3.1.5-4.7s.4-3.1.6-4.7c.5-3.1 1-6.2 1.7-9.3.6-3.1 1.6-6 2.7-8.9.6-1.5 1.2-2.9 1.9-4.3s1.4-2.8 2.3-4.1c-2 2.5-3.6 5.2-4.9 8.1-1.4 2.9-2.4 5.9-3 9zm18.3-1.5c-.3-3.7-1.3-7.5-3.2-10.8-.9-1.6-2-3.2-3.3-4.6-.6-.7-1.2-1.4-2-2-.7-.7-1.5-1.2-2.4-1.7-3.3-1.9-6.8-3.2-10.3-4.5-3.5-1.2-7-2.3-10.6-3.4l-5.3-1.5c-1.7-.5-3.4-1.2-5-2-3.1-1.6-5.9-3.9-8-6.6l-.1-6.7-.1-3.5v-.9c0-.2 0-.3-.1-.5 0-.2-.2-.6-.3-.8-.3-.4-.7-.6-1-.8s-.6-.3-1-.4h-.3c-.6-.1-2.7-.6-3.5-.6l-.1 4-.1.1c-1.2.9-2.5 1.7-3.9 2.2-2.9 1.1-5.9 2-9 2.8-1.5.4-3.1.8-4.6 1.2l-2.3.6c-.1 0-.2.1-.4.1-.2.1-.3.1-.4.2l-.6.6c-.3.4-.4.8-.6 1.2-.5 1.6-.7 3.2-.8 4.8-.1 1.4-.1 2.8-.1 4.2h-1.9c0-1.4 0-2.8-.1-4.3-.1-1.6-.3-3.2-.8-4.8-.2-.4-.3-.8-.6-1.2-.1-.2-.3-.4-.5-.5s-.5-.3-.7-.3l-2.3-.5c-1.5-.4-3.1-.7-4.6-1.1-3.1-.8-6.1-1.6-9.1-2.7-1.2-.5-1.4-1.1-2.5-1.9.1-.5.2-1.9-.1-4.5 0 0-3.1 0-5.1.7-.6.2-1.2.4-1.7.9-.3.4-.2.8-.3 1v.9l-.1 3.5-.1 6.9c-2.2 2.8-5.2 5.1-8.3 6.8-1.6.8-3.3 1.5-5.1 2l-5.4 1.4c-3.6 1-7.1 2.1-10.6 3.2-1.8.6-3.5 1.2-5.2 1.9s-3.5 1.4-5.1 2.4c-.8.5-1.6 1-2.4 1.7-.7.6-1.4 1.3-2 2-1.3 1.4-2.4 2.9-3.4 4.6-1.9 3.3-3.1 7-3.4 10.8-.2 1.9-.1 3.7-.1 5.6v16.7c0 .5.4.9.9.9 78.7 2 159.2-.6 159.2-.6l.2-11.3.1-5.6c.6-1.6.7-3.4.5-5.3zm-40.5 21.7-39.5-.3c.1-2.5.1-2.9.2-5.4 1.6 0 3.2-.1 4.8-.1 1.6-.1 3.2-.1 4.7-.3.1-.9.2-1.9.2-3 0-.1-.1-.2-.2-.3-1.6-.1-3.2-.1-4.8-.2-1.5-.1-3-.1-4.6-.1 0-.8.1-1.7.1-2.5.1-3.2.1-6 .1-9.1 1.6 0 3.1-.1 4.6-.1 1.6-.1 3.2-.1 4.7-.3.1-.9.2-1.9.2-3 0-.1-.1-.2-.2-.3-1.6-.1-3.2-.2-4.8-.2-1.4-.1-2.9-.1-4.4-.1 0-3.9 0-7.9-.1-11.8v-.8c1.6 0 3.2-.1 4.7-.1 1.6-.1 3.2-.1 4.7-.3.1-.9.2-1.9.2-3 0-.1-.1-.2-.2-.3-1.6-.1-3.2-.1-4.8-.2-1.5-.1-3.1-.1-4.6-.1v-1.5c-.1-1.6-.1-3.2-.2-4.8 4.9 0 9.9-.6 14.6-1.9 4.8-1.4 9.4-3.4 13.1-6.8-1.9 1.5-4.1 2.7-6.4 3.7-2.2 1-4.6 1.8-7 2.4-4.7 1.1-9.6 1.7-14.5 1.6v-.4.4h-.1c-4.9 0-9.8-.6-14.5-1.8-2.4-.6-4.7-1.4-6.9-2.4s-4.4-2.1-6.4-3.6c3.8 3.2 8.4 5.3 13.2 6.7 4.8 1.4 9.8 2 14.7 2.1-.1 1.6-.1 3.2-.2 4.8v1.5l-4.8.3c-1.6 0-3.2.1-4.8.2-.1 0-.2.1-.2.3 0 1 .1 2 .1 2.9 0 .1.1.2.2.2 1.6 0 3.2 0 4.9.1 1.5.1 3 .1 4.4.2v.8c-.1 3.9-.1 7.9-.1 11.8l-4.3.1c-1.6 0-3.2.1-4.8.2-.1 0-.2.1-.2.3 0 1 .1 2 .1 2.9 0 .1.1.2.2.2 1.6 0 3.2 0 4.9.1 1.4.1 2.9.1 4.3.1 0 3.2 0 5.6.1 9.1v2.5l-4.5.1c-1.6 0-3.2.1-4.8.2-.1 0-.2.1-.2.3 0 1 .1 2 .1 2.9 0 .1.1.2.2.2 1.6 0 3.2 0 4.9.1 1.5.1 3.1.1 4.6.2.1 2.5.1 2.9.2 5.4h-.2c-13.2-.1-26.4-.1-39.6-.2-12.9-.1-25.7 0-38.6.1v-15.6c0-1.8-.1-3.7.1-5.5.3-3.6 1.3-7.1 3.1-10.2.9-1.6 1.9-3 3.1-4.4.6-.7 1.2-1.4 1.9-1.9.6-.6 1.4-1.1 2.1-1.5 1.5-.9 3.2-1.7 4.9-2.4s3.4-1.4 5.1-2c3.5-1.2 7-2.4 10.5-3.4l5.3-1.5c1.8-.5 3.6-1.2 5.2-2.1 1.7-.9 3.2-1.9 4.7-3.1s2.8-2.5 3.9-4c0-.1.1-.1.1-.2v-7.1l.1-3.5v-.9c0-.3 0-.5.1-.7.2-.3.7-.5 1.2-.7 1.9 2.5 4.5 4.5 7.4 5.6 3 1.1 6 2 9.1 2.8 1.5.4 3.1.8 4.6 1.2l2.3.5c.6.1.9.8 1.2 1.5.5 1.4.6 3 .7 4.6s.1 3.1 0 4.7c0 .3.2.5.5.5h2.9c.3 0 .5-.2.5-.5 0-1.6 0-3.1.1-4.7.1-1.5.3-3.1.8-4.5.1-.3.3-.7.4-.9l.3-.3.1-.1h.2l2.3-.5c1.6-.4 3.1-.7 4.6-1.1 3.1-.8 6.2-1.6 9.2-2.7 1.5-.6 3-1.4 4.3-2.4 1.1-.9 2.2-1.9 3.1-3 .3.1.5.2.5.3v1.3l.1 3.5v7c0 .2.1.4.2.5 1.2 1.6 2.6 2.9 4.1 4.1 1.5 1.2 3.1 2.3 4.8 3.1 1.7.9 3.5 1.6 5.3 2.1l5.3 1.5c3.5 1 7.1 2.1 10.5 3.3 1.7.6 3.5 1.2 5.1 1.9 1.7.7 3.4 1.4 4.9 2.3.8.4 1.5.9 2.2 1.5s1.3 1.2 1.9 1.9c1.2 1.3 2.3 2.8 3.2 4.4 1.8 3.1 2.9 6.6 3.3 10.3.2 1.8.1 3.6.2 5.4l.1 5.5.2 11.1-40.4-.7zm-39.5-24.1c1.6 0 3.2 0 4.8-.1 1.5 0 3.1-.1 4.6-.2.1.8.1 1.7.2 2.6-1.7-.1-3.4-.2-5-.3s-3.2-.1-4.8-.1c-1.6 0-3.1.1-4.7.2-1.5.1-3.1.1-4.6.1 0-.8.1-1.7.1-2.5 1.5.1 3.1.1 4.6.2l4.8.1zm-.1-14.4c-1.6 0-3.1.1-4.7.2-1.5.1-3.1.1-4.6.1 0-.8.1-1.7.1-2.5 1.5.1 3.1.1 4.6.2l4.8.1c1.6 0 3.2 0 4.8-.1 1.5 0 3.1-.1 4.6-.2.1.8.1 1.7.2 2.6-1.7-.1-3.4-.2-5-.3-1.7-.1-3.3-.1-4.8-.1zm.1 29.9c1.6 0 3.2 0 4.8-.1 1.5 0 3.1-.1 4.6-.2.1.8.1 1.7.2 2.6-1.7-.1-3.4-.2-5-.3s-3.2-.1-4.8-.1c-1.6 0-3.1.1-4.7.2-1.5.1-3.1.1-4.6.1 0-.8.1-1.7.1-2.5 1.5.1 3.1.1 4.6.2l4.8.1z" fill="#87c5cf" stroke-width="none" opacity="1"></path></g><g id="svga-group-head" transform="matrix(1,0,0,1,0,0)"><g id="svga-group-ears-left-move" transform="matrix(1,0,0,1,0,0)"><g id="svga-group-ears-left" transform="matrix(1,0,0,1,0,0)"><path id="SvgjsPath21225" d="M58.8 91.7s-2.6-4.9-5.3-5.7-4.4.7-3.9 6.6 5.2 23.2 10.6 22.2c5.4-1.1.9-19.6-1.4-23.1z" fill="#f4baa3" stroke-width="none" opacity="1" stroke="none"></path><path id="SvgjsPath21226" d="M59.8 93.6c.3.7.6 1.5.8 2.2.5 1.5 1 3.1 1.4 4.8.4 1.6.7 3.4.9 5.2.1.9.2 1.8.2 2.7 0 .9 0 1.8-.1 2.8-.1.9-.3 1.8-.7 2.5-.3.7-.8 1.2-1.2 1.5-.9.5-1.9.4-2.8-.1-.9-.5-1.8-1.5-2.6-2.7s-1.4-2.5-2-4c-.6-1.4-1.1-3-1.6-4.5s-1-3.1-1.4-4.7-.8-3.3-1.1-5-.5-3.6-.3-5.4c.1-.9.3-1.8.7-2.4s.8-1 1.3-1.2.9-.2 1.4-.1.9.3 1.4.6c.9.6 1.7 1.5 2.5 2.5s1.5 2.2 2.2 3.4c.4.5.7 1.2 1 1.9zm-3.2-5c-.8-.9-1.6-1.6-2.5-1.9-.8-.3-1.7-.4-2.5-.1-.4.2-.7.4-1 .9s-.5 1.1-.6 1.8c-.2 1.4-.2 3.2.1 4.8.2 1.7.5 3.3.9 5 .8 3.2 1.8 6.3 3.1 8.9.6 1.3 1.3 2.5 2 3.5s1.5 1.8 2.3 2.2c.4.2.8.3 1.2.3s.8-.1 1.2-.4c.3-.2.7-.6.9-1.1s.4-1.2.5-1.9c.2-1.4.1-3.1 0-4.8-.1-1.7-.4-3.3-.7-5s-.7-3.3-1.1-4.9c-.4-1.6-1-3.1-1.7-4.3-.6-1-1.3-2.1-2.1-3z" fill="#e59e82" stroke-width="none" opacity="1" stroke="none"></path><path id="SvgjsPath21227" d="M52.4 89.6c2.3 1.5 4.4 5.7 5.4 9.9v.1c0 .3-.2.4-.2.1-.4-1.2-.9-1.2-1.5 0-.1.8-.1 1.5.1 2.3.2.7.4 1.4.7 2 .5 1.2 1.2 2.1 1.8 3.1.2.3 0 .7-.2.6-1.4-1.1-3.4-4.7-3-7.8.2-1.5 1-2.3 1.6-1.7-.8-2.1-1.7-4-2.8-5.5-.6-.8-2-2.7-2.7-2.4-1.3.6-.6 4.8-.5 6.6 0 .3-.2.4-.3.1-.7-3.3-.8-9 1.6-7.4z" fill="#d58464" stroke-width="none" opacity="1" stroke="none"></path><path id="SvgjsPath21228" d="M58 108.6c-2.4-.9-4.2-4.8-5.2-9-.6-2.6-1.8-8.6.5-8.5.2 0 .3.5.1.6-2.2 1.1.2 9.2.9 11.1 1 2.6 2.2 4.4 3.8 5.4.1.1 0 .5-.1.4z" fill="#d58464" stroke-width="none" opacity="1" stroke="none"></path></g></g><g id="svga-group-ears-right-move" transform="matrix(1,0,0,1,0,0)"><g id="svga-group-ears-right" transform="matrix(1,0,0,1,0,0)"><path id="SvgjsPath21229" d="M141.2 91.7s2.6-4.9 5.3-5.7 4.4.7 3.9 6.6-5.2 23.2-10.6 22.2c-5.4-1.1-.9-19.6 1.4-23.1z" fill="#f4baa3" stroke-width="none" opacity="1" stroke="none"></path><path id="SvgjsPath21230" d="M141.1 91.7c.7-1.2 1.4-2.4 2.2-3.4s1.6-1.9 2.5-2.5c.5-.3.9-.5 1.4-.6s.9-.1 1.4.1.9.5 1.3 1.2c.4.6.6 1.5.7 2.4.2 1.8 0 3.7-.3 5.4-.3 1.7-.7 3.4-1.1 5-.4 1.6-.9 3.2-1.4 4.7s-1 3.1-1.6 4.5-1.3 2.8-2 4c-.8 1.2-1.6 2.2-2.6 2.7-.9.5-1.9.7-2.8.1-.5-.3-.9-.8-1.2-1.5s-.5-1.6-.7-2.5c-.1-.9-.1-1.8-.1-2.8 0-.9.1-1.8.2-2.7.2-1.8.5-3.5.9-5.2s.9-3.2 1.4-4.8c.3-.8.5-1.5.8-2.2.4-.7.7-1.4 1-1.9zm.1.1c-.7 1.2-1.2 2.7-1.7 4.3-.4 1.6-.8 3.2-1.1 4.9-.3 1.7-.5 3.3-.7 5-.1 1.6-.2 3.3 0 4.8.1.7.3 1.4.5 1.9s.6.9.9 1.1c.3.3.8.3 1.2.4.4 0 .8-.1 1.2-.3.8-.4 1.6-1.2 2.3-2.2s1.4-2.2 2-3.5c1.3-2.6 2.3-5.7 3.1-8.9.4-1.6.7-3.3.9-5 .2-1.6.3-3.4.1-4.8-.1-.7-.3-1.3-.6-1.8-.3-.4-.6-.7-1-.9-.8-.3-1.7-.2-2.5.1-.8.4-1.7 1-2.5 1.9-.7.7-1.4 1.8-2.1 3z" fill="#e59e82" stroke-width="none" opacity="1" stroke="none"></path><path id="SvgjsPath21231" d="M147.6 89.6c-2.3 1.5-4.4 5.7-5.4 9.9v.1c0 .3.2.4.2.1.4-1.2.9-1.2 1.5 0 .1.8.1 1.5-.1 2.3-.2.7-.4 1.4-.7 2-.5 1.2-1.2 2.1-1.8 3.1-.2.3 0 .7.2.6 1.4-1.1 3.4-4.7 3-7.8-.2-1.5-1-2.3-1.6-1.7.8-2.1 1.7-4 2.8-5.5.6-.8 2-2.7 2.7-2.4 1.3.6.6 4.8.5 6.6 0 .3.2.4.3.1.7-3.3.8-9-1.6-7.4z" fill="#d58464" stroke-width="none" opacity="1" stroke="none"></path><path id="SvgjsPath21232" d="M142 108.6c2.4-.9 4.2-4.8 5.2-9 .6-2.5 1.8-8.5-.5-8.5-.2 0-.3.5-.1.6 2.2 1.1-.2 9.2-.9 11.1-1 2.6-2.2 4.4-3.8 5.4-.1.1 0 .5.1.4z" fill="#d58464" stroke-width="none" opacity="1" stroke="none"></path></g></g><g id="svga-group-faceshape-wrap" transform="matrix(1,0,0,1,0,0)"><g id="svga-group-faceshape-single"><path id="SvgjsPath21301" d="M100 35.3c-22.5 0-41.9 16.4-43.2 46.4v.3c0 2.2-1.4 19.3.9 31.5 2.4 13.2-.3 25.4 12.2 32.1s26.8 7.6 30.1 7.6 17.5-.9 30.1-7.6 9.5-18.9 11.9-32.1c2.3-12.2 1.1-29.3 1.2-31.5v-.3c-1.3-29.9-20.7-46.4-43.2-46.4z" fill="#f4baa3" stroke-width="none" opacity="1" stroke="none"></path><path id="SvgjsPath21302" d="M69.9 145.6c12.5 6.7 26.8 7.6 30.1 7.6s17.5-.9 30.1-7.6c12.6-6.7 9.5-18.9 11.9-32.1 2.3-12.2 1.1-29.3 1.2-31.5v-.3c-1.3-29.9-20.7-46.4-43.2-46.4S58.1 51.7 56.8 81.7v.3c0 2.2-1.4 19.3.9 31.5 2.4 13.2-.3 25.4 12.2 32.1zM58.5 95c.1-3.4.3-6.9.4-10.4 0-.9.1-1.7.1-2.7 0-.8.1-1.7.2-2.5l.2-2.5c.1-.8.2-1.7.4-2.5l.4-2.5c.1-.8.4-1.6.6-2.5l.6-2.5c.2-.8.5-1.6.8-2.4.3-.8.5-1.6.8-2.4l1-2.3c.6-1.6 1.5-3 2.2-4.5.4-.8.9-1.4 1.3-2.1.5-.7.9-1.4 1.4-2.1l1.6-2 .8-1 .9-.9 1.8-1.8c.6-.6 1.3-1.1 2-1.6 1.3-1.1 2.8-2 4.2-2.9 5.9-3.5 12.9-5.2 19.9-5.3 6.9.1 13.9 1.8 19.8 5.3 1.4 1 2.9 1.8 4.2 2.9.7.5 1.3 1.1 2 1.6l1.8 1.8.9.9.8 1 1.6 2c.5.7.9 1.4 1.4 2.1.4.7 1 1.4 1.3 2.1.8 1.5 1.6 2.9 2.2 4.5 0 0 1.5 3.9 1.8 4.7l1.2 4.9c.2.8.4 1.6.5 2.5 0 0 .7 4.2.7 5l.2 2.5s.1 2.3.1 2.4v2.7c.1 3.5.1 6.9.1 10.4-.1 3.4-.2 8.9-.6 12.2-.2 1.7-.4 3.4-.7 5-.1.8-.3 1.8-.4 2.6-.2.9-.2 1.8-.3 2.7-.4 3.6-.5 7.1-.8 10.4-.4 3.3-.9 6.6-2.4 9.2-1.4 2.7-3.6 4.8-6.4 6.4-2.9 1.6-6 3-9.2 4.1s-6.5 2-9.9 2.7c-3.3.7-6.8 1.2-10.1 1.4-3.4 0-6.8-.3-10.2-.8-3.4-.5-6.8-1.2-10.1-2.3-3.3-1-6.5-2.3-9.5-4-3-1.6-5.5-4-7.1-6.9-.4-.7-.7-1.5-1-2.3-.2-.8-.5-1.6-.7-2.4-.2-.8-.4-1.7-.5-2.5-.2-.8-.2-1.7-.3-2.5-.3-3.4-.4-6.9-.7-10.5-.1-1.7-.4-3.6-.6-5.3-.1-.8-.2-1.7-.3-2.5s-.2-1.7-.2-2.6c-.3-3.1-.3-8.6-.2-12z" fill="#c66c49" stroke-width="none" opacity="1" stroke="none"></path></g></g><g id="svga-group-mouth-single-move" transform="matrix(1,0,0,1,0,0)"><g id="svga-group-mouth-single" transform="matrix(1,0,0,1,0,0)"><path id="SvgjsPath21371" d="M89.73 129.12s.31-3.11 3.02-5.12c2.71-2.01 7.32-2.26 10.43-1.66 3.35.65 6.62 3.92 6.81 7.28 0 0-.32.42-1.08.1-.96-.4-4.39-1.93-6.06-2.1-1.68-.17-5.23-.21-7.9.63-2.67.85-5.22.87-5.22.87z" fill="#A06B59" stroke-width="none" opacity="1" transform="translate(0 2)" stroke="none"></path><path id="SvgjsPath21372" d="M91.35 132.82c3.01 2.67 6.83 2.97 8.66 2.95 2.94-.01 6.01-.93 8.12-2.96.48-.51.91-1.24.76-1.05-1.97 2.4-5.55 2.77-9.09 2.76-3.73 0-7.42-.51-9.3-3.04.22.67.85 1.34.85 1.34z" fill="#d58464" stroke-width="none" opacity="1" transform="translate(0 2)" stroke="none"></path><path id="SvgjsPath21373" d="M114.05 128.69c-.22-.71-.71-1.3-1.48-1.4-.36-.05-.52.41-.38.67.1.19.19.37.28.54-2.36 1.78-5.04.31-7.46-.55-1.89-.67-3.79-.88-5.79-.71-4.3.37-8.38 1.69-12.74 1.31.08-.12.14-.25.24-.35.32-.31-.09-.76-.45-.59-.67.32-1.09.93-1.17 1.67-.06.62.13 1.49.8 1.7.19.06.37-.1.38-.29.01-.33-.1-.64-.13-.96 4.88.55 9.41-1.89 14.29-1.92 2.81-.02 4.99 1.21 7.56 2.1 1.53.53 3.18.78 4.69.23.01.54.27 1.01.9.62.66-.4.67-1.4.46-2.07z" fill="#915642" stroke-width="none" opacity="1" transform="translate(0 2)" stroke="none"></path></g></g><g id="svga-group-eyes-left-move" transform="matrix(1,0,0,1,0,0)"><g id="svga-group-eyes-left" transform="matrix(1,0,0,1,0,0)"><g id="svga-group-eyesback-left"><path id="SvgjsPath21263" d="M88.2 99.8s.1-4-2.3-6.6c-2.4-2.6-6.4-5.6-14.3-2.8 0 0 1.3 3.7 2.8 5.3 1.5 1.5 4.7 3.8 7.6 4.2 3 .3 6.2-.1 6.2-.1z" fill="#ffffff" stroke-width="none" opacity="1"></path></g><g id="svga-group-eyesiriswrapper-left" transform="matrix(1,0,0,1,0,0)"><g id="svga-group-eyesiriscontrol-left" transform="matrix(1,0,0,1,0,0)"><g id="svga-group-eyesiris-left" transform="matrix(1,0,0,1,0,0)"><path id="SvgjsPath21315" d="M80.1 88.1c3 0 5.5 2.4 5.5 5.5S83.1 99 80.1 99s-5.5-2.4-5.5-5.5 2.4-5.4 5.5-5.4z" fill="#fdd70e" stroke-width="none" opacity="1"></path><path id="SvgjsPath21316" d="M80.1 99.3c-3.2 0-5.7-2.6-5.7-5.7 0-3.2 2.6-5.7 5.7-5.7 3.2 0 5.7 2.6 5.7 5.7s-2.6 5.7-5.7 5.7zm0-11c-2.9 0-5.2 2.3-5.2 5.2s2.3 5.2 5.2 5.2 5.2-2.3 5.2-5.2c-.1-2.8-2.4-5.2-5.2-5.2z" fill="#debb00" stroke-width="none" opacity="1"></path><path id="SvgjsPath21317" d="M80.1 90.6c1.6 0 2.9 1.3 2.9 2.9s-1.3 2.9-2.9 2.9-2.9-1.3-2.9-2.9 1.2-2.9 2.9-2.9z" fill="#000000" stroke-width="none" opacity="1"></path><path id="SvgjsPath21318" d="M78.7 90.5c.6 0 1 .5 1 1s-.5 1-1 1-1-.5-1-1 .5-1 1-1zm3.4 4.7c.2 0 .4.2.4.4s-.2.4-.4.4-.4-.2-.4-.4.2-.4.4-.4z" fill="#ffffff" stroke-width="none" opacity="1"></path></g></g></g><g id="svga-group-eyesfront-left"><path id="SvgjsPath21271" d="M69.4 94.6c0 6.4 4.7 11.5 10.6 11.5s10.6-5.2 10.6-11.5S85.9 83.1 80 83.1s-10.6 5.1-10.6 11.5zm2.2-4.2c7.9-2.9 12 .2 14.3 2.8 2.4 2.6 2.3 6.6 2.3 6.6s-3.2.5-6.2.1c-2.9-.4-6.1-2.7-7.6-4.2s-2.8-5.3-2.8-5.3z" fill="#f4baa3" stroke-width="none" opacity="1" stroke="none"></path><path id="SvgjsPath21272" d="M71.2 90.6c2.4 7.1 9.7 11.3 17.1 9.5.2-.1.2-.3.1-.4.8-3.5-1.7-7.2-4.5-9.1-3.3-2.1-9-2.9-12.4-.7-.1.1-.1.2-.1.3-.2.1-.3.2-.2.4zm.7-.2c1.6-.2 3.2-.8 4.9-.8 2.1 0 4.2.4 6 1.4 3.4 1.9 4.6 5 5.2 8.5-3.6 0-7 .1-10.2-1.7-2.8-1.6-4.8-4.3-5.9-7.4z" fill="#d6f7f4" stroke-width="none" opacity="1" stroke="none"></path></g></g></g><g id="svga-group-eyes-right-move" transform="matrix(1,0,0,1,0,0)"><g id="svga-group-eyes-right" transform="matrix(1,0,0,1,0,0)"><g id="svga-group-eyesback-right"><path id="SvgjsPath21264" d="M111.8 99.8s-.1-4 2.3-6.6c2.4-2.6 6.4-5.6 14.3-2.8 0 0-1.3 3.7-2.8 5.3-1.5 1.5-4.7 3.8-7.6 4.2-3 .3-6.2-.1-6.2-.1z" fill="#ffffff" stroke-width="none" opacity="1"></path></g><g id="svga-group-eyesiriswrapper-right" transform="matrix(1,0,0,1,0,0)"><g id="svga-group-eyesiriscontrol-right" transform="matrix(1,0,0,1,0,0)"><g id="svga-group-eyesiris-right" transform="matrix(1,0,0,1,0,0)"><path id="SvgjsPath21319" d="M119.9 88.1c3 0 5.5 2.4 5.5 5.5S123 99 119.9 99s-5.5-2.4-5.5-5.5 2.5-5.4 5.5-5.4z" fill="#fdd70e" stroke-width="none" opacity="1"></path><path id="SvgjsPath21320" d="M119.9 99.3c-3.2 0-5.7-2.6-5.7-5.7 0-3.2 2.6-5.7 5.7-5.7 3.2 0 5.7 2.6 5.7 5.7s-2.5 5.7-5.7 5.7zm0-11c-2.9 0-5.2 2.3-5.2 5.2s2.3 5.2 5.2 5.2 5.2-2.3 5.2-5.2c0-2.8-2.3-5.2-5.2-5.2z" fill="#debb00" stroke-width="none" opacity="1"></path><path id="SvgjsPath21321" d="M119.9 90.6c1.6 0 2.9 1.3 2.9 2.9s-1.3 2.9-2.9 2.9-2.9-1.3-2.9-2.9 1.3-2.9 2.9-2.9z" fill="#000000" stroke-width="none" opacity="1"></path><path id="SvgjsPath21322" d="M118.6 90.5c.6 0 1 .5 1 1s-.5 1-1 1-1-.5-1-1 .5-1 1-1zm3.4 4.7c.2 0 .4.2.4.4s-.2.4-.4.4-.4-.2-.4-.4.2-.4.4-.4z" fill="#ffffff" stroke-width="none" opacity="1"></path></g></g></g><g id="svga-group-eyesfront-right"><path id="SvgjsPath21273" d="M120 83.1c-5.9 0-10.6 5.2-10.6 11.5s4.7 11.5 10.6 11.5 10.6-5.2 10.6-11.5-4.8-11.5-10.6-11.5zm5.6 12.6c-1.5 1.5-4.7 3.8-7.6 4.2-2.9.4-6.2-.1-6.2-.1s-.1-4 2.3-6.6c2.4-2.6 6.4-5.6 14.3-2.8 0 0-1.3 3.7-2.8 5.3z" fill="#f4baa3" stroke-width="none" opacity="1" stroke="none"></path><path id="SvgjsPath21276" d="M128.7 90.2c0-.1 0-.2-.1-.3-3.4-2.2-9.2-1.4-12.4.7-2.8 1.8-5.4 5.6-4.5 9.1-.1.1-.1.4.1.4 7.4 1.7 14.7-2.4 17.1-9.5 0-.2-.1-.3-.2-.4zm-6.5 7.7c-3.2 1.9-6.6 1.8-10.2 1.7.6-3.6 1.8-6.7 5.2-8.5 1.8-1 3.9-1.5 6-1.4 1.7 0 3.2.6 4.9.8-1.1 3-3.1 5.7-5.9 7.4z" fill="#d6f7f4" stroke-width="none" opacity="1" stroke="none"></path></g></g></g><g id="svga-group-facehighlight-single"></g><g id="svga-group-eyebrows-left-move" transform="matrix(1,0,0,1,0,0)"><g id="svga-group-eyebrows-left-rotate" transform="matrix(1,0,0,1,0,0)"><g id="svga-group-eyebrows-left" transform="matrix(1,0,0,1,0,0)"><path id="SvgjsPath21193" d="M71.9 81.2c.2-.2.4-.3.6-.4.2-.1.4-.2.7-.3.4-.2.8-.4 1.3-.5.5-.2 1.4-.5 1.9-.2 1.7-.6 4-.2 5.6.6 2.1.2 4.3.9 5.9 2 .1.1.2.2.2.3l.9.3c1.1.4 2.3.8 3.4 1.3.1 0 .2.1.3.1.4.2.5.7.2.9-.1.1-.1.2-.3.3-.8.6-2 .2-2.9-.1-.8-.3-1.6-.7-2.2-1.3-.8-.3-1.6-.7-2.3-1.2-.1 0-.2-.1-.3-.1-1.4-.2-2.8-.8-4-1.4h-.1c-.7-.2-1.4-.3-2.2-.3-1-.1-2 .2-3-.1h-.1c-.2.1-.4.1-.6.2-.9.3-1.6.4-2.6.4-.1 0-.2-.1-.2-.2H72s-.2-.2-.1-.3z" fill="#decfbc" stroke-width="none" opacity="1"></path><path id="SvgjsPath21194" d="M76.9 79.1c3.4-.3 6.8 1.7 9.9 2.9 1.9.7 5.8 1 6.5 3.3.1.3-.3.5-.5.2-1-1.4-2.6-1.5-4.1-2-1.3-.4-2.6-.9-3.8-1.4-2.7-1.1-5.3-1.7-8-2.4-.3-.2-.2-.6 0-.6z" fill="#ede8e1" stroke-width="none" opacity="1"></path><path id="SvgjsPath21195" d="M94.4 85.2c.3-1.5-2-2.1-3.1-2.5-2.7-1.1-5.4-2.3-8.2-3.1-1.7-.5-3.4-.8-5.1-.8-1.3 0-2.6.1-3.8.5-2.2.7-4.3 1.9-6.2 3.4-1 .6-2 1.3-2.8 2.1-.2.2 0 .4.2.3.1 0 .1 0 .1-.1.1.1.1.1.2.1 1.6-.7 3.1-1.8 4.8-2.5 1.6-.7 3.4-1.1 5.1-1.2h.8c2.1 0 4.1.4 6 1.3 2.6 1.2 5.1 2.8 7.7 3.8.5.2 1 .3 1.6.2 1.3.2 2.4-.3 2.7-1.5zm-16.3-5.4c1.8 0 3.6.4 5.3 1 2.2.8 4.4 1.8 6.6 2.6.4.2 2.6.7 2.8 1.3.2.7-.3.9-.8 1-.3 0-.6-.1-.8-.1-.7-.2-1.3-.6-1.9-.9-3.4-1.7-6.9-3.9-10.8-4.1h-1.1c-1.2 0-2.5.1-3.8.3.6-.2 1.1-.4 1.7-.6.8-.4 1.8-.5 2.8-.5z" fill="#cfb89a" stroke-width="none" opacity="1"></path></g></g></g><g id="svga-group-eyebrows-right-move" transform="matrix(1,0,0,1,0,0)"><g id="svga-group-eyebrows-right-rotate" transform="matrix(1,0,0,1,0,0)"><g id="svga-group-eyebrows-right" transform="matrix(1,0,0,1,0,0)"><path id="SvgjsPath21196" d="M128.1 81.2c-.2-.2-.4-.3-.6-.4-.2-.1-.4-.2-.7-.3-.4-.2-.8-.4-1.3-.5-.5-.2-1.4-.5-1.9-.2-1.7-.6-4-.2-5.6.6-2.1.2-4.3.9-5.9 2-.1.1-.2.2-.2.3l-.9.3c-1.1.4-2.3.8-3.4 1.3-.1 0-.2.1-.3.1-.4.2-.5.7-.2.9.1.1.1.2.3.3.8.6 2 .2 2.9-.1.8-.3 1.6-.7 2.2-1.3.8-.3 1.6-.7 2.3-1.2.1 0 .2-.1.3-.1 1.4-.2 2.8-.8 4-1.4h.1c.7-.2 1.4-.3 2.2-.3 1-.1 2 .2 3-.1h.1c.2.1.4.1.6.2.9.3 1.6.4 2.6.4.1 0 .2-.1.2-.2h.1s.2-.2.1-.3z" fill="#decfbc" stroke-width="none" opacity="1"></path><path id="SvgjsPath21197" d="M123.1 79.1c-3.4-.3-6.8 1.7-9.9 2.9-1.9.7-5.8 1-6.5 3.3-.1.3.3.5.5.2 1-1.4 2.6-1.5 4.1-2 1.3-.4 2.6-.9 3.8-1.4 2.7-1.1 5.3-1.7 8-2.4.3-.2.2-.6 0-.6z" fill="#ede8e1" stroke-width="none" opacity="1"></path><path id="SvgjsPath21198" d="M108.2 86.8c.5 0 1.1-.1 1.6-.2 2.7-1 5.1-2.7 7.7-3.8 1.9-.9 3.9-1.3 6-1.3h.8c1.8.1 3.5.6 5.1 1.2 1.7.7 3.1 1.7 4.8 2.5.1 0 .2 0 .2-.1 0 0 .1 0 .1.1.2.1.4-.1.2-.3-.8-.8-1.7-1.5-2.8-2.1-1.9-1.4-4-2.7-6.2-3.4-1.2-.4-2.5-.6-3.8-.5-1.7 0-3.4.3-5.1.8-2.8.8-5.5 2-8.2 3.1-1.1.4-3.4 1-3.1 2.5.4 1.1 1.5 1.6 2.7 1.5zm16.7-6.6c.6.2 1.2.4 1.7.6-1.3-.2-2.6-.4-3.8-.3h-1.1c-3.9.2-7.4 2.4-10.8 4.1-.6.3-1.2.7-1.9.9-.2.1-.5.1-.8.1-.6 0-1.1-.3-.8-1 .2-.6 2.4-1.1 2.8-1.3 2.2-.9 4.4-1.9 6.6-2.6 1.7-.6 3.5-1 5.3-1 .8.1 1.8.2 2.8.5z" fill="#cfb89a" stroke-width="none" opacity="1"></path></g></g></g><g id="svga-group-beardwrap" transform="matrix(1,0,0,1,0,0)"><g id="svga-group-beard-single-move" transform="matrix(1,0,0,1,0,0)"><g id="svga-group-beard-single" transform="matrix(1,0,0,1,0,0)"><path id="SvgjsPath21184" d="M90.9 134.6s8.5 2.7 18.5.5c0 0-.7 3.4-1.7 5.2-1 1.8-2.7 3.8-2.7 3.8l.2-.9s-.9 1-1.9 1.6l-.1-.6s-1 .9-2.5 1.5l-2-.8.1.4s-2.4-.5-3.6-2.4l-.2.5c-.1.2-3.8-3.6-4.1-8.8z" fill="#decfbc" stroke-width="none" opacity="1"></path><path id="SvgjsPath21185" d="M94.4 140.9c-.1-.2-.4-.1-.3.1.2.7.6 1.4 1 1.9-.7-.7-1.4-1.5-1.9-2.5-.6-1.2-1-2.5-1.5-3.8 0-.1-.1-.1-.2-.1-.1-.6-.2-1.1-.2-1.8 0-.2-.3-.2-.3 0-.4 2.2.4 4.8 1.8 6.6.1.1.2.1.2 0 .6 1.1 1.5 2 2.5 2.3.1 0 .1 0 .1-.1.3.3.6.6 1 .8.2.1.3-.1.2-.2-1-1-1.9-1.9-2.4-3.2zm8.4 2.3c-.8.8-1.5 1.7-2.4 2.4-.4-.4-.8-.7-1.2-1-.4-.4-.8-.9-1.2-1.4-.2-.2-.6 0-.4.2.3.5.8 1.1 1.2 1.5l.2.2c-.5-.4-1-.7-1.4-1.1-.5-.5-.9-1-1.3-1.6-.2-.2-.5 0-.3.2.6 1.2 1.5 2.8 3.1 2.9.2 0 .2-.2.2-.3.3.3.6.5.9.6-.1.2.1.4.3.3 1.1-.7 2.1-1.6 2.6-2.8 0 0-.2-.2-.3-.1zm1.8-.4c-.3.3-.5.6-.8.9-.3.2-.6.5-.9.8-.1.1 0 .1 0 .1l-.2.2c-.1.1 0 .3.2.2.8-.4 1.5-1.2 1.9-2.1 0-.1-.1-.3-.2-.1zm2-2.1c-.6 1.2-1.3 2.3-2.3 3.2-.2.1.1.4.2.2 1-.9 1.8-2.1 2.2-3.4h-.1zm2.7-5.4c0-.2-.2-.2-.3 0-.3.9-.4 1.9-.7 2.8l-.3.9c-.5 1.1-1 2.1-1.7 3-.1.2.2.3.3.2.3-.4.6-.8.8-1.3.1.1.2.1.3 0 1.1-1.5 1.8-3.7 1.6-5.6zm-14.7 5.6c.3.4.7.8 1.2 1.1.1.1.3-.1.2-.2-.7-1-1.5-1.9-1.9-3.1-.1-.2-.3-.1-.3 0-.2-.6-.4-1.2-.5-1.8 0-.2-.4-.2-.4.1.2 1.4.6 2.9 1.7 3.9-.1 0 0 0 0 0zm2.5 1.6c.1.1.2-.1.1-.2-.5-.5-1-1-1.4-1.6-.1-.1-.3 0-.2.1.4.6.8 1.3 1.5 1.7zm-4.2-4.9c-.1-.6-.2-1.1-.4-1.6 0-.1-.2-.1-.2.1.1.5.2 1.1.4 1.6.1 0 .2 0 .2-.1zm3.8 2.5c.2.8.6 1.6 1.1 2.3.1.1.3 0 .3-.2-.6-1.2-1.2-2.3-1.3-3.7 0-.2-.4-.2-.4 0v.4c-.2-.9-.3-1.7-.5-2.6 0-.2-.3-.1-.3 0-.1 1.3.1 2.7.7 3.9.2.1.4.1.4-.1zm1.6 1.7c.3.9.9 1.9 1.7 2.5.1.1.2-.1.1-.2-.7-.8-1.2-1.4-1.6-2.4 0-.2-.3-.1-.2.1zm2 1.2c.1.6.1 1.2.2 1.8 0 .2.3.1.3 0 .2-.6 0-1.3-.1-1.9-.1-.2-.4-.1-.4.1zm-.4-2.7c-.3-.6-.6-1.3-.7-2 0-.2-.3-.2-.3 0 .1.8.3 1.5.8 2.1.1.1.3 0 .2-.1zm.8 1.1c.1-.6-.1-1.4-.1-2 0-.2-.3-.2-.3 0 .1.7.1 1.4.2 2 0 .1.2.1.2 0zm1.7 1.9c.8-.8 1.2-1.9 1.5-2.9.1-.2-.3-.3-.4-.1-.4 1-.9 1.9-1.3 2.9-.1.1.1.2.2.1zm-4.5-3.9c.3 1.1.8 2.6 1.9 3.2.2.1.4-.1.3-.3-.3-.5-.7-1-1.1-1.5v-.2c-.3-1.3-.7-2.7-1.1-4 0-.2-.3-.1-.3 0 .1.8.2 1.7.4 2.5-.1.2-.1.2-.1.3zm6.1 3.2c.6-.6.8-1.6 1-2.4.1-.2-.3-.3-.4-.1-.1.4-.3.9-.4 1.3-.2.3-.4.6-.5 1 0 .2.2.4.3.2zm1.9-2.6c.2-.5.3-1.1.5-1.6.1-.2-.3-.3-.4-.1-.2.5-.3 1.1-.4 1.6 0 .2.2.2.3.1zm.9-.7c.4-.7.5-1.5.6-2.2 0-.2-.3-.3-.4-.1-.1.8-.4 1.5-.5 2.2 0 .1.3.3.3.1z" fill="#cfb89a" stroke-width="none" opacity="1"></path></g></g></g><g id="svga-group-mustache-single-move" transform="matrix(1,0,0,1,0,0)"><g id="svga-group-mustache-single" transform="matrix(1,0,0,1,0,0)"></g></g><g id="svga-group-nose-single-move" transform="matrix(1,0,0,1,0,0)"><g id="svga-group-nose-single" transform="matrix(1,0,0,1,0,0)"><path id="SvgjsPath21358" d="M105.53 106.38c.26.82 3.73 4.55 3.79 6.57.06 2.02-2.08 4.04-4.74 2.21 0 0-2.46 1.89-4.74 1.64s-3.54-1.83-3.54-1.83-2.15.82-3.98.19c-1.83-.63-2.27-2.84-.95-4.86 1.33-2.02 3.6-5.49 4.1-7.45.52-1.96 7.09-5.62 10.06 3.53z" fill="#f4baa3" stroke-width="none" opacity="1" transform="translate(0 1)" stroke="none"></path><path id="SvgjsPath21359" d="M105.49 105.94c-.16-.2-.5.06-.36.28.93 1.43 1.95 2.83 2.81 4.31.59 1 1.18 2.25.77 3.46-.67 1.98-2.42 1.87-3.83 1.11.53-.68.84-1.48.77-2.36-.02-.22-.32-.41-.48-.2-1.4 1.76-2.29 3.6-4.89 3.7-2.75.11-4.52-2.12-5.25-4.51-.06-.21-.35-.16-.36.05-.07 1.1.27 2.16.87 3.06-.4.07-.8.15-1.2.17-1.28.08-1.49-.02-2.33-1.09-.89-1.12-.89-1.4-.4-2.65.23-.58.58-1.08.91-1.61 1.08-1.68 2.04-3.39 2.75-5.26 1.43-3.73 2.05-7.86 1.36-11.81-.03-.17-.29-.12-.29.04-.01 3.2-.21 6.36-1.15 9.44-.97 3.19-2.81 5.59-4.34 8.46-.8 1.49-1.13 3.46.23 4.74 1.35 1.28 3.43.87 5.01.27.94 1.02 2.24 1.72 3.61 1.85 1.55.14 3.58-.61 4.83-1.88 1.45 1.61 4.23.86 4.96-1.19 1.09-3.12-2.3-6.24-4-8.38z" fill="#c66c49" stroke-width="none" opacity="1" transform="translate(0 1)" stroke="none"></path><path id="SvgjsPath21360" d="M102.24 108.78c-.89-.83-2.3-1.07-3.3-.3-.36.28-.58.63-.67 1-.17.06-.34.16-.48.3-.76.74-.44 1.9.21 2.59.55.59 1.45.87 2.24.83.97-.05 1.85-.51 2.39-1.33.63-.95.44-2.31-.39-3.09z" fill="#fcc9b5" stroke-width="none" opacity="1" transform="translate(0 1)" stroke="none"></path></g></g><g id="svga-group-hair-front" transform="matrix(1,0,0,1,0,0)"><path id="SvgjsPath21395" d="M137.8 58.2s3.6 2.5 3.7 7.5c0 0 1.7.8 1.6 6 0 0 1.4 2.5 1 6.3 0 0 .7 1.7.1 4-.2.7.7 3.6.2 4.5-3.4 5.5-5.6 4.5-5.6 4.5s-1.3-.7-.4-2.9c0 0-2.7.4-1.2-5.4 0 0-1.8-.3-1.2-3.5 0 0-1.7-1.8-.4-5.4 0 0-1.4-2-.1-4.3-.1 0 2-7.3 2.3-11.3zm-75.6 0s-3.6 2.5-3.7 7.5c0 0-1.7.8-1.6 6 0 0-1.4 2.5-1 6.3 0 0-.7 1.7-.1 4 .2.7-.7 3.6-.2 4.5C59 92 61.3 91 61.3 91s1.3-.7.4-2.9c0 0 2.7.4 1.2-5.4 0 0 1.8-.3 1.2-3.5 0 0 1.7-1.8.4-5.4 0 0 1.4-2 .1-4.3 0 0-2.1-7.3-2.4-11.3z" fill="#decfbc" stroke-width="none" opacity="1" stroke="none"></path><path id="SvgjsPath21396" d="M136.2 70.3c.1-.9.1-1.9.2-2.8-.3.8-.6 1.6-1 2.2-.1.1-.2 0-.2-.1.4-2 1.1-3.8 1.4-5.8.3-2 .4-4 .7-6 0-.2.2-.2.3-.2h.1c2.6 1.1 4.2 5 4.3 8.4.1-.2.4-.3.5-.1.8 1.4 1 3.3.9 5.2.8 1.9 1.1 4.1.9 6.1 0 0 .1 0 .1.1.3 1.4.4 3.2.1 5 2.3 3.2-1.8 8.4-4.6 9.3-.3.1-.4-.3-.3-.5.9-1.2 2.3-1.9 3.2-3.1 1.1-1.4 1.3-2.8 1.3-4.3-.6 2.3-1.8 4.5-3.4 5.6-.1.1-.2-.1-.2-.2 1-1.9 2.2-3.3 2.9-5.4.5-1.6.6-3.3.7-5-.1.5-.2 1-.4 1.4-.1.2-.4.2-.4-.1.2-2.6.2-4.9-.1-7.4-.2.9-.5 1.8-.8 2.5-.1.3-.5.1-.4-.2.3-1.5.6-3.2.6-4.7 0-1.3-.4-2.6-.4-3.9 0 1.1-.1 2.1-.4 2.9-.1.2-.4.1-.4-.1-.1-2.1 0-4.1-.7-6.1-.6-1.8-1.7-2.9-2.6-4.3 0 2.6-.4 5.4-1.2 7.9.1 0 .3 0 .3.2.6 2.2-.1 5.1-1.2 6.9-.1.2-.5.1-.4-.2 0-1 .4-2.1.6-3.2zm1.9 3.2c.4-1.8.4-3.6.6-5.4 0-.2.4-.2.4 0 .4 2.2.1 4.8-.7 7.2.1 0 .2.1.2.2.2 2.5-.4 5.1-1.3 7.3-.1.2-.3.1-.3-.1.6-2.2.8-4.3 1-6.5-.5 1.2-1.1 2.3-1.8 3.2-.2.3-.6-.1-.4-.3 1-1.9 1.8-3.6 2.3-5.6zm3.1 7c.1-.3.5-.3.5.1-.2 2.8-1.5 5.4-3.1 7.6-.1.2-.5-.1-.4-.3 1.5-2.4 2.2-4.8 3-7.4zm-.6 5.6c.1-.2.4-.2.4.1-.1 1.8-.8 3.8-2.1 5-.2.2-.5 0-.4-.3.7-1.6 1.4-3.1 2.1-4.8zM63.8 70.3c-.2-.9-.2-1.9-.2-2.8.3.8.6 1.6 1 2.2.1.1.2 0 .2-.1-.4-2-1.1-3.8-1.4-5.8-.3-2-.4-4-.7-6 0-.2-.2-.2-.3-.2-2.5 1.1-4.2 5-4.3 8.4 0-.2-.4-.3-.5-.1-.8 1.4-1 3.3-.9 5.2-.8 1.9-1.1 4.1-.9 6.1 0 0-.1 0-.1.1-.3 1.4-.3 3.2 0 5-2.3 3.2 1.8 8.4 4.6 9.3.3.1.4-.3.3-.5-.8-1.2-2.3-1.9-3.2-3.1-1.1-1.4-1.3-2.8-1.3-4.3.6 2.3 1.8 4.5 3.4 5.6.1.1.2-.1.2-.2-1-1.9-2.2-3.3-2.8-5.4-.5-1.6-.6-3.3-.7-5 .1.5.2 1 .4 1.4.1.2.4.2.4-.1-.2-2.6-.2-4.9.1-7.4.2.9.5 1.8.8 2.5.1.3.5.1.4-.2-.3-1.5-.6-3.2-.6-4.7 0-1.3.3-2.6.4-3.9 0 1.1.1 2.1.4 2.9.1.2.4.1.4-.1.1-2.1 0-4.1.7-6.1.6-1.8 1.7-2.9 2.6-4.3 0 2.6.4 5.4 1.2 7.9-.1 0-.3 0-.3.2-.6 2.2.1 5.1 1.2 6.9.1.2.5.1.4-.2-.4-1-.7-2.1-.9-3.2zm-1.9 3.2c-.4-1.8-.4-3.6-.6-5.4 0-.2-.4-.2-.4 0-.4 2.2-.1 4.8.7 7.2-.1 0-.2.1-.2.2-.2 2.5.4 5.1 1.3 7.3.1.2.3.1.3-.1-.6-2.2-.8-4.3-1-6.5.5 1.2 1.1 2.3 1.8 3.2.2.3.6-.1.4-.3-1-1.9-1.8-3.6-2.3-5.6zm-3.1 7c-.1-.3-.5-.3-.5.1.2 2.8 1.5 5.4 3.1 7.6.2.2.5-.1.3-.3-1.4-2.4-2.1-4.8-2.9-7.4zm.7 5.6c-.1-.2-.4-.2-.4.1.1 1.8.8 3.8 2.1 5 .2.2.5 0 .4-.3-.8-1.6-1.6-3.1-2.1-4.8z" fill="#cfb89a" stroke-width="none" opacity="1" stroke="none"></path><path id="SvgjsPath21397" d="M139.8 63.6c-.1-.3-.6-.2-.5.1.6 4.1.6 8.2.1 12.3 0 .2.3.3.4.1 1-4.2 1-8.3 0-12.5zm2.1 8.5c-.5 2.4-1.1 5-1.2 7.5 0 .3.5.4.6.1.7-2.3.9-4.9 1.3-7.4 0-.5-.6-.7-.7-.2zm.2 6.8c0 .7-.3 1.2-.4 1.9 0 .2.2.4.4.2.5-.5.6-1.4.6-2.1 0-.4-.6-.4-.6 0zm-78.5-5.2c-1.1-2.3-2-4.4-2.2-7 0-.3-.5-.3-.5 0 0 2.6.7 5.3 2.3 7.3.2.2.5 0 .4-.3zm-3.8-1c-.1-.4-.7-.2-.6.2.4 1.9.9 3.7 1.8 5.4.1.2.4.1.3-.1-.4-1.9-1-3.6-1.5-5.5zM61.6 84c-.7-1.3-1.5-2.4-1.8-3.8-.1-.3-.5-.2-.5.1.2 1.4.8 3 1.9 4 .2.1.5-.1.4-.3z" fill="#ede8e1" stroke-width="none" opacity="1" stroke="none"></path></g><g id="svga-group-glasses-single-move" transform="matrix(1,0,0,1,0,0)"><g id="svga-group-glasses-single" transform="matrix(1,0,0,1,0,0)"></g></g></g></g></g><rect id="svga-credit-rect" width="200" height="15" x="0" y="185" fill="#ecf0f1" opacity="0.5" style="display: none;"></rect><text id="svga-credit-text" font-family="Avenir Next, Roboto, Helvetica, Arial, sans-serif" font-size="10px" text-anchor="start" font-weight="400" size="10px" anchor="start" weight="400" fill="#333333" x="33.40447998046875" y="182.60824704170227" style="display: none;"><tspan id="SvgjsTspan20723" dy="13" x="33.40447998046875">Created on AvatarMaker.com</tspan></text></g></svg>