<svg xmlns="http://www.w3.org/2000/svg" version="1.1" width="600px" height="600px" viewBox="0 0 200 200" style="overflow:hidden!important;"><defs id="SvgjsDefs23035"><linearGradient id="SvgjsLinearGradient23757" x1="79.9234" y1="82.4503" x2="79.9234" y2="113.401" gradientUnits="userSpaceOnUse" class="svga-on-canvas-glasses-gradient-single-0-null"><stop id="SvgjsStop23758" stop-opacity="1" stop-color="#150000" offset="0.004166667" ></stop><stop id="SvgjsStop23759" stop-opacity="0.8088" stop-color="#190300" offset="0.1945" ></stop><stop id="SvgjsStop23760" stop-opacity="0.6342" stop-color="#240c00" offset="0.3684" ></stop><stop id="SvgjsStop23761" stop-opacity="0.466" stop-color="#361b00" offset="0.5359" ></stop><stop id="SvgjsStop23762" stop-opacity="0.3018" stop-color="#503100" offset="0.6994" ></stop><stop id="SvgjsStop23763" stop-opacity="0.1421" stop-color="#724c00" offset="0.8585" ></stop><stop id="SvgjsStop23764" stop-opacity="0" stop-color="#966a00" offset="1" ></stop></linearGradient><linearGradient id="SvgjsLinearGradient23766" x1="-20.0765" y1="82.4503" x2="-20.0765" y2="113.401" gradientTransform="matrix(-1 0 0 1 100 0)" gradientUnits="userSpaceOnUse" class="svga-on-canvas-glasses-gradient-single-1-null"><stop id="SvgjsStop23767" stop-opacity="1" stop-color="#150000" offset="0.004166667" ></stop><stop id="SvgjsStop23768" stop-opacity="0.8088" stop-color="#190300" offset="0.1945" ></stop><stop id="SvgjsStop23769" stop-opacity="0.6342" stop-color="#240c00" offset="0.3684" ></stop><stop id="SvgjsStop23770" stop-opacity="0.466" stop-color="#361b00" offset="0.5359" ></stop><stop id="SvgjsStop23771" stop-opacity="0.3018" stop-color="#503100" offset="0.6994" ></stop><stop id="SvgjsStop23772" stop-opacity="0.1421" stop-color="#724c00" offset="0.8585" ></stop><stop id="SvgjsStop23773" stop-opacity="0" stop-color="#966a00" offset="1" ></stop></linearGradient></defs><g id="svga-group-wrapper"><g id="svga-group-backs-single"><path id="SvgjsPath23714" d="M0 0h200v200H0V0z" fill="#547980" stroke-width="none" opacity="1"></path><path id="SvgjsPath23715" d="M0 0h28.6v28.6H0V0zm57.1 0h28.6v28.6H57.1V0zm57.2 0h28.6v28.6h-28.6V0zm57.1 0H200v28.6h-28.6V0zM28.6 28.6h28.6v28.6H28.6V28.6zm57.1 0h28.6v28.6H85.7V28.6zm57.2 0h28.6v28.6h-28.6V28.6zM0 57.1h28.6v28.6H0V57.1zm57.1 0h28.6v28.6H57.1V57.1zm57.2 0h28.6v28.6h-28.6V57.1zm57.1 0H200v28.6h-28.6V57.1zM28.6 85.7h28.6v28.6H28.6V85.7zm57.1 0h28.6v28.6H85.7V85.7zm57.2 0h28.6v28.6h-28.6V85.7zM0 114.3h28.6v28.6H0v-28.6zm57.1 0h28.6v28.6H57.1v-28.6zm57.2 0h28.6v28.6h-28.6v-28.6zm57.1 0H200v28.6h-28.6v-28.6zM28.6 142.9h28.6v28.6H28.6v-28.6zm57.1 0h28.6v28.6H85.7v-28.6zm57.2 0h28.6v28.6h-28.6v-28.6zM0 171.4h28.6V200H0v-28.6zm57.1 0h28.6V200H57.1v-28.6zm57.2 0h28.6V200h-28.6v-28.6zm57.1 0H200V200h-28.6v-28.6z" fill="#3f6971" stroke-width="none" opacity="1"></path></g><g id="svga-group-humanwrap-move" transform="matrix(1,0,0,1,0,0)"><g id="svga-group-humanwrap" transform="matrix(1,0,0,1,0,0)"><g id="svga-group-hair-back-move" transform="matrix(1,0,0,1,0,0)"><g id="svga-group-hair-back" transform="matrix(1,0,0,1,0,0)"></g></g><g id="svga-group-humanbody-back"><path id="SvgjsPath23436" d="M166.5 181.1c-10.9-6.6-27.6-8.4-35-12.1-4.9-2.5-9.1-4.7-8.9-17.8s1.9-42.4 1.9-42.4H75.4s1.6 29.4 1.9 42.4-4.2 15.6-8.9 17.8c-7.4 3.5-24.1 5.4-35 12.1-10.8 6.6-10 18.9-10 18.9v19.7h153.3V200c-.1 0 .7-12.3-10.2-18.9z" fill="#f4baa3" stroke-width="none" opacity="1" stroke="none"></path></g><g id="svga-group-chinshadow-single"><path id="SvgjsPath23682" d="M93 163.2c2.6 1.6 11.4 1.6 14 .1 4.5-2.5 10.6-9.1 15.6-14 .3-13.8 1.9-40.5 1.9-40.5H75.4s1.4 26.5 1.8 40.3c5.1 4.9 11.2 11.6 15.8 14.1z" fill="#d58464" stroke-width="none" opacity="0.65" stroke="none"></path></g><g id="svga-group-humanbody-front"><path id="SvgjsPath23437" d="M78.7 156.8c.5 4.8 1.7 9.4 3.1 13.9.8 2.3 1.6 4.6 2.6 6.9.8 2 1.7 4.2 3.1 5.9.3.4 1 0 .9-.5-.5-2.2-1.6-4.3-2.4-6.4-.9-2.2-1.7-4.4-2.5-6.6-1.5-4.4-2.8-8.9-4.1-13.3-.2-.4-.8-.3-.7.1zm41.3-1c-1.3 8.2-3.9 16.1-5.4 24.2-.1.4.4.5.6.2 3.1-7.7 4.1-16.1 5.1-24.3-.1-.2-.3-.2-.3-.1zm-25.8 11.9c-.9 3.6 1.9 8.6 6.2 7.6.5-.1.4-.8 0-1-1.4-.5-2.9-.9-3.9-2.1-1.1-1.2-1.5-2.9-1.4-4.5 0-.4-.8-.5-.9 0z" fill="#d58464" stroke-width="none" opacity="1" stroke="none"></path><path id="SvgjsPath23438" d="M177.3 219.7c-.1-6.6-.3-13.1-.3-19.7l-.3-.3c.1 0 .1 0 .2.1s.1.2.1.1v-1.4c0-.5-.1-.9-.1-1.4-.1-.9-.3-1.9-.5-2.8-.5-1.8-1.1-3.6-2-5.3-1.7-3.4-4.4-6.2-7.7-8.1-3.6-2.2-7.6-3.8-11.6-5.1-4-1.3-8.1-2.4-12.1-3.5-4-1.2-8.1-2.2-11.8-4.2-1.9-1-3.6-2.1-4.8-3.6-1.2-1.6-1.9-3.5-2.3-5.5-.8-4-.4-8.2-.3-12.4l.7-12.6 1.5-25.2.1-1.4h-1.4c-8.2 0-16.4 0-24.6.1l-24.6.3h-.9l.1.9c.8 11.9 1.6 23.8 2.1 35.7.1 3 .3 6 .2 8.9-.1 2.9-.4 5.9-1.6 8.6-.6 1.3-1.4 2.5-2.4 3.5s-2.3 1.8-3.6 2.4c-2.6 1.3-5.4 2.2-8.3 3-5.8 1.5-11.6 2.8-17.3 4.7-2.8.9-5.7 2-8.4 3.4-1.3.7-2.7 1.4-4 2.4-1.3.9-2.4 1.9-3.5 3.1-2.1 2.3-3.6 5.2-4.5 8.1-.5 1.5-.8 3-1 4.6-.1.8-.1 1.6-.1 2.4v2.3l-.2 17.9v1.3h1.4l38.3.2c12.8.1 25.5.1 38.3 0 12.8-.1 25.6-.1 38.3-.3 12.8-.2 25.6-.5 38.3-.7h.6v-.5zm-77.2-1.6H61.8l-37 .2-.1-16.6v-2.2c0-.7 0-1.4.1-2.1.1-1.4.4-2.8.8-4.2.8-2.7 2.1-5.3 3.9-7.5.9-1.1 2-2.1 3.1-2.9 1.1-.9 2.4-1.6 3.7-2.3 2.6-1.4 5.3-2.5 8.1-3.5 5.6-2 11.4-3.4 17.1-5.1 2.9-.8 5.8-1.7 8.5-3.1 1.3-.7 2.7-1.5 3.8-2.6 1.1-1.1 2-2.4 2.6-3.9 1.2-2.9 1.5-5.9 1.6-8.9 0-3-.1-6-.2-9l-1.3-34.8 23.5.4c7.7.1 15.4.1 23.1.1-.4 7.9-.8 15.9-1.1 23.8-.2 4.2-.2 8.4-.3 12.6 0 4.2-.2 8.5.8 12.8.5 2.1 1.3 4.2 2.8 6 1.4 1.7 3.4 2.9 5.3 3.8 3.9 1.9 8 2.8 12.1 3.8s8.2 2 12.2 3.3c4 1.3 7.9 2.8 11.5 5 3.2 1.9 5.8 4.7 7.5 8 .9 1.6 1.5 3.4 1.9 5.2.2.9.4 1.8.4 2.7.1.5.1.9.1 1.4V200l-.3 19c-12.6-.2-25.1-.5-37.7-.7-12.7-.1-25.5-.1-38.2-.2z" fill="#c66c49" stroke-width="none" opacity="1" stroke="none"></path></g><g id="svga-group-clothes-single"><path id="SvgjsPath23580" d="M179.3 220.1c0-17.5-1.6-26.7-1.6-26.7-3.2-15.2-21.5-18.1-30.1-20.5-2.8-.8-8.2-1.4-8.2-1.4-4.8 5.3-9.9 9.8-15.9 15.4-7.5 7-14.9 13-21.8 18.1-6.4-4-13.8-9.3-21.4-16.1-7.7-6.9-13.1-12.8-17.9-18.8-3.1.5-7.1.9-10.7 1.7-8.7 1.9-26.5 7.6-29.5 21.6 0 0-1.6 9.2-1.6 26.7h158.7z" fill="#1e78a2" stroke-width="none" opacity="1"></path><path id="SvgjsPath23581" d="M179.6 210.9c0-3.1-.1-6.1-.3-9.2-.1-1.5-.2-3.1-.3-4.6l-.2-2.3-.1-1.2c0-.4-.2-.8-.3-1.2-.2-.8-.4-1.6-.7-2.3l-.9-2.2-1.2-2.1c-.4-.7-1-1.3-1.5-1.9-2.1-2.4-4.7-4.4-7.5-5.9s-5.7-2.6-8.7-3.6c-3-.9-6-1.7-8.9-2.5-2.9-.8-6.1-.8-9.1-1.7-.5-.1-1 0-1.4.4-5.8 6.3-11.5 11.3-17.8 17.1-6.1 5.6-12.4 11.1-19.1 16.1-3.6-2.2-7.2-4.6-10.6-7.1-3.6-2.6-7.1-5.4-10.5-8.4-3.4-3-6.6-6.1-9.7-9.3-3.1-3.3-5.2-5.8-8-9.3-.1-.1-.3-.2-.5-.2-3.2.6-6.9.8-10 1.5-3.1.6-6.2 1.4-9.2 2.4-6 2.1-11.9 4.9-16.5 9.7-2.3 2.4-4.1 5.2-5.1 8.4l-.4 1.2c-.1.2-.1.4-.2.6l.1.7-.3 2.4c-.2 1.6-.4 3.2-.5 4.7-.6 6.3-.8 12.6-.9 19 0 .8.6 1.4 1.4 1.4l40 .2c13.3 0 26.7-.1 39.9-.2l39.7-.5 19.7-.3 19.5-.4c.1-1.5.1-3.2.1-4.7v-4.7zM23 196.6c.1-.8.2-1.6.3-2.3l.1-.6c0-.2.1-.3.1-.5l.3-1.1c.8-2.8 2.4-5.5 4.4-7.7 1.5-1.6 3.2-3.1 5-4.4 1.1 1.1 2 2.4 2.8 3.7.9 1.5 1.7 3 2.4 4.6 1.4 3.2 2.4 6.5 3.2 9.9.4 1.7.8 3.4 1.1 5.1.3 1.7.6 3.4.9 5.2.5 3.3 1 6.6 1.5 10l-22.8.1c0-5.8.1-11.6.5-17.4-.1-1.4 0-3 .2-4.6zm116.1 22.7-39.7-.5c-13.2-.1-26.3-.2-39.4-.2l-15 .1c.3-3.4.2-6.8 0-10.2-.3-3.5-.8-7.1-1.6-10.6-.4-1.7-.9-3.5-1.5-5.2-.6-1.7-1.3-3.4-2.2-4.9-.8-1.6-1.8-3.1-3-4.5-1-1.2-2.1-2.4-3.4-3.2 3.2-2.2 6.8-3.9 10.4-5.2 2.9-1.1 5.9-1.9 9-2.6 3-.7 6.7-.9 9.6-1.5 2.8 3.4 4.9 5.8 7.9 9 3.1 3.3 6.3 6.4 9.7 9.5 6.7 6.1 13.8 11.6 21.4 16.6.3.2.7.2 1 0 7-5 13.8-10.3 20.2-16.1 3.2-2.9 6.4-5.8 9.4-8.9 2.9-2.8 5.3-4.8 8-7.8 2.7.8 5.7.7 8.4 1.4 3 .8 6 1.4 8.9 2.3 2.9.9 5.7 1.9 8.4 3.3.3.1.5.3.8.4-1.1.8-2.1 1.8-2.9 2.9-1.1 1.4-2.1 2.9-3 4.5-.9 1.6-1.6 3.2-2.2 4.9-.6 1.7-1.1 3.4-1.5 5.2-.8 3.5-1.3 7-1.6 10.6-.2 3.5-.3 7.1 0 10.6l1.5-10.5c.3-1.7.6-3.5.9-5.2.3-1.7.6-3.4 1.1-5.1.8-3.4 1.8-6.7 3.2-9.9.7-1.6 1.5-3.1 2.4-4.6.7-1.2 1.5-2.3 2.4-3.3 2.2 1.2 4.3 2.8 6.1 4.6.5.6 1 1.1 1.4 1.7l1.2 1.8.9 2c.3.7.4 1.4.7 2.1.1.4.2.7.3 1.1l.2 1.1.3 2.3.5 4.6c.3 3 .6 6.1.7 9.2l.5 9.1-40.4-.9zm-4.2-34.6c-3.4 3.3-6.9 6.5-10.4 9.5-7.1 6.1-14.3 11.9-21.9 17.3-4.3-2.5-8.5-5.3-12.5-8.3-4.1-3.1-8-6.3-11.8-9.7-3.8-3.4-7.5-6.9-11.1-10.6-3.6-3.6-7.1-7.4-10.4-11.3 3.2 4 6.5 7.9 10 11.6 3.5 3.7 7.2 7.4 10.9 10.8 3.8 3.5 7.8 6.7 11.8 9.9 4.1 3.1 8.4 6 12.8 8.6.2.1.4.1.5 0 3.8-2.8 7.6-5.6 11.3-8.6 3.7-3 7.3-6 10.8-9.2 3.5-3.1 6.9-6.4 10.3-9.8 3.3-3.4 6.5-6.9 9.5-10.4-3.1 3.5-6.3 6.9-9.8 10.2z" fill="#005a83" stroke-width="none" opacity="1"></path></g><g id="svga-group-head" transform="matrix(1,0,0,1,0,0)"><g id="svga-group-ears-left-move" transform="matrix(1,0,0,1,0,0)"><g id="svga-group-ears-left" transform="matrix(1,0,0,1,0,0)"><path id="SvgjsPath23590" d="M58.8 91.7s-2.6-4.9-5.3-5.7-4.4.7-3.9 6.6 5.2 23.2 10.6 22.2c5.4-1.1.9-19.6-1.4-23.1z" fill="#f4baa3" stroke-width="none" opacity="1" stroke="none"></path><path id="SvgjsPath23591" d="M59.8 93.6c.3.7.6 1.5.8 2.2.5 1.5 1 3.1 1.4 4.8.4 1.6.7 3.4.9 5.2.1.9.2 1.8.2 2.7 0 .9 0 1.8-.1 2.8-.1.9-.3 1.8-.7 2.5-.3.7-.8 1.2-1.2 1.5-.9.5-1.9.4-2.8-.1-.9-.5-1.8-1.5-2.6-2.7s-1.4-2.5-2-4c-.6-1.4-1.1-3-1.6-4.5s-1-3.1-1.4-4.7-.8-3.3-1.1-5-.5-3.6-.3-5.4c.1-.9.3-1.8.7-2.4s.8-1 1.3-1.2.9-.2 1.4-.1.9.3 1.4.6c.9.6 1.7 1.5 2.5 2.5s1.5 2.2 2.2 3.4c.4.5.7 1.2 1 1.9zm-3.2-5c-.8-.9-1.6-1.6-2.5-1.9-.8-.3-1.7-.4-2.5-.1-.4.2-.7.4-1 .9s-.5 1.1-.6 1.8c-.2 1.4-.2 3.2.1 4.8.2 1.7.5 3.3.9 5 .8 3.2 1.8 6.3 3.1 8.9.6 1.3 1.3 2.5 2 3.5s1.5 1.8 2.3 2.2c.4.2.8.3 1.2.3s.8-.1 1.2-.4c.3-.2.7-.6.9-1.1s.4-1.2.5-1.9c.2-1.4.1-3.1 0-4.8-.1-1.7-.4-3.3-.7-5s-.7-3.3-1.1-4.9c-.4-1.6-1-3.1-1.7-4.3-.6-1-1.3-2.1-2.1-3z" fill="#e59e82" stroke-width="none" opacity="1" stroke="none"></path><path id="SvgjsPath23592" d="M52.4 89.6c2.3 1.5 4.4 5.7 5.4 9.9v.1c0 .3-.2.4-.2.1-.4-1.2-.9-1.2-1.5 0-.1.8-.1 1.5.1 2.3.2.7.4 1.4.7 2 .5 1.2 1.2 2.1 1.8 3.1.2.3 0 .7-.2.6-1.4-1.1-3.4-4.7-3-7.8.2-1.5 1-2.3 1.6-1.7-.8-2.1-1.7-4-2.8-5.5-.6-.8-2-2.7-2.7-2.4-1.3.6-.6 4.8-.5 6.6 0 .3-.2.4-.3.1-.7-3.3-.8-9 1.6-7.4z" fill="#d58464" stroke-width="none" opacity="1" stroke="none"></path><path id="SvgjsPath23593" d="M58 108.6c-2.4-.9-4.2-4.8-5.2-9-.6-2.6-1.8-8.6.5-8.5.2 0 .3.5.1.6-2.2 1.1.2 9.2.9 11.1 1 2.6 2.2 4.4 3.8 5.4.1.1 0 .5-.1.4z" fill="#d58464" stroke-width="none" opacity="1" stroke="none"></path></g></g><g id="svga-group-ears-right-move" transform="matrix(1,0,0,1,0,0)"><g id="svga-group-ears-right" transform="matrix(1,0,0,1,0,0)"><path id="SvgjsPath23594" d="M141.2 91.7s2.6-4.9 5.3-5.7 4.4.7 3.9 6.6-5.2 23.2-10.6 22.2c-5.4-1.1-.9-19.6 1.4-23.1z" fill="#f4baa3" stroke-width="none" opacity="1" stroke="none"></path><path id="SvgjsPath23595" d="M141.1 91.7c.7-1.2 1.4-2.4 2.2-3.4s1.6-1.9 2.5-2.5c.5-.3.9-.5 1.4-.6s.9-.1 1.4.1.9.5 1.3 1.2c.4.6.6 1.5.7 2.4.2 1.8 0 3.7-.3 5.4-.3 1.7-.7 3.4-1.1 5-.4 1.6-.9 3.2-1.4 4.7s-1 3.1-1.6 4.5-1.3 2.8-2 4c-.8 1.2-1.6 2.2-2.6 2.7-.9.5-1.9.7-2.8.1-.5-.3-.9-.8-1.2-1.5s-.5-1.6-.7-2.5c-.1-.9-.1-1.8-.1-2.8 0-.9.1-1.8.2-2.7.2-1.8.5-3.5.9-5.2s.9-3.2 1.4-4.8c.3-.8.5-1.5.8-2.2.4-.7.7-1.4 1-1.9zm.1.1c-.7 1.2-1.2 2.7-1.7 4.3-.4 1.6-.8 3.2-1.1 4.9-.3 1.7-.5 3.3-.7 5-.1 1.6-.2 3.3 0 4.8.1.7.3 1.4.5 1.9s.6.9.9 1.1c.3.3.8.3 1.2.4.4 0 .8-.1 1.2-.3.8-.4 1.6-1.2 2.3-2.2s1.4-2.2 2-3.5c1.3-2.6 2.3-5.7 3.1-8.9.4-1.6.7-3.3.9-5 .2-1.6.3-3.4.1-4.8-.1-.7-.3-1.3-.6-1.8-.3-.4-.6-.7-1-.9-.8-.3-1.7-.2-2.5.1-.8.4-1.7 1-2.5 1.9-.7.7-1.4 1.8-2.1 3z" fill="#e59e82" stroke-width="none" opacity="1" stroke="none"></path><path id="SvgjsPath23596" d="M147.6 89.6c-2.3 1.5-4.4 5.7-5.4 9.9v.1c0 .3.2.4.2.1.4-1.2.9-1.2 1.5 0 .1.8.1 1.5-.1 2.3-.2.7-.4 1.4-.7 2-.5 1.2-1.2 2.1-1.8 3.1-.2.3 0 .7.2.6 1.4-1.1 3.4-4.7 3-7.8-.2-1.5-1-2.3-1.6-1.7.8-2.1 1.7-4 2.8-5.5.6-.8 2-2.7 2.7-2.4 1.3.6.6 4.8.5 6.6 0 .3.2.4.3.1.7-3.3.8-9-1.6-7.4z" fill="#d58464" stroke-width="none" opacity="1" stroke="none"></path><path id="SvgjsPath23597" d="M142 108.6c2.4-.9 4.2-4.8 5.2-9 .6-2.5 1.8-8.5-.5-8.5-.2 0-.3.5-.1.6 2.2 1.1-.2 9.2-.9 11.1-1 2.6-2.2 4.4-3.8 5.4-.1.1 0 .5.1.4z" fill="#d58464" stroke-width="none" opacity="1" stroke="none"></path></g></g><g id="svga-group-faceshape-wrap" transform="matrix(1,0,0,1,0,0)"><g id="svga-group-faceshape-single"><path id="SvgjsPath23672" d="M143.2 82.9v-.3c-1.3-30.5-20.7-47.3-43.2-47.3S58.1 52.1 56.9 82.6v.3c0 2.4-.5 15.6 3.1 26.5 3.2 9.8 5.7 17.5 13.5 24.1 5.5 4.6 13.8 14.7 19.6 17.9 2.6 1.4 11.4 1.4 14 0 5.8-3.3 14.1-13.4 19.6-17.9 7.8-6.5 10.4-14.3 13.5-24.1 3.4-10.9 2.9-24.2 3-26.5z" fill="#f4baa3" stroke-width="none" opacity="1" stroke="none"></path><path id="SvgjsPath23673" d="M73.5 133.4c5.5 4.6 13.8 14.7 19.6 17.9 2.6 1.4 11.4 1.4 14 0 5.8-3.3 14.1-13.4 19.6-17.9 7.8-6.5 10.4-14.3 13.5-24.1 3.4-10.9 2.9-24.2 3-26.5v-.3C141.9 52 122.5 35.2 100 35.2S58.1 52.1 56.9 82.6v.3c0 2.4-.5 15.6 3.1 26.5 3.2 9.8 5.7 17.5 13.5 24zM58 89.6c-.2-3.3-.3-6.7 0-10 .4-6.6 1.9-13.2 4.7-19.2 2.8-5.9 6.9-11.2 12.1-15.1C80 41.5 86 39.1 92.2 38c6.2-1 12.6-.7 18.6.9 6.1 1.5 11.7 4.6 16.6 8.7l.9.8c.3.3.6.6.9.8l1.7 1.7c.6.5 1 1.2 1.6 1.8l1.5 1.9c.9 1.4 1.8 2.8 2.6 4.2l1.1 2.2c.4.7.8 1.4 1 2.2 2.6 6.1 3.9 12.7 4.2 19.5-.1 3.4-.1 6.7-.4 10.1-.3 3.4-.7 6.6-1.5 9.9-.4 1.6-.8 3.3-1.3 4.8s-1.1 3.2-1.7 4.7c-1.2 3.2-2.5 6.2-4 9-1.6 2.8-3.4 5.4-5.6 7.5-.5.6-1.1 1-1.7 1.6l-1.9 1.5c-1.4 1.1-2.6 2.2-3.8 3.5-2.5 2.3-4.8 4.7-7.1 6.9s-4.8 4.5-7.2 6.1c-.3.2-1.8 1.3-8 1.1-.8 0-1.5-.1-2.2-.2-.7-.1-3-1.2-3.3-1.4-.6-.4-1.2-.9-1.8-1.3-2.4-1.9-4.8-4.3-7.1-6.6-2.4-2.3-4.7-4.7-7.3-7-.6-.6-1.3-1.1-2-1.7-.6-.5-1.2-1-1.7-1.5-1.1-1-2.2-2.2-3.1-3.5-1.9-2.4-3.4-5.3-4.7-8.2-1.3-3-2.4-6.1-3.6-9.3-1.1-3.1-1.9-6.2-2.5-9.5-.8-3-1.2-6.2-1.4-9.6z" fill="#c66c49" stroke-width="none" opacity="1" stroke="none"></path></g></g><g id="svga-group-mouth-single-move" transform="matrix(1,0,0,1,0,0)"><g id="svga-group-mouth-single" transform="matrix(1,0,0,1,0,0)"><path id="SvgjsPath23747" d="M84.55 124.35c2.12.93 5.56 1.69 7.85 1.77 3.19.02 6.26 2.11 7.48 2.26 2.21.07 3.75-1.85 6.79-2.37 1.47-.35 4.04.01 9.17-1.28-5.01-.22-8.57-1.27-10.43-1.25-2.27.02-3.96 1.19-5.18 1.19-.81.02-3.58-1.23-5.7-.91-4.47.67-9.98.59-9.98.59z" fill="#da7c87" stroke-width="none" opacity="1" transform="translate(0 2)"></path><path id="SvgjsPath23748" d="M107.46 131.85c1.42-.3 2.04-.44 3.21-1.01-2.36.13-8.45.88-10.82.8-2.64-.09-6.75-.74-9.33-1.2 1.05.53 2.75.91 3.57 1.17 0 0 4.79 1.73 13.37.24z" fill="#d58464" stroke-width="none" opacity="1" transform="translate(0 2)"></path></g></g><g id="svga-group-eyes-left-move" transform="matrix(1,0,0,1,0,0)"><g id="svga-group-eyes-left" transform="matrix(1,0,0,1,0,0)"><g id="svga-group-eyesback-left"><path id="SvgjsPath23628" d="M90.2 96.4s-.9.8-3.3 1.1-8.7 1.1-13.3-.2c-4.6-1.3-4.2-1.5-4.3-2.1-.1-.5.7-2.4 5-3.2 4.3-.8 8.5.1 10.6.9 2 .9 5.3 3.5 5.3 3.5z" fill="#ffffff" stroke-width="none" opacity="1"></path></g><g id="svga-group-eyesiriswrapper-left" transform="matrix(1,0,0,1,0,0)"><g id="svga-group-eyesiriscontrol-left" transform="matrix(1,0,0,1,0,0)"><g id="svga-group-eyesiris-left" transform="matrix(1,0,0,1,0,0)"><path id="SvgjsPath23686" d="M80.1 88c3 0 5.5 2.5 5.5 5.5S83.1 99 80.1 99s-5.5-2.5-5.5-5.5 2.5-5.5 5.5-5.5z" fill="#3e4442" stroke-width="none" opacity="1"></path><path id="SvgjsPath23687" d="M80.1 89.7c2.1 0 3.8 1.7 3.8 3.8s-1.7 3.8-3.8 3.8-3.8-1.7-3.8-3.8 1.7-3.8 3.8-3.8z" fill="#000000" stroke-width="none" opacity="1"></path><path id="SvgjsPath23688" d="m76.1 91 4.3 3-1.7-5c-.4-.4-2.5.8-2.6 2z" fill="#ffffff" stroke-width="none" opacity="1"></path></g></g></g><g id="svga-group-eyesfront-left"><path id="SvgjsPath23636" d="M73.6 97.3c4.6 1.3 10.9.5 13.3.2 2.4-.3 3.3-1.1 3.3-1.1s-3.2-2.6-5.3-3.5c-2.1-.9-6.3-1.7-10.6-.9-3.2.6-4.4 1.8-4.8 2.5 0-6.3 4.8-11.5 10.6-11.5 5.9 0 10.6 5.2 10.6 11.5S86 106 80.1 106c-5.5 0-10-4.5-10.6-10.4.3.5 1.2.8 4.1 1.7z" fill="#f4baa3" stroke-width="none" opacity="1" stroke="none"></path><path id="SvgjsPath23637" d="M90.1 95.9c-1.2-3.3-4.1-5.6-7.5-6.2-3.9-.7-7.5 1-10.7 2.9-.1 0-.2-.1-.1-.1 5.5-4.7 16.4-4.9 18.5 3.5-.1-.1-.2 0-.2-.1z" fill="#e59e82" stroke-width="none" opacity="1" stroke="none"></path><path id="SvgjsPath23638" d="M90.2 96.6c-5.3-4.4-12.4-6.2-18.9-3.1-.3.1-.5.3-.8.4-1 1.3-.9 2.1.4 2.2.7.2 1.4.4 2.1.5 1.8.4 3.7.6 5.6.7 3.4.2 6.7-.1 10-.4.2 0 .2.2 0 .3-4.4 1.4-9.2 1.3-13.7.7-1.6-.2-8.7-.9-5.9-4.3 1-1.2 3.2-1.7 4.7-2 2.1-.5 4.2-.6 6.3-.4 3.8.5 7.7 2.3 10.3 5.2.2.1 0 .3-.1.2z" fill="#d6f7f4" stroke-width="none" opacity="1" stroke="none"></path></g></g></g><g id="svga-group-eyes-right-move" transform="matrix(1,0,0,1,0,0)"><g id="svga-group-eyes-right" transform="matrix(1,0,0,1,0,0)"><g id="svga-group-eyesback-right"><path id="SvgjsPath23629" d="M109.8 96.4s.9.8 3.3 1.1 8.7 1.1 13.3-.2c4.6-1.3 4.2-1.5 4.3-2.1.1-.5-.7-2.4-5-3.2-4.3-.8-8.5.1-10.6.9-2 .9-5.3 3.5-5.3 3.5z" fill="#ffffff" stroke-width="none" opacity="1"></path></g><g id="svga-group-eyesiriswrapper-right" transform="matrix(1,0,0,1,0,0)"><g id="svga-group-eyesiriscontrol-right" transform="matrix(1,0,0,1,0,0)"><g id="svga-group-eyesiris-right" transform="matrix(1,0,0,1,0,0)"><path id="SvgjsPath23689" d="M119.9 88c3 0 5.5 2.5 5.5 5.5s-2.5 5.5-5.5 5.5-5.5-2.5-5.5-5.5 2.5-5.5 5.5-5.5z" fill="#3e4442" stroke-width="none" opacity="1"></path><path id="SvgjsPath23690" d="M119.9 89.7c2.1 0 3.8 1.7 3.8 3.8s-1.7 3.8-3.8 3.8-3.8-1.7-3.8-3.8 1.7-3.8 3.8-3.8z" fill="#000000" stroke-width="none" opacity="1"></path><path id="SvgjsPath23691" d="m115.9 91 4.3 3-1.7-5c-.3-.4-2.4.8-2.6 2z" fill="#ffffff" stroke-width="none" opacity="1"></path></g></g></g><g id="svga-group-eyesfront-right"><path id="SvgjsPath23639" d="M126.4 97.3c-4.6 1.3-10.9.5-13.3.2-2.4-.3-3.3-1.1-3.3-1.1s3.2-2.6 5.3-3.5c2.1-.9 6.3-1.7 10.6-.9 3.2.6 4.4 1.8 4.8 2.5 0-6.3-4.8-11.5-10.6-11.5-5.9 0-10.6 5.2-10.6 11.5S114 106 119.9 106c5.5 0 10-4.5 10.6-10.4-.3.5-1.2.8-4.1 1.7z" fill="#f4baa3" stroke-width="none" opacity="1" stroke="none"></path><path id="SvgjsPath23642" d="M109.9 95.9c1.2-3.3 4.1-5.6 7.5-6.2 3.9-.7 7.5 1 10.7 2.9.1 0 .2-.1.1-.1-5.5-4.7-16.4-4.9-18.5 3.5.1-.1.2 0 .2-.1z" fill="#e59e82" stroke-width="none" opacity="1" stroke="none"></path><path id="SvgjsPath23643" d="M109.8 96.6c5.3-4.4 12.4-6.2 18.9-3.1.3.1.5.3.8.4 1 1.3.9 2.1-.4 2.2-.7.2-1.4.4-2.1.5-1.8.4-3.7.6-5.6.7-3.4.2-6.7-.1-10-.4-.2 0-.2.2 0 .3 4.4 1.4 9.2 1.3 13.7.7 1.6-.2 8.7-.9 5.9-4.3-1-1.2-3.2-1.7-4.7-2-2.1-.5-4.2-.6-6.3-.4-3.8.5-7.7 2.3-10.3 5.2-.2.1 0 .3.1.2z" fill="#d6f7f4" stroke-width="none" opacity="1" stroke="none"></path></g></g></g><g id="svga-group-facehighlight-single"></g><g id="svga-group-eyebrows-left-move" transform="matrix(1,0,0,1,0,0)"><g id="svga-group-eyebrows-left-rotate" transform="matrix(1,0,0,1,0,0)"><g id="svga-group-eyebrows-left" transform="matrix(1,0,0,1,0,0)"><path id="SvgjsPath23554" d="M67.9 82.7c.4-.7.8-1.3 1.2-1.9.1-.3.2-.5.4-.8.3-.6.6-1.2 1.1-1.6.3-.6.9-1.2 1.3-1.7.6-.7 1.7-1.5 2.6-.9 0 0 .1 0 .1.1 1.2-.4 2.7-.5 3.9-.3 1.6.2 3.1.7 4.6 1.2 1.2.4 2.4.8 3.5 1.4.1-.1.3-.2.4-.1 1.1.1 2.3.4 3.1 1.3.1.1.1.1.1.2.3.1.6.2.8.4h.1c.3.1.7.3.9.6.8.3 1.4 1.3 1.7 2.1.4 1.1-.1 2.7-1.2 3.3 0 .1-.1.3-.2.4-.6.6-1.7.4-2.7 0h-.1c-3.3-1.1-6.5-2.6-9.6-4.3-1.4-.4-2.7-.9-4-1.3-.5-.2-1.3-.3-1.8-.6 0 .1-.1.2-.2.3-.7.3-1.4.6-2 .9-.4.2-.9.5-1.3.6-.1.2-.3.4-.4.6-.4.5-.9 1.4-1.6 1.6-.2.4-.4.8-.8.8-.2 0-.3 0-.4-.2-.3-.9.3-1.6.5-2.1z" fill="#b7513b" stroke-width="none" opacity="1"></path><path id="SvgjsPath23555" d="M89.8 86.1c.2-1.1.6-2.1.5-3.2-.1-1.2-.5-2.2-1-3.3-.1-.2.2-.5.4-.3 1.6 1.7 1.9 5.1.4 7-.1.1-.3 0-.3-.2zm1.5 0c.4-.7.8-1.5.9-2.3.1-.8-.1-1.5-.1-2.3 0-.2.2-.2.3-.1 1.1 1.4.4 3.8-.7 5-.2.2-.6-.1-.4-.3zM82 76.4c3 1.7 5.3 5.6 5.7 9 0 .2-.3.2-.4.1-.6-1.7-1.2-3.3-2.1-4.8-1-1.5-2.2-2.6-3.4-3.9-.4-.2-.1-.5.2-.4zm-4.6-.7c2.7 1.6 6.1 3.5 6.2 7 0 .3-.3.3-.4.1-.6-1.6-1.3-2.8-2.5-3.9-1.1-1-2.4-1.8-3.5-2.8-.2-.2 0-.5.2-.4zm-5.7 1.8c4.2-1.6 8 2.1 10.3 5.1.1.2-.2.4-.3.2-1.3-1.3-2.6-2.8-4.2-3.7-1.9-1.1-3.7-1-5.7-1.2-.3.1-.4-.3-.1-.4zm-4 4.7c1.2-1.3 2.8-1.9 4.5-2.3.2-.1.3.3.1.4-1.6.5-2.9 1.4-4.4 2.2-.2.1-.4-.2-.2-.3z" fill="#c66854" stroke-width="none" opacity="1"></path><path id="SvgjsPath23556" d="M66.4 86c0 .2.3.4.4.2 0 0 .1 0 .1-.1 2.6-2.8 5.2-6.1 9.5-4.9 3.1.9 5.9 2.9 8.9 4.1 2.1.8 5.9 2.9 7.9.9 2-1.9.7-4.9-.6-6.8-.2-.3-.7 0-.5.3-.8-.8-1.7-1.5-2.6-1.7-.2-.1-.3.2-.3.3-.3-.2-.6-.3-.9-.4-.9-.5-1.9-1.1-3-1.4-.2-.1-.5.3-.3.5-2.4-1.1-5.2-2-7.9-2.3H76.8c-1.9-.2-3.7 0-5.3.7-.4.2-.3.6-.1.7-.2.1-.4.2-.6.4-.6.4-1.4 1-1.6 1.8 0 .1 0 .2.1.3-.5.6-.9 1.3-1.3 2.1-.5 1.4-1.7 3.6-1.6 5.3zm11.7-10.1c1.1.8 2.3 1.6 3.2 2.7 1.3 1.5 2 3.2 2.6 5-.1-.1-.2-.1-.4-.2-.8-2.1-2.2-3.9-4-5.3-1-.8-2.4-1.7-3.8-2.3.9 0 1.6 0 2.4.1zm13.1 10.2c.7-.8 1-2.1 1-3.1 0-1.2-.4-2.2-1.1-3.1.1 0 .2.1.3.1.6.6 1.2 1.2 1.7 1.8.5 1.3.6 2.7-.5 3.7-.3.4-.8.6-1.4.6zm-6.5-2.2c-.4-2-1.3-3.9-2.6-5.4-.6-.7-1.3-1.6-2.2-2.3 2.5.6 4.8 1.6 7.3 2.4.2.1.3-.1.3-.2.2.1.5.2.8.3.6.3 1.2.6 1.8.8.9 1.1 1.5 2.4 1.3 3.9-.1 1-.6 1.8-1 2.6-.1 0-.2 0-.3-.1.3-1.2.1-2.8-.5-3.8-.1-.2-.5-.1-.4.1l.3 2.1v1.4c-.8-.2-1.6-.6-2.2-.8-1-.2-1.8-.6-2.6-1zm-12.9-3.3c-1.5.7-2.8 1.8-3.8 3.1.2-.7.4-1.3.7-2 .8-1.8 1.8-3.2 3.1-4.6.1-.1.1-.2 0-.2.6-.3 1.2-.6 1.7-.9h.2c.9.4 1.8.6 2.7 1 1 .5 1.9 1.1 2.8 1.8 1.4 1.2 2.5 2.6 3.4 4.2-1.4-.7-2.8-1.4-4.2-2-1-.4-2.1-.8-3.2-.9-1.4-.9-3.2-1.3-4.7-.5-.2.1-.1.4.1.4.9-.1 1.8-.1 2.7.1-.5.1-1 .2-1.5.5z" fill="#a83c25" stroke-width="none" opacity="1"></path></g></g></g><g id="svga-group-eyebrows-right-move" transform="matrix(1,0,0,1,0,0)"><g id="svga-group-eyebrows-right-rotate" transform="matrix(1,0,0,1,0,0)"><g id="svga-group-eyebrows-right" transform="matrix(1,0,0,1,0,0)"><path id="SvgjsPath23557" d="M132 82.8c-.4-.7-.8-1.3-1.1-2-.1-.3-.2-.5-.4-.8-.3-.6-.6-1.2-1.1-1.6-.3-.6-.9-1.2-1.3-1.7-.6-.7-1.7-1.6-2.6-1 0 0-.1 0-.1.1-1.2-.4-2.7-.5-3.9-.4-1.6.2-3.1.7-4.7 1.2-1.2.4-2.4.7-3.5 1.3-.1-.1-.3-.2-.4-.1-1.1.1-2.3.4-3.1 1.3-.1.1-.1.1-.1.2-.3.1-.6.2-.8.4h-.1c-.3.1-.7.3-.9.6-.8.3-1.4 1.3-1.7 2.1-.4 1.1.1 2.7 1.1 3.3 0 .1.1.3.2.4.6.6 1.7.4 2.7 0h.1c3.3-1.1 6.6-2.5 9.6-4.2 1.4-.4 2.7-.9 4-1.3.5-.2 1.3-.3 1.9-.6 0 .1.1.2.2.3.7.3 1.4.6 2 .9.4.2.9.5 1.3.6.1.2.3.4.4.6.4.5.9 1.4 1.6 1.6.2.4.4.8.8.8.1 0 .3 0 .4-.1.4-.6-.2-1.4-.5-1.9z" fill="#b7513b" stroke-width="none" opacity="1"></path><path id="SvgjsPath23558" d="M110.1 86.1c-.2-1.1-.5-2.1-.5-3.2.1-1.2.5-2.2 1-3.3.1-.2-.2-.6-.4-.3-1.7 1.7-2 5.1-.4 7 .1 0 .4-.1.3-.2zm-1.4-.1c-.4-.7-.8-1.5-.9-2.3-.1-.8.1-1.5.1-2.3 0-.2-.2-.2-.3-.1-1.1 1.4-.4 3.8.7 5 .2.1.5-.1.4-.3zm9.4-9.6c-3 1.7-5.4 5.5-5.7 8.9 0 .2.3.3.4.1.6-1.6 1.2-3.3 2.2-4.7 1-1.5 2.2-2.6 3.5-3.8.1-.3-.1-.7-.4-.5zm4.5-.7c-2.7 1.6-6.1 3.5-6.3 6.9 0 .3.3.3.4.1.6-1.6 1.3-2.8 2.6-3.9 1.1-1 2.4-1.8 3.6-2.7.2-.2-.1-.5-.3-.4zm5.8 1.9c-4.2-1.6-8 2.1-10.4 5-.1.2.2.4.3.2 1.3-1.3 2.6-2.7 4.3-3.7 1.9-1.1 3.7-1 5.7-1.1.3.1.3-.3.1-.4zm3.9 4.7c-1.1-1.3-2.8-2-4.5-2.3-.2-.1-.3.3-.1.4 1.6.5 2.9 1.4 4.3 2.2.3.1.4-.2.3-.3z" fill="#c66854" stroke-width="none" opacity="1"></path><path id="SvgjsPath23559" d="M131.8 80.8c-.4-.7-.8-1.4-1.3-2.1.1-.1.1-.2.1-.3-.1-.8-1-1.4-1.6-1.8-.2-.1-.4-.3-.6-.4.3-.2.3-.6-.1-.7-1.6-.7-3.4-.9-5.2-.7H122.8c-2.7.2-5.5 1.2-7.9 2.2.2-.2-.1-.5-.3-.5-1 .2-2 .9-3 1.3-.3.1-.6.3-.9.4.1-.2-.1-.4-.3-.3-.9.2-1.9.9-2.6 1.7.2-.4-.3-.7-.5-.3-1.3 1.9-2.6 4.8-.7 6.8 2 2 5.8 0 7.9-.8 3-1.2 5.8-3.2 9-4.1 4.3-1.2 6.9 2.1 9.5 5l.1.1c.2.2.4 0 .4-.2.1-1.7-1-3.9-1.7-5.3zm-7.6-5c-1.4.5-2.8 1.4-3.8 2.2-1.8 1.4-3.2 3.2-4 5.3-.1.1-.2.1-.4.2.6-1.8 1.4-3.5 2.7-5 .9-1.1 2.1-1.8 3.3-2.7h2.2zm-16.9 9.6c-1.1-1-.9-2.4-.4-3.7.6-.6 1.1-1.2 1.7-1.8.1 0 .2-.1.3-.1-.7.9-1.1 1.9-1.1 3.1 0 1 .2 2.2.9 3.1-.5 0-1-.2-1.4-.6zm5.5-.5c-.6.2-1.4.6-2.2.8 0-.4-.1-.9 0-1.4.1-.7.3-1.4.3-2.1 0-.2-.3-.3-.4-.1-.7.9-.8 2.5-.6 3.8-.1 0-.2 0-.4.1-.4-.9-.9-1.6-1-2.7-.1-1.4.4-2.8 1.4-3.8.6-.3 1.2-.6 1.8-.8.2-.1.5-.2.8-.3 0 .1.1.3.3.2 2.5-.7 4.8-1.7 7.3-2.3-.8.7-1.6 1.5-2.2 2.3-1.3 1.6-2.2 3.4-2.6 5.4-.8.3-1.6.6-2.5.9zm13.9-4.7c.8-.2 1.7-.2 2.7-.1.2 0 .3-.3.1-.4-1.5-.8-3.3-.4-4.7.5-1.1.1-2.2.4-3.2.9-1.4.6-2.8 1.3-4.2 2 .9-1.6 2-3 3.5-4.2.9-.7 1.8-1.3 2.8-1.8.9-.4 1.8-.6 2.7-1h.2c.6.3 1.2.6 1.7.9 0 .1-.1.2 0 .2 1.3 1.4 2.4 2.8 3.1 4.6.2.6.4 1.3.6 2-1-1.3-2.2-2.5-3.8-3.2-.5-.2-1-.4-1.5-.4z" fill="#a83c25" stroke-width="none" opacity="1"></path></g></g></g><g id="svga-group-beardwrap" transform="matrix(1,0,0,1,0,0)"><g id="svga-group-beard-single-move" transform="matrix(1,0,0,1,0,0)"><g id="svga-group-beard-single" transform="matrix(1,0,0,1,0,0)"><path id="SvgjsPath23549" d="M121.53 116.89c-1.14-2.08-5.49-1.89-9.92-.73-4.43 1.15-7.67 1.83-12.1 1.94-4.77.12-11.37-1.27-15.35-1.73s-7.07-.3-7.41 2.59.37 7.11.37 7.11l.23-1.15s.43 4.89.54 6.96c.11 2.08 1.86 5.4 3.09 7.42 1.1 1.81 4.07 4.82 6.73 6.27 2.9 1.58 7.71 3.39 12.48 3.28 4.77-.12 9.05-1.47 10.69-2.51 7.59-4.82 10.15-11.27 10.15-11.27l.11.69s.57-1.27.8-4.16c.24-2.88.73-12.63-.41-14.71zm-3.36 18.95c-.85 1.43-3.88 5.52-6.29 7.07-3.29 2.12-8.63 3.28-8.86 2.59s-.11-3.91-.34-4.49c-.23-.58-4.04-.55-4.73-.09s.15 4.57-.77 4.57-5.2-.79-7.96-2.29-6.91-6-8.17-8.89-1.84-13.04-1.96-14.66 3.8-1.27 9.44-.23 12.54.96 12.54.96 3.01.16 10.15-1.69 7.18-1.26 8.33-.11.94 13.38-1.38 17.26z" fill="#b7513b" stroke-width="none" opacity="1"></path></g></g></g><g id="svga-group-mustache-single-move" transform="matrix(1,0,0,1,0,0)"><g id="svga-group-mustache-single" transform="matrix(1,0,0,1,0,0)"></g></g><g id="svga-group-nose-single-move" transform="matrix(1,0,0,1,0,0)"><g id="svga-group-nose-single" transform="matrix(1,0,0,1,0,0)"><path id="SvgjsPath23724" d="M109.05 113.12c.28.89.49 2.03-.2 2.51-.69.49-2.8-.08-3.4 0s-1.26.12-2.03.89-1.62 2.15-2.76 2.07c-1.13-.08-1.82-.89-2.39-1.54s-1.78-1.78-2.43-1.9-1.78.65-2.63 1.18c-.85.53-2.39.65-2.43-1.09-.04-1.74 1.54-7.46 1.9-8.71.36-1.26 1.78-4.86 2.39-5.96.61-1.09 6.2-3.61 9.04 0s4.94 12.55 4.94 12.55z" fill="#f4baa3" stroke-width="none" opacity="1" transform="translate(0 1)"></path><path id="SvgjsPath23725" d="M95.41 99.54c-2.42 4.09-3.81 8.9-4.62 13.56-.19 1.09-.85 3.07.4 3.8.94.55 2-.14 2.72-.74.17-.14-.05-.41-.23-.3-3.43 2.04-2.36-2.33-2.12-3.62.27-1.49.62-2.97 1.04-4.42.8-2.81 1.95-5.47 3.03-8.17.05-.14-.15-.22-.22-.11z" fill="#c66c49" stroke-width="none" opacity="1" transform="translate(0 1)"></path><path id="SvgjsPath23726" d="M92.73 114.39c1.98.45 3.69 1.11 5.06 2.68.69.78 1.27 1.84 2.39 2.05 3.17.6 3.33-4.52 6.24-4.77.33-.03.34-.5 0-.52-3.06-.15-4.19 6.6-7.29 3.72-.95-.88-1.57-1.93-2.72-2.62-1.11-.67-2.33-1.02-3.62-.95-.23 0-.3.35-.06.41z" fill="#c66c49" stroke-width="none" opacity="1" transform="translate(0 1)"></path><path id="SvgjsPath23727" d="M105.14 115.86c1.2-.21 3.1 1.16 4.14.01.81-.9.07-2.83-.15-3.8-.92-4.09-2.38-8.7-4.96-12.08-.18-.23-.52-.04-.39.23 1.44 3.25 3.1 6.25 4.15 9.69.23.77.45 1.54.63 2.32.1.45.2.89.29 1.34.52.92.27 1.44-.73 1.58-1.28.64-.86.17-2.02.17-.61 0-.53 0-1.06.28-.17.07-.05.28.1.26z" fill="#c66c49" stroke-width="none" opacity="1" transform="translate(0 1)"></path><path id="SvgjsPath23728" d="M97.56 106.48c2.43-1.42 4.5-.86 6.61.77.18.14.48-.03.34-.27-1.47-2.51-5.14-2.59-7.2-.83-.18.16.05.45.25.33z" fill="#c66c49" stroke-width="none" opacity="1" transform="translate(0 1)"></path><path id="SvgjsPath23729" d="M102.21 107.74c-1.68-.7-4.03-1.05-5.37.46-.23.26-.26.79.12.96 1.91.84 3.92.73 5.56 2.23.8.74 2.87 2.56 3.3.4.39-1.91-2.17-3.44-3.61-4.05z" fill="#fcc9b5" stroke-width="none" opacity="1" transform="translate(0 1)"></path></g></g><g id="svga-group-hair-front" transform="matrix(1,0,0,1,0,0)"><path id="SvgjsPath23848" d="M135.8 66.3c-1 3.3-1 5.1-.9 7.6.1 2.4-1 5.1 1.1 4.8 2.1-.3 4.4-.7 5.7-4.2 1.3-3.5 3-8.2 2.9-10-.1-1.8-3.7-9-3.7-9l-3.3 7.8-1.8 3z" fill="#af4630" stroke-width="none" opacity="1" stroke="none"></path><path id="SvgjsPath23849" d="M143.8 74c.4-3.6 1-8.5.2-9.3-.8-.8-5.6 2.2-6 4.8s-.4 7.5-.4 7.5c-.7 2.7-.8 4-.7 5.8.1 1.8-1 3.9.7 3.6.1 0 .2 0 .2-.1-.3 2.3-.1 3.8.2 5.4.3 2.2-.7 4.5 1 4.6s2.7-.6 3.5-3.8c.8-3.2 1.3-6.4 1.4-9.5.1-2.5.2-6.3-.2-8.4.1-.2.1-.4.1-.6zm-81.6 6.8c-.5-1.6-.3-4-1-5.3s-3.5-6.4-3.5-6.4c-.9 1.8-2.3 3.9-2.3 7.1 0 2.7-.4 4.6.2 6.2-.1 1.2-.1 2.4 0 3.1.2 1.1 1.8 8.1 3.4 9.1 1.4.8 2.4-2.9 2.2-6.2 1.6-2.9 1.5-6.1 1-7.6z" fill="#a83c25" stroke-width="none" opacity="1" stroke="none"></path><path id="SvgjsPath23850" d="M59.3 61c-.9.8-2.3 3.2-2.7 5.7s-.4 5 .1 6.2c.6 1.1 3.6 7.3 5.6 6.3 2-1 1.3-3 1.1-6.2s.1-3.7-.7-6.4c-.8-2.8-3.4-5.6-3.4-5.6zm8.9-37.1c-.7-2.5 3 1.4 2.9 7.5-.1 6.2 1 10.6 3.8 13 2.8 2.4 13.2 11.2 13.2 11.2s-2.4.7-7.2-.7-11-3.5-14.2-7.6-2.3-10.2-.9-13.2c1.4-2.9 3.3-6.9 2.4-10.2zm51.4 32c2.2-.6 5.8-1.7 7.5-.6 1.6 1.1 1.7 4.7 5.3 4.6 3.6-.1 6.8-6.5 6.5-9.4-.2-2.9-2.4-7.8-5.9-9.1-3.5-1.3-3.1 2.6-3.5 4.1-.4 1.5.1 2.5-3.5 5.1-3.5 2.7-6.4 5.3-6.4 5.3z" fill="#af4630" stroke-width="none" opacity="1" stroke="none"></path><path id="SvgjsPath23851" d="M131.3 58.4c-.2 1.1-.4 4.4 1.1 6.4s.6 4.3 3.8 3.1c3.2-1.2 6.9-5.4 6.6-8.5-.2-3.1-2.7-10.6-5.3-12-2.7-1.3-2.9 4.6-2.9 4.6l-3.3 6.4zM66.4 40c-1.8 2.1-4.9 2.8-4.2 6.5s5.4 7.7 9.8 8.3 7.7-.1 8.3-.6-9.6-6.2-9.6-6.2l-4.3-8z" fill="#b7513b" stroke-width="none" opacity="1" stroke="none"></path><path id="SvgjsPath23852" d="M62.8 45.5c-1.2 1-2.4 1.5-2.8 4.4-.4 2.9-.5 3.4 1.2 6.7 1.8 3.3 2 5.3 4.6 4.7 2.6-.6 5.5-2.9 5.2-6.5s-2.7-1.3-3.9-4.5-2.1-3.9-2.1-3.9l-2.2-.9z" fill="#af4630" stroke-width="none" opacity="1" stroke="none"></path><path id="SvgjsPath23853" d="M60.9 52.2c-1.2 1.6-2.6 1.9-2.9 4.9s-1.3 2.9.7 6.4c2 3.5 4 7.7 5.9 5.7s1.6-3 1.9-5.4c.3-2.4-.6-4.9-1.7-7-1.2-2.2-3.9-4.6-3.9-4.6zm34.5 5s-6.4 0-10.1-1.8c-3.7-1.8-11.6-8.7-13.2-13.6s.4-14.4-.8-18.9c0 0 1.5 3.8 2.9 5.8s4.4 2 9.2 4.8 9.1 8.5 9.8 12.8 2.2 10.9 2.2 10.9z" fill="#a83c25" stroke-width="none" opacity="1" stroke="none"></path><path id="SvgjsPath23854" d="M73.7 18.1c-.1-.5-2 6.7 2 10.6S85.9 37 87.2 42.2s.9 6.1 2.3 9.3 3.2 6.4 5.8 7.6c2.6 1.2 7.4-.2 7.4-1s4.1 3.5 6.8 2.2c2.7-1.3 10.3-10.6 11.4-17.2s-2.4-13.6-6.8-14.7-21.6-2.4-25.2-4.3c-3.6-1.9-5.2-3.7-5.6-5.1 0 0-.3 3.4 3 7.4S96 33 96 33s4.7 1.2 5.3 5c0 0-8.2-6.4-15-8.9s-10-.9-12.6-11z" fill="#af4630" stroke-width="none" opacity="1" stroke="none"></path><path id="SvgjsPath23855" d="M104.5 60.4s-4.2.3-5.8-4.5S98 42 95.1 37.1s-13.9-7.4-16.7-10.3c-2.7-2.9-3.8-9.3-3.8-9.3s2.7 7.9 6.7 8.4c3.9.5 17.3 4.9 21.7 6.9s9.1 10.3 8.2 15.5-2.5 12.6-6.7 12.1z" fill="#b7513b" stroke-width="none" opacity="1" stroke="none"></path><path id="SvgjsPath23856" d="M110.6 26.7c.6 0 10.8 2.9 15.9 4.5s17 10.3 4.4 17.8-8 8.8-20.3 10.9c-3.4.6 3.6-5.6 6.3-11 2.7-5.4 2.5-14.6 1-16.6s-7.3-5.6-7.3-5.6z" fill="#a83c25" stroke-width="none" opacity="1" stroke="none"></path><path id="SvgjsPath23857" d="M96.3 58.9c-3.5-3-5.5-6.7-6.4-11.2-.6-3.2-.3-6.8-1.7-9.7-.9-1.8-2.2-3-3.8-4.1-4.4-3.1-7.9-5-9.8-10.5-.1-.2-.4-.1-.3.1.8 3 2.2 5.6 4.6 7.6 4.2 3.7 8.6 4.8 9.5 11.3.8 6.3 1.6 13.5 7.9 16.8-.1 0 .1-.2 0-.3zm2.5-.6c-6.1-2.7-8.2-8.4-8.7-14.6 0-.2-.3-.2-.3 0-.2 6.2 2.7 12.8 8.9 14.9.2 0 .3-.2.1-.3zm3.5.5c-3.5-4-4.4-8.4-4.3-13.6.1-2.9.5-5.9-1.2-8.5-1.4-2.2-3.7-3.1-5.9-4.2-3.7-1.8-7.3-3.6-11-5.1-.1 0-.2.1-.1.2 3.5 2 7.2 3.7 10.8 5.5 2.8 1.4 5.2 2.4 6.3 6 .6 1.9.2 4.2.2 6.1-.2 5.5 1.1 9.9 5 13.8.1.2.4-.1.2-.2zm3.6-.3c-3.7-3.2-1.6-6.9-1.5-11 0-2.6-.7-4.9-2-7.1-.1-.2-.3 0-.2.1 1.1 2.4 1.7 4.9 1.6 7.5-.1 1.8-.8 3.5-.8 5.3-.1 2.3 1 4 2.8 5.3.1.2.2 0 .1-.1zm18.3-25.6c-.2-.1-.3.2-.1.3.8.3 1.6.5 2.4.8v.1c7.6 6.6-2.7 14.6-7.7 18.1-.2.1 0 .4.2.3 5.3-2.8 16-12.5 8.1-18.3 3.1 1.3 3.8 2 4.7 5.5.8 3.2.4 4.9-2 7.4-1.3 1.4-3.1 2.4-4.8 3.4-4.2 2.5-7.9 5.8-12.2 8.2-.1 0 0 .2.1.1 4.4-2 8.1-5.5 12.3-8 2.8-1.7 5.7-3.5 7.1-6.5 3-6.4-2.7-10-8.1-11.4zm-10.5-3.3c-.1 0-.2.2 0 .2 4.6 1 9.8 2.1 10.5 7.7.5 4-2.1 7.8-4.8 10.4-3.5 3.3-7.4 5.9-8.2 11-.1.4.5.6.6.2 1.5-8.6 12.7-10.9 13.2-20.3.4-6.8-5.6-8.8-11.3-9.2zm-1.1 8.2c-4.2-9.5-17.4-8.6-24.7-14.5-.1-.1-.3.1-.2.2 7.2 6.7 18.9 5.6 24.3 14.6.3.3.8 0 .6-.3zm25.8 14.3c-.1-.2-.4-.2-.4 0 .1 5.3-6.3 8.5-4.5 14 .1.2.4.1.3-.1-1.3-5.4 5.8-8.4 4.6-13.9zm3.1 7.4c0-.2-.3-.2-.4 0-.6 1.8-1 3.6-1.9 5.3-.8 1.4-1.9 2.5-2.6 3.9-1 2-1.1 4-.5 6.1.1.2.4.1.3-.1-.6-4 1.4-5.9 3.3-9.1 1.1-1.9 1.6-4 1.8-6.1zm.7 2c0-.3-.4-.2-.5.1-.2 2.2-.4 4.1-1.2 6.1-.1.2.2.4.3.2 1-1.9 1.7-4.2 1.4-6.4zm0 11.7c0-.2-.3-.2-.4-.1-.6 3-1.6 5.7-2.5 8.6-.6 1.9-.8 3.6 0 5.4.1.3.6.1.5-.2-1-2.8.3-5.1 1.2-7.7.8-1.9 1.2-3.9 1.2-6zm-.2 8c-.5 1.1-.6 2.5-.6 3.7 0 .2.4.2.4 0 0-1.2.3-2.3.5-3.5 0-.3-.2-.5-.3-.2zM86.9 53.1c-4.5-1.6-8.2-3.9-10.6-8.2-2.5-4.4-2.2-9-2.3-13.9 0-.3-.5-.3-.5 0-.9 9.7 2.8 20 13.3 22.4.3.1.3-.2.1-.3zm-8.6-2c-2.7-1.7-5.5-4.7-7-7.5-1.9-3.4-1.8-7.3-1.7-11.1 0-.3-.4-.3-.4 0-.5 7.7 1.7 15 9 18.9.1.1.3-.2.1-.3zm-3.7.1c-3.8-1.8-6.7-4.4-8.4-8.4-.1-.2-.5-.2-.4.1 1.2 4 4.4 7.7 8.6 8.7.2.1.4-.3.2-.4zm-4.3 1.6c-1.7-.7-3.3-1.5-4.8-2.5-.1-.1-.2.1-.1.2 1.5 1 3.1 1.9 4.9 2.5.1-.1.1-.2 0-.2zM66 57.6c-1.6-1.5-3.2-2.8-4.4-4.6-.1-.2-.4 0-.3.2 1.2 1.8 2.7 3.6 4.5 4.7.1 0 .3-.2.2-.3zm55.6-20.7c-.4-3.5-3.1-6.2-6.5-6.7-.2 0-.2.2-.1.2 4.1 1.4 7.1 5.1 5.7 9.7-.8 2.6-3 4.6-4.6 6.7-.1.1.1.2.2.1 2.6-2.9 5.8-5.7 5.3-10zm-10.2-3.3c-.2-.2-.4.1-.2.2 5.6 6.5.8 14.3-1.4 21.2-.1.2.2.3.3.1 2.6-6.6 7.5-15.5 1.3-21.5zm-16.7-.9c-.2 0-.3.2-.1.3 8.9 2.5 3.9 14.4 6.7 20.7.1.2.3 0 .3-.1-1.8-6.4 2.2-18.9-6.9-20.9z" fill="#c66854" stroke-width="none" opacity="1" stroke="none"></path></g><g id="svga-group-glasses-single-move" transform="matrix(1,0,0,1,0,0)"><g id="svga-group-glasses-single" transform="matrix(1,0,0,1,0,0)"><path id="SvgjsPath23756" d="M86.01 82.48c-6.64-.22-16.46.63-20.04 4.22-3.59 3.59-4.64 7.7-2.85 15.82s7.81 10.65 12.24 10.86c4.43.21 11.71-2.11 18.99-12.24s1.36-18.34-8.34-18.66z" fill="url(#SvgjsLinearGradient23757)" opacity="1"></path><path id="SvgjsPath23765" d="M113.99 82.48c6.64-.22 16.46.63 20.04 4.22 3.59 3.59 4.64 7.7 2.85 15.82-1.79 8.12-7.81 10.65-12.24 10.86s-11.71-2.11-18.99-12.24-1.36-18.34 8.34-18.66z" fill="url(#SvgjsLinearGradient23766)" opacity="1"></path><path id="SvgjsPath23774" d="M139.5 95.1c-.21-.11-1.47-.21-1.71-.23-.06-1.25-.27-2.49-.69-3.68-.76-2.08-2.11-3.93-3.87-5.3-1.84-1.27-3.99-1.93-6.12-2.41-4.3-.93-8.73-1.14-13.11-1.01-2.19.07-4.4.55-6.36 1.56-1.66.85-3.09 2.16-4.03 3.77-1.26-1.27-2.51-1.78-3.87-1.71-1.85.1-3.04 1.32-3.36 1.68-.95-1.6-2.37-2.9-4.01-3.74-1.96-1.02-4.16-1.49-6.36-1.56-4.38-.13-8.81.08-13.11 1.01-2.14.48-4.29 1.14-6.12 2.41a11.957 11.957 0 0 0-3.87 5.3c-.42 1.19-.62 2.43-.69 3.68-.25.02-1.5.13-1.71.23-.24.12-.24 2.5-.08 2.75.14.24 1.71.27 1.91.27.22 2.06.58 4.1 1.2 6.08.71 2.07 1.77 4.08 3.36 5.61 1.55 1.57 3.56 2.65 5.69 3.22 2.13.58 4.41.58 6.56.06 2.14-.53 4.19-1.45 6.03-2.65 3.72-2.4 6.73-5.73 9.31-9.28 1.25-1.81 2.32-3.79 2.85-5.94.53-2.14.45-4.47-.46-6.5.25-.29 1.43-1.55 2.91-1.63 1.08-.06 2.27.59 3.32 1.66-.89 2.02-.97 4.33-.44 6.46.53 2.16 1.6 4.13 2.85 5.94 2.58 3.55 5.59 6.88 9.31 9.28 1.85 1.2 3.89 2.12 6.03 2.65 2.15.52 4.42.52 6.56-.06 2.13-.56 4.14-1.65 5.69-3.22 1.59-1.54 2.66-3.54 3.36-5.61.62-1.98.98-4.02 1.2-6.08.21 0 1.77-.03 1.91-.27.16-.24.16-2.62-.08-2.74zm-42.4.06c-.55 2.11-1.58 4.06-2.82 5.86-2.56 3.54-5.55 6.85-9.23 9.23-1.83 1.19-3.84 2.12-5.95 2.66-2.12.53-4.36.55-6.48-.01-2.11-.54-4.11-1.61-5.66-3.15-1.59-1.51-2.66-3.5-3.34-5.57-.64-2.09-.99-4.28-1.2-6.45-.18-2.17-.09-4.41.65-6.47.75-2.04 2.13-3.85 3.82-5.19 1.78-1.26 3.91-1.94 6.03-2.44 4.28-.97 8.7-1.22 13.08-1.13 2.19.09 4.38.59 6.32 1.61 1.94 1.01 3.55 2.66 4.41 4.66.87 2.01.92 4.29.37 6.39zm40.48 2.56c-.2 2.18-.56 4.36-1.2 6.45-.68 2.07-1.75 4.06-3.34 5.57-1.55 1.54-3.55 2.61-5.66 3.15-2.12.55-4.36.53-6.48.01-2.11-.54-4.12-1.47-5.95-2.66-3.68-2.38-6.67-5.69-9.23-9.23-1.24-1.79-2.27-3.75-2.82-5.86-.55-2.1-.5-4.38.37-6.39.85-2 2.47-3.65 4.41-4.66 1.94-1.03 4.13-1.52 6.32-1.61 4.38-.09 8.8.15 13.08 1.13 2.12.5 4.25 1.18 6.03 2.44 1.69 1.34 3.07 3.15 3.82 5.19.73 2.06.83 4.3.65 6.47z" fill="#4d1f1f" stroke-width="none" opacity="1"></path></g></g></g></g></g><rect id="svga-credit-rect" width="200" height="15" x="0" y="185" fill="#ecf0f1" opacity="0.5" style="display: none;"></rect><text id="svga-credit-text" font-family="Avenir Next, Roboto, Helvetica, Arial, sans-serif" font-size="10px" text-anchor="start" font-weight="400" size="10px" anchor="start" weight="400" fill="#333333" x="33.40447998046875" y="182.60824704170227" style="display: none;"><tspan id="SvgjsTspan23088" dy="13" x="33.40447998046875">Created on AvatarMaker.com</tspan></text></g></svg>