<svg xmlns="http://www.w3.org/2000/svg" version="1.1" width="600px" height="600px" viewBox="0 0 200 200" style="overflow:hidden!important;"><defs id="SvgjsDefs13223"></defs><g id="svga-group-wrapper"><g id="svga-group-backs-single"><path id="SvgjsPath13913" d="M0 0h200v200H0V0z" fill="#9de0ad" stroke-width="none" opacity="1"></path><path id="SvgjsPath13914" d="M0 70.8 39.2 200l39.2-86.3L0 9.9v60.9zM200 0h-47.6l23 37.5L200 0zm-28.9 104.9 16.5-40.7-70.5-26.8 54 67.5zM51.3 200h101.1v-33.1l-73.9 19.5L51.3 200zm27.2-86.3 73.9 53.2L78.5 0v113.7z" fill="#7dd191" stroke-width="none" opacity="1"></path><path id="SvgjsPath13915" d="m134.4 0 2 130.8L176.2 0h-41.8zm18 166.9 47.6-14.5v-21.5L171.1 105l-18.7 61.9zm22.9-129.4 12.3 26.8 12.4 6.9V0l-24.7 37.5zm-58.2 0L96.7 26.6 117.1 0 81 18.3 46.7 0h-28l56.2 21.4L0 59.3v93.1L94.8 29l22.3 8.5zM0 200h94.2l42.2-69.2L0 189.1V200z" fill="#61c178" stroke-width="none" opacity="1"></path><path id="SvgjsPath13916" d="M104.4 70.8 91.1 13.5 166.2 0 90 8.6 88 0H68.2l3.5 10.6L0 18.7v11.1l73.7-13.2 19.5 59-65.3 28L0 70.8v5.4l24 29.2-24 10.2 24.5-9.6 57.4 69.8L51.3 200h27.2l11.1-14.9 12.3 14.9h7.9l-16.7-19.6 24.1-32.4 17.2 52.1-29.2-125.6 94.8-37v-7.6l-95.6 40.9zm12.7 77.1-30.9 24.4-57.7-67.9 65.7-25.7 22.9 69.2zm70.5 52.1H200l-47.6-95.1 35.2 95.1z" fill="#ffffff" stroke-width="none" opacity="1"></path></g><g id="svga-group-humanwrap-move" transform="matrix(1,0,0,1,0,0)"><g id="svga-group-humanwrap" transform="matrix(1,0,0,1,0,0)"><g id="svga-group-hair-back-move" transform="matrix(1,0,0,1,0,0)"><g id="svga-group-hair-back" transform="matrix(1,0,0,1,0,0)"><path id="SvgjsPath14005" d="M65.8 116.4c0-.2-.1-.4-.1-.5 2.2-1.2 3.6-3.9 3.1-7.2 0-.4 0-.8-.1-1.2 0-1.9-.7-3.9-2.1-5.5l.3-.6c3.3-3.2 4.8-8.4.3-12.9-1.3-1.3-3-2.2-4.8-2.7-.7-.7-1.6-1.4-2.5-1.9-.1-2.3-.8-4.6-2.3-6.5-2.5-3.2-6.8-4.9-10.7-3.6-2.1.7-3.8 2.1-4.9 3.9h-1.2v-.2c0-.8-.2-1.6-.7-2.3-.5-.7-1-1.3-1.7-1.7-.1-.1-.2-.1-.3-.2 0 0-.1-.1-.2-.1-1.8-1.1-4.2-1.2-6.1-.1-.1.1-.2.1-.3.2-1.3.8-2.4 2.1-2.8 3.6-.4 1.4-.2 3.3.6 4.6.4.6.9 1.1 1.4 1.6-.4.3-.7.7-.9 1.1-.5.9-.8 2.3-.4 3.3s1 2 2 2.6c.1 0 .1.1.2.1-.5.6-.8 1.2-1 2-.1.3-.2.7-.3 1-.8 2.6 1 5.2 3.4 5.8-.5.7-.8 1.4-.8 2.3 0 .4 0 .8.1 1.2.1 1.1.4 2 1.2 2.8.4.4 1 .7 1.5.9-.2.8-.2 1.8 0 2.5.1.4.3.8.5 1.1 0 .1-.1.2-.2.4-.1.6-.2 1.1-.2 1.7.1.6.2 1.1.2 1.7.2.8.6 1.6 1.2 2.2.3.5.7.9 1.2 1.2.4.4.9.7 1.4.8.5.3 1 .4 1.6.4.8.2 1.7.2 2.5-.1.4-.1.8-.3 1.3-.5.4.2.8.4 1.3.5 0 .6.2 1.2.5 1.8.5 1.1 1.2 2.1 2.3 2.7.9.5 1.9.7 2.9.8h.1c.4.7.9 1.3 1.6 1.8.4.4.8.6 1.3.8.5.3 1 .4 1.5.4.5.2 1.1.2 1.6 0 .8 0 1.6-.3 2.3-.7.2-.1.5-.3.7-.4.8.7 1.9 1.2 3 1.1 1.2-.1 2.5-.4 3.3-1.4.7-.8 1.3-1.7 1.6-2.7.1-.5.2-1 .2-1.5 0-1-.3-1.7-.7-2.5-.8-.9-1.8-1.6-2.9-1.9zm99.9-15.7c-.3-.4-.6-.7-.8-1 .2-.2.4-.3.7-.5.6-.5 1-1.2 1.2-1.9.5-1.2.7-2.6.3-3.8-.2-.7-.5-1.3-.9-1.8.2-.9.2-1.8 0-2.6-.2-.7-.3-1.2-.7-1.8-.6-.9-1.1-1.4-2-2 .1-.3.1-.7.1-1.1 0-2.7-1.4-5.1-3.8-6.4-2.2-1.2-4.9-1.1-7.1.1-2.7-2.8-7.1-3.5-10.7-.9-1 .7-1.8 1.6-2.3 2.6-2.1-.6-4.3-.4-6.2.8-2 1.3-3.1 3.4-3.4 5.6-2.3 0-4.1 1.4-4.9 3.6-.8 2-1.2 4.2-.6 6.3 0 .2.1.3.2.4-.9 1.1-1.6 2.3-1.9 3.6-.3.8-.5 1.7-.6 2.6-.1 1.6.3 3.1 1.1 4.4-.5.4-.9.8-1.2 1.3-1.6 1.7-2.6 4.1-2.2 6.7.4 3.2 2.9 5.7 6 6.1.3 3 2.5 5.6 5.5 6.3.1.6.2 1.2.6 1.8.5.7 1.1 1.3 1.8 1.8 1.1.7 2.5.8 3.8.5 1.8-.4 3.2-1.4 4.1-3 .1-.2.2-.3.2-.5.1.1.2.1.3.1.5.2.9.4 1.4.6.8.2 1.6.3 2.4.1 1.2-.2 2.5-.7 3.4-1.6.7-.8 1.2-1.6 1.5-2.6.2-.7.2-1.3.2-1.9.1-.4.1-.9.1-1.3 1.5 0 2.9-.7 3.8-1.9.8-1 1.1-2.2 1-3.4.1-.4.2-.8.1-1.2 0-.2 0-.3-.1-.5h.5c.9 0 1.7-.2 2.5-.6 2.2.2 4.3-.8 5.8-2.5 1.9-2.1 2.7-5 2-7.8-.3-1-.7-1.9-1.2-2.7z" fill="#56342e" stroke-width="none" opacity="1" stroke="none"></path><path id="SvgjsPath14006" d="M37.6 103c-2.1-1.1-2-3-.9-4.5.3-.4-.1-1-.6-1.1-3-.1-5.3-4.5-1.7-5.9.3-.1.4-.6 0-.7-2.2-.4-3.3 2-3.1 3.9.2 2.1 1.7 3.4 3.6 3.9-1 2.2-.6 5.6 2.5 5.2.5-.1.5-.7.2-.8zm6.2 11.7c-2 .5-5.1 1.5-6-1.2-.6-2.1.8-4.1 2.2-5.3.3-.2 0-.7-.4-.6-2.5.7-3.8 4.6-2.7 6.9 1.3 2.7 5.1 2.6 7.2.9.3-.4 0-.8-.3-.7zm3.9-15.5c-1.1.1-2.3.1-3.2-.7-1-.8-1.2-2.3-.7-3.4.2-.5-.5-.9-.7-.4-.8 1.5-.7 3.3.5 4.6 1.1 1.1 3.1 1.6 4.4.6.2-.2 0-.7-.3-.7zm2.8 1.3c-.3.1-.3.5 0 .6 1.7.5 3.4 1 4.4 2.6 1 1.7.7 3.2.4 5-.1.6.5.8.9.4 2.7-3.6-1.5-9.5-5.7-8.6zm4.1 19.2c-.8.5-1.5 1.2-2.3 1.7-1.2.6-2.6.4-3.6-.4-1.8-1.6-1.3-4.3.3-5.9.3-.3-.1-.8-.5-.6-2.5 1.8-3.2 5.2-.8 7.4 2.3 2.2 6.4 1.3 7.6-1.7.2-.3-.4-.6-.7-.5zm5.3.7c-.5.5-.9 1.2-1.8 1-.8-.1-1.3-.9-1.2-1.7.1-.6-.9-.7-1-.1-.3 1.3.5 2.7 1.8 3.1 1.1.3 3-.6 2.9-1.9.1-.5-.3-.7-.7-.4zm90 1.3c-.1-.3-.6-.4-.7 0-.3 1.3-.7 2.7-1.8 3.6-1.2 1.1-3 1.2-4.5.6 0-.4-.1-.8-.3-1.1-.4-.7-1.4-.1-1.1.6.6 1.4-1.6 3.9-2.7 4.4-1.6.8-3.5.1-4.4-1.3-.3-.4-.9-.1-.7.4 1.1 2 3.6 3.1 5.7 2.1 1.3-.6 2.9-2.4 3.4-4.1 1.6.8 3.5.7 5.1-.3 1.5-1.1 2.5-3.1 2-4.9zm-2.5-7.8c-1 .7-2 1.5-3.3 1.2-1.4-.3-2.2-1.7-2.2-3.1 0-.7-.9-.6-1 0-.2 1.9.9 3.7 2.7 4.3 1.7.5 3.8-.2 4.5-1.9.1-.3-.3-.7-.7-.5zm12.6-8.5c-.3-.3-.8 0-.7.4.4 1.7.3 3.4-.9 4.7-1.2 1.2-4.1 1.5-4.2-.9 0-.7-1-.7-1 0-.1 2.8 3 4 5.2 2.7 2.1-1.3 3.7-4.9 1.6-6.9zm-6.8-9.9c-.5-.2-.7.4-.4.8.9 1.1 1.9 1.9 1.9 3.4 0 1.7-1.6 3.2-3.2 2.4-.6-.3-1.1.6-.5.9 1.9 1 4 0 4.7-2 .7-2-.5-4.7-2.5-5.5zm12.2-2.6c-.2-.1-.5 0-.5.3 0 .5.2 1 .3 1.5.2.8.1 1.8-.4 2.5-.8 1.5-2.6 2.2-4.2 1.9-.6-.1-.8.7-.2.9 2 .5 4.1-.2 5.2-1.9 1-1.3 1.5-4.3-.2-5.2zm.2 9.7c-.4-.4-1 .2-.6.6 2.6 3 1.3 6.4-1.6 8.4-.3.2-.1.7.3.7 4.4-1 4.9-6.9 1.9-9.7z" fill="#371813" stroke-width="none" opacity="1" stroke="none"></path><path id="SvgjsPath14007" d="M139.8 122.9c-.1-.3-.5-.3-.6-.1-.5 1-.4 2.2-1.2 3.1-.6.7-2.1 1-2.4-.1-.1-.5-.9-.3-.8.2.3 1.4 2 1.8 3.2 1.3 1.5-.6 2.2-2.9 1.8-4.4zm8-2.7c-.2-.2-.7-.3-.7.1-.2.9-.1 1.8-1 2.3-.9.6-2 .2-2.6-.5-.4-.4-1.1.1-.7.6.9 1.1 2.4 1.7 3.7 1 1-.5 2.1-2.3 1.3-3.5zm9.4-16.9c-1.5 1.7-3.6 2.4-5.3.5-.5-.5-1.3 0-1.1.6.2.9.1 1.8-.4 2.7-.8 1.4-2 1.7-3.8.7-.3-.4-.9-.1-.8.3.4 1.7 2.1 2.1 3.5 1.5 1.8-.8 2.5-2.3 2.7-4.1 2.1 1.3 5.1.8 6-1.9.1-.3-.5-.6-.8-.3zm4.9-1.5c-.2-.2-.4.1-.3.3 1.4 2.3 1.8 5.1.2 7.4-.3.4.4.9.7.5 1.9-2.3 2-6.2-.6-8.2zm1.1-6.9c-.1-.2-.5-.2-.6.1-.1.6-.2 1.1-.5 1.6s-.8.9-1.4 1c-.5.1-.3.9.2.8.8-.2 1.5-.7 1.9-1.3.5-.6.8-1.6.4-2.2zM59.6 122.4c-.7.6-1.3 1.4-2.3 1.6-.9.2-2-.2-2.3-1.2-.1-.4-.9-.4-.8.1.2 1.3 1.2 2.3 2.6 2.4 1.5.1 3-1.1 3.5-2.5.1-.4-.4-.6-.7-.4zm-13.8-9.6c-1 0-1.9.2-2.9.1-.4-.1-.8-.2-1.2-.4-.2-.1-.4-.3-.5-.6-.1-.4.1-.7.6-.7.5.2.9-.4.4-.7-1.4-.8-2.7 1.2-1.8 2.3 1.1 1.6 4.2 1.8 5.7.8.4-.1.2-.8-.3-.8zm2-8c-.2-.2-.6-.1-.6.2 0 .5.1.9 0 1.4-.2.5-.5.9-1 1.1-.5.2-.3 1.1.2.8.7-.3 1.2-.8 1.5-1.5.4-.6.5-1.6-.1-2zM36 91.4c-.7.3-1.2 1.1-1.2 1.9-.1.7.2 1.7 1 1.9.3.1.5-.2.4-.5-.2-.5-.5-.8-.5-1.3s.3-1 .7-1.2c.5-.4.1-1-.4-.8z" fill="#755a56" stroke-width="none" opacity="1" stroke="none"></path></g></g><g id="svga-group-humanbody-back"><path id="SvgjsPath13624" d="M166.5 181.1c-10.9-6.6-27.6-8.4-35-12.1-4.9-2.5-9.1-4.7-8.9-17.8s1.9-42.4 1.9-42.4H75.4s1.6 29.4 1.9 42.4-4.2 15.6-8.9 17.8c-7.4 3.5-24.1 5.4-35 12.1-10.8 6.6-10 18.9-10 18.9v19.7h153.3V200c-.1 0 .7-12.3-10.2-18.9z" fill="#fbd5c0" stroke-width="none" opacity="1" stroke="none"></path></g><g id="svga-group-chinshadow-single"><path id="SvgjsPath13865" d="M93 163.2c2.6 1.6 11.4 1.6 14 .1 4.5-2.5 10.6-9.1 15.6-14 .3-13.8 1.9-40.5 1.9-40.5H75.4s1.4 26.5 1.8 40.3c5.1 4.9 11.2 11.6 15.8 14.1z" fill="#dc9f7d" stroke-width="none" opacity="0.65" stroke="none"></path></g><g id="svga-group-humanbody-front"><path id="SvgjsPath13625" d="M78.7 156.8c.5 4.8 1.7 9.4 3.1 13.9.8 2.3 1.6 4.6 2.6 6.9.8 2 1.7 4.2 3.1 5.9.3.4 1 0 .9-.5-.5-2.2-1.6-4.3-2.4-6.4-.9-2.2-1.7-4.4-2.5-6.6-1.5-4.4-2.8-8.9-4.1-13.3-.2-.4-.8-.3-.7.1zm41.3-1c-1.3 8.2-3.9 16.1-5.4 24.2-.1.4.4.5.6.2 3.1-7.7 4.1-16.1 5.1-24.3-.1-.2-.3-.2-.3-.1zm-25.8 11.9c-.9 3.6 1.9 8.6 6.2 7.6.5-.1.4-.8 0-1-1.4-.5-2.9-.9-3.9-2.1-1.1-1.2-1.5-2.9-1.4-4.5 0-.4-.8-.5-.9 0z" fill="#dc9f7d" stroke-width="none" opacity="1" stroke="none"></path><path id="SvgjsPath13626" d="M177.3 219.7c-.1-6.6-.3-13.1-.3-19.7l-.3-.3c.1 0 .1 0 .2.1s.1.2.1.1v-1.4c0-.5-.1-.9-.1-1.4-.1-.9-.3-1.9-.5-2.8-.5-1.8-1.1-3.6-2-5.3-1.7-3.4-4.4-6.2-7.7-8.1-3.6-2.2-7.6-3.8-11.6-5.1-4-1.3-8.1-2.4-12.1-3.5-4-1.2-8.1-2.2-11.8-4.2-1.9-1-3.6-2.1-4.8-3.6-1.2-1.6-1.9-3.5-2.3-5.5-.8-4-.4-8.2-.3-12.4l.7-12.6 1.5-25.2.1-1.4h-1.4c-8.2 0-16.4 0-24.6.1l-24.6.3h-.9l.1.9c.8 11.9 1.6 23.8 2.1 35.7.1 3 .3 6 .2 8.9-.1 2.9-.4 5.9-1.6 8.6-.6 1.3-1.4 2.5-2.4 3.5s-2.3 1.8-3.6 2.4c-2.6 1.3-5.4 2.2-8.3 3-5.8 1.5-11.6 2.8-17.3 4.7-2.8.9-5.7 2-8.4 3.4-1.3.7-2.7 1.4-4 2.4-1.3.9-2.4 1.9-3.5 3.1-2.1 2.3-3.6 5.2-4.5 8.1-.5 1.5-.8 3-1 4.6-.1.8-.1 1.6-.1 2.4v2.3l-.2 17.9v1.3h1.4l38.3.2c12.8.1 25.5.1 38.3 0 12.8-.1 25.6-.1 38.3-.3 12.8-.2 25.6-.5 38.3-.7h.6v-.5zm-77.2-1.6H61.8l-37 .2-.1-16.6v-2.2c0-.7 0-1.4.1-2.1.1-1.4.4-2.8.8-4.2.8-2.7 2.1-5.3 3.9-7.5.9-1.1 2-2.1 3.1-2.9 1.1-.9 2.4-1.6 3.7-2.3 2.6-1.4 5.3-2.5 8.1-3.5 5.6-2 11.4-3.4 17.1-5.1 2.9-.8 5.8-1.7 8.5-3.1 1.3-.7 2.7-1.5 3.8-2.6 1.1-1.1 2-2.4 2.6-3.9 1.2-2.9 1.5-5.9 1.6-8.9 0-3-.1-6-.2-9l-1.3-34.8 23.5.4c7.7.1 15.4.1 23.1.1-.4 7.9-.8 15.9-1.1 23.8-.2 4.2-.2 8.4-.3 12.6 0 4.2-.2 8.5.8 12.8.5 2.1 1.3 4.2 2.8 6 1.4 1.7 3.4 2.9 5.3 3.8 3.9 1.9 8 2.8 12.1 3.8s8.2 2 12.2 3.3c4 1.3 7.9 2.8 11.5 5 3.2 1.9 5.8 4.7 7.5 8 .9 1.6 1.5 3.4 1.9 5.2.2.9.4 1.8.4 2.7.1.5.1.9.1 1.4V200l-.3 19c-12.6-.2-25.1-.5-37.7-.7-12.7-.1-25.5-.1-38.2-.2z" fill="#cd865f" stroke-width="none" opacity="1" stroke="none"></path></g><g id="svga-group-clothes-single"><path id="SvgjsPath13766" d="M180.3 220.1c0-17.5-1.6-28.7-1.6-28.7-3.2-15.2-22.5-16.1-31.1-18.5-2.8-.8-13.9-4.5-13.9-4.5-4-8.6-9.1-13.4-9.1-13.4s1.1 16.6-4.8 20.7c-2.8 1.9-8.9 3.1-11.2 5-2.4 2-5.9 10.2-5.9 10.2s-8.5-12.5-10.7-12.3c-4.7.5-8 0-9.2-.4-6.7-2-6.7-23.4-6.7-23.4s-6.5 4.6-9.4 12.4c-3.2 1.4-11 3.2-15 4.7-8.3 3.1-27.5 5.6-30.5 19.6 0 0-1.6 11.2-1.6 28.7l160.7-.1z" fill="#152c5e" stroke-width="none" opacity="1"></path><path id="SvgjsPath13767" d="M180.6 210.1c0-3.3-.1-6.7-.3-10-.1-1.7-.2-3.3-.3-5l-.2-2.5-.1-1.3c-.1-.4-.2-.9-.3-1.3-.9-3.4-2.8-6.5-5.4-8.9-2.6-2.3-5.7-4-8.9-5.1-3.2-1.2-6.5-2-9.8-2.7 0 0-17.5-4.4-20.3-5.9-1.1-2.4-2.4-4.7-3.9-6.9-.8-1.2-1.6-2.3-2.5-3.4-.9-1.1-1.7-1.9-2.8-2.9-.2-.2-1-.7-1.3-.7-.7-.1-1 .6-1.1 1.3v.1c-.4 3.8-.6 14.2-1.3 15.9-.8 1.7-1.8 3.2-3.2 4-1.5.9-3.4 1.5-5.2 2.2-.9.3-1.9.7-2.8 1.1-1 .4-1.9.9-2.9 1.6-1 .9-1.5 1.7-2.1 2.6-.6.9-1.1 1.8-1.5 2.6l-1.8 3.6c-2.2-3-4.4-6-7-8.7-.4-.4-.8-.8-1.3-1.2-.2-.2-.5-.4-.8-.6-.3-.2-.6-.4-1.2-.4h-.6l-.4.1-.8.1c-.5.1-1.1.1-1.6.1-1.1 0-2.1 0-3.2-.1-1-.1-2.2-.2-3-.5-.8-.3-1.6-1-2.2-1.8-.6-.8-1.2-1.7-1.7-2.6-1-1.9-1.6-13.9-2.3-18.2 0-.1-.1-.1-.1-.2-.2-.2-.5-.2-.7-.1-1.1.8-2.1 1.7-3 2.7s-1.8 2-2.6 3c-.8 1.1-1.5 2.2-2.2 3.3-.7 1.1-1.2 2.2-1.7 3.4-3.8 1.7-10.8 3-14.7 4.4-4 1.4-8.1 2.3-12.2 3.6-4.1 1.3-8.2 2.9-11.8 5.5-1.8 1.3-3.4 2.9-4.8 4.7-1.3 1.8-2.3 4-2.8 6.2v.1c-.3 2.4-.6 4.8-.8 7.2-.2 2.4-.4 4.8-.5 7.2-.1 2.4-.3 4.8-.3 7.2-.1 2.4-.1 4.8-.1 7.2 0 .8.6 1.4 1.4 1.4l40.5.2c13.5 0 27-.1 40.4-.2l40.2-.5 19.9-.3 19.8-.4c.2-3.5.2-6.9.2-10.2zM120.2 177c1-.6 1.9-1.5 2.5-2.4.7-.9 1.2-1.8 1.7-2.8.9-1.9.9-10.8 1.3-13.9.2.3.4.5.7.8.8 1 2.7 3 3.4 4.1 3.5 5.5 5.5 12.6 5.7 14 0 0 2.7 12.7 3.1 17.1-1.7-.8-3.4-1.8-4.9-2.8-2.1-1.4-4.1-2.9-6.1-4.4-2-1.6-3.9-3.1-5.8-4.9-.9-.9-1.8-1.8-2.9-2.5-.7-.4-1.5-.8-2.4-.9 1.2-.2 2.5-.7 3.7-1.4zm-22.1 19.1c-.6-1.7-1.3-3.3-2.2-4.9-.8-1.5-1.7-3-2.8-4.3.4 0 .8.1 1.2.1.9.1 1.9.1 2.8.2h1.7c1 1.4 1.9 2.7 2.8 4.1-1.2 1.4-2.3 2.9-3.4 4.4 0 .2 0 .2-.1.4zm-9.2-16.5c.6 0 1.1 0 1.7-.1l.8-.1H92s.2.1.3.2c.2.1.4.3.5.4.4.3.7.7 1.1 1.1 1.6 1.8 3.2 3.8 4.6 5.8-1.4-.2-2.8-.5-4.3-.7-1.8-.3-3.7-.6-5.5-1-1.8-.4-3.6-.8-5.4-1.3-1.7-.5-3.4-.9-5-1.5l.1-.1c.8-1 1.7-1.9 2.7-2.6.5-.3 1-.6 1.5-.8 1 .3 1.8.4 2.8.5 1.3.2 2.4.2 3.5.2zm-21.7-12.3c.5-1.2 1-2.4 1.6-3.5.6-1.1 1.3-2.2 2.1-3.2s1.6-2 2.6-2.9c.7-.7 1.5-1.4 2.2-2 .1 6.3.8 15.8 1.8 17.9.5 1 1.1 2 1.8 2.9.7.9 1.6 1.8 2.8 2.3.2.1.3.1.5.1-.5.2-1 .4-1.4.7-1.1.6-2 1.6-2.9 2.5-1.8 1.7-3.8 3.3-5.8 4.9s-4 3.1-6.1 4.4c-1.6 1-3.3 2-5 2.8 2.2-18.3 5.7-26.8 5.8-26.9zm-7.7 51.2-38.5.2c0-4.3.1-8.6.2-12.9.1-2.4.2-4.8.4-7.1.2-2.4.4-4.7.6-7.1.4-1.9 1.2-3.8 2.3-5.4 1.1-1.6 2.5-3.1 4.2-4.4.3-.2.5-.4.8-.6 1.6 2.9 3.3 5.7 5 8.5 1.8 2.9 3.6 5.8 5.5 8.7.5.8.9 1.4 1.1 2.2.3.8.5 1.6.6 2.4.4 1.6.6 3.3.8 5l.6 5.1c.2 1.7.3 3.4.5 5.1v-5.1l-.3-5.1c-.1-1.7-.4-3.4-.7-5.1-.2-.9-.4-1.7-.6-2.6-.2-.9-.7-1.7-1.2-2.4-1.9-2.9-3.7-5.8-5.7-8.6-1.8-2.7-3.7-5.4-5.6-8.1 3.1-2.2 6.7-3.7 10.3-5 4-1.4 8.1-2.4 12.2-3.9 3.9-1.6 10.1-2.6 13.9-4.4-1.8 4.4-3.9 10.7-6.6 27.8 0 .2 0 .4.1.6.2.5.8.7 1.3.5 2.4-1.2 4.5-2.6 6.6-4.1 2-1.6 4-3.2 5.9-4.9 1.8-1.7 3.7-3.3 5.3-5.2 1.5.9 3.2 1.6 4.8 2.2 1.8.6 3.6 1.1 5.4 1.5 1.4.3 2.8.5 4.1.6.6 1.7 1.3 3.3 2.2 4.8.9 1.6 1.8 3.1 3 4.5-.1.1-.2.3-.2.5-.1.4-.1.7-.2 1.1-.1.7-.1 1.4-.1 2.1v4.1c.1 2.7.2 5.4.4 8.1l.3 4.1c.1.9.2 1.8.3 2.6-13-.2-26-.3-39-.3zm39.9.3h-.7v-6.7l-.2-8.1c0-1.4-.1-2.7-.1-4 0-.7 0-1.3.1-2s.1-1.2.5-1.8c.6-1.2 1.4-2.3 2.2-3.4l.8-1.1c.1.1.2.2.4.3.6.3 1.3 0 1.6-.6.6-1.3 1.3-2.6 1.9-3.9 1.2 0 2.3-.1 3.4-.3 1.4-.2 2.8-.6 4.2-1-1.8 2.4-3.5 4.9-5.2 7.4-.9 1.3-1.8 2.6-2.7 4l-.7 1-.3.5c-.1.1-.3.5-.3.7-.2.9-.2 1.7-.3 2.5-.1 3.2.1 6.4.3 9.6.2 2.4.4 4.8.7 7.1l-5.6-.2zm40.2.5-34.3-.4-.1-2.4-.1-4.8c-.1-3.2-.2-6.4-.1-9.5 0-.8.1-1.6.2-2.3.1-.2 0-.2.2-.4l.3-.5.6-1c.8-1.4 1.7-2.7 2.5-4.1 1.6-2.6 3.1-5.1 4.6-7.8 1.4-.4 2.8-.9 4.1-1.5 1.3-.6 2.7-1.2 3.9-2l-4.2 1.2c-1.4.4-2.8.9-4.2 1.3l-4.2 1.2c-1 .3-2.1.5-3.1.8.2-.3.3-.7.5-1 .5-.9.9-1.7 1.5-2.5.5-.8 1.1-1.6 1.6-2 .6-.4 1.4-.9 2.3-1.2.9-.4 1.8-.7 2.7-1 .6-.2 1.2-.4 1.8-.7.8.2 1.7.6 2.4 1.1 1.1.7 1.9 1.6 2.7 2.6 1.7 1.9 3.6 3.6 5.4 5.3 1.9 1.7 3.8 3.3 5.9 4.9 2.1 1.5 4.2 2.9 6.6 4.1.2.1.4.1.6.1.5-.1.9-.6.8-1.1-.8-5-3.9-22.1-5.7-26.1 2.6 1.4 26.2 7.5 29.2 8.6 2.1.8 4.2 1.7 6.1 2.9-2 2.7-3.9 5.5-5.8 8.3-1.9 2.8-3.8 5.7-5.7 8.6-.4.7-1 1.5-1.2 2.4-.3.9-.5 1.7-.6 2.6-.3 1.7-.6 3.4-.7 5.1l-.3 5.1c0 1.7-.1 3.4 0 5.1.2-1.7.3-3.4.5-5.1l.6-5.1c.2-1.7.5-3.4.9-5l.6-2.4c.2-.8.6-1.4 1.1-2.2 1.8-2.9 3.7-5.8 5.5-8.7 1.8-2.9 3.5-5.8 5.1-8.7.8.5 1.6 1 2.3 1.6 2.4 2 4.2 4.7 5.1 7.8l.3 1.1.2 1.2.3 2.5.5 4.9c.3 3.3.6 6.6.8 9.9l.5 9.9-40.5-.7zm-37.8-21.9c.7 0 1.2.5 1.2 1.2s-.5 1.2-1.2 1.2-1.2-.5-1.2-1.2.5-1.2 1.2-1.2zm9.1-15.2c.7 0 1.2.5 1.2 1.2s-.5 1.2-1.2 1.2-1.2-.5-1.2-1.2.6-1.2 1.2-1.2zM102 216c.7 0 1.2.5 1.2 1.2s-.5 1.2-1.2 1.2-1.2-.5-1.2-1.2.5-1.2 1.2-1.2z" fill="#01153f" stroke-width="none" opacity="1"></path></g><g id="svga-group-head" transform="matrix(1,0,0,1,0,0)"><g id="svga-group-ears-left-move" transform="matrix(1,0,0,1,0,0)"><g id="svga-group-ears-left" transform="matrix(1,0,0,1,0,0)"><path id="SvgjsPath13779" d="M62 92.9c-.2-.3-3.3-4.3-5.9-6.7-2.6-2.4-3.4-2.4-4.6-.9-1.3 1.5-2.9 9.1-2.5 12.4.4 3.4 3.6 8.7 5.2 11.7 1.7 3 3.3 6.7 5.1 6.3 1.9-.4 4.4-4.6 5.7-7.7 1.3-3.1.5-10.8-3-15.1z" fill="#fbd5c0" stroke-width="none" opacity="1" stroke="none"></path><path id="SvgjsPath13780" d="M65.8 102c.1.9.2 1.7.2 2.6s0 1.7-.2 2.6c-.1.4-.2.9-.3 1.3-.1.4-.3.7-.4 1.1-.3.7-.6 1.4-1 2.1-.7 1.3-1.5 2.6-2.6 3.6-.5.5-1.1 1-1.8 1.3-.4.1-.9.1-1.3 0-.4-.2-.8-.5-1.1-.8-1.2-1.3-1.9-2.8-2.7-4.3-.7-1.5-1.5-2.9-2.2-4.3-.7-1.5-1.5-2.9-2.1-4.4-.3-.8-.7-1.5-.9-2.3-.3-.8-.5-1.6-.6-2.5-.2-1.7 0-3.4.1-5 .2-1.6.5-3.2.8-4.8.2-.8.4-1.6.8-2.3l.3-.6c.1-.2.3-.4.4-.5.2-.3.5-.6.9-.8.3-.2.8-.3 1.2-.3.4.1.8.3 1.1.5.7.4 1.2 1 1.8 1.5 2.2 2.2 4 4.8 5.9 7.2 1.9 2.4 3.2 5.7 3.7 9.1zM55.7 86.4c-1.1-.9-2.4-1.9-3.1-1.2-.2.1-.4.4-.6.6l-.3.3c-.1.1-.1.3-.2.4-.3.6-.5 1.3-.8 2-.5 1.4-.9 2.9-1.1 4.5-.3 1.5-.5 3.1-.4 4.7.1.8.3 1.6.6 2.3.3.8.6 1.5.9 2.2.7 1.5 1.5 2.8 2.3 4.2.8 1.4 1.7 2.7 2.5 4.1.4.7.8 1.4 1.2 2s.8 1.3 1.3 1.7c.5.4.9.6 1.3.4.5-.2.9-.6 1.4-1.1.9-1 1.6-2.1 2.3-3.4.4-.6.7-1.3 1-1.9.2-.3.3-.7.4-1l.2-.5c0-.2.1-.3.1-.5.3-1.4.4-3 .3-4.6s-.4-3.2-.9-4.8c-.5-1.6-1.2-3-2.2-4.2-1.9-2.1-4-4.3-6.2-6.2z" fill="#ecb99d" stroke-width="none" opacity="1" stroke="none"></path><path id="SvgjsPath13781" d="M51.2 99.4c-.3-2.3-.5-7.8.8-9.6 2.2-2.9 6 6.4 6.9 9.3 0 .1.1.2.1.3.2.3-.1.7-.4.6-.4-.2-.9-.6-1.3-.8-1.1-.5-1.6.5-1.3 1.8.4 1.8 1.4 2.9 2.2 4.3.1.2 0 .4-.2.3-1.6-.9-3.5-4.5-3.1-6.6.3-2 1.9-1.8 3.1-.8-.7-1.7-1.5-3.3-2.5-4.8-.6-.9-1.2-2-2.2-2.2-1.2-.2-1 .3-1.2 1.8-.8 4.8-.3 10.4 2.5 14.5.1.1 0 .2-.1.1-1.8-2.3-3-4.9-3.3-8.2z" fill="#dc9f7d" stroke-width="none" opacity="1" stroke="none"></path></g></g><g id="svga-group-ears-right-move" transform="matrix(1,0,0,1,0,0)"><g id="svga-group-ears-right" transform="matrix(1,0,0,1,0,0)"><path id="SvgjsPath13782" d="M138 92.9c.2-.3 3.3-4.3 5.9-6.7 2.6-2.4 3.4-2.4 4.6-.9 1.3 1.5 2.9 9.1 2.5 12.4s-3.6 8.7-5.2 11.7c-1.7 3-3.3 6.7-5.1 6.3-1.9-.4-4.4-4.6-5.7-7.7s-.5-10.8 3-15.1z" fill="#fbd5c0" stroke-width="none" opacity="1" stroke="none"></path><path id="SvgjsPath13783" d="M138 92.9c1.9-2.4 3.8-5 5.9-7.2.5-.5 1.1-1.1 1.8-1.5.3-.2.7-.4 1.1-.5.4-.1.9.1 1.2.3.3.2.6.5.9.8.1.1.2.3.4.5l.3.6c.3.7.6 1.5.8 2.3.4 1.6.7 3.2.8 4.8.2 1.6.3 3.3.1 5-.1.9-.4 1.7-.6 2.5-.3.8-.6 1.6-.9 2.3-.7 1.5-1.4 3-2.1 4.4-.8 1.5-1.5 2.9-2.2 4.3-.8 1.4-1.4 3-2.7 4.3-.3.3-.7.6-1.1.8-.4.2-.9.2-1.3 0-.8-.3-1.3-.8-1.8-1.3-1-1.1-1.8-2.3-2.6-3.6-.4-.7-.7-1.4-1-2.1-.2-.4-.3-.7-.4-1.1-.1-.4-.3-.8-.3-1.3-.1-.9-.2-1.7-.2-2.6s.1-1.7.2-2.6c.4-3.4 1.7-6.7 3.7-9.1zm.1.1c-1 1.2-1.7 2.7-2.2 4.2-.5 1.6-.8 3.2-.9 4.8-.1 1.6 0 3.2.3 4.6 0 .2.1.3.1.5l.2.5c.1.3.3.7.4 1 .3.7.6 1.3 1 1.9.7 1.2 1.5 2.4 2.3 3.4.4.5.9.9 1.4 1.1.4.2.8 0 1.3-.4s.9-1 1.3-1.7c.4-.6.8-1.3 1.2-2 .8-1.4 1.7-2.8 2.5-4.1.8-1.4 1.6-2.8 2.3-4.2.4-.7.7-1.5.9-2.2.3-.8.5-1.6.6-2.3.1-1.6-.1-3.2-.4-4.7-.3-1.5-.7-3-1.1-4.5-.2-.7-.5-1.4-.8-2-.1-.1-.1-.3-.2-.4-.1-.1-.1-.2-.3-.3-.2-.2-.4-.5-.6-.6-.7-.6-2 .4-3.1 1.2-2.2 1.5-4.3 3.7-6.2 6.2z" fill="#ecb99d" stroke-width="none" opacity="1" stroke="none"></path><path id="SvgjsPath13784" d="M148.8 99.4c.3-2.3.5-7.8-.8-9.6-2.2-2.9-6 6.4-6.9 9.3 0 .1-.1.2-.1.3-.2.3.1.7.4.6.4-.2.9-.6 1.3-.8 1.1-.5 1.6.5 1.3 1.8-.4 1.8-1.4 2.9-2.2 4.3-.1.2 0 .4.2.3 1.6-.9 3.5-4.5 3.1-6.6-.3-2-1.9-1.8-3.1-.8.7-1.7 1.5-3.3 2.5-4.8.6-.9 1.2-2 2.2-2.2 1.2-.2 1 .3 1.2 1.8.8 4.8.3 10.4-2.5 14.5-.1.1 0 .2.1.1 1.8-2.3 3-4.9 3.3-8.2z" fill="#dc9f7d" stroke-width="none" opacity="1" stroke="none"></path></g></g><g id="svga-group-faceshape-wrap" transform="matrix(1,0,0,1,0,0)"><g id="svga-group-faceshape-single"><path id="SvgjsPath13855" d="M143.2 82.9v-.3c-1.3-30.5-20.7-47.3-43.2-47.3S58.1 52.1 56.9 82.6v.3c0 2.4-.5 15.6 3.1 26.5 3.2 9.8 5.7 17.5 13.5 24.1 5.5 4.6 13.8 14.7 19.6 17.9 2.6 1.4 11.4 1.4 14 0 5.8-3.3 14.1-13.4 19.6-17.9 7.8-6.5 10.4-14.3 13.5-24.1 3.4-10.9 2.9-24.2 3-26.5z" fill="#fbd5c0" stroke-width="none" opacity="1" stroke="none"></path><path id="SvgjsPath13856" d="M73.5 133.4c5.5 4.6 13.8 14.7 19.6 17.9 2.6 1.4 11.4 1.4 14 0 5.8-3.3 14.1-13.4 19.6-17.9 7.8-6.5 10.4-14.3 13.5-24.1 3.4-10.9 2.9-24.2 3-26.5v-.3C141.9 52 122.5 35.2 100 35.2S58.1 52.1 56.9 82.6v.3c0 2.4-.5 15.6 3.1 26.5 3.2 9.8 5.7 17.5 13.5 24zM58 89.6c-.2-3.3-.3-6.7 0-10 .4-6.6 1.9-13.2 4.7-19.2 2.8-5.9 6.9-11.2 12.1-15.1C80 41.5 86 39.1 92.2 38c6.2-1 12.6-.7 18.6.9 6.1 1.5 11.7 4.6 16.6 8.7l.9.8c.3.3.6.6.9.8l1.7 1.7c.6.5 1 1.2 1.6 1.8l1.5 1.9c.9 1.4 1.8 2.8 2.6 4.2l1.1 2.2c.4.7.8 1.4 1 2.2 2.6 6.1 3.9 12.7 4.2 19.5-.1 3.4-.1 6.7-.4 10.1-.3 3.4-.7 6.6-1.5 9.9-.4 1.6-.8 3.3-1.3 4.8s-1.1 3.2-1.7 4.7c-1.2 3.2-2.5 6.2-4 9-1.6 2.8-3.4 5.4-5.6 7.5-.5.6-1.1 1-1.7 1.6l-1.9 1.5c-1.4 1.1-2.6 2.2-3.8 3.5-2.5 2.3-4.8 4.7-7.1 6.9s-4.8 4.5-7.2 6.1c-.3.2-1.8 1.3-8 1.1-.8 0-1.5-.1-2.2-.2-.7-.1-3-1.2-3.3-1.4-.6-.4-1.2-.9-1.8-1.3-2.4-1.9-4.8-4.3-7.1-6.6-2.4-2.3-4.7-4.7-7.3-7-.6-.6-1.3-1.1-2-1.7-.6-.5-1.2-1-1.7-1.5-1.1-1-2.2-2.2-3.1-3.5-1.9-2.4-3.4-5.3-4.7-8.2-1.3-3-2.4-6.1-3.6-9.3-1.1-3.1-1.9-6.2-2.5-9.5-.8-3-1.2-6.2-1.4-9.6z" fill="#cd865f" stroke-width="none" opacity="1" stroke="none"></path></g></g><g id="svga-group-mouth-single-move" transform="matrix(1,0,0,1,0,0)"><g id="svga-group-mouth-single" transform="matrix(1,0,0,1,0,0)"><path id="SvgjsPath13955" d="M88.14 127.85s.96-2.13 3.29-3.87c2.09-1.55 3.96-2.36 7.38-2.71s6.52.56 7.91 1.24c2.98 1.47 5.3 4.94 5.3 4.94s-2.71 1.82-5.51 1.52c-2.8-.31-5.38-1.42-7.03-1.02-1.65.4-5.96 1.47-7.56 1.47-1.6-.02-3.78-1.57-3.78-1.57z" fill="#da7e6d" stroke-width="none" opacity="1" transform="translate(0 2)" stroke="none"></path><path id="SvgjsPath13956" d="M88.58 128.25s.37 2.14 3.17 3.89 5.76 1.94 8.26 2c2.49.07 6.36-.9 8.2-2.11 2.83-1.89 3.28-4.14 3.28-4.03 0 .1-2.13.79-4.23.75-2.09-.04-5.96-1.28-7.56-.96s-5.91 1.57-7.38 1.43c-1.47-.14-3.74-.97-3.74-.97z" fill="#e28c7c" stroke-width="none" opacity="1" transform="translate(0 2)" stroke="none"></path><path id="SvgjsPath13957" d="M87.16 127.11c1.17 1.63 3.03 2.68 5.02 2.97 2.73.38 5.01-1.35 7.67-1.41 2.84-.07 5.33 1.4 8.26.96 2.09-.31 4.11-1.17 5.6-2.68.3-.3-.08-.8-.45-.59-2.01 1.2-4.06 2.1-6.46 2.02-2.27-.07-4.31-1.31-6.6-1.33-2.08-.02-3.81 1.14-5.78 1.61-2.66.63-4.97-.13-7.12-1.71-.08-.06-.21.07-.14.16z" fill="#d3715f" stroke-width="none" opacity="1" transform="translate(0 2)" stroke="none"></path></g></g><g id="svga-group-eyes-left-move" transform="matrix(1,0,0,1,0,0)"><g id="svga-group-eyes-left" transform="matrix(1,0,0,1,0,0)"><g id="svga-group-eyesback-left"><path id="SvgjsPath13811" d="M90.1 93.1s-1.5-2-3.3-2.8c-1.8-.8-5.5-1.7-8.8.4-3.2 2.1-6 5-6 5s.7 2.5 3.6 3.5c2.9 1 6.4.9 9.9-1.7 3.5-2.7 4.6-4.4 4.6-4.4z" fill="#ffffff" stroke-width="none" opacity="1"></path></g><g id="svga-group-eyesiriswrapper-left" transform="matrix(1,0,0,1,0,0)"><g id="svga-group-eyesiriscontrol-left" transform="matrix(1,0,0,1,0,0)"><g id="svga-group-eyesiris-left" transform="matrix(1,0,0,1,0,0)"><path id="SvgjsPath13869" d="M77.2 88.9c2.5-1.6 5.9-.9 7.6 1.6 1.6 2.5.9 5.9-1.6 7.6-2.5 1.6-5.9.9-7.6-1.6s-.9-5.9 1.6-7.6z" fill="#4e60a3" stroke-width="none" opacity="1"></path><path id="SvgjsPath13870" d="M84.8 90.5c.4.6.7 1.3.8 2 .2.7.2 1.5.1 2.2s-.4 1.5-.8 2.1c-.4.6-1 1.2-1.6 1.6-.7.4-1.4.6-2.1.7-.7.1-1.5.1-2.2-.1-1.4-.3-2.7-1.2-3.6-2.4-.4-.6-.8-1.3-.9-2s-.2-1.5 0-2.3c.2-.8.4-1.5.9-2.1.4-.6 1-1.2 1.6-1.6.7-.4 1.4-.7 2.1-.8.8-.1 1.5-.1 2.2.1 1.5.5 2.8 1.4 3.5 2.6zm0 .1-.3-.4c-.1-.1-.2-.3-.4-.4-.1-.1-.3-.2-.4-.3-.1-.1-.3-.2-.4-.3-.6-.4-1.3-.6-1.9-.7-1.4-.2-2.7.1-3.8.8-1.1.7-1.9 1.9-2.2 3.2-.3 1.3-.1 2.7.6 3.9.3.6.8 1.1 1.4 1.5.6.4 1.2.7 1.9.8.7.1 1.4.1 2.1-.1s1.3-.5 1.8-.8c.6-.4 1-.9 1.4-1.4.4-.6.7-1.2.9-1.8.2-.7.3-1.4.2-2.1-.3-.6-.5-1.3-.9-1.9z" fill="#253984" stroke-width="none" opacity="1"></path><path id="SvgjsPath13871" d="M80.2 91.6c1.1 0 1.9.9 1.9 1.9s-.9 1.9-1.9 1.9-1.9-.9-1.9-1.9.8-1.9 1.9-1.9z" fill="#000000" stroke-width="none" opacity="1"></path><path id="SvgjsPath13872" d="M80.2 95.7c-1.2 0-2.1-.9-2.1-2.1 0-1.2.9-2.1 2.1-2.1s2.1.9 2.1 2.1c0 1.1-.9 2.1-2.1 2.1zm0-3.9c-1 0-1.8.8-1.8 1.8s.8 1.8 1.8 1.8 1.8-.8 1.8-1.8-.8-1.8-1.8-1.8z" fill="#152975" stroke-width="none" opacity="1"></path><path id="SvgjsPath13873" d="M77.7 89.5c.4-.3 1.2.3 1.7 1.1.5.9.6 1.8.1 2-.4.3-1.2-.3-1.7-1.1-.5-.9-.5-1.8-.1-2zm3.7 5c.4 0 .7.3.7.7s-.3.7-.7.7-.7-.3-.7-.7.4-.7.7-.7z" fill="#ffffff" stroke-width="none" opacity="1"></path></g></g></g><g id="svga-group-eyesfront-left"><path id="SvgjsPath13819" d="M69.4 94.6c0 6.4 4.7 11.5 10.6 11.5s10.6-5.2 10.6-11.5S85.9 83.1 80 83.1s-10.6 5.1-10.6 11.5zm2.6 1.1s2.8-2.9 6-5 7-1.2 8.8-.4c1.8.8 3.3 2.8 3.3 2.8s-1.1 1.6-4.6 4.3c-3.5 2.7-7.1 2.7-9.9 1.7-2.8-.9-3.6-3.4-3.6-3.4z" fill="#fbd5c0" stroke-width="none" opacity="1" stroke="none"></path><path id="SvgjsPath13820" d="M91.2 94.9c-2.2-4.4-5.5-8.7-10.8-8.9-6.3-.3-9.3 4.8-9.2 10.6 0 .5-.7.5-.7 0-.1-5.7 2.7-11 8.9-11.3 5.7-.3 10.5 4.3 12.2 9.5 0 .1-.3.3-.4.1z" fill="#ecb99d" stroke-width="none" opacity="1" stroke="none"></path><path id="SvgjsPath13821" d="M68.4 99c.6.1 1.3-.6 1.8-1 .4-.4.8-.9 1-1.4h.2c.2-.1.3-.3.5-.5 0 0 0 .1.1.1-.2.6-.5 1.3-.8 1.9-.3.6-.7 1.1-1 1.8-.1.2.2.4.4.3 1.1-.5 1.7-1.8 1.9-3.1 1.7 2.3 4.6 3.5 7.5 3.1 4.1-.5 7.2-3.4 9.8-6.4.3.4.6.8.9 1.3.2.2.5 0 .5-.2 0-4-5.2-6-8.5-5.9-4.6.2-9.3 3.2-11.6 7.2H71c-.5.3-1 .8-1.4 1.2-.3.2-.5.4-.8.6-.3.2-.4.3-.5.6-.2.1 0 .4.1.4zm4-3.4c2.8-2.7 5.3-5.4 9.5-5.7 2.2-.2 4.2.4 5.9 1.7.7.5 1.2 1.1 1.6 1.8-2.2 2.3-4.6 4.5-7.7 5.5-3.5 1.3-7.6.4-9.3-3.3z" fill="#210d34" stroke-width="none" opacity="1" stroke="none"></path></g></g></g><g id="svga-group-eyes-right-move" transform="matrix(1,0,0,1,0,0)"><g id="svga-group-eyes-right" transform="matrix(1,0,0,1,0,0)"><g id="svga-group-eyesback-right"><path id="SvgjsPath13812" d="M109.9 93.1s1.5-2 3.3-2.8c1.8-.8 5.5-1.7 8.8.4 3.2 2.1 6 5 6 5s-.7 2.5-3.6 3.5c-2.9 1-6.4.9-9.9-1.7-3.5-2.7-4.6-4.4-4.6-4.4z" fill="#ffffff" stroke-width="none" opacity="1"></path></g><g id="svga-group-eyesiriswrapper-right" transform="matrix(1,0,0,1,0,0)"><g id="svga-group-eyesiriscontrol-right" transform="matrix(1,0,0,1,0,0)"><g id="svga-group-eyesiris-right" transform="matrix(1,0,0,1,0,0)"><path id="SvgjsPath13874" d="M117 89c2.5-1.6 5.9-.9 7.6 1.6 1.6 2.5.9 5.9-1.6 7.6-2.5 1.6-5.9.9-7.6-1.6-1.7-2.6-1-6 1.6-7.6z" fill="#4e60a3" stroke-width="none" opacity="1"></path><path id="SvgjsPath13875" d="M124.6 90.5c.4.6.7 1.3.8 2 .2.7.2 1.5.1 2.2s-.4 1.5-.8 2.1c-.4.6-1 1.2-1.6 1.6-.7.4-1.4.6-2.1.7-.7.1-1.5.1-2.2-.1-1.4-.3-2.7-1.2-3.6-2.4-.4-.6-.8-1.3-.9-2s-.2-1.5 0-2.3c.2-.8.4-1.5.9-2.1.4-.6 1-1.2 1.6-1.6.7-.4 1.4-.7 2.1-.8.8-.1 1.5-.1 2.2.1 1.5.5 2.7 1.4 3.5 2.6zm-.1.1-.3-.4c-.1-.1-.2-.3-.4-.4-.1-.1-.3-.2-.4-.3-.1-.1-.3-.2-.4-.3-.6-.4-1.3-.6-1.9-.7-1.4-.2-2.7.1-3.8.8-1.1.7-1.9 1.9-2.2 3.2-.3 1.3-.1 2.7.6 3.9.3.6.8 1.1 1.4 1.5.6.4 1.2.7 1.9.8.7.1 1.4.1 2.1-.1s1.3-.5 1.8-.8c.6-.4 1-.9 1.4-1.4.4-.6.7-1.2.9-1.8.2-.7.3-1.4.2-2.1-.3-.6-.5-1.3-.9-1.9z" fill="#253984" stroke-width="none" opacity="1"></path><path id="SvgjsPath13876" d="M119.9 91.6c1.1 0 1.9.9 1.9 1.9s-.9 1.9-1.9 1.9-1.9-.9-1.9-1.9.9-1.9 1.9-1.9z" fill="#000000" stroke-width="none" opacity="1"></path><path id="SvgjsPath13877" d="M119.9 95.7c-1.2 0-2.1-.9-2.1-2.1 0-1.2.9-2.1 2.1-2.1s2.1.9 2.1 2.1c.1 1.1-.9 2.1-2.1 2.1zm0-3.9c-1 0-1.8.8-1.8 1.8s.8 1.8 1.8 1.8 1.8-.8 1.8-1.8-.8-1.8-1.8-1.8z" fill="#152975" stroke-width="none" opacity="1"></path><path id="SvgjsPath13878" d="M117.4 89.5c.4-.3 1.2.3 1.7 1.1.5.9.6 1.8.1 2s-1.2-.3-1.7-1.1c-.5-.9-.5-1.8-.1-2zm3.8 5c.4 0 .7.3.7.7s-.3.7-.7.7-.7-.3-.7-.7.3-.7.7-.7z" fill="#ffffff" stroke-width="none" opacity="1"></path></g></g></g><g id="svga-group-eyesfront-right"><path id="SvgjsPath13822" d="M120 83.1c-5.9 0-10.6 5.2-10.6 11.5s4.7 11.5 10.6 11.5 10.6-5.2 10.6-11.5-4.8-11.5-10.6-11.5zm4.4 16.1c-2.9 1-6.4.9-9.9-1.7-3.5-2.7-4.6-4.3-4.6-4.3s1.5-2 3.3-2.8c1.8-.8 5.5-1.7 8.8.4 3.2 2.1 6 5 6 5s-.8 2.4-3.6 3.4z" fill="#fbd5c0" stroke-width="none" opacity="1" stroke="none"></path><path id="SvgjsPath13825" d="M108.8 94.9c2.2-4.4 5.5-8.7 10.8-8.9 6.3-.3 9.3 4.8 9.2 10.6 0 .5.7.5.7 0 .1-5.7-2.7-11-8.9-11.3-5.7-.3-10.5 4.3-12.2 9.5 0 .1.3.3.4.1z" fill="#ecb99d" stroke-width="none" opacity="1" stroke="none"></path><path id="SvgjsPath13826" d="M131.8 98.6c-.1-.3-.3-.4-.5-.6-.3-.2-.6-.4-.8-.6-.5-.4-.9-.9-1.4-1.2h-.1c-2.2-4-7-7-11.6-7.2-3.3-.1-8.5 1.9-8.5 5.9 0 .3.4.4.5.2.3-.4.6-.8.9-1.3 2.5 3 5.7 5.9 9.8 6.4 2.9.4 5.8-.8 7.5-3.1.2 1.2.8 2.6 1.9 3.1.2.1.5-.1.4-.3-.2-.7-.7-1.2-1-1.8-.3-.6-.5-1.2-.8-1.9 0 0 0-.1.1-.1l.5.5c.1.1.1.1.2 0 .2.5.6 1 1 1.4.4.4 1.1 1.1 1.8 1 0 0 .2-.3.1-.4zm-13.6.3c-3.1-1.1-5.4-3.3-7.7-5.5.5-.6 1-1.3 1.6-1.8 1.7-1.3 3.8-1.9 5.9-1.7 4.2.4 6.7 3.1 9.5 5.7-1.6 3.7-5.7 4.6-9.3 3.3z" fill="#210d34" stroke-width="none" opacity="1" stroke="none"></path></g></g></g><g id="svga-group-facehighlight-single"></g><g id="svga-group-eyebrows-left-move" transform="matrix(1,0,0,1,0,0)"><g id="svga-group-eyebrows-left-rotate" transform="matrix(1,0,0,1,0,0)"><g id="svga-group-eyebrows-left" transform="matrix(1,0,0,1,0,0)"><path id="SvgjsPath13742" d="M68.1 81c.2-.2.4-.5.6-.7.1-.2.2-.4.4-.6.3-.4.6-.7 1-1 .2-.2.6-.3.8-.1.3-.3.7-.5 1.1-.7 1.2-.7 2.4-1.3 3.8-1.2 1.2-.3 2.5-.2 3.6-.2 1.7 0 3.4.2 5 .8 1 .3 3 1.3 4 2.5 1.2.6 2.1 1.6 2.3 3.1.2 1.5-1 2.5-2.3 3-1.7.6-3.2-.1-4.6-1-.8-.5-1.6-.9-2.5-1.4-1.5-.4-3-.6-4.6-.8-.6-.1-1.1-.2-1.7-.3h-.1c-.1.1-.2.2-.4.3-.4.2-.9.4-1.5.5-1.2.5-2.4 1-3.5 1.6-.2.1-.3.1-.5.1-.3.4-.7.7-1.3.5-.4-.1-.6-.4-.7-.8-.2-.1-.4-.4-.5-.7 0-1 1-2.1 1.6-2.9z" fill="#56342e" stroke-width="none" opacity="1"></path><path id="SvgjsPath13743" d="M84 77.8c2.6 1.4 3.5 5 3.5 7.8 0 .2-.4.3-.4.1-.3-1.4-.5-2.8-1-4.1-.5-1.3-1.3-2.4-2.3-3.5-.1-.2 0-.4.2-.3zm4.1 7.9c.4-.8.8-1.5 1-2.4.1-.9.1-1.7-.1-2.6 0-.2.2-.3.3-.2 1 1.6.7 4.3-.9 5.4-.2.2-.4 0-.3-.2zm-11.8-8.6c.3.1.6.2.8.4 0-.1.1-.1.2-.1 3 .2 5.5 4.2 5.7 6.8 0 .3-.4.3-.5.1-.6-1.4-1.2-2.8-2.1-4-.6-.7-1.2-1.2-1.9-1.7 1 1.1 1.6 2.6 1.8 3.9 0 .2-.3.3-.3.1-.4-1.1-.9-2.1-1.6-3-.7-.8-1.5-1.4-2.3-2.2-.2-.1 0-.3.2-.3zm-3.4.8c2.3-.1 4.4 2.5 4.7 4.5.1.3-.3.5-.5.2-.7-.9-1-2-1.8-2.8-.7-.7-1.7-1.1-2.5-1.6-.2 0-.1-.3.1-.3zm-2.5 2c1.9-.2 3.8 1.1 4.7 2.5.1.2-.1.3-.3.2-.6-.6-1.3-1.2-2.1-1.6-.8-.4-1.6-.5-2.5-.8-.1 0 0-.3.2-.3zm-1.2 2.4c1.1-.1 2 .3 2.8 1.1.1.1 0 .2-.1.2-.8-.6-1.7-.9-2.6-.9-.2-.2-.2-.4-.1-.4z" fill="#654640" stroke-width="none" opacity="1"></path><path id="SvgjsPath13744" d="M91 84.6c1-1.4.6-3.9-.6-5.1-.2-.2-.5.1-.4.3.1.1.1.2.2.4-.4-.6-.8-1.1-1.3-1.6-3.4-3.2-8.6-3.5-13-2.8-4.2.7-8.1 2.9-9.3 7.2v.2c-.1 0-.2.1-.2.2-.8 1.3.4 2.8 1.8 2.9 1 .1 2-.4 2.8-.9 1.3-.7 2.6-1.3 4-1.6 3-.5 5.5.5 8.1 1.8 1.6.8 3.3 1.5 5.2 1.1 1.5-.4 2.4-1.1 2.7-2.1zm-7.4-7.3c.7 1.5 1.3 3 1.7 4.6.3 1.1.4 2.3.5 3.4-.6-.2-1.2-.4-1.7-.7.3-2.7-.8-5.6-2.5-7.7.7.1 1.4.2 2 .4zm-8.1 5.1c-.3-1.1-.8-2-1.5-2.9-.4-.5-.9-1.1-1.5-1.6.8-.3 1.6-.6 2.5-.7.9.7 1.7 1.3 2.4 2.1.8 1 1.5 2.1 2 3.2-.3-.1-.5-.1-.8-.2-1 0-2.1 0-3.1.1zm-4-4c.6.6 1.3 1 1.9 1.7.6.7 1.1 1.6 1.5 2.4-.5.1-.9.2-1.4.3-.6-.7-1.2-1.4-1.9-1.9-.6-.4-1.3-.9-2-1.2.6-.5 1.2-.9 1.9-1.3zm-4.4 4.8c.4-1.2 1.1-2.2 1.9-3 .7.4 1.5.7 2.1 1.2.7.5 1.3 1.1 1.8 1.7-.8.3-1.5.7-2.3 1.1-.9.5-3.9 1.9-3.6-.6 0-.1 0-.2-.1-.2l.2-.2zm14-6.3c.8 1.2 1.4 2.4 1.8 3.7.4 1.2.5 2.4.6 3.7-1.2-.6-2.3-1.2-3.6-1.5-.6-2.1-2-4.3-3.8-5.7 1-.1 1.9-.2 2.9-.2h2.1zm8.8 7.2c-.6 1.4-2 1.6-3.3 1.4.1-2.7-1-5.8-2.3-8.1.7.2 1.3.4 1.9.7 1.8 1 4.8 3.6 3.7 6z" fill="#47251f" stroke-width="none" opacity="1"></path></g></g></g><g id="svga-group-eyebrows-right-move" transform="matrix(1,0,0,1,0,0)"><g id="svga-group-eyebrows-right-rotate" transform="matrix(1,0,0,1,0,0)"><g id="svga-group-eyebrows-right" transform="matrix(1,0,0,1,0,0)"><path id="SvgjsPath13745" d="M131.9 81c-.2-.2-.4-.5-.6-.7-.1-.2-.2-.4-.4-.6-.3-.4-.6-.7-1-1-.2-.2-.6-.3-.8-.1-.4-.3-.7-.5-1.1-.7-1.2-.7-2.4-1.3-3.8-1.2-1.2-.3-2.5-.2-3.6-.2-1.7 0-3.4.2-5 .8-1 .3-3 1.3-4 2.5-1.2.6-2.1 1.6-2.3 3.1-.2 1.5 1 2.5 2.3 3 1.7.6 3.2-.1 4.6-1 .8-.5 1.6-.9 2.5-1.4 1.5-.4 3-.6 4.6-.8.6-.1 1.1-.2 1.7-.3h.1c.1.1.2.2.4.3.4.2.9.4 1.5.5 1.2.5 2.4 1 3.5 1.6.2.1.4.1.5.1.3.4.7.7 1.3.5.4-.1.6-.4.7-.8.2-.1.4-.4.5-.7 0-1-1-2.1-1.6-2.9z" fill="#56342e" stroke-width="none" opacity="1"></path><path id="SvgjsPath13746" d="M116 77.8c-2.6 1.4-3.5 5-3.5 7.8 0 .2.4.3.4.1.3-1.4.5-2.8 1-4.1.5-1.3 1.3-2.4 2.3-3.5.1-.2 0-.4-.2-.3zm-4.1 7.9c-.4-.8-.8-1.5-1-2.4-.1-.9-.1-1.7.1-2.6 0-.2-.2-.3-.3-.2-1 1.6-.7 4.3.9 5.4.2.2.4 0 .3-.2zm11.8-8.6c-.3.1-.6.2-.8.4 0-.1-.1-.1-.2-.1-3 .2-5.5 4.2-5.7 6.8 0 .3.4.3.5.1.6-1.4 1.2-2.8 2.1-4 .6-.7 1.2-1.2 1.9-1.7-1 1.1-1.6 2.6-1.8 3.9 0 .2.3.3.3.1.4-1.1.9-2.1 1.6-3 .7-.8 1.5-1.4 2.3-2.2.2-.1 0-.3-.2-.3zm3.4.8c-2.3-.1-4.4 2.5-4.7 4.5-.1.3.3.5.5.2.7-.9 1-2 1.8-2.8.7-.7 1.7-1.1 2.5-1.6.2 0 .1-.3-.1-.3zm2.5 2c-1.9-.2-3.8 1.1-4.7 2.5-.1.2.1.3.3.2.6-.6 1.3-1.2 2.1-1.6.8-.4 1.6-.5 2.5-.8.1 0 .1-.3-.2-.3zm1.2 2.4c-1.1-.1-2 .3-2.8 1.1-.1.1 0 .2.1.2.8-.6 1.7-.9 2.6-.9.2-.2.2-.4.1-.4z" fill="#654640" stroke-width="none" opacity="1"></path><path id="SvgjsPath13747" d="M111.7 86.7c1.8.4 3.5-.3 5.2-1.1 2.6-1.3 5.1-2.3 8.1-1.8 1.5.2 2.7.8 4 1.6.9.5 1.8 1 2.8.9 1.4-.1 2.6-1.6 1.8-2.9l-.2-.2V83c-1.2-4.3-5.1-6.6-9.3-7.2-4.4-.7-9.5-.4-13 2.8-.5.4-.9 1-1.3 1.6.1-.1.1-.2.2-.4.1-.3-.2-.5-.4-.3-1.2 1.1-1.6 3.6-.6 5.1.3 1 1.2 1.7 2.7 2.1zm4.7-9.4c.7-.2 1.3-.3 2-.3-1.7 2.1-2.8 5-2.5 7.7-.5.2-1.1.5-1.7.7.2-1.2.2-2.3.5-3.4.4-1.7 1-3.2 1.7-4.7zm5 5.2c-.3 0-.5.1-.8.2.6-1.2 1.2-2.2 2-3.2.7-.8 1.6-1.5 2.4-2.1.8.2 1.7.4 2.5.7-.6.4-1.1 1-1.5 1.6-.7.9-1.2 1.8-1.5 2.9-1-.3-2.1-.3-3.1-.1zm9-2.8c-.7.3-1.4.8-2 1.2-.7.6-1.4 1.2-1.9 1.9-.5-.1-.9-.2-1.4-.3.4-.8.9-1.7 1.5-2.4s1.2-1.1 1.9-1.7c.7.4 1.3.8 1.9 1.3zm2.5 3.6c-.1.1-.1.1-.1.2.3 2.5-2.6 1.1-3.6.6-.7-.4-1.5-.8-2.3-1.1.6-.6 1.2-1.2 1.8-1.7.6-.5 1.4-.8 2.1-1.2.8.8 1.5 1.8 1.9 3 .2.1.2.1.2.2zm-11.8-6.4c.9 0 1.9.1 2.9.2-1.8 1.3-3.2 3.6-3.8 5.7-1.3.3-2.4.9-3.6 1.5.1-1.2.2-2.5.6-3.7.4-1.3 1.1-2.5 1.8-3.7h2.1zm-7.2 1.3c.6-.3 1.2-.6 1.9-.7-1.4 2.3-2.5 5.3-2.3 8.1-1.4.2-2.7 0-3.3-1.4-1.2-2.5 1.8-5.1 3.7-6z" fill="#47251f" stroke-width="none" opacity="1"></path></g></g></g><g id="svga-group-beardwrap" transform="matrix(1,0,0,1,0,0)"><g id="svga-group-beard-single-move" transform="matrix(1,0,0,1,0,0)"><g id="svga-group-beard-single" transform="matrix(1,0,0,1,0,0)"></g></g></g><g id="svga-group-mustache-single-move" transform="matrix(1,0,0,1,0,0)"><g id="svga-group-mustache-single" transform="matrix(1,0,0,1,0,0)"></g></g><g id="svga-group-nose-single-move" transform="matrix(1,0,0,1,0,0)"><g id="svga-group-nose-single" transform="matrix(1,0,0,1,0,0)"><path id="SvgjsPath13933" d="M107.6 109.82c1.26.73 3.11 2.76 1.66 5.68-1.46 2.92-4.61 2.05-4.61 2.05s-1.02 2.88-2.72 3.63-3.98.63-5.04-.91-1.78-2.5-1.78-2.5-3.39-.11-4.88-1.45c-1.5-1.34-1.22-3.51-.83-4.3s1.14-1.46 2.33-1.89c1.18-.43 3.19-1.69 3.63-2.21.43-.51 4.09-2.73 8.16-.12 1.64 1.08 2.39 1.04 4.08 2.02z" fill="#fbd5c0" stroke-width="none" opacity="1" transform="translate(0 1)" stroke="none"></path><path id="SvgjsPath13934" d="M95.61 107.76c1.87-1.78 1.73-4.89 1.31-7.36-.38-2.21-1.03-4.45-.71-6.72.26-1.84 1.12-3.49 1.21-5.38.01-.21-.3-.26-.33-.05-.26 1.63-.88 3.1-1.24 4.7-.32 1.44-.29 2.89-.07 4.34.54 3.59 1.68 7.03-.35 10.31-.08.13.09.25.18.16z" fill="#cd865f" stroke-width="none" opacity="1" transform="translate(0 1)" stroke="none"></path><path id="SvgjsPath13935" d="M107.35 109.55c-.14-.03-.23.17-.1.27 1.33.99 2.54 2.45 2.16 4.42-.29 1.49-1.26 2.32-2.4 2.79.4-.33.81-.64 1.13-1.06.34-.42.14-1.3-.45-1.23-.68.07-1.24.41-1.78.84.31-.8.6-1.57.91-2.24.06-.13-.08-.26-.18-.16-2.26 2.2-2.28 7.02-5.6 7.95-4.03 1.12-6.08-3.8-6.88-7.3-.08-.34-.5-.19-.45.14.07.47.16.95.28 1.43-.11-.07-.22-.14-.34-.2-.74-.39-1.56-.43-2.28.05-.44.29-.41 1.19.15 1.31.36.07.74.18 1.08.35-.6-.04-1.2-.12-1.7-.45-1.1-.73-1.73-2.31-1.36-3.71.35-1.32 1.28-1.86 2.27-2.45.13-.08.07-.31-.08-.31-2.1-.01-3.37 2.86-2.78 4.92.85 2.99 3.71 2.74 5.92 3.32.05.01.09 0 .13-.01 1.06 2.08 2.71 3.69 5.01 3.78 2.23.09 3.62-1.53 4.66-3.55.06.03.12.05.19.04.49-.04.9-.32 1.27-.65 4.16.68 5.48-7.4 1.22-8.29z" fill="#cd865f" stroke-width="none" opacity="1" transform="translate(0 1)" stroke="none"></path><path id="SvgjsPath13936" d="M101.66 88.39c-.31-.35-.82.01-.72.47.28 1.34.83 2.48.87 3.89.04 1.34-.19 2.66-.38 3.97-.27 1.89-.43 4.14.57 5.8.19.31.6.19.63-.19.24-4.29 2.26-10.35-.97-13.94z" fill="#ffe1d0" stroke-width="none" opacity="1" transform="translate(0 1)" stroke="none"></path><path id="SvgjsPath13937" d="M104.63 111.57c-.24-.84-1.29-1.06-1.7-.25-.55 1.07-.43 2.41-.88 3.55-.44 1.09-1.22 1.69-2.05 2.37-.36.29-.28.81.12 1 2.9 1.37 5.23-4.16 4.51-6.67z" fill="#ffe1d0" stroke-width="none" opacity="1" transform="translate(0 1)" stroke="none"></path></g></g><g id="svga-group-hair-front" transform="matrix(1,0,0,1,0,0)"><path id="SvgjsPath14002" d="M170.6 74c0-1.3-.6-2.6-1.4-3.5-.1-.1-.2-.2-.3-.2.1-.4.1-.8.1-1.1-.1-2-.8-4.1-2.2-5.5-.5-.6-1.2-1-2-1.3 0-.5-.1-1-.1-1.5 0-1-.2-2-.7-2.8.1-.2.3-.4.4-.6l1.1-1.5c.4-.7.7-1.5.7-2.3.2-.8.1-1.6-.1-2.5l-.6-1.5c-.4-.7-.9-1.3-1.6-1.7-.6-.5-1.4-.9-2.2-1.1 0-.1-.1-.2-.1-.2-.3-.5-.6-.9-.9-1.2.1-.2.1-.3.1-.5.2-.2.4-.3.6-.6 1-1 1.6-2.2 2.1-3.5.1-.5.1-1 .2-1.5 0-.8-.1-1.5-.5-2.2-.5-1.1-1.3-2.2-2.3-2.7-.6-.3-1.2-.5-1.8-.7-.1-.4-.3-.9-.5-1.2-.7-1.1-1.7-2-3-2.3-.4-.1-.8-.1-1.1-.1.1-.6.1-1.2.2-1.8.2-1.9-1.2-3.9-2.7-4.8-.9-.5-1.8-.8-2.8-.8-.5 0-.9.1-1.4.2-.1-.2-.2-.5-.3-.7-.4-.7-.9-1.3-1.6-1.7-1-.8-2.4-1.4-3.7-1.3-.2 0-.4 0-.7.1.2-.9.2-1.8-.1-2.7-.4-1.2-1-2.2-2-2.9-1-.7-2.2-1.3-3.4-1.2-.5.1-1 .1-1.5.2-1 .3-1.8.8-2.5 1.5-.1.1-.2.2-.4.3-.1 0-.2-.1-.3-.1-.6-1-1.5-1.8-2.5-2.2-1.3-.6-2.6-.6-3.9 0-.2.1-.3.2-.5.3h-.9v-.1c-.1-.4-.2-.8-.3-1.1-.4-1.6-1.6-2.9-3.2-3.6-.7-1.1-1.6-2-2.7-2.7-1.2-.7-2.5-1-3.8-1-.4 0-.8 0-1.1.1-1 .1-2 .4-2.9.9 0 0-.1 0-.1.1-.4-.3-.9-.5-1.4-.6-.9-.3-1.8-.4-2.8-.3-.8 0-1.5.3-2.2.7-.2.1-.3.2-.4.3-.1 0-.1.1-.2.1h-.1c-.3.2-.7.5-1 .8-.8.7-1.6 1.5-2.1 2.4-.2.3-.3.6-.5 1-.6-.1-1.2 0-1.8.1-.2-.4-.4-.7-.7-1-.2-.3-.4-.6-.7-.9-.3-.5-.6-.9-.9-1.3-1-1-2.4-1.6-3.8-1.8-.6-.2-1.2-.2-1.8 0-.6 0-1.2.2-1.7.4-.6.3-1.2.6-1.7 1-.4-.1-.8 0-1.2.1-.6 0-1.2.2-1.7.5-.6.2-1.1.4-1.5.9-.7.5-1.3 1.1-1.7 1.9-.3.6-.5 1.1-.8 1.7-2.6-.2-5.2 1-6.8 3.2-.2.1-.5.2-.7.3-.7-.4-1.4-.6-2.1-.7-2.6-1.4-6.1-.9-8.2 1.1-.6-.2-1.2-.3-1.9-.3-1.3 0-2.5.3-3.6 1-2.1 1.3-3.5 3.6-3.5 6.1v.5c-1-.2-2.1-.2-3.1.1-3.8 1-5.9 4.5-5.8 8.2-1.8.7-3.1 2.1-3.6 4-.3 1-.4 2.1-.5 3.1 0 .4.1.8.1 1.2.1 1 .4 2 .9 3l.3.4c-.7-.1-1.5 0-2.2.2-.7.2-1.3.5-1.9 1-.3.2-.5.4-.8.6-.8.5-1.4 1.2-1.9 2-.8 1.8-1.1 2.5-1.2 4.5-.1 1.2.4 2.9 1 4 .2.4.5.7.7 1-.3.2-.5.3-.8.5.1-.1.2-.2.3-.2-.1.1-.2.1-.2.2-.3.2-.5.4-.7.6-.1.1-.2.1-.2.2.1 0 .1-.1.2-.2-1.1 1-1.8 2.1-2 3.6-.2.8-.1 1.5.1 2.3.3 1 .8 1.8 1.5 2.5-.2.1-.4.2-.6.2-.5.2-1 .4-1.5.8-.8.6-1.5 1.5-1.7 2.5-.2 1.1-.3 1.9 0 3.1.5 1.8 1.8 3.1 3.4 3.8.3.1.5.2.8.3 0 .1 0 .2.1.2.4 1.1.8 2 1.5 2.8-.3.4-.5.8-.7 1.2-.6.4-1.3 1.1-1.6 1.8-.7 1.5-.9 2.9-.3 4.5.6 1.4 1.8 2.6 3.3 2.9.9.2 1.8.3 2.7.1.1.5.3 1 .6 1.5.5.9 1.3 1.6 2.2 2.1.1.5.3 1.1.6 1.5.7 1.1 2 2.2 3.3 2.5 1.4.3 3 .2 4.2-.6 1.2-.8 2.2-1.9 2.5-3.3.2-.7.2-1.3.2-1.9.2 0 .5-.1.7-.1 1-.3 1.8-.7 2.5-1.4.1 2.6 2.1 4.8 4.8 4.8 1.2 0 2.5-.5 3.4-1.4.8-.8 1.5-2.2 1.4-3.4-.1-1.6-.9-3.1-2.1-4v-.2c0-.1.1-.2.1-.2.6-.5 1.2-1.1 1.5-1.8.8-1.4 1.1-3.2.6-4.8l-.6-1.5c-.3-.6-.8-1.1-1.3-1.5 1.3-.8 2.2-1.9 2.8-3.3.6-1.4.7-2.8.5-4.2-.2-1.5-.8-2.8-1.7-4-.1-.2-.2-.3-.3-.4.7.4 1.4.6 2.3.6 1.3 0 2.6-.5 3.5-1.5l.2-.2c.6.6 1.4 1 2.5 1 2.6 0 3.8-2.1 3.6-4.1 0 0 0-.1.1-.1 1.3.1 2.5-.3 3.4-1.2 1.1-1.1 1.5-2.7 1.1-4.2-.2-.6-.4-1-.7-1.4.2-.6.4-1.2.5-1.8.1-.5.1-.9.1-1.4.2 0 .3-.1.5-.1.4 1.7 1.5 3.1 2.9 4 1.3.8 2.9.9 4.3.4.5 1.6 1.9 2.9 4.1 2.6 3.1-.3 5.1-2.1 5.7-4.3.4-.7.7-1.4.6-2.3v-.1c1.5 1.1 3.5 1.6 5.6 1.3.2.3.5.6.8.8 1.1.8 2.7 1 3.9.5 0 1.9.9 3.6 2.6 4.7.4.3.9.5 1.4.7.4.1.8.2 1.2.2.4 0 .8 0 1.2-.2.6-.1 1.2-.3 1.7-.6.6.8 1.5 1.2 2.5 1.3.3.2.6.3.9.4.7.2 1.5.2 2.2 0 .8-.2 1.4-.7 2-1.2.4.1.9.1 1.3 0-.2.9-.1 1.8.4 2.7.9 1.5 2.7 2.1 4.2 1.7.3.4.7.8 1.1 1 .8.5 1.9.7 2.8.6.1.5.3 1.1.6 1.6.5.9 1.1 1.7 1.9 2.3-.5.4-1 .8-1.3 1.4v.1c-.2.4-.3.8-.5 1.2-.2.7-.2 1.3-.1 1.9-.2.5-.2 1.1-.3 1.6 0 1.7.9 3.1 2.3 4 .4.3.8.4 1.2.6v.2c0 .4.1.8.1 1.1-.3 1.2-.1 2.4.5 3.5-.5.4-.8.9-1.1 1.4-.8 1-1.1 2.4-.9 3.7.2 1.4 1 3 2.4 3.6 1.1.5 1.8.8 3 .8.8 0 1.6-.2 2.4-.6.3.6.8 1.2 1.4 1.6.4.3.8.5 1.2.7.1.5.2 1.1.5 1.5.2.7.6 1.3 1.2 1.8 1 1 2.6 1.7 4 1.7 1.1-.1 2.3-.3 3.2-1 1 .2 2 .3 2.9 0 1-.3 1.9-.8 2.7-1.6.9-.8 1.3-1.8 1.6-3v.2c0-.1.1-.2.1-.4.3-.8.4-1.7.4-2.6.5-.1 1-.3 1.5-.6.9-.5 1.4-1 1.9-1.7s1-1.4 1.2-2.3c.3-1.1.3-2.3 0-3.4-.2-.8-.6-1.6-1.1-2.2-.4-.6-.9-1.1-1.5-1.5 2.8-.2 5.3-2.3 5.3-5.2z" fill="#56342e" stroke-width="none" opacity="1" stroke="none"></path><path id="SvgjsPath14003" d="M51.1 41.9c-2.1-.5-3.1-1.8-3.5-3.9-.3-1.8-.2-5.5 2.5-5.3.5 0 .5-.7 0-.7-5.4-.6-4.7 11.2.8 10.7.5-.1.7-.7.2-.8zm5.8 7.7c-1.8 1.5-4.5 1.3-5.7-.9-1.2-2.1-.1-4.6 1.8-5.9.3-.2 0-.6-.3-.4-2.8 1.4-4.1 4.7-2.1 7.4 1.6 2.2 5 2.4 6.6.1.3-.3-.1-.5-.3-.3zM73.7 35c-.1-.2-.4-.2-.4 0 .3 3-.9 6.2-4 7.1-3.7 1-7.1-1.9-6.5-5.7.1-.5-.7-.7-.8-.2-.7 3.9 2.4 7.5 6.5 7 4-.5 6.4-4.5 5.2-8.2zm-3.1 16c-.1-.3-.5-.3-.6 0-.2.9-.3 1.9-1.2 2.4-.9.5-2 .3-2.5-.6-.2-.4-.9 0-.7.4 1.5 2.7 5.9.7 5-2.2zM42.5 61.4c-3.7-2.8-4.1-7.2-1.1-10.6.4-.5-.2-1.2-.7-.7-3.6 3.5-3.5 8.4-.2 11.6-2.3.9-3.8 3.7-4.2 6.1-.5 3.7 1.4 6.6 4.6 8.1.3.2.6-.3.3-.5-2.6-2-3.7-4.1-3.3-7.4.3-2 1.4-5.4 4.2-5.2.8 0 .9-1 .4-1.4zm8.7 25.1c-1.8 1.1-3.9 2-6.1 1.4-2.3-.6-3.8-2.7-3.5-5 0-.5-.8-.6-.8-.1-1.1 6.3 7.1 8.2 10.8 4.2.2-.3-.1-.7-.4-.5zm8.7-24c-.4 0-.4.5-.1.6 2.6 1 4.4 2.9 4.5 5.8.1 2.7-1.1 5.5-3.9 6.2-.4.1-.3.8.1.8 7-.2 6.3-13.1-.6-13.4zM35 87.9c-1.9-.4-3.6-1.7-3.5-3.9.1-1.9 1.6-3 2.9-4.1.3-.2 0-.6-.3-.6-2.4.4-4.1 3.3-3.8 5.6.3 2.2 2.4 4.3 4.7 3.8.4 0 .4-.7 0-.8zm.7-31.8c-2.5.1-4.1.4-5 3.1-.7 2.1-.3 4.2.9 6-4.4 1.1-3.5 7.6.8 9 .4.1.7-.5.3-.7-.8-.3-1.4-.8-1.8-1.5-1.6-1.6-1-3.5 1.9-5.7.6 0 .8-.7.5-1.1-.9-1-1.4-2.2-1.5-3.6-.2-1.4.3-2.3 1.7-2.9 1.5-1.3 1.2-1.1 2.5-1.7.3-.2.1-.9-.3-.9zm9.7-24.8c-2.6-1.2-5.3.6-6.2 3.1-1.2 3.3.3 7.1 2.6 9.6.4.4.9-.1.7-.6-1-2.2-2.5-4.2-2.4-6.7.1-3 2.2-4.9 5.1-4.5.4-.1.6-.7.2-.9zm52.4 17.8c-.3-1.7-1.6-3-3.4-2.7-.3 0-.3.5 0 .6 3.2.7 2.2 4.4.9 6.4-.9 1.3-2 1.8-3.6 1.4-1.4-.4-3.5-1.6-3.1-3.4.1-.2-.2-.4-.4-.4.1-.3-.3-.6-.6-.4-.7.5-1.1 1.2-1.8 1.7-1.1.7-2.2.2-3-.5-1.6-1.2-2.7-3.3-2.1-5.3.2-.5-.6-.7-.8-.2-1 2.6.4 5.3 2.6 6.8 1.9 1.3 4.2.9 5.3-1-.3 1.5.9 2.7 2.3 3.5 1.8 1 3.6 1.3 5.3-.2 1.5-1.6 2.8-4.2 2.4-6.3zm19.3 5.1c-.8 1.7-2.4 2.9-4.4 2.3-1.9-.6-3.7-3-3.5-5 .1-.4-.6-.5-.8-.2-1.3 2.4 1.7 5.7 3.9 6.5 2.2.7 5.7-.5 5.6-3.3.1-.5-.6-.7-.8-.3zm-20.3-20c-.1-.5-.6-.6-.9-.2-.5.8-.9 1.6-2 1.8-.8.2-3-.7-2.5-1.8.2-.3-.3-.8-.6-.5-.3.4-.4.8-.4 1.2-.2-.1-.3-.1-.6 0-2.3 1-5.1 1-6.5-1.5-1.6-2.9-.2-6.6 2.8-7.8.6-.3.4-1.3-.3-1.1-3.7 1.3-5.8 5.8-3.9 9.4 1.5 2.9 6.2 4.6 8.6 1.9l.1-.1c.4.8 1.5 1.5 2.4 1.7 1.7.2 4-1.1 3.8-3zM83.3 7.1c.2-.1.2-.6-.1-.5-2.3.2-3.9 2.6-3.8 4.8-1.1-.5-2.3-.6-3.4-.5-2.5.3-4.2 2.2-5 4.5-1.6-1.6-4.1-2.5-6.2-2.3-1.6.1-3.4.7-4.2 2.1-.5.9-.7 2.1.2 2.7.2.1.5.1.6-.1l.1-.1c.3-.3 0-.8-.3-.8.2-1.1.9-1.9 2.1-2.2.6-.2 1.2-.3 1.8-.3 1 0 2.1.2 3 .7 1.9 1 2.6 2.6 3.8 4.3.3.4 1 .3 1-.3-.1-1.2-.6-2.2-1.4-3.1l.1-.1c1.1-1.8 2.3-3.5 4.6-3.8 2.1-.2 3.5.8 4.9 2.2.4.5 1.1-.1.8-.6-.4-.8-1-1.4-1.8-1.9.3-2.2 1.4-3.5 3.2-4.7zm30.4 9.7c-1.6-2.1-4-3.7-6.8-2.8-2.8.9-3.7 3.9-2 6.2.3.5 1.1 0 .8-.5-.2-4.4 1.5-5.8 5-4.1 1 .7 1.9 1.5 2.4 2.6.3.5.9.4 1.2 0 2-2.9 6.8-2.9 9-.5 1.7 1.8 1.8 3.7 1.1 5.9-.2.7.9 1.2 1.2.5 3.8-7.3-7.2-12.8-11.9-7.3zm16.9 27c-2 2.6-2.4 1.3-5.3.1-.2-.1-.3-.5-.6-.4-.5.1-.5.1-1 .3-.4.3-.9.6-1.3.9-2.1 1.2-3.5.4-4.3-2.4.2-.5-.6-.8-.8-.2-.1.2-.2.5-.2.7h-.1c-1.7.3-3.3.3-4.4-1.3-.8-1.1-1-2.7-.7-3.9.7-2.6 3.1-4.4 5.8-4.5.6 0 .6-.9 0-1-3.8-.1-7.2 2.8-7.3 6.7 0 3.1 3.4 7.1 6.6 5.1.2.9.7 1.7 1.6 2.1 2.1 1.2 3.4-.3 5.3-.9.1 0 .2-.1.2-.1l.4.4c.3.2.5.5.8.7.7.6 1.7.9 2.6.9 1.7-.1 3.1-1.2 3.5-2.8.3-.6-.4-.8-.8-.4zM142.8 62c-1.9 0-3.9-.2-4.7-2.3-.7-2 .5-5.2 3.1-4.5.4.1.7-.5.3-.7-2.9-1.3-5.2 1.9-4.9 4.6.3 2.8 3.7 5.5 6.4 3.8.5-.2.3-.8-.2-.9zm-2.6 12.9c-1.6-.3-3.2-.4-4.2-2.1-1.5-2.5.5-4.9 2.9-5.5.7-.2.6-1.4-.2-1.3-3.1.3-4.2-2.6-3.4-5.2.2-.6-.7-.8-.9-.2-1 2.5-.2 5.3 1.9 6.3-4.2 2.9-1.4 11.1 4 8.8.4-.1.3-.7-.1-.8zm.7 8c-.9-.5-1.8-.7-2.4-1.7-.7-1.1-.5-2.4.2-3.5.2-.4-.3-.8-.6-.5-.9 1.2-1.3 2.7-.8 4.2.5 1.2 1.9 2.6 3.3 2.4.5-.1.8-.6.3-.9zm23.7-4.5c-1.7 1.3-4.1 4-6.4 2.2-.5-.4-1.4-.2-1.4.6-.1 1.9-1.8 2.7-3.5 2.5-1.9-.2-3-1.5-3-3.6 0-.5-.8-.5-.8 0-.2 2.4 1.1 4.7 3.6 5.1 2.4.4 3.9-1.1 4.9-2.9 2.8 1.4 5.8-.7 7.2-3.4.2-.2-.2-.7-.6-.5zm-.7-20.3c-.8-2.2-3.4-2.9-5.4-2.4-.4.1-.4.7 0 .8 1.6.4 3.4 0 4.3 1.7.7 1.4.8 4.4-.6 5.3-.4.3 0 1 .4.7 1.9-1.1 2-4.2 1.3-6.1zm-12.4-21.3c.8-1.8.4-3.9-1.3-5.2-2.3-1.8-5.8-1.5-8.1.1-.5.4-.2 1.3.5 1.1 1.2-.3 2.2-.8 3.5-.9 2.1-.1 6.6 1.5 3.9 5-.4.6 0 1.3.7 1.2 4.9-.7 4 6.9 0 7.8-.4.1-.3.8.1.8 5.2-.7 5.8-9 .7-9.9zm-10.4-20.2c-.5-1.6-1.7-3-3.2-3.7-2.9-1.4-6.5.6-6.2 4 .1.5.8.5.8 0 .1-3.2 3.9-3.8 5.9-1.9.9.9 1.4 2.1 1.5 3.4.1 1-.2 1.9.1 2.9.1.3.6.5.8.2 1.1-1.2.8-3.4.3-4.9zm-47.9-6.4c-3.1 0-5.6 3.1-6.1 6-.1.6.6.9 1 .4 1-1.4 1.5-3.2 3-4.2 1.8-1.2 5.3-.6 4.4 2.2-.2.5.7.9.9.4 1.1-2.4-.7-4.8-3.2-4.8z" fill="#371813" stroke-width="none" opacity="1" stroke="none"></path><path id="SvgjsPath14004" d="M72.1 34.7c0-.4-.6-.7-.8-.2-.7 1.5-2 3.2-3.9 2.8-1.9-.4-2.9-2.8-2.1-4.5.2-.5-.5-1-.8-.5-1.3 2.2-.2 5.4 2.3 6.2 2.2.6 5.5-1.2 5.3-3.8zm-7.2-4.3c-.8.5-1.8-.2-2-1-.2-1 .2-1.9.3-2.8 0-.2-.4-.4-.5-.2-.9 1.1-1.3 3-.3 4.3.7 1 2.1 1.3 3.1.4.2-.4-.2-1-.6-.7zm82.2-3.9c0-1.3-.2-2.5-1.6-3.1-1.6-.7-3.1.5-4.3 1.5-.3.2.1.8.4.5.5-.4 1.4-1.2 2-1.2.8.3 1.5.6 2.3 1 .1.7.1 1.4-.1 2.1-.1.6.4 1 .9.7 2.6-1.3 5.2.5 5.1 3.4-.1.9 1.3.9 1.3 0 .3-3.6-2.8-5.9-6-4.9zm-1.3 7.5c-1.8-1.2-4-.5-5.2 1.2-.2.3.3.7.5.4 1-1.2 2.8-1.7 4.1-.7 1.7 1.2 1.2 3.1.8 4.8-.1.4.4.5.6.2 1.4-1.9 1.3-4.6-.8-5.9zm.5 9.9c-.4 0-.5.7-.1.7 2.3.3 3.8 2.9 3.1 5.1-.8 2.2-2.9 2.8-4.9 3.3-.4.1-.4.8 0 .9 2.8.5 5.9-1.8 6.2-4.7.3-2.7-1.6-5.1-4.3-5.3zm8.9 5.5c-.5-.2-1 .4-.6.8 2.6 2.7-.2 5.5-2.7 6.8-.6.3-.5 1.4.2 1.6 3.2.7-.2 10.9-4.8 6.2-.4-.4-.9.2-.6.6 4 4.9 10.7-3.2 7-7.5 2.9-2 5.9-6.4 1.5-8.5zM132 38.2c-1.5 2.2-5.5 5.2-6.4.7-.1-.5-.7-.7-1.1-.4-2.5 1.7-6.6-2.7-3.4-4.5.3-.2.1-.8-.3-.6-4.5 1.6-.6 7.3 3.3 6.7.3 1.7 1.8 2.9 3.6 3 2.6.2 4.6-2.1 5.1-4.5.2-.5-.5-.8-.8-.4zm-20.2-17c-2.7-3.2-8.7-2.6-8.3 2.5.1.6.8.7 1 .1.7-3 2.9-3.4 6.8-.9.2.5 1.2.7 1.3 0 .8-5.1 8-2.5 8.7 1.1.1.7 1.1.4 1-.3-.7-4.6-8.4-6.8-10.5-2.5zm7.4-9.5c-1.8-2.8-5-5.6-8.1-3.5-1.8-2.7-6.6-.3-7.8 2-.2.4.3.9.7.5.8-.9 5.2-4.4 6.3-1.4.2.5.7.6 1.1.3l3.1-.9c.8.2 1.4.6 1.9 1.1.8.7 1.4 1.4 2.1 2.3.3.5 1 .1.7-.4zM101 30.3c-.7.4-1.4.7-2.1 1-.2.1-5.5 1.3-3.7-1.3.3-.5-.3-.9-.7-.7l-.1.1h-.1c-3.2 2.5-7-.8-5.8-4.4.2-.5-.5-.6-.7-.2-1.7 4.2 2.2 7.5 5.8 6.1 0 .7.4 1.4 1.2 1.8 2.2 1.2 5.1-.2 6.5-1.9.4-.2 0-.7-.3-.5zm3.8 15.8c-.9.2-1.6.5-2.5.1-.9-.4-1.5-1.3-1.6-2.3 0-.5-.8-.5-.8 0 0 1.3.6 2.6 1.8 3.2 1 .5 2.7.7 3.6-.3.3-.3 0-.8-.5-.7zm51.7 46.3c0-1.2-1.8-.6-1.2.3.5.8-.2 2-.9 2.4-.7.5-1.7.5-2.5.3-1.7-.5-2.6-2.1-3.1-3.7-.1-.4-.9-.4-.8.1.3 2.5 2 4.9 4.8 4.9 1.1 0 2.2-.4 2.9-1.2.8-.9.8-1.9.8-3.1zm4.6-21.5c-1.1-1.3-3-1.3-4 .1-.2.3.3.8.6.4 1-1.3 2.7-.5 3.1.9.4 1.4-.4 2.4-.9 3.6-.2.4.5.8.8.4 1.3-1.3 1.6-3.9.4-5.4zM44 70.9c-1.4-.3-2.8-.7-3.3-2.2-.5-1.6.4-3.2 1.8-3.9.4-.2.1-1-.3-.8-1.9.7-3.2 2.7-2.7 4.8.4 1.9 2.5 3.6 4.5 3 .4-.1.5-.8 0-.9zm12-8.3c-.8-.8-1.8.7-.9 1.1C58 65 60.9 70.4 58 73c-.4.4.2 1 .6.6 3.9-3.3-.1-8.4-2.6-11zm18-7.9c-.5-.5-1.4.2-1 .8 1.7 2.6-1.6 4.2-3.6 2.6-.4-.3-1.2-.2-1.1.5.3 3.7-3.8 3.7-6 2.3-.4-.2-.9.3-.5.7 2.7 2.3 7.1 1.7 7.7-1.8 3.2 1.5 7.4-1.9 4.5-5.1zm3.8-10.1c-.6-2-2.7-1.7-4.1-1-.3.2-.1.7.2.6.6-.2 1.3-.6 2-.3.7.2 1 1 .8 1.7-.2 1.2-1.4 1.6-1.9 2.6-.2.3.1.8.5.7 1.6-.5 2.9-2.7 2.5-4.3zm50.7 6.6c-.8.3-1.6.8-2.5 1-.9.2-3.3.5-3-1.2.1-.6-.8-.9-1-.3-.4 1.5.7 2.7 2.2 3 1.7.3 3.7-.4 4.7-1.8.3-.4 0-.8-.4-.7zm7.3-27.7c-1.5-.7-3.3.1-3.5 1.8-.1.5.7.6.8.1.3-1.6 2.1-1.3 2.8-.2.7 1.1.3 2.2.5 3.4.1.5.8.5 1 .1.9-1.7.1-4.3-1.6-5.2zm4.5 22.5c-.6.6-.9 1.4-1.6 1.9-.8.5-2.4.1-2.1-1.1.2-.6-.8-.9-1-.3-.5 1.5.9 2.9 2.3 2.9 1.5 0 3.2-1.5 3.2-3.1.1-.4-.5-.6-.8-.3zm7.5 39.3c-1 .1-1.9.4-2.8-.2-.9-.6-1.2-1.7-1-2.7.1-.6-.8-.9-1-.3-.4 1.4 0 2.9 1.1 3.8 1 .9 3 1.2 4.1.2.2-.2.1-.9-.4-.8zM82 16.6c-.6-2-3.2-2.8-5.1-2.1-2 .8-2.9 3-2.3 5 .2.6 1.1.4.9-.3-.3-1.5.5-3.3 2.1-3.7 1.5-.4 2.7.5 3.7 1.5.3.3.8 0 .7-.4z" fill="#755a56" stroke-width="none" opacity="1" stroke="none"></path></g><g id="svga-group-glasses-single-move" transform="matrix(1,0,0,1,0,0)"><g id="svga-group-glasses-single" transform="matrix(1,0,0,1,0,0)"><path id="SvgjsPath13968" d="M95.79 91.36s.32-2.16-3.48-3.45c-2.88-.98-5.89-1.11-8.31-1.11s-10.25-.09-12.23.09c-1.98.19-4.96.38-5.95 3.32-.99 2.94.33 7.88 4.3 10.35 3.97 2.47 12.23 2.66 17.52 1.04 5.28-1.6 7.71-5.27 8.15-10.24z" fill="#ffffff" stroke-width="none" opacity="0.44"></path><path id="SvgjsPath13969" d="M104.21 91.36s-.32-2.16 3.48-3.45c2.88-.98 5.89-1.11 8.31-1.11s10.25-.09 12.23.09c1.98.19 4.96.38 5.95 3.32.99 2.94-.33 7.88-4.3 10.35-3.97 2.47-12.23 2.66-17.52 1.04-5.28-1.6-7.71-5.27-8.15-10.24z" fill="#ffffff" stroke-width="none" opacity="0.44"></path><path id="SvgjsPath13970" d="M95.78 90.77s3.57-1.69 8.41 0v.98s-5.18-.98-8.5 0l.09-.98z" fill="#7db000" stroke-width="none" opacity="1"></path><path id="SvgjsPath13971" d="M79.82 103.04c-4.1 0-7.71-.78-9.9-2.15-3.57-2.22-4.97-6.32-4.76-9.18l.01-.13h-2.4v-2.06h2.93l.03-.07c1.22-2.47 3.98-2.73 5.81-2.91l.19-.02c.85-.08 2.8-.12 5.97-.12 1.45 0 2.93.01 4.18.01.9.01 1.62.01 2.12.01 2.38 0 5.48.13 8.43 1.13 3.9 1.32 3.76 3.59 3.73 3.84-.49 5.46-3.32 9.02-8.42 10.58-2.24.69-5.06 1.07-7.92 1.07zm-2.07-15.89c-3.18 0-5.13.04-5.95.12l-.19.02c-2.03.19-4.56.43-5.44 3.05-.99 2.93.44 7.61 4.14 9.91 2.07 1.29 5.53 2.02 9.51 2.02 2.77 0 5.58-.37 7.7-1.02 4.85-1.48 7.43-4.73 7.89-9.93.02-.21.1-1.93-3.23-3.06-2.85-.97-5.87-1.09-8.19-1.09-.5 0-2.22-.01-2.22-.01-1.16 0-2.6-.01-4.02-.01z" fill="#97cf10" stroke-width="none" opacity="1"></path><path id="SvgjsPath13972" d="M77.7 86.53c1.45 0 2.92.01 4.17.01h.05c.85 0 1.57.01 2.07.01 2.37 0 5.46.13 8.39 1.12 3.8 1.29 3.68 3.47 3.65 3.71-.48 5.41-3.29 8.93-8.33 10.47-2.24.68-5.04 1.06-7.89 1.06-4.08 0-7.66-.78-9.84-2.13-3.53-2.2-4.91-6.24-4.7-9.06l.02-.27h-2.41v-1.81h2.89l.07-.14c1.19-2.41 3.91-2.67 5.71-2.84l.19-.02c.85-.08 2.79-.11 5.96-.11m2.12 15.87c2.82 0 5.57-.36 7.74-1.03 4.9-1.5 7.51-4.78 7.98-10.06.02-.2.1-2.01-3.31-3.17-2.86-.97-5.9-1.1-8.23-1.1-.5 0-1.22 0-2.07-.01h-.15c-1.17-.01-2.6-.01-4.03-.01-3.19 0-5.14.04-5.96.12l-.19.02c-1.96.18-4.64.44-5.55 3.14-1 2.97.44 7.73 4.19 10.06 2.09 1.3 5.58 2.04 9.58 2.04M77.7 86.28c-2.53 0-4.97.02-5.98.12l-.19.02c-1.89.18-4.66.44-5.91 2.98h-2.98v2.31h2.39c-.23 3.15 1.4 7.16 4.82 9.29 2.41 1.5 6.19 2.17 9.97 2.17 2.85 0 5.71-.38 7.96-1.07 5.15-1.57 8.01-5.17 8.51-10.68.03-.27.17-2.62-3.82-3.97-2.97-1.02-6.09-1.15-8.47-1.15-.5 0-1.22 0-2.07-.01-1.26-.01-2.76-.01-4.23-.01zm2.12 15.87c-3.6 0-7.21-.62-9.45-2.01-3.65-2.27-5.06-6.88-4.09-9.77.86-2.55 3.34-2.78 5.34-2.97l.19-.02c.97-.09 3.44-.12 5.94-.12 1.48 0 2.98.01 4.17.01.85 0 1.58.01 2.08.01 2.31 0 5.32.12 8.15 1.08 3.27 1.11 3.16 2.81 3.15 2.91v.02c-.46 5.15-3.01 8.36-7.8 9.82-2.15.68-4.91 1.04-7.68 1.04z" fill="#7db000" stroke-width="none" opacity="1"></path><path id="SvgjsPath13973" d="M120.18 103.04c-2.86 0-5.68-.38-7.93-1.06-5.1-1.56-7.93-5.11-8.42-10.58-.03-.26-.17-2.52 3.73-3.84 2.95-1 6.06-1.13 8.43-1.13.5 0 1.22 0 2.07-.01 1.3-.01 2.78-.02 4.23-.02 3.17 0 5.12.04 5.97.12l.18.02c1.83.17 4.59.43 5.81 2.91l.04.07h2.93v2.06h-2.39l.01.13c.21 2.86-1.19 6.96-4.76 9.18-2.19 1.36-5.8 2.15-9.9 2.15zm2.07-15.89c-1.42 0-2.86.01-4.03.01 0 0-1.73.01-2.22.01-2.32 0-5.35.12-8.19 1.09-3.32 1.13-3.25 2.85-3.23 3.04.47 5.23 3.05 8.47 7.89 9.95 2.12.65 4.93 1.02 7.7 1.02 3.98 0 7.44-.74 9.51-2.02 3.7-2.3 5.13-6.98 4.14-9.91-.88-2.62-3.41-2.86-5.45-3.05l-.19-.02c-.8-.08-2.75-.12-5.93-.12z" fill="#97cf10" stroke-width="none" opacity="1"></path><path id="SvgjsPath13974" d="M122.3 86.28v.25c3.17 0 5.11.04 5.96.12l.19.02c1.8.17 4.52.43 5.71 2.84l.07.14h2.89v1.81h-2.41l.02.27c.21 2.83-1.17 6.87-4.7 9.06-2.18 1.35-5.76 2.13-9.84 2.13-2.85 0-5.65-.38-7.89-1.06-5.04-1.54-7.85-5.06-8.33-10.47-.03-.24-.16-2.42 3.65-3.71 2.93-.99 6.02-1.12 8.39-1.12.5 0 1.22 0 2.07-.01h.06c1.25-.01 2.72-.01 4.17-.01v-.26m-2.13 16.12c4 0 7.49-.74 9.58-2.04 3.75-2.33 5.2-7.08 4.19-10.06-.91-2.7-3.59-2.95-5.55-3.14l-.19-.02c-.82-.08-2.77-.12-5.96-.12-1.42 0-2.86.01-4.03.01h-.15c-.85 0-1.58.01-2.07.01-2.33 0-5.37.12-8.23 1.1-3.41 1.16-3.33 2.97-3.31 3.19.47 5.26 3.08 8.54 7.98 10.04 2.17.67 4.91 1.03 7.74 1.03m2.12-16.12c-1.47 0-2.97.01-4.23.02-.85 0-1.57.01-2.07.01-2.39 0-5.51.13-8.47 1.14-3.99 1.35-3.85 3.71-3.82 3.97.49 5.52 3.36 9.11 8.51 10.68 2.26.69 5.11 1.07 7.96 1.07 3.78 0 7.56-.67 9.97-2.17 3.42-2.13 5.05-6.14 4.82-9.29h2.39V89.4h-2.98c-1.25-2.53-4.02-2.8-5.91-2.98l-.19-.02c-1.01-.1-3.45-.12-5.98-.12zm-2.12 15.87c-2.77 0-5.53-.36-7.67-1.01-4.79-1.46-7.34-4.68-7.8-9.82v-.02c-.01-.1-.13-1.8 3.15-2.91 2.83-.96 5.84-1.08 8.15-1.08.5 0 1.22 0 2.08-.01 1.19-.01 2.69-.01 4.17-.01 2.5 0 4.96.02 5.94.12l.19.02c2 .19 4.48.42 5.34 2.97.97 2.88-.44 7.5-4.09 9.77-2.25 1.37-5.86 1.98-9.46 1.98z" fill="#7db000" stroke-width="none" opacity="1"></path></g></g></g></g></g><rect id="svga-credit-rect" width="200" height="15" x="0" y="185" fill="#ecf0f1" opacity="0.5" style="display: none;"></rect><text id="svga-credit-text" font-family="Avenir Next, Roboto, Helvetica, Arial, sans-serif" font-size="10px" text-anchor="start" font-weight="400" size="10px" anchor="start" weight="400" fill="#333333" x="33.40447998046875" y="182.60824704170227" style="display: none;"><tspan id="SvgjsTspan13276" dy="13" x="33.40447998046875">Created on AvatarMaker.com</tspan></text></g></svg>