<svg xmlns="http://www.w3.org/2000/svg" version="1.1" width="600px" height="600px" viewBox="0 0 200 200" style="overflow:hidden!important;"><defs id="SvgjsDefs19919"></defs><g id="svga-group-wrapper"><g id="svga-group-backs-single"><path id="SvgjsPath20598" d="M0 0h200v200H0V0z" fill="#036564" stroke-width="none" opacity="1"></path><path id="SvgjsPath20599" d="M6.5 16.3c4-9.2 13.8-13.8 22-11.3 6 1.9 10.6 7.5 11.8 14.3 0 0 25.4-15.2 41.7 1.1 6.1 6.1 6.7 17.8-4.9 27.2-8.8 7.2-19.5 1.4-19.5 1.4 2 5.6.6 11.5-3 14.3-5 3.8-14.5 2.2-18.9-5.8 0 0 2.5 13.2-12.6 15.4C7.9 75.1 8.7 60 8.7 60s-.9 4.4-8.7 4.4V13s1.4-.3 3.2.5 3.3 2.8 3.3 2.8zm136.2 47.3c-.2-.7-4.6-9.9-15.2-9-10.6.9-7.6 14.8-7.6 14.8s-14.3.5-15.5 11.8S116.4 103 134 92c0 0 13.9 14.1 28.9-.9 0 0 21 12.7 28.4.2S182.9 73 182.9 73s6.5-15.7-12-12c0 0-3-9-13.2-8.5-10.1.4-15 11.1-15 11.1zM81.6 149s-5.5 6.7-16.8 5.1c-11.3-1.6-12.2-10.9-12.2-10.9s-14.3 12.5-31.6 3-7.9-26.3-.7-30.7 20.3-.5 20.3-.5-1.6-4.8 4.6-8.5c6.2-3.7 11.3 1.8 11.3 1.8s1.2-8.3 14.1-8.1S83 112.5 83 112.5s5.1-9.2 16.4-3.7 7.6 14.3 7.6 14.3 3-3.7 6.5-4.2 7.6 3 7.2 6.9c0 0 8.8-8.1 20.3 5.5s-11.3 28.2-21.9 15.9c0 0-3.5 10.6-20.1 9.5S81.6 149 81.6 149zm72.7 19.1s-2.8-6.2-10.9-6-7.9 9.7-7.9 9.7-6-5.8-12-1.4 0 11.3 0 11.3-5.8.5-5.3 6.2 12.9 12.9 26.8-.2c0 0 4.2 6.7 11.3 4.9 7.2-1.9 6.9-8.5 6.9-8.5s9.7 8.5 19.2 2.5 6.7-23.6-8.8-24.5c-15.4-.9-19.3 6-19.3 6zM126.5 0s-7.4 3.7-5.5 12.9 16.1 8.3 19.6 3.5c0 0-2.8 9.7 7.4 10.1 0 0-.2 16.8 18.4 11s16.3-22.3 16.3-22.3 2.5 12.9 17.4 12.9V0h-73.6zM0 195.2s19.3 7.9 29.6-9.4-11.8-20.6-15.4-15.7c0 0 1.6-16.7-14.2-13.2v38.3z" fill="#ffffff" stroke-width="none" opacity="1"></path></g><g id="svga-group-humanwrap-move" transform="matrix(1,0,0,1,0,0)"><g id="svga-group-humanwrap" transform="matrix(1,0,0,1,0,0)"><g id="svga-group-hair-back-move" transform="matrix(1,0,0,1,0,0)"><g id="svga-group-hair-back" transform="matrix(1,0,0,1,0,0)"></g></g><g id="svga-group-humanbody-back"><path id="SvgjsPath20320" d="M166.5 181.1c-10.9-6.6-27.6-8.4-35-12.1-4.9-2.5-9.1-4.7-8.9-17.8s1.9-42.4 1.9-42.4H75.4s1.6 29.4 1.9 42.4-4.2 15.6-8.9 17.8c-7.4 3.5-24.1 5.4-35 12.1-10.8 6.6-10 18.9-10 18.9v19.7h153.3V200c-.1 0 .7-12.3-10.2-18.9z" fill="#ffe4d1" stroke-width="none" opacity="1" stroke="none"></path></g><g id="svga-group-chinshadow-single"><path id="SvgjsPath20546" d="M75.7 162.4c5.4 3.4 13.9 4.6 24.3 4.6 10.4.1 18.9-1.1 24.3-4.5-1.1-2.5-1.8-6-1.7-11.3.2-13.1 1.9-42.4 1.9-42.4H75.4s1.6 29.4 1.9 42.4c.1 5.2-.5 8.7-1.6 11.2z" fill="#e0ae8b" stroke-width="none" opacity="0.65" stroke="none"></path></g><g id="svga-group-humanbody-front"><path id="SvgjsPath20321" d="M78.7 156.8c.5 4.8 1.7 9.4 3.1 13.9.8 2.3 1.6 4.6 2.6 6.9.8 2 1.7 4.2 3.1 5.9.3.4 1 0 .9-.5-.5-2.2-1.6-4.3-2.4-6.4-.9-2.2-1.7-4.4-2.5-6.6-1.5-4.4-2.8-8.9-4.1-13.3-.2-.4-.8-.3-.7.1zm41.3-1c-1.3 8.2-3.9 16.1-5.4 24.2-.1.4.4.5.6.2 3.1-7.7 4.1-16.1 5.1-24.3-.1-.2-.3-.2-.3-.1zm-25.8 11.9c-.9 3.6 1.9 8.6 6.2 7.6.5-.1.4-.8 0-1-1.4-.5-2.9-.9-3.9-2.1-1.1-1.2-1.5-2.9-1.4-4.5 0-.4-.8-.5-.9 0z" fill="#e0ae8b" stroke-width="none" opacity="1" stroke="none"></path><path id="SvgjsPath20322" d="M177.3 219.7c-.1-6.6-.3-13.1-.3-19.7l-.3-.3c.1 0 .1 0 .2.1s.1.2.1.1v-1.4c0-.5-.1-.9-.1-1.4-.1-.9-.3-1.9-.5-2.8-.5-1.8-1.1-3.6-2-5.3-1.7-3.4-4.4-6.2-7.7-8.1-3.6-2.2-7.6-3.8-11.6-5.1-4-1.3-8.1-2.4-12.1-3.5-4-1.2-8.1-2.2-11.8-4.2-1.9-1-3.6-2.1-4.8-3.6-1.2-1.6-1.9-3.5-2.3-5.5-.8-4-.4-8.2-.3-12.4l.7-12.6 1.5-25.2.1-1.4h-1.4c-8.2 0-16.4 0-24.6.1l-24.6.3h-.9l.1.9c.8 11.9 1.6 23.8 2.1 35.7.1 3 .3 6 .2 8.9-.1 2.9-.4 5.9-1.6 8.6-.6 1.3-1.4 2.5-2.4 3.5s-2.3 1.8-3.6 2.4c-2.6 1.3-5.4 2.2-8.3 3-5.8 1.5-11.6 2.8-17.3 4.7-2.8.9-5.7 2-8.4 3.4-1.3.7-2.7 1.4-4 2.4-1.3.9-2.4 1.9-3.5 3.1-2.1 2.3-3.6 5.2-4.5 8.1-.5 1.5-.8 3-1 4.6-.1.8-.1 1.6-.1 2.4v2.3l-.2 17.9v1.3h1.4l38.3.2c12.8.1 25.5.1 38.3 0 12.8-.1 25.6-.1 38.3-.3 12.8-.2 25.6-.5 38.3-.7h.6v-.5zm-77.2-1.6H61.8l-37 .2-.1-16.6v-2.2c0-.7 0-1.4.1-2.1.1-1.4.4-2.8.8-4.2.8-2.7 2.1-5.3 3.9-7.5.9-1.1 2-2.1 3.1-2.9 1.1-.9 2.4-1.6 3.7-2.3 2.6-1.4 5.3-2.5 8.1-3.5 5.6-2 11.4-3.4 17.1-5.1 2.9-.8 5.8-1.7 8.5-3.1 1.3-.7 2.7-1.5 3.8-2.6 1.1-1.1 2-2.4 2.6-3.9 1.2-2.9 1.5-5.9 1.6-8.9 0-3-.1-6-.2-9l-1.3-34.8 23.5.4c7.7.1 15.4.1 23.1.1-.4 7.9-.8 15.9-1.1 23.8-.2 4.2-.2 8.4-.3 12.6 0 4.2-.2 8.5.8 12.8.5 2.1 1.3 4.2 2.8 6 1.4 1.7 3.4 2.9 5.3 3.8 3.9 1.9 8 2.8 12.1 3.8s8.2 2 12.2 3.3c4 1.3 7.9 2.8 11.5 5 3.2 1.9 5.8 4.7 7.5 8 .9 1.6 1.5 3.4 1.9 5.2.2.9.4 1.8.4 2.7.1.5.1.9.1 1.4V200l-.3 19c-12.6-.2-25.1-.5-37.7-.7-12.7-.1-25.5-.1-38.2-.2z" fill="#d1966d" stroke-width="none" opacity="1" stroke="none"></path></g><g id="svga-group-clothes-single"><path id="SvgjsPath20456" d="M127.8 142.4c10.7 3.1 5.9 12.4 6.7 12.7 5.2 2.2 6.4 9.8 5.2 12.4 0 0 5.1 1.6 7.9 2.4 8.6 2.4 29.9 8.2 33.1 23.5 0 0 2.6 9.2 2.6 26.7H16.7c0-17.5 2.6-26.7 2.6-26.7 3-14 23.7-22.7 32.5-24.6 3.6-.8 6.9-2.1 10-2.6 0-3-.8-8.7 4.9-11.3 2.2-1-3.5-9.3 5.8-12.6 0 0 9.6 8.8 27.9 9.4s27.4-9.3 27.4-9.3z" fill="#1e78a2" stroke-width="none" opacity="1"></path><path id="SvgjsPath20457" d="M183.4 200.5c-.4-3.2-1-6.5-2.1-9.8-1.1-3.3-3.1-6.2-5.6-8.6-2.4-2.4-5.2-4.3-8.1-5.9-2.9-1.6-5.9-2.9-9-4.1-3.1-1.1-6.2-2-9.4-2.9-2.9-.7-5.7-1.6-8.5-2.4.3-1.2.2-2.3.1-3.3-.2-1.4-.6-2.7-1.1-3.9-.6-1.2-1.3-2.4-2.3-3.4-.5-.5-1.1-.9-1.6-1.3-.2-.1-.5-.3-.8-.4v-.4c.2-1.2.4-2.6.3-3.9-.1-1.3-.4-2.7-1.1-3.9-.7-1.2-1.7-2.1-2.8-2.8-5.2-3.6-7.2-2.4-7.5-2.2 0 0-.5 3-2.9 5-2.2 1.1-3.9 2.1-6.3 2.7-4.7 1.4-9.7 1.9-14.6 1.6-4.9-.3-9.8-1.1-14.4-2.7-2.3-.8-4.6-1.8-6.7-2.9-2.1-1.1-2.6-3.2-2.6-3.2-1.8-1.4-4.1-1.1-4.6-.9-1.2.4-2.4 1-3.5 1.9-1.1.9-2 2.1-2.4 3.5-.5 1.4-.5 2.8-.4 4 0 .6.1 1.3.2 1.9.1.5.1 1.1.1 1.4-.2.1-.3.1-.5.2-.6.3-1.2.7-1.7 1.2-1.1.9-2 2.1-2.5 3.4-.9 2.2-.9 4.4-.9 6.4-3 .7-5.7 1.6-8.5 2.2-3.4.7-6.6 1.8-9.8 3.1-3.1 1.3-6.2 2.8-9.1 4.6-2.9 1.8-5.7 3.9-8.2 6.3-2.5 2.4-4.7 5.3-6 8.7-.3.8-.6 1.7-.8 2.6-.2.8-.4 1.7-.6 2.5-.3 1.7-.6 3.3-.8 5-.9 6.7-1.2 13.4-1.2 20.1 0 .8.6 1.4 1.4 1.4l166.7-.1c.7 0 1.2-.6 1.2-1.2.1-6.4-.2-13-1.1-19.5zm-4.5-8.9c.9 2.9 1.4 6.1 1.9 9.3.8 5.9 1.1 11.9 1.3 18l-25.1.4c.3-3.5.6-6.9 1-10.3.4-3.7 1-7.3 1.6-10.9.3-1.8.7-3.6 1.1-5.4.5-1.7 1.1-3.4 1.9-5.1 1.3-3 3-5.8 4.8-8.5 2.4 1.4 4.6 3.1 6.6 5.1 2.2 2 4 4.6 4.9 7.4zm-42.3-34.4c.8.9 1.4 1.9 1.9 3.1.5 1.1.8 2.3.9 3.5.1 1.2.1 2.5-.3 3.4v.1c-.1.3 0 .7.3.9-.4.5-.8.9-1.3 1.3-.3.3-.7.6-1 .8-.4.3-.7.5-1.1.8-.5.4-1.1.7-1.6 1 .2-.6.3-1.1.5-1.7.1-.7.3-1.4.3-2.1.1-1.4.1-2.9-.2-4.3-.3-1.4-.8-2.8-1.6-4.1-.7-1.1-1.5-2.1-2.5-2.9 1.1-.5 2.3-1 3.4-1.6 0 .1.1.1.1.1.3.2.2.1.2.1.3.1.5.3.8.4.3.4.7.8 1.2 1.2zM75 145.6c.8.5 1.6.9 2.4 1.4.3.3.6.5 1 .8-.7.6-1.2 1.4-1.6 2.3-.6 1.1-1 2.2-1.3 3.4-.3 1.2-.4 2.4-.5 3.6v2.7c-.7-.3-1.3-.7-2-1.1l-.3-1.8c-.1-.6-.1-1.2-.2-1.8 0-.6-.1-1.2-.1-1.8 0-.6 0-1.2.1-1.8.1-1.2.4-2.4.9-3.5.5-.9 1-1.7 1.6-2.4zm15.3 8.1c1 .3 2.1.5 3.1.8 1.1.2 2.1.4 3.2.5-2-.7-4-1.3-6-2.1-.5-.2-1-.4-1.4-.6 0-.4.1-.8.2-1.2 2.7.6 5.5 1 8.3 1.1-.2 1.3-.4 2.5-.5 3.8-.1 1.4-.1 2.8.1 4.3-1.6 0-3.2-.1-4.8-.3-1.3-.1-2.6-.2-3.9-.5V159.2c-.1-1.1-.2-2.1-.1-3.2 0-.5.1-1.1.2-1.6.1-.4.2-.9.3-1.3.4.3.8.5 1.3.6zm-2.5 2.4c-.1 1.1-.2 2.1-.1 3.2v.1c-.4-.1-.8-.2-1.3-.4.4.2.8.4 1.2.5-.2.4-.3.8-.4 1.1-.2.5-.3 1-.4 1.5-.2.8-.2 1.7-.3 2.5l-1.2-.4c-1.9-.7-3.9-1.5-5.8-2.3l-.1-1.2c0-.5-.1-1.1-.1-1.6 0-1.1.1-2.1.2-3.2.2-1.1.4-2.1.8-3.1s.8-1.9 1.4-2.8c.8.4 1.6.9 2.4 1.3 1.4.7 2.8 1.2 4.3 1.8l-.6 3zm-7.7-3.4c-.5 1-.8 2-1.1 3.1-.3 1.1-.4 2.2-.4 3.3v1.7l.1.7c-.9-.4-1.8-.8-2.6-1.2l-.1-1.5V157c.1-1.2.1-2.3.3-3.5.2-1.1.5-2.3 1-3.4.3-.8.8-1.6 1.3-2.4.1.1.2.2.3.2 1 .8 2 1.4 3.1 2.1-.8.8-1.4 1.8-1.9 2.7zm-7.5 6.7c.7.4 1.4.9 2.1 1.2l-.9.9c-.4.5-.8 1.1-1.1 1.6-.6 1.1-1 2.4-1.2 3.6-.2 1.2-.3 2.5-.3 3.8l.1 1.9c0 .4.1.7.2 1.1-.5-.3-1.1-.5-1.6-.8-.8-.4-1.5-.8-2.2-1.3V170c.1-.6.1-1.2.2-1.8.2-1.2.3-2.4.8-3.5.4-1.1.9-2.2 1.6-3.1.6-.9 1.4-1.7 2.3-2.2zm-1 13 .1-1.8c.1-1.2.2-2.4.6-3.6.3-1.2.7-2.3 1.3-3.3.5-.9 1.2-1.9 2.1-2.5.9.5 1.9.9 2.8 1.4-.6.9-1.1 1.8-1.6 2.8-.5 1.2-.9 2.4-1.1 3.6-.2 1.2-.3 2.5-.2 3.7.1.9.2 1.8.4 2.7-1.5-.5-3-1.1-4.4-1.8v-1.2zm4.5 3c0-.3-.1-.6-.1-.9v-1.8c0-1.2.2-2.4.5-3.6.3-1.2.7-2.3 1.2-3.4.4-1 1-1.9 1.6-2.8l2.4.9c1.1.4 2.2.8 3.4 1.1.5.1.9.3 1.4.4-.6 2.1-1 4.3-1.2 6.5-.2 1.9-.2 3.9 0 5.8-1.9-.3-3.8-.7-5.7-1.2-1.2-.2-2.3-.6-3.5-1zm9.5 0c.1-1.1.2-2.2.4-3.4.4-2.1.8-4.3 1.5-6.4.4.1.7.2 1.1.3 1.2.2 2.3.5 3.5.8l-4.5-1.6c0-.9.1-1.8.2-2.7.1-.5.2-1 .3-1.4.1-.4.2-.8.4-1.1.3.1.6.1.8.2l3 .6c1.6.2 3.2.4 4.8.5-.3 1.4-.6 2.8-.8 4.2-.2 1.6-.3 3.2-.4 4.9-.1 1.6 0 3.3.1 4.9.1 1.2.2 2.4.4 3.6-3.7-.1-7.4-.4-11.1-1 .1-.9.2-1.7.3-2.4zm11.1 3.3c0-1.2-.1-2.4-.1-3.7 0-1.6.1-3.2.2-4.8.1-1.6.2-3.2.5-4.8.2-1.4.4-2.9.7-4.3h.5c2.2.1 4.3.1 6.5.1-.1 3.1-.1 6.1.2 9.1.1 1.6.3 3.1.6 4.7.2 1.1.4 2.2.8 3.3l-.9.1-2.6.2c-.9 0-1.8 0-2.6.1h-3.8zm8.7-22.4c-.1-1.4-.2-2.7-.3-4.1 2-.2 3.9-.5 5.9-.9.3 1.4.4 2.9.5 4.3.1 1.5.1 3 0 4.4-.2 0-.5 0-.7.1-1.6.1-3.3.2-4.9.2-.2-1.3-.4-2.6-.5-4zm10.4 3.4c-1.2.1-2.3.2-3.5.3 0-.7 0-1.4-.1-2-.1-.8-.2-1.6-.2-2.4-.1-.8-.3-1.6-.5-2.4-.2-.6-.3-1.3-.6-1.9l3.3-.9c.7 1.5 1.1 3.1 1.3 4.7.4 1.5.4 3.1.3 4.6zm-9.1 18.7c-.2-1.1-.3-2.2-.4-3.4-.2-1.6-.2-3.1-.3-4.7-.1-3-.2-6.1-.2-9.1 1.7 0 3.3-.1 4.9-.1.3 0 .6-.1.8-.1.4 1.2.8 2.5 1.1 3.8.4 1.4.7 2.9.9 4.4.2 1.5.5 3 .6 4.5l.3 3.9-1.2.2-2.6.3-2.6.3h-1.3zm7.9-9.3c-.2-1.5-.5-3-.9-4.5-.3-1.2-.7-2.4-1.1-3.6 1.1-.1 2.2-.2 3.3-.4.8 1.1 1.4 2.4 2 3.8.5 1.4.9 2.8 1.3 4.2.3 1.4.6 2.9.8 4.3l.2 2.2c0 .5.1 1 .1 1.5-1.4.3-2.8.6-4.2.7l-1.3.2c.1-1.3.2-2.6.2-3.9-.1-1.4-.2-3-.4-4.5zm5.4-.7c-.3-1.5-.7-2.9-1.2-4.4-.5-1.2-1.1-2.4-1.9-3.6 2.1-.3 4.1-.7 6.1-1.2.9-.2 1.9-.5 2.8-.8 1 .8 1.9 1.9 2.6 3.1.7 1.2 1.3 2.4 1.8 3.8.4 1.3.8 2.7 1 4.1.1.7.2 1.4.2 2.1l.1 1.7c-.1 0-.2.1-.3.1-3.2 1.4-6.6 2.3-10 3-.3.1-.6.1-.8.2.1-1.2.2-2.5.1-3.7-.1-1.4-.2-2.9-.5-4.4zm11.7 1c-.1-1.4-.3-2.9-.7-4.3-.4-1.4-1-2.8-1.7-4-.6-1.1-1.4-2-2.4-2.9l2.7-.9c1.1.7 2 1.8 2.7 2.9.7 1.1 1.3 2.4 1.6 3.8.3 1.3.5 2.7.5 4.1 0 .7-.1 1.4-.1 2.1l-.2 1.7c-.8.4-1.7.9-2.6 1.2.1-.6.1-1.1.1-1.6.1-.6.2-1.4.1-2.1zm-5.1-25.6.7-.6.3-.3.2-.2.1-.1c.1.1.2.1.4.1l.4.2c.3.1.6.2.9.4.6.3 1.1.6 1.6.9 1 .7 1.9 1.6 2.5 2.7.6 1.1.8 2.3.8 3.6 0 1.2-.2 2.4-.5 3.7 0 .2-.1.3-.1.5v.4c0 .1 0 .1.1.2-1.2.5-2.4.9-3.6 1.3v-1.4c-.1-.6-.1-1.2-.2-1.8-.1-1.2-.5-2.3-.9-3.4-.5-1.1-1.1-2.1-1.8-3-.7-.8-1.5-1.6-2.4-2.1.5-.4 1-.7 1.5-1.1zM122 147c1.1-.6 2.1-1.3 3.1-2.1 1.7 1.4 2.8 3.3 3.6 5.4.3 1.1.6 2.2.7 3.3.1.6.1 1.1.1 1.7v1.7c-.2.1-.4.1-.6.2-.7.2-1.5.4-2.2.6l-.1-1.2c-.1-.5-.2-1.1-.2-1.6-.2-1.1-.5-2.1-.9-3.1s-.9-1.9-1.6-2.8c-.6-.7-1.3-1.4-2.1-1.9-.1 0 0-.1.2-.2zm-6.9 3.2c2.2-.8 4.4-1.7 6.4-2.9.7.6 1.3 1.3 1.8 2.1.6.9 1 1.8 1.3 2.8.3 1 .5 2 .7 3 .1.5.1 1 .2 1.5l.1 1.3c-.9.2-1.8.4-2.8.6-2 .4-4.1.7-6.1 1 0-.6 0-1.3-.1-1.9-.1-.9-.2-1.8-.4-2.6-.2-.9-.4-1.7-.8-2.6-.3-.7-.7-1.5-1.1-2.1.3-.1.6-.2.8-.2zm-10.1 2c-.1 1.4-.2 2.8-.2 4.1 0 1.3 0 2.7.1 4H98.1c-.3-1.4-.4-2.8-.4-4.3v-3.8c.8.1 1.7.1 2.5.1 1.6.1 3.2.1 4.8-.1zm-15.9-1.1-.3 1.2c-1.4-.6-2.7-1.1-4.1-1.8-1-.5-2.1-1.1-3.1-1.6 1.2.4 2.3.9 3.5 1.2 1.4.4 2.7.7 4 1zm-20.7-3.8c.5-1.7 1.9-2.9 3.7-3.6.9.7 1.8 1.3 2.7 1.9-.2.2-.5.4-.7.7-.4.5-.8 1-1.1 1.6-.6 1.1-1 2.4-1.2 3.6-.3 1.2-.3 2.5-.2 3.8.1.6.1 1.3.2 1.9l.1 1c-.8-.5-1.6-1-2.3-1.6-.5-.4-1-.8-1.5-1.3 0-.1.1-.2.1-.2.1-.3.2-.6.2-.8.1-.9 0-1.5-.1-2.1-.1-.6-.2-1.2-.2-1.7 0-1.3 0-2.3.3-3.2zm-5.2 18.9c0-1.3-.1-2.4 0-3.5 0-1.1.2-2.1.6-3.1.4-.9.9-1.7 1.7-2.4l1.2-.9c.1-.1.2-.1.3-.2l.2-.1.2-.1c.1-.1.2-.1.3-.2.2-.1.3-.3.4-.5 1 1.3 2.3 2.4 3.7 3.4-.9.6-1.6 1.4-2.2 2.2-.7 1.1-1.3 2.2-1.6 3.4-.4 1.2-.5 2.5-.5 3.7 0 .6.1 1.2.1 1.9.1.4.1.9.2 1.3a23.8 23.8 0 0 1-4.9-4c.1-.1.3-.5.3-.9zm-45.1 52.5c.1-6.1.5-12.2 1.4-18.3.2-1.6.5-3.2.9-4.8.2-.8.4-1.5.6-2.3.2-.8.4-1.5.7-2.2 1.1-2.8 3.1-5.4 5.3-7.6 1.7-1.7 3.6-3.2 5.6-4.6 1.9 2.7 3.5 5.6 4.8 8.5.7 1.7 1.4 3.4 1.9 5.1.4 1.7.8 3.6 1.1 5.4.7 3.6 1.2 7.3 1.6 10.9.4 3.3.7 6.7 1 10l-5.5-.1H18.1zm81.9.9c-6.9 0-13.9-.1-20.8-.2l-20.8-.3-15.1-.2c.4-3.4.5-6.8.4-10.1-.1-3.8-.6-7.5-1.3-11.2-.4-1.8-.7-3.7-1.3-5.5-.6-1.8-1.4-3.6-2.3-5.2-1.6-2.9-3.6-5.6-6-8 3.2-2.2 6.8-4 10.4-5.6 3-1.3 6-2.3 9.2-3 3.4-.8 6.5-2 9.6-2.6.2 0 .4-.1.5-.2.8 1 1.7 1.9 2.6 2.8l1 .9 1.1.8c.7.6 1.4 1 2.2 1.6 3 1.9 6.3 3.4 9.8 4.5 6.9 2.1 14.1 2.8 21.2 2.7 7.1-.2 14.2-1 21.2-2.7 3.5-.9 6.9-2.1 10.1-3.7 1.6-.9 3.1-1.7 4.5-2.9 1.2-.9 2.3-2 3.1-3.2.1 0 .1.1.2.1 3.1 1 6.2 2.1 9.3 2.9 3.1.9 6.1 1.9 9.1 3.1 3 1.2 5.9 2.5 8.6 4.1.2.1.5.3.7.4-2.4 2.3-4.4 5.1-6 8-.9 1.7-1.7 3.4-2.3 5.2-.6 1.9-1 3.7-1.3 5.5-.7 3.7-1.1 7.4-1.3 11.2-.1 3.5-.1 7 .4 10.4l-15.1.2c-13.8.2-27.7.3-41.6.2z" fill="#005a83" stroke-width="none" opacity="1"></path></g><g id="svga-group-head" transform="matrix(1,0,0,1,0,0)"><g id="svga-group-ears-left-move" transform="matrix(1,0,0,1,0,0)"><g id="svga-group-ears-left" transform="matrix(1,0,0,1,0,0)"><path id="SvgjsPath20466" d="M63 101.3s-1.7-4.6-3.4-7.5-4.3-6.9-5.9-7.9-2.7-.4-2.3 2.3 2.5 11.4 3 14c.6 2.6 1.9 8.4 3.4 12.2 1.5 3.8 2.5 5.5 4 .5s2.4-10.4 1.2-13.6z" fill="#ffe4d1" stroke-width="none" opacity="1" stroke="none"></path><path id="SvgjsPath20467" d="M67.1 106c0 1.6-.8 7.1-2.2 10.6-1.3 1.2-4.7 2.2-4.8 2.1-.1 0-.2 0-.4-.1-.4-.2-.7-.6-.9-1s-.4-.7-.6-1.1c-.3-.7-.6-1.4-.9-2.2-.6-1.5-1-3-1.5-4.6-.9-3.1-1.5-6.2-2-9.4-.6-3.1-1.2-6.2-1.9-9.3l-.5-2.3c-.2-.8-.4-1.6-.3-2.5.1-.5.3-.9.6-1.1s.6-.3 1-.2c.6.1 6.8.8 7.3 1.3 3.4 1.3 7.2 8.5 7.1 19.8zm-8.2-12.6c-.8-1.2-1.6-2.3-2.4-3.5-.8-1.1-1.6-2.3-2.5-3.1-.4-.4-.9-.7-1.4-.8-.5-.1-.9.1-1 .6-.1.6 0 1.4.1 2.2.1.8.3 1.6.4 2.3.6 3.1 1.4 6.2 2.1 9.3.7 3.1 1.5 6.1 2.4 9.1.4 1.5.9 3 1.5 4.3.3.7.6 1.4.9 2 .2.3.3.6.5.9.2.2.3.4.4.5.1 0 .1 0 .3-.1.1-.1.1-.2.2-.3.1-.1.1-.2.2-.4.3-.6.5-1.2.7-1.9.4-1.4.9-2.7 1.2-4.2.4-1.4.7-2.9.8-4.4s.1-3.2-.4-4.6c-1-2.9-2.4-5.6-4-7.9z" fill="#f0c8ac" stroke-width="none" opacity="1" stroke="none"></path><path id="SvgjsPath20468" d="M52.1 88.9c3.2 3.5 5.8 9.5 6.2 15.1 0 .4-.3.4-.4.1l-.3-1.5c-.3-.7-.8-.8-1.4-.2.1.4.1.9.2 1.3.1.6.3 1.1.5 1.7.5 1.3 1.2 2.3 1.8 3.5.1.2 0 .6-.2.5-1.5-1.3-3.1-4.8-3-7.3 0-.8.3-1.4.8-1.5.3 0 .6.1.8.4-1.1-4.4-2.7-8-5.2-11.6-.1-.4.1-.7.2-.5z" fill="#e0ae8b" stroke-width="none" opacity="1" stroke="none"></path></g></g><g id="svga-group-ears-right-move" transform="matrix(1,0,0,1,0,0)"><g id="svga-group-ears-right" transform="matrix(1,0,0,1,0,0)"><path id="SvgjsPath20469" d="M137 101.3s1.7-4.6 3.4-7.5 4.3-6.9 5.9-7.9c1.6-1 2.7-.4 2.3 2.3-.5 2.7-2.5 11.4-3 14-.6 2.6-1.9 8.4-3.4 12.2-1.5 3.8-2.5 5.5-4 .5s-2.4-10.4-1.2-13.6z" fill="#ffe4d1" stroke-width="none" opacity="1" stroke="none"></path><path id="SvgjsPath20470" d="M140.1 86.2c.5-.5 6.7-1.2 7.3-1.3.3 0 .7 0 1 .2s.5.7.6 1.1c.1.9-.1 1.8-.3 2.5l-.5 2.3c-.7 3.1-1.3 6.2-1.9 9.3-.6 3.1-1.2 6.3-2 9.4-.4 1.5-.9 3.1-1.5 4.6-.3.7-.6 1.4-.9 2.2-.2.4-.4.7-.6 1.1-.2.3-.5.7-.9 1-.1 0-.2.1-.4.1-.1 0-3.5-1-4.8-2.1-1.4-3.5-2.2-9-2.2-10.6-.2-11.3 3.6-18.5 7.1-19.8zm-3.1 15.1c-.5 1.5-.6 3.1-.4 4.6.1 1.5.4 3 .8 4.4l1.2 4.2c.2.7.4 1.3.7 1.9.1.2.1.3.2.4.1.1.1.2.2.3.1.1.2.2.3.1s.3-.2.4-.5c.2-.3.3-.6.5-.9.3-.6.6-1.4.9-2 .6-1.4 1-2.8 1.5-4.3.9-3 1.6-6 2.4-9.1.8-3.1 1.5-6.2 2.1-9.3.2-.8.3-1.6.4-2.3.1-.8.2-1.6.1-2.2-.1-.6-.5-.8-1-.6-.5.1-1 .4-1.4.8-.9.8-1.7 2-2.5 3.1s-1.6 2.3-2.4 3.5c-1.5 2.3-2.9 5-4 7.9z" fill="#f0c8ac" stroke-width="none" opacity="1" stroke="none"></path><path id="SvgjsPath20471" d="M147.9 88.9c-3.2 3.5-5.8 9.5-6.2 15.1 0 .4.3.4.4.1l.3-1.5c.3-.7.8-.8 1.4-.2-.1.4-.1.9-.2 1.3-.1.6-.3 1.1-.5 1.7-.5 1.3-1.2 2.3-1.8 3.5-.1.2 0 .6.2.5 1.5-1.3 3.1-4.8 3-7.3 0-.8-.3-1.4-.8-1.5-.3 0-.6.1-.8.4 1.1-4.4 2.7-8 5.2-11.6.1-.4-.1-.7-.2-.5z" fill="#e0ae8b" stroke-width="none" opacity="1" stroke="none"></path></g></g><g id="svga-group-faceshape-wrap" transform="matrix(1,0,0,1,0,0)"><g id="svga-group-faceshape-single"><path id="SvgjsPath20536" d="M143.6 82.2v-.3C142.3 52 122.5 35.3 100 35.3S57.8 52.1 56.5 82.1v.3c0 1.8.3 11.9 2.6 24.5 2.6 13.9 7.9 28.3 11.5 35.9 3.5 7.7 14.6 10.1 29.4 10.1s25.8-2.4 29.4-10.1c3.5-7.7 8.9-22 11.5-35.9 2.3-12.7 2.7-22.9 2.7-24.7z" fill="#ffe4d1" stroke-width="none" opacity="1" stroke="none"></path><path id="SvgjsPath20537" d="M70.6 142.8c3.5 7.7 14.6 10.1 29.4 10.1s25.8-2.4 29.4-10.1c3.5-7.7 8.9-22 11.5-35.9 2.3-12.7 2.7-22.9 2.7-24.7v-.3C142.3 52 122.5 35.3 100 35.3S57.8 52.1 56.5 82.1v.3c0 1.8.3 11.9 2.6 24.5 2.6 13.9 7.9 28.3 11.5 35.9zM58.1 75.5c.3-1.7.5-3.4.9-5l.7-2.5c.2-.8.4-1.7.7-2.4l.9-2.4c.2-.4.3-.8.5-1.2l.6-1.1 1.1-2.3c.4-.8.9-1.5 1.3-2.2.5-.7.9-1.4 1.4-2.1l1.6-2 .8-1 .9-.9 1.8-1.8c.6-.6 1.3-1.1 1.9-1.6.7-.5 1.2-1.1 2-1.6 1.4-.9 2.7-1.9 4.2-2.6 2.9-1.7 6-2.7 9.2-3.7 6.4-1.6 13.1-1.8 19.6-.7 6.4 1.3 12.7 3.8 18 7.9 5.3 4.1 9.6 9.5 12.4 15.8 2.8 6.2 4.7 13.3 4.9 20.2-.1 6.9-1.1 13.6-2.4 20.4-1.2 6.8-3.3 13.4-5.6 19.8-2.4 6.4-5 12.8-7.9 19-.2.4-1 2-2.5 3.3-1.1.9-2.3 1.7-3.7 2.4-2.8 1.2-6 2-9.3 2.4-6.6.9-13.5.9-20.2.4-3.3-.2-6.6-.7-9.7-1.6-3.1-.9-5.9-2.2-7.8-4.3-.4-.5-.9-1.1-1.2-1.7l-1.1-2.3c-.7-1.5-4.6-11.1-5.8-14.3-2.3-6.5-4.4-13-5.8-19.7-1.5-6.6-2.5-13.5-2.8-20.4-.3-3.4.1-6.8.4-10.2z" fill="#d1966d" stroke-width="none" opacity="1" stroke="none"></path></g></g><g id="svga-group-mouth-single-move" transform="matrix(1,0,0,1,0,0)"><g id="svga-group-mouth-single" transform="matrix(1,0,0,1,0,0)"><path id="SvgjsPath20625" d="M88.41 126.92c1.99 3.72 6.55 5.56 10.64 5.71 4.32.17 10.29-1.51 13.17-4.89.35-.41-.09-.98-.59-.82-1.89.64-3.52 1.88-5.35 2.66-2.01.86-4.21 1.45-6.42 1.57-4.41.23-7.92-1.55-10.92-4.61-.23-.22-.69.09-.53.38z" fill="#f0c8ac" stroke-width="none" opacity="1" transform="translate(0 2)" stroke="none"></path><path id="SvgjsPath20626" d="M96.23 130.28c3.55.91 9.28.24 11.77-2.7.21-.25.01-.77-.37-.68-1.75.39-3.29 1.35-5 1.85-2.09.61-4.21.75-6.39.94-.34.03-.33.5-.01.59z" fill="#ffebde" stroke-width="none" opacity="1" transform="translate(0 2)" stroke="none"></path><path id="SvgjsPath20627" d="M94.82 121.9c-1.73-.21-2.43-.06-4.11.75s-2.5.96-3.93.56c-1.5-.42-2.02-2.2-2.02-2.2-.52 0-.65 1.62.65 2.77s5.54 1.43 8.33 1.32c3.47-.13 5.4-.17 5.4-.17h1.36s1.92.04 5.4.17c2.79.1 7.04-.17 8.33-1.32s1.17-2.77.65-2.77c0 0-.52 1.78-2.02 2.2-1.44.4-2.25.25-3.93-.56s-2.38-.96-4.11-.75c-.86.1-3.06.8-5.12.8-1.42 0-4.02-.69-4.88-.8z" fill="#fe856a" stroke-width="none" opacity="1" transform="translate(0 2)" stroke="none"></path></g></g><g id="svga-group-eyes-left-move" transform="matrix(1,0,0,1,0,0)"><g id="svga-group-eyes-left" transform="matrix(1,0,0,1,0,0)"><g id="svga-group-eyesback-left"><path id="SvgjsPath20498" d="M88.2 99.8s.1-4-2.3-6.6c-2.4-2.6-6.4-5.6-14.3-2.8 0 0 1.3 3.7 2.8 5.3 1.5 1.5 4.7 3.8 7.6 4.2 3 .3 6.2-.1 6.2-.1z" fill="#ffffff" stroke-width="none" opacity="1"></path></g><g id="svga-group-eyesiriswrapper-left" transform="matrix(1,0,0,1,0,0)"><g id="svga-group-eyesiriscontrol-left" transform="matrix(1,0,0,1,0,0)"><g id="svga-group-eyesiris-left" transform="matrix(1,0,0,1,0,0)"><path id="SvgjsPath20550" d="M80.1 88.1c3 0 5.5 2.4 5.5 5.5S83.1 99 80.1 99s-5.5-2.4-5.5-5.5 2.4-5.4 5.5-5.4z" fill="#8ab42d" stroke-width="none" opacity="1"></path><path id="SvgjsPath20551" d="M80.1 89.1c2.5 0 4.4 2 4.4 4.4s-2 4.4-4.4 4.4-4.4-2-4.4-4.4 1.9-4.4 4.4-4.4z" fill="#000000" stroke-width="none" opacity="1"></path><path id="SvgjsPath20552" d="M74.6 93.5c0 .9.2 1.8.6 2.5.8.5 1.7.8 2.7.8 2.9 0 5.2-2.3 5.2-5.2 0-1.2-.4-2.3-1.1-3.2-.6-.2-1.3-.4-1.9-.4-3.1.1-5.5 2.5-5.5 5.5z" fill="#9cc344" stroke-width="none" opacity="1"></path><path id="SvgjsPath20553" d="M75.6 93.5c0 1.3.5 2.4 1.4 3.2.3.1.6.1.9.1 2.9 0 5.2-2.3 5.2-5.2 0-.5-.1-1-.2-1.5-.8-.6-1.8-1-2.8-1-2.5 0-4.5 2-4.5 4.4z" fill="#1e1e1e" stroke-width="none" opacity="1"></path><path id="SvgjsPath20554" d="M77.7 91.2c.6-.7 1.5-.8 2-.4s.4 1.4-.3 2c-.6.7-1.5.8-2 .4-.5-.5-.4-1.4.3-2z" fill="#2b2b2b" stroke-width="none" opacity="1"></path></g></g></g><g id="svga-group-eyesfront-left"><path id="SvgjsPath20506" d="M69.4 94.6c0 6.4 4.7 11.5 10.6 11.5s10.6-5.2 10.6-11.5S85.9 83.1 80 83.1s-10.6 5.1-10.6 11.5zm2.2-4.2c7.9-2.9 12 .2 14.3 2.8 2.4 2.6 2.3 6.6 2.3 6.6s-3.2.5-6.2.1c-2.9-.4-6.1-2.7-7.6-4.2s-2.8-5.3-2.8-5.3z" fill="#ffe4d1" stroke-width="none" opacity="1" stroke="none"></path><path id="SvgjsPath20507" d="M71.2 90.6c2.4 7.1 9.7 11.3 17.1 9.5.2-.1.2-.3.1-.4.8-3.5-1.7-7.2-4.5-9.1-3.3-2.1-9-2.9-12.4-.7-.1.1-.1.2-.1.3-.2.1-.3.2-.2.4zm.7-.2c1.6-.2 3.2-.8 4.9-.8 2.1 0 4.2.4 6 1.4 3.4 1.9 4.6 5 5.2 8.5-3.6 0-7 .1-10.2-1.7-2.8-1.6-4.8-4.3-5.9-7.4z" fill="#2c1630" stroke-width="none" opacity="1" stroke="none"></path></g></g></g><g id="svga-group-eyes-right-move" transform="matrix(1,0,0,1,0,0)"><g id="svga-group-eyes-right" transform="matrix(1,0,0,1,0,0)"><g id="svga-group-eyesback-right"><path id="SvgjsPath20499" d="M111.8 99.8s-.1-4 2.3-6.6c2.4-2.6 6.4-5.6 14.3-2.8 0 0-1.3 3.7-2.8 5.3-1.5 1.5-4.7 3.8-7.6 4.2-3 .3-6.2-.1-6.2-.1z" fill="#ffffff" stroke-width="none" opacity="1"></path></g><g id="svga-group-eyesiriswrapper-right" transform="matrix(1,0,0,1,0,0)"><g id="svga-group-eyesiriscontrol-right" transform="matrix(1,0,0,1,0,0)"><g id="svga-group-eyesiris-right" transform="matrix(1,0,0,1,0,0)"><path id="SvgjsPath20555" d="M119.9 88.1c3 0 5.5 2.4 5.5 5.5S123 99 119.9 99s-5.5-2.4-5.5-5.5 2.5-5.4 5.5-5.4z" fill="#8ab42d" stroke-width="none" opacity="1"></path><path id="SvgjsPath20556" d="M119.9 89.1c2.5 0 4.4 2 4.4 4.4s-2 4.4-4.4 4.4-4.4-2-4.4-4.4 2-4.4 4.4-4.4z" fill="#000000" stroke-width="none" opacity="1"></path><path id="SvgjsPath20557" d="M114.5 93.5c0 .9.2 1.8.6 2.5.8.5 1.7.8 2.7.8 2.9 0 5.2-2.3 5.2-5.2 0-1.2-.4-2.3-1.1-3.2-.6-.2-1.3-.4-1.9-.4-3.1.1-5.5 2.5-5.5 5.5z" fill="#9cc344" stroke-width="none" opacity="1"></path><path id="SvgjsPath20558" d="M115.5 93.5c0 1.3.5 2.4 1.4 3.2.3.1.6.1.9.1 2.9 0 5.2-2.3 5.2-5.2 0-.5-.1-1-.2-1.5-.8-.6-1.8-1-2.8-1-2.5 0-4.5 2-4.5 4.4z" fill="#1e1e1e" stroke-width="none" opacity="1"></path><path id="SvgjsPath20559" d="M117.5 91.2c.6-.7 1.5-.8 2-.4s.4 1.4-.3 2c-.6.7-1.5.8-2 .4-.4-.5-.3-1.4.3-2z" fill="#2b2b2b" stroke-width="none" opacity="1"></path></g></g></g><g id="svga-group-eyesfront-right"><path id="SvgjsPath20508" d="M120 83.1c-5.9 0-10.6 5.2-10.6 11.5s4.7 11.5 10.6 11.5 10.6-5.2 10.6-11.5-4.8-11.5-10.6-11.5zm5.6 12.6c-1.5 1.5-4.7 3.8-7.6 4.2-2.9.4-6.2-.1-6.2-.1s-.1-4 2.3-6.6c2.4-2.6 6.4-5.6 14.3-2.8 0 0-1.3 3.7-2.8 5.3z" fill="#ffe4d1" stroke-width="none" opacity="1" stroke="none"></path><path id="SvgjsPath20511" d="M128.7 90.2c0-.1 0-.2-.1-.3-3.4-2.2-9.2-1.4-12.4.7-2.8 1.8-5.4 5.6-4.5 9.1-.1.1-.1.4.1.4 7.4 1.7 14.7-2.4 17.1-9.5 0-.2-.1-.3-.2-.4zm-6.5 7.7c-3.2 1.9-6.6 1.8-10.2 1.7.6-3.6 1.8-6.7 5.2-8.5 1.8-1 3.9-1.5 6-1.4 1.7 0 3.2.6 4.9.8-1.1 3-3.1 5.7-5.9 7.4z" fill="#2c1630" stroke-width="none" opacity="1" stroke="none"></path></g></g></g><g id="svga-group-facehighlight-single"></g><g id="svga-group-eyebrows-left-move" transform="matrix(1,0,0,1,0,0)"><g id="svga-group-eyebrows-left-rotate" transform="matrix(1,0,0,1,0,0)"><g id="svga-group-eyebrows-left" transform="matrix(1,0,0,1,0,0)"><path id="SvgjsPath20438" d="M72.61 81.6c.54-.64 1.34-1.05 2.14-1.38.01-.03.02-.05.05-.08.41-.33.91-.56 1.44-.72.37-.22.82-.36 1.3-.44.02-.05.06-.11.13-.13.52-.22 1.1-.13 1.65-.05.01-.01.01-.02.02-.02.28-.21.65-.19 1.02-.1.08-.13.23-.22.39-.22.2.01.41.04.6.07.31.02.64.1.95.21.04-.01.09-.04.14-.04 1.36-.19 2.89.45 4.19.84 1.33.4 2.76.72 3.88 1.57.19.14.18.44.02.6 1.01.59 2.09 1.34 2.52 2.36.06.06.11.14.14.24.06.07.12.15.18.23.38.42.3.94.01 1.33.18.37-.02.94-.42 1.12-.96.45-1.86-.62-2.51-1.35-.1-.07-.18-.13-.27-.19-.63-.47-1.18-.92-1.48-1.62-.16-.17-.32-.36-.47-.54-.86-.45-1.68-1-2.54-1.47-.72-.4-1.58-.74-2.25-1.25-.15-.07-.28-.17-.4-.29-.02.01-.04.02-.06.02-.54-.01-1.05-.26-1.56-.46-.65-.1-1.32-.17-1.98-.24-.27-.02-.55-.03-.83-.05-.04.03-.08.06-.14.07-.68.07-1.34.18-1.98.39-.3.09-.58.21-.87.31-.97.46-1.84 1.14-2.85 1.51-.12.01-.24-.14-.16-.23z" fill="#73625b" stroke-width="none" opacity="1"></path><path id="SvgjsPath20439" d="M78.07 79.27c3.13-1.57 6.98.79 9.72 3.13-.88-1.12-1.8-2.11-2.82-3.16-.2-.2-.01-.52.27-.43 1.3.46 2.22 1.82 2.99 2.9.79 1.13 1.55 2.27 2.54 3.23-.33-.73-.58-1.46-1.03-2.14-.42-.66-.94-1.23-1.29-1.94-.13-.26.23-.5.44-.32 1.9 1.65 2.04 4.45 3.97 5.98.09.08.07.25-.07.25-.25 0-.47-.06-.67-.16-.06-.01-.12-.03-.19-.04-.07.01-.09-.06-.07-.1-.15-.11-.3-.25-.42-.4-.03 0-.05-.01-.08-.02-.82-.45-1.48-1.04-2.06-1.72-1.63-.93-2.99-2.27-4.59-3.25-2.11-1.3-4.09-1.59-6.51-1.43-.28.02-.33-.28-.13-.38z" fill="#827874" stroke-width="none" opacity="1"></path><path id="SvgjsPath20440" d="M93.75 83.92c-1.19-1.69-3.03-3.02-4.84-3.99-7.92-4.23-18.07-1.06-21.89 7.16-.14.3.3.48.45.2.01-.01.02-.03.03-.04.03-.01.06-.03.07-.06 1.97-2.25 3.79-4.39 6.47-5.83 2.71-1.47 5.73-1.75 8.67-.8 2.79.9 4.68 2.62 6.59 4.75.9 1 2.44 2.59 3.98 2.02 1.51-.56 1.21-2.36.47-3.41zm-.47.63c-.03 1.91-.6 2.52-1.72 1.82-.68-.35-1.23-.93-1.75-1.48-1.66-1.76-3.23-3.36-5.5-4.33-2-.86-4.31-1.26-6.48-1.01-1.56.17-3.26.8-4.87 1.72 2.41-1.59 5.22-2.54 8.22-2.55 2.74-.01 5.49.74 7.86 2.12 1.36.79 2.65 1.8 3.68 3 .21.22.39.46.56.71z" fill="#644e45" stroke-width="none" opacity="1"></path></g></g></g><g id="svga-group-eyebrows-right-move" transform="matrix(1,0,0,1,0,0)"><g id="svga-group-eyebrows-right-rotate" transform="matrix(1,0,0,1,0,0)"><g id="svga-group-eyebrows-right" transform="matrix(1,0,0,1,0,0)"><path id="SvgjsPath20441" d="M127.41 81.68c-.53-.64-1.33-1.07-2.12-1.4a.177.177 0 0 0-.05-.08c-.4-.34-.9-.57-1.43-.74-.37-.22-.81-.37-1.3-.45a.25.25 0 0 0-.13-.14c-.52-.22-1.1-.14-1.65-.07-.01-.01-.01-.02-.02-.02-.28-.21-.65-.2-1.01-.11a.476.476 0 0 0-.39-.23c-.2.01-.41.03-.6.06-.31.01-.65.1-.95.2-.04-.01-.09-.04-.14-.05-1.36-.21-2.9.42-4.2.79-1.33.39-2.77.69-3.9 1.53-.19.14-.18.44-.03.6-1.01.58-2.1 1.32-2.54 2.33-.06.06-.11.14-.14.24-.06.07-.12.15-.18.23-.38.42-.31.94-.02 1.33-.18.37.01.94.4 1.12.95.46 1.87-.6 2.53-1.32.1-.07.19-.13.27-.19.64-.46 1.19-.91 1.49-1.6.16-.17.32-.36.47-.54.87-.44 1.69-.98 2.55-1.45.72-.39 1.58-.72 2.27-1.23.15-.07.28-.17.41-.29.02.01.04.02.06.02.54-.01 1.06-.25 1.56-.44.66-.1 1.32-.16 1.98-.22.27-.02.55-.03.83-.05.04.03.08.06.14.07.68.08 1.34.19 1.98.41.3.1.58.22.87.32.96.47 1.83 1.16 2.83 1.54.12.07.24-.07.16-.17z" fill="#73625b" stroke-width="none" opacity="1"></path><path id="SvgjsPath20442" d="M121.98 79.29c-3.12-1.61-6.99.71-9.75 3.02.89-1.12 1.82-2.1 2.86-3.13.2-.2.02-.52-.26-.43-1.31.44-2.24 1.8-3.02 2.87-.8 1.13-1.58 2.25-2.57 3.21.34-.73.6-1.45 1.05-2.13.43-.66.96-1.22 1.31-1.92.13-.26-.22-.5-.44-.32-1.92 1.63-2.09 4.43-4.04 5.94-.09.08-.07.25.07.25.25 0 .47-.06.67-.15.06-.01.12-.03.19-.04.07.01.09-.06.07-.1.15-.11.3-.25.43-.39.03 0 .05-.01.08-.02.83-.44 1.49-1.03 2.08-1.69 1.63-.91 3.02-2.24 4.63-3.2 2.12-1.28 4.1-1.55 6.53-1.36.25 0 .31-.31.11-.41z" fill="#827874" stroke-width="none" opacity="1"></path><path id="SvgjsPath20443" d="M106.68 87.2c1.53.59 3.09-.97 4-1.97 1.93-2.11 3.84-3.81 6.64-4.68 2.96-.93 5.97-.61 8.67.89 2.66 1.48 4.46 3.63 6.41 5.9.03.02.05.05.07.06.01.01.02.03.03.04.15.28.59.1.46-.2-3.74-8.25-13.85-11.53-21.82-7.39-1.82.95-3.66 2.27-4.88 3.94-.76 1.03-1.08 2.83.42 3.41zm.59-3.49c1.04-1.19 2.35-2.19 3.71-2.96a15.56 15.56 0 0 1 7.89-2.04c2.98.04 5.8 1.01 8.19 2.64-1.59-.93-3.28-1.58-4.85-1.77-2.16-.26-4.47.12-6.49.94-2.28.94-3.87 2.53-5.55 4.27-.53.54-1.07 1.11-1.77 1.46-1.13.69-1.7.08-1.7-1.84.18-.25.37-.49.57-.7z" fill="#644e45" stroke-width="none" opacity="1"></path></g></g></g><g id="svga-group-beardwrap" transform="matrix(1,0,0,1,0,0)"><g id="svga-group-beard-single-move" transform="matrix(1,0,0,1,0,0)"><g id="svga-group-beard-single" transform="matrix(1,0,0,1,0,0)"></g></g></g><g id="svga-group-mustache-single-move" transform="matrix(1,0,0,1,0,0)"><g id="svga-group-mustache-single" transform="matrix(1,0,0,1,0,0)"></g></g><g id="svga-group-nose-single-move" transform="matrix(1,0,0,1,0,0)"><g id="svga-group-nose-single" transform="matrix(1,0,0,1,0,0)"><path id="SvgjsPath20608" d="M108.82 114.55c-.68.35-1.95-.3-2.8-.12-.85.18-3.92 2.8-4.86 3.1-.94.3-2.83-.49-4.22-1.49-1.4-1-3.04-1.73-3.98-1.61-.94.12-2.86.27-3.16-1.19-.3-1.46 1.03-3.77 1.73-4.68.7-.91 1.32-1.79 1.9-2.22.59-.42 5.18-1.67 8.7-.94 3.53.73 4.68 1.98 5.87 3.44 1.19 1.45 2.28 4.95.82 5.71z" fill="#ffe4d1" stroke-width="none" opacity="1" transform="translate(0 1)" stroke="none"></path><path id="SvgjsPath20609" d="M93.36 106.28c-1.54 1.31-5.19 5.71-3.47 7.9.26.33.59.51.99.6 1.42.33 2.5-.24 3.96.48 1.73.86 3.1 2.49 5.1 2.76 1.63.23 2.75-.66 3.93-1.64.64-.53 1.36-1.25 2.21-1.42.64-.13 1.35.24 1.97.27.48.02.83.03 1.22-.28.9-.72.69-2.13.45-3.09-.47-1.93-1.5-3.67-3.03-4.92a.212.212 0 0 0-.3.3c1.04 1.29 1.99 2.66 2.47 4.27.36 1.23.81 2.6-1.15 2.71-.35.02-.81-.23-1.2-.22-.9.03-1.68.5-2.38 1.01-1.9 1.39-3.2 2.86-5.69 1.52-1.99-1.07-3.45-2.76-5.87-2.51-.4.07-.79.13-1.19.18-1.11-.53-1.49-1.27-1.14-2.24.17-.75.53-1.49.86-2.18.62-1.27 1.5-2.32 2.34-3.44.03-.04-.04-.09-.08-.06z" fill="#d1966d" stroke-width="none" opacity="1" transform="translate(0 1)" stroke="none"></path><path id="SvgjsPath20610" d="M93.93 108.29c-.24 3.02 2.33 5.74 5.42 5.4a.15.15 0 0 0 0-.3c-2.87-.33-4.95-2.2-5.31-5.1-.01-.07-.1-.08-.11 0z" fill="#d1966d" stroke-width="none" opacity="1" transform="translate(0 1)" stroke="none"></path><path id="SvgjsPath20611" d="M102.14 105.4c-1.12-.46-2.36-.67-3.57-.54-.92.1-2.35.65-2.03 1.85.4 1.55 2.5 1.37 3.72 1.73 1.33.39 1.81 1.66 2.97 2.26.42.22.96.19 1.3-.17 1.84-1.91-.61-4.39-2.39-5.13z" fill="#ffebde" stroke-width="none" opacity="1" transform="translate(0 1)" stroke="none"></path></g></g><g id="svga-group-hair-front" transform="matrix(1,0,0,1,0,0)"><path id="SvgjsPath20648" d="M99.9 58.5s-7.8-3.9-12.3-4.1C79.9 54.1 77.4 84 77.4 84s-3.8-13.2-.7-26.6c0 0-4.5 7.2-5.2 24.5 0 0-5.8-11.7-.2-27.5 0 0-6 8.3-7.3 37.7 0 0-1.5-6.9-1.5-9.9 0 0-2.3 16.2-1.3 24.5 0 0-2.5-4.5-3.6-10.6s-.8-9.3-.8-9.3-1 2.5-1.5 6.6c0 0-3.3-8.1-.7-20.7 0 0-3.5 8.6-4.3 14.4 0 0-1.3-5.6 1-16.1s7.2-18.3 7.2-18.3-3.1 3.6-7.3 10.9c0 0 1.1-13.5 15-24.9S86.8 31 86.8 31s-1.7-1.8-10.6-.2c0 0 5.8-3.1 14.6-3 8.8.2 10.9 5.1 10.9 5.1s3.8-4.3 12.4-5.8c0 0-2.5 2.1-3.3 3 0 0 4.3-1 11.9.3 0 0-3.6.3-4.6.8 0 0 7.1-.2 15.7 6.3s13.1 17 14.4 23.7c0 0-4.1-8.4-7.9-11.6 0 0 6.6 9.9 8.8 22.2l-2.3-3s2 8.3 1 17.5l-1.8-3.8s-.2 8.6-3.6 14.4l-.3-3.5s-.8 8.1-2.1 11.1c0 0 .2-17.4-1.7-24.7 0 0-.2 3.5-.5 6.1 0 0-1.7-12.9-4-16.1 0 0 .5 1.8-1.2 7.9 0 0-1.2-11.3-5.1-19.9 0 0 .3 12.4-.8 18.7 0 0-2.5-19.5-6.6-22.7 0 0 3 14.6-.2 24.7 0 0-1.4-23.6-7.3-24.6-6.1-.6-9 2.3-12.7 4.6z" fill="#73625b" stroke-width="none" opacity="1" stroke="none"></path><path id="SvgjsPath20649" d="M77.7 83.4c-.1-5.9.4-11.7 2.1-17.4.7-2.5 1.5-5.6 2.9-7.9 3.2-5.1 7.6-4.4 12-2.7.3.1.4-.3.2-.5-5.6-2.9-10.2-2.5-13.1 3.5-3.6 7.6-5 16.6-4.6 24.9.1.4.5.4.5.1zM81 50.9c-6.3 5.7-5.9 15.3-5 23 0 .3.5.3.5 0-.2-8.3-.4-15.8 4.8-22.8.2-.2-.1-.4-.3-.2zm4.3-5C72.4 43.8 69 58.7 70.1 68.3c0 .2.2.2.2 0-.7-9.8 2.5-23.1 14.9-22 .2 0 .3-.3.1-.4zm15.2 11.6c6.7-3.8 13.7-6.3 16.8 3.5 1.8 5.7 2 11.5 2.2 17.4 0 .3.6.4.6.1 1-6.8.6-18.5-4.7-23.6-4.6-4.6-11.2-1-15.3 2.3-.2.1.2.5.4.3zm18.9-4c4.5 8.2 6.3 15.5 7 24.8 0 .4.5.4.6 0 .9-8.6-2.1-18.2-7.2-25.1-.2-.2-.6.1-.4.3zm6.7 3.1c3.4 6.9 4.7 13.4 6.4 20.7.1.2.4.2.4-.1.3-7.2-2.7-14.9-6.4-20.9-.2-.2-.5 0-.4.3zm-26.2-4.1c-2-2.8-4.9-5.3-8.3-6.4-.2-.1-.4.3-.2.4 3.1 1.6 5.8 3.4 7.9 6.3.4.2.8 0 .6-.3zm.8-5.5c-4.1-8.5-15.1-10.7-23.2-7.1-10.4 4.6-15.2 16-15.1 26.8 0 .3.5.3.5 0 .9-9.5 4.1-19.1 12.6-24.4 8.7-5.4 18.9-3.4 24.8 4.9.2.3.6.1.4-.2zM57.1 78.1c-1.1 7.7-.5 15.6 2.5 22.8.1.3.5.1.5-.2-1.9-7.5-3-14.7-2.5-22.5.1-.3-.4-.4-.5-.1zm4 27.2c-.1-6.1 0-12.1 0-18.2 0-.3-.5-.4-.5-.1-.9 6-.8 12.3 0 18.4 0 .3.5.2.5-.1zm-9.6-43.8C54.3 54.2 58 47.4 64 42.1c6-5.3 13-8.1 20.6-10.2.2-.1.2-.5-.1-.5C69 33.2 54.7 46.3 51.3 61.5c-.1.1.1.2.2 0zm.3 1.5c2.5-4.3 5.3-7.8 8.8-11.4.2-.3-.1-.8-.4-.5-3.9 2.8-7.2 7.2-9 11.7-.2.2.4.5.6.2zm-1.2 22.9c1.1-10.6 4.4-20.1 9.6-29.3.2-.3-.2-.5-.4-.2-5.9 8.8-9.1 19.1-9.8 29.6-.1.3.6.3.6-.1zm51.2-51c1.2-1.5 2.6-2.9 4.3-4 1.7-1.1 3.6-1.5 5.5-2.1.3-.1.3-.6-.1-.6-4.1-.1-8.2 2.9-10.1 6.4-.1.2.2.5.4.3zm6.6-1.8c17.1-3.6 30.8 12.9 36.2 27.1.1.4.7.2.6-.2-3.8-14.4-20.6-32.6-37-27.6-.4.2-.3.8.2.7zm31.9 28.5c1.6 1.7 3.3 3.4 4.7 5.3 1.3 1.7 2.4 3.6 3.8 5.3.2.2.5 0 .4-.2-1.4-4-5.2-8.1-8.5-10.8-.3-.2-.7.2-.4.4zm2.8 3.1c3.6 7.4 4 13.7 3.7 21.8 0 .3.4.3.5.1 2.4-7.1.3-16-3.7-22.1-.3-.4-.7-.2-.5.2zm-5.3 12.4c2.3 8.7 2.7 17.2 2.2 26.2 0 .3.6.4.6.1 1.4-8.8.3-17.9-2.4-26.4 0-.2-.4-.1-.4.1zM102 49.5c8.8-11.4 22.7-5.1 28.8 5.1.2.3.6 0 .4-.3-5.2-11-22.1-17.7-29.7-5.1-.1.4.3.6.5.3zm-.9-9.3c-.8-1.2-2-2.5-3.4-3-.2-.1-.3.2-.2.4.6.5 1.3.8 1.9 1.3.6.5 1 1 1.5 1.5.1.1.3-.1.2-.2zm37 25.1c2.7 6.8 3.6 13.8 4 21.1 0 .3.5.3.5 0 .4-7.4-1.3-14.4-4.1-21.2-.1-.2-.5-.1-.4.1z" fill="#644e45" stroke-width="none" opacity="1" stroke="none"></path><path id="SvgjsPath20650" d="M98.1 54.6c-5.3-8.5-17.3-8.2-22.7-.1-.1.1.1.3.2.2 6.2-7.3 15.9-6.8 22 .3.2.3.7-.1.5-.4zM81.2 56c-2.6 4.5-3.8 9.4-3.3 14.6 0 .3.4.3.4 0 .1-5 1.1-9.9 3.2-14.5.1-.1-.2-.2-.3-.1zm17.3-7.7c-4.7-8.9-15.9-9.5-23.5-3.9C64.8 52 63.6 66.2 63.6 77.9c0 .3.4.3.5 0 .7-9.3.9-19.1 6.2-27.2 6.2-9.6 21.4-14.1 27.9-2.1.1.1.5-.1.3-.3zm-5.4-11c-7-2.5-15.3-1.5-20.8 3.7-.2.2.1.5.3.4 6.4-4 13-5.8 20.4-3.7.2.1.3-.3.1-.4zm-4.7-3.9c-1.8-.5-3.8-.5-5.6.3-.2.1-.1.4.1.3 1.8-.5 3.5-.7 5.3-.2.4.1.5-.3.2-.4zm13.9 20.1c4.9-3.9 10.2-5.2 16.3-4.6.4 0 .4-.5.1-.6-5.9-1.6-12.6.5-16.9 4.7-.3.3.2.8.5.5zm2.2-4.6c1.6-1.4 3.3-1.9 5.3-2.3.2-.1.2-.4-.1-.4-2.1 0-4.1 1.1-5.6 2.5-.2.1.2.4.4.2zm0-6.7c5.2-4.3 11.5-4.8 17.7-2.5.3.1.6-.4.2-.6-5.9-3.4-13.5-1.9-18.3 2.7-.2.3.2.6.4.4zm5.1-6c1.3-.9 2.9-1.2 4.5-1 .3 0 .3-.4.1-.5-1.7-.4-3.4.1-4.8 1.1-.3.2-.1.6.2.4zm27.9 24.3c4.4 9.2 5.4 17.8 6 27.8 0 .2.3.3.4.1 1.5-9.5-1.4-19.8-5.9-28.1-.2-.3-.6-.1-.5.2zm5.1-3c.4 1.4.7 3.1 1.4 4.4.1.3.5.1.5-.2-.2-1.5-.9-2.9-1.4-4.3-.2-.3-.6-.2-.5.1zM59.7 91c-.1-2.9-.1-5.8-.2-8.7 0-.2-.2-.2-.2 0 0 2.9.1 5.8.2 8.7-.1.2.2.2.2 0z" fill="#827874" stroke-width="none" opacity="1" stroke="none"></path></g><g id="svga-group-glasses-single-move" transform="matrix(1,0,0,1,0,0)"><g id="svga-group-glasses-single" transform="matrix(1,0,0,1,0,0)"></g></g></g></g></g><rect id="svga-credit-rect" width="200" height="15" x="0" y="185" fill="#ecf0f1" opacity="0.5" style="display: none;"></rect><text id="svga-credit-text" font-family="Avenir Next, Roboto, Helvetica, Arial, sans-serif" font-size="10px" text-anchor="start" font-weight="400" size="10px" anchor="start" weight="400" fill="#333333" x="33.40447998046875" y="182.60824704170227" style="display: none;"><tspan id="SvgjsTspan19972" dy="13" x="33.40447998046875">Created on AvatarMaker.com</tspan></text></g></svg>