<svg xmlns="http://www.w3.org/2000/svg" version="1.1" width="600px" height="600px" viewBox="0 0 200 200" style="overflow:hidden!important;"><defs id="SvgjsDefs24640"></defs><g id="svga-group-wrapper"><g id="svga-group-backs-single"><path id="SvgjsPath25323" d="M0 0h200v200H0V0z" fill="#774f38" stroke-width="none" opacity="1"></path><path id="SvgjsPath25324" d="M100 124.2c-13.3 0-24.2-10.8-24.2-24.2S86.7 75.8 100 75.8s24.2 10.8 24.2 24.2-10.9 24.2-24.2 24.2zm0-42.4c-10 0-18.2 8.2-18.2 18.2s8.2 18.2 18.2 18.2 18.2-8.2 18.2-18.2S110 81.8 100 81.8zm0 57.4c-21.6 0-39.2-17.6-39.2-39.2S78.4 60.8 100 60.8s39.2 17.6 39.2 39.2-17.6 39.2-39.2 39.2zm0-72.4c-18.3 0-33.2 14.9-33.2 33.2s14.9 33.2 33.2 33.2 33.2-14.9 33.2-33.2-14.9-33.2-33.2-33.2zm0 87.5c-29.9 0-54.3-24.4-54.3-54.3S70.1 45.7 100 45.7 154.3 70 154.3 100s-24.4 54.3-54.3 54.3zm0-102.6c-26.6 0-48.3 21.7-48.3 48.3 0 26.6 21.7 48.3 48.3 48.3 26.6 0 48.3-21.7 48.3-48.3 0-26.6-21.7-48.3-48.3-48.3zm0 116.4c-37.6 0-68.1-30.6-68.1-68.1S62.4 31.9 100 31.9s68.1 30.6 68.1 68.1-30.5 68.1-68.1 68.1zm0-130.2c-34.2 0-62.1 27.9-62.1 62.1s27.9 62.1 62.1 62.1 62.1-27.9 62.1-62.1-27.9-62.1-62.1-62.1zm0 146.2c-46.4 0-84.1-37.7-84.1-84.1S53.6 15.9 100 15.9s84.1 37.7 84.1 84.1-37.7 84.1-84.1 84.1zm0-162.2c-43.1 0-78.1 35-78.1 78.1s35 78.1 78.1 78.1 78.1-35.1 78.1-78.1-35-78.1-78.1-78.1zm0 90c-6.6 0-11.9-5.4-11.9-11.9 0-6.6 5.4-11.9 11.9-11.9 6.6 0 11.9 5.4 11.9 11.9 0 6.6-5.3 11.9-11.9 11.9zm0-17.8c-3.3 0-5.9 2.7-5.9 5.9 0 3.3 2.7 5.9 5.9 5.9 3.3 0 5.9-2.7 5.9-5.9 0-3.3-2.6-5.9-5.9-5.9zM0 146.7v12.8c9.9 16.6 23.9 30.6 40.5 40.5h12.8C29.9 189 11 170.1 0 146.7zm200 0c-11 23.4-29.9 42.3-53.3 53.3h12.8c16.6-9.9 30.6-23.9 40.5-40.5v-12.8zm0-93.4V40.5C190.1 23.9 176.1 9.9 159.5 0h-12.8C170.1 11 189 29.9 200 53.3zm-200 0C11 29.9 29.9 11 53.3 0H40.5C23.9 9.9 9.9 23.9 0 40.5v12.8zm200 36.3C195.1 42.5 157.6 4.9 110.4 0H89.6C42.5 4.9 4.9 42.5 0 89.6v20.8c4.9 47.1 42.5 84.7 89.6 89.6h20.8c47.1-4.9 84.7-42.4 89.6-89.6V89.6zM100 194.5c-52.1 0-94.5-42.4-94.5-94.5S47.9 5.5 100 5.5s94.5 42.4 94.5 94.5-42.4 94.5-94.5 94.5zM0 176.2v9.5c4.4 5.1 9.1 9.9 14.3 14.3h9.5c-9-6.8-17-14.8-23.8-23.8zm200 0c-6.8 8.9-14.8 16.9-23.8 23.8h9.5c5.1-4.4 9.9-9.1 14.3-14.3v-9.5zM0 23.8c6.8-9 14.8-17 23.8-23.8h-9.5C9.1 4.4 4.4 9.1 0 14.3v9.5zm200 0v-9.5c-4.4-5.1-9.1-9.9-14.3-14.3h-9.5c9 6.8 17 14.8 23.8 23.8z" fill="#683e26" stroke-width="none" opacity="1"></path></g><g id="svga-group-humanwrap-move" transform="matrix(1,0,0,1,0,0)"><g id="svga-group-humanwrap" transform="matrix(1,0,0,1,0,0)"><g id="svga-group-hair-back-move" transform="matrix(1,0,0,1,0,0)"><g id="svga-group-hair-back" transform="matrix(1,0,0,1,0,0)"><path id="SvgjsPath25392" d="M161 137.8c-.7-.5-1.4-1.1-2-1.6-2.1-4.4-4.2-8.8-6.1-13.2-1.7-5.2-2.4-10.4-2.7-15.6.2-2.2.3-4.3.5-6.5v.2c-.2 11.1 2.8 22 9.3 31.1.2.3.7 0 .5-.3-6.9-11.5-9.4-23.3-8.5-36.6.3-4.3.4-8.6.3-12.8.3-4 .2-8-1-11.6-.4-2.5-.9-5-1.6-7.6V63c-.7-4.5-1.4-8.8-5-11.9-.2-.2-.5.1-.3.3 4.1 3.9 4.4 10.2 5.1 15.5v.2c-.1.1-.1.1-.1.2l.3 3.3c-.1-.3-.6-.1-.5.2.1.3.2.6.3.8.1 1.4.1 2.9 0 4.3-.3 0-.5-.1-.8-.1.1-2.4.1-4.8.1-7.1 0-.6-.9-.6-.9 0 0 .9-.1 1.8-.1 2.7-.2 0-.3.2-.3.4.1 1.1.1 2.1.1 3.2 0 .3 0 .6-.1.9-.8.1-1.5.2-2.1.2-4.6.2-9.2.3-13.9.4a1109.663 1109.663 0 0 1-51.6 0c-8.7-.2-17.6-1-26.2-.5v-.1c-.2-.4-.7-.4-.9 0-.2-.1-.4-.1-.6 0-.2-.4-.9-.4-1 .1-.5 2.6-.9 6.1-.6 9.1-.1 7.4.5 14.7 0 21.9-.2 1.3-.4 2.7-.6 4 .9-9.7.9-19.6 0-29.1.4-13.9 1.3-30.4 15.9-36.8.2-.1.1-.4-.1-.3-11.6 4-15.4 16.8-16.2 27.8-.1 1.1-.2 2.3-.2 3.4v-.2c0-.2-.4-.2-.4.1.1 2.1.1 4.2.2 6.3-.2 5.1-.3 10.1-.9 15.1-1.1 9.1-3.5 17.8-5.8 26.6-.1.3.4.4.5.1 3.5-8.9 5.4-18.5 6.4-28.1-.1 8.5-.5 16.9-1.3 25.5 0 .1-.1.3-.1.4 0 .1-.1.3-.1.4v.3c-.6 2.8-1.3 5.7-1.8 8.6-.1.5.2.8.5.9-.6 2-1.2 4.1-1.8 6.1-.1.3.4.4.5.1.2-.6.4-1.1.6-1.7-.3 1-.5 2-.8 3-.1.3.3.4.4.1 1.7-4.7 3.2-9.5 4.3-14.3.8-2.7 1.5-5.4 2.1-8.3.4-1.2.7-2.3 1-3.5-.1 1.2-.2 2.5-.3 3.7-.3 1.7-.7 3.3-1 4.9-.1-.1-.3 0-.3.1-2.5 8.1-4.9 16.4-6.9 24.6-.1.4.4.5.5.1.6-2 1.2-3.9 1.8-5.9.2.4.8.5 1 .1.5-.9.9-1.9 1.3-2.9-1.2 3.7-2.4 7.4-3.7 11.1-.1.2.3.4.4.2 2.4-5.6 4.2-11.4 5.7-17.3-.4 2-.9 4-1.4 5.9-.1.4.2.6.5.7-1 3.4-1.9 6.7-2.8 10.1 0 .2 0 .3.1.5-.1.2-.2.4-.2.6-.1.3.4.5.5.2.1-.1.2-.3.2-.5.3.1.5 0 .7-.3 2.3-4.7 4-9.8 5.2-15 .8-2.1 1.5-4.3 2-6.6v.7c-.8 4.1-1.7 8.1-2.7 12.2-1.3 4.1-2.8 8.2-4.1 12.3-.1.3.4.5.5.2.5-1.1 1-2.2 1.4-3.4-.1.4-.2.9-.3 1.4-.1.6.3 1 .8 1 0 .2-.1.4-.1.6 0 .2.3.5.5.2.2-.6.5-1.2.7-1.8.9-1.8 1.8-3.7 2.5-5.6-.1.4-.2.9-.3 1.3s.2.8.6.8c-.5 2.1-1 4.3-1.4 6.5 0 .3.3.4.4.1 1-2.8 1.7-5.6 2.2-8.4.7-1.6 1.4-3.4 2-5.1-1 4.9-2.3 9.6-3.3 14.5-.1.4.4.5.5.1 1.4-4.1 2.2-8.4 3-12.7-.1 1.4-.2 2.7-.3 4-.8 4-1.7 7.9-2.1 11.9 0 .3.4.3.5.1.4-1.5.8-3 1.1-4.5.4.2.9.1 1.2-.4 0-.1 0-.1.1-.1s.1-.1.2-.1l-.3 2.1c0 .5.4.8.8.8 0 .3-.1.6-.1.8 0 .3.4.4.5.1.2-.6.4-1.2.6-1.9.4-.8.8-1.6 1.1-2.4-.3 1.6-.7 3.1-.9 4.7-.1.4.4.5.5.1.8-2.2 1.3-4.6 1.7-6.9v.7c0 .1.1.3.1.4-.5 2.1-1.1 4.1-1.6 6.2-.1.3.4.6.6.2.8-1.9 1.4-4 1.8-6.1.2-.1.5-.2.6-.5 0-.1.1-.1.1-.2v.8c0 .3.2.5.4.6-.3 1.6-.6 3.3-.6 4.9 0 .4.5.4.7.1.6-1.8.8-3.6 1.1-5.5.2-.3.3-.6.5-1-.1 1.8-.1 3.6 0 5.3 0 .6.6.9 1.1.9 0 .6-.1 1.3-.1 1.9 0 .4.6.5.7.1.3-1.4.5-2.8.7-4.3.1-.2.1-.4.2-.5.1 2.3.1 4.6.2 7 0 .2.4.3.4.1.3-1.7.4-3.4.4-5.2h.1c0 1.3.1 2.5.2 3.8 0 .4.6.4.6 0 .2-1.5.3-3 .3-4.5l.3-1.5c.1 1.8.3 3.6.6 5.3.1.4.7.3.7-.1v-1.8c.2.2.5.2.7-.1.5-1.2.9-2.5 1.3-3.8.2 0-.1 5.2.7 4.8.8-.4 1.8-5.8 2.3-6.7 6.2-5.1 15.9-7.3 23.2-7.4 9.2-.1 22.3 19.6 26.3 17.6 1.6.5-1.9-6.4-.5-6.6.5 2.3 1.4 4.5 2.6 6.5.1.1.4.1.3-.1-.5-1.3-1-2.6-1.4-3.8 0 0 0 .1.1.1.5.7 1.4.3 1.3-.6-.3-1.7-.8-3.4-1.3-5 1 2.3 2.4 4.4 4.4 5.9.6.4 1.6.1 1.3-.8-.6-1.4-1.2-2.8-1.9-4.2.6.8 1.3 1.4 2.1 2.1.3.2.6.3.9.2.3.4.6.9.9 1.3.2.3.7-.1.5-.4-.3-.5-.5-.9-.8-1.4.1-.2.1-.5 0-.9-.6-1-1.1-2-1.7-3 .5.5 1 1 1.5 1.4.3.2.6.3.9.2.9 1.1 2 2 3.2 2.7.2.1.5-.2.3-.4-.9-1-1.8-2-2.6-3 .1-.2.1-.5-.1-.8l-.6-.9c.8.8 1.7 1.5 2.6 2.1.1 0 .1.1.2.1s.1.1.2.1c.8.5 1.7 1 2.6 1.4.4.2.8-.4.4-.6-1.1-.8-2.1-1.6-3.1-2.5 1.5.9 3.1 1.5 4.9 1.5.3 0 .4-.5.1-.6-2.7-.7-4.9-1.9-6.9-3.8 1 .6 2.1 1.1 3.3 1.5 1.6 1.1 3.3 1.9 5.1 2.4.4.1.6-.4.3-.6-1.4-.8-2.8-1.6-4-2.5v-.4c.4.2.7 0 .8-.4.8.7 1.6 1.3 2.6 1.7h.2c.7.3 1.5.4 2.3.5.3 0 .4-.4.3-.6.6.2 1.3.3 1.9.3.4 0 .4-.5.1-.6-.4-.1-.8-.3-1.2-.4.3-.1.5-.4.6-.7.7.2 1.4.2 2.2.2.4 0 .4-.5.1-.6-.6-.2-1.2-.5-1.8-.7.7.1 1.4.1 2.1 0 .3-.1.3-.5 0-.6-1.2-.2-2.5-.7-3.9-1.4.1-.1.2-.2.2-.4 1.9.7 3.8 1.1 5.2 1.2.3 0 .4-.4.1-.6-1.1-.4-2.9-.9-4.6-1.6.3 0 .5-.2.6-.5.8.5 1.4-.5.9-1.2-.1-.2-.3-.3-.4-.5.3.2.6.5 1 .7.3.2.6.1.8-.1.7.6 1.4 1.1 2.1 1.6.6.4 1.1-.4.7-.9-.2-.2-.3-.4-.5-.5.8.4 1.7.7 2.6.9.3.1.5-.4.2-.5-2.1-1.3-4.1-2.6-5.9-4.2.3.1.6.1.8 0 1.1 1 2.3 2 3.5 2.9.5.4 1.1-.4.7-.9-1-1.2-2.1-2.3-3.1-3.4.1-.1.2-.3.1-.6 1.3 1.6 2.7 3 4.2 4.3.4.3 1.2-.1.8-.6-.7-1-1.4-1.9-2.2-2.9 1 .9 2.1 1.7 3.3 2.3.3.2.7-.2.4-.5-.9-.9-1.7-1.7-2.5-2.6.2 0 .4-.2.4-.4 0 0 .1 0 .1.1.1.1.1.1.2.1.7.4 1.4.7 2.2 1-.7.4-.4 0-.6-.2zm-9.9-53c0-.8-.1-1.6-.2-2.3.1.1.2.2.4.1-.1.7-.1 1.5-.2 2.2zm.3-4.6c0 .5 0 1-.1 1.6 0-.6-.1-1.2-.1-1.8l.2-.2v.4zm-.8-9.1c.3 1.9.5 3.9.6 5.9-.1-.1-.1-.2-.2-.2-.2-2.1-.3-4.1-.6-6.2.1.2.1.3.2.5zm-97.6 41v-.9c.3-1.7.6-3.5.8-5.3v.5c-.2 1.8-.5 3.8-.8 5.7zm4.3 24.7.6-4.2c.1 0 .2.1.4.1-.3 1.3-.7 2.7-1 4.1zm76.6 2.5c-.1-.2-.1-.4-.2-.6 1.1 2.1 2.5 4.2 4.1 6-1.6-1.5-2.9-3.3-3.9-5.4zm14.2 4.5c-.1-.1-.1-.2-.2-.3.4.2.7.5 1.1.7-.3-.1-.6-.2-.9-.4z" fill="#fef6e1" stroke-width="none" opacity="1" stroke="none"></path><path id="SvgjsPath25393" d="M50.1 130.6c2-9 2.8-18.4 2.9-27.6 0-.4-.5-.4-.6 0-.3 3.9-.7 7.7-1.1 11.6 0-3.8-.5-7.7-1.1-11.5-.1-.5-.8-.3-.7.2.8 5.4.8 10.7 1 16.1 0 .2.1.2.2.2-.4 3.6-.9 7.3-1.3 10.9.1.3.6.4.7.1zm105.7 6.3c-3.7-7-6.6-13.8-8.2-21.3-.8-7.7-1.1-15.3-1.4-23.2 0-.7-1-.7-1.1 0-.6 5.5-.6 11.1 0 16.6-.1-.2-.4-.1-.4.1.1 4.9 1 9.9 2.5 14.7-.5-1.2-.9-2.3-1.2-3.5-.7-2.4-1.2-5-1.5-7.6 0-.1-.1-.2-.2-.2-.1-.8-.2-1.7-.3-2.6 0-.1-.1-.2-.2-.2-.3-2.8-.5-5.6-.6-8.5 0-.7-1-.7-1 0-.6 5.1-.2 10.3 1 15.3.2 2.4.7 4.7 1.4 7-1.3-3-2.1-6.2-2.3-9.9 0-.3-.5-.3-.5 0v1.9c-.1.1-.1.1-.1.2.1.3.1.7.2 1.1.1 1.7.5 3.3.9 4.9-1.9-5-3.1-10.3-3.6-16-.1-.6-.9-.6-1 0-.5 10.2 3.6 20 10 27.7v.1c-3.5-3.9-6.4-8.2-8.6-13.3-.1-.3-.6-.1-.5.2.6 1.7 1.3 3.4 2.2 5.1-3.5-5.6-6-11.7-6.8-18.7-.1-.6-1-.6-.9 0 0 .6.1 1.2.1 1.7-.2-.1-.4-.1-.5.2-.1.8-.1 1.5-.1 2.2-.2-2.1-.3-4.3-.2-6.4 0-.3-.4-.3-.4 0-.7 7.6.2 15.1 2.6 22-1.9-4.1-3.5-8.4-4.5-13-.1-.5-.8-.3-.7.2 1 7.1 3.2 14 6.9 20.1-.1.1-.1.2 0 .3.4.6.9 1.2 1.4 1.7 1.3 1.9 2.8 3.6 4.4 5.2-1.6-1.5-3.1-3.1-4.5-4.9-3.9-5.9-7.1-12-8.6-19.1-.1-1.8-.2-3.5-.3-5.3 0-.6-.9-.6-1 0-.1 1.8-.2 3.5-.2 5.3-.1-.4-.1-.7-.2-1.1 0-.3-.6-.4-.6 0 .1 1.8.2 3.5.4 5.3.1 1.3.3 2.5.5 3.7.1 2.7.5 5.3 1 7.9-1.3-4.8-2.3-9.6-2.7-14.8 0-.6-.9-.6-.9 0 .2 4.9.7 10 1.8 14.8-1.1-4.1-2-8.2-2.3-12.5 0-.2-.1-.3-.2-.3v-.4c0-.3-.5-.4-.5-.1-1.3 7-1.4 14.6 0 21.8-2.2-10.4-2.7-20.8-1.2-31.6 0-.3-.5-.4-.6-.1-3 13.2-2 27.6 3.2 40.2-4.4-8.8-4.5-18.1-5.3-27.9-.1-.6-.9-.6-.9 0-.7 10.4.2 21.7 6.8 30.2.2.2.5.2.6 0 .2.1.4-.1.3-.3-.7-2.3-1.3-4.5-1.9-6.8.7 2.4 1.5 4.8 2.5 7 .2.4.7.2.8-.1.4 1.6 1.1 3 2.6 3.7.4.1.6-.4.4-.6-1.5-1.5-2.1-4.2-2.6-6.4.8 2.5 2 4.9 3.8 6.7.2.2.6 0 .5-.3-1.1-2.9-2.5-5.6-3.4-8.7.8 2.4 1.8 4.6 3.1 6.8.2.4.9.1.7-.3l-.9-2.4c.4.8.9 1.5 1.5 2.2.2.2.6 0 .5-.3-.6-1.9-1.3-3.8-1.9-5.7.3.6.6 1.1.9 1.6.2.4.9.1.7-.3l-.3-.9c1.2 2.4 2.6 4.8 4.2 7 .3.4.9 0 .6-.4-1.7-2.9-3.1-5.9-4.4-8.9.7 1.1 1.5 2.2 2.4 3.3 1.1 1.8 2.3 3.5 3.6 5.2.4.5 1.2 0 .9-.5-2-2.8-3.7-5.7-5.1-8.7 1.7 2 3.6 3.9 5.6 5.6.3.3.7-.1.4-.4-1.3-1.5-2.6-2.9-3.8-4.3.1-.1.1-.2 0-.3-.4-.6-.9-1.2-1.3-1.8 2.1 2.8 4.7 5.2 7.6 7.1.3.2.6-.2.4-.5-3.3-3-6.2-6.1-8.6-9.6l.1-.1c2.4 3.2 5.3 6.1 8.6 8.4.4.2.8-.3.5-.6-1.2-1.1-2.4-2.2-3.5-3.4 1.3 1.3 2.7 2.4 4.2 3.5.3.2.7-.3.4-.5-2.9-2.7-5.6-5.5-8-8.4.2.2.4.1.6 0 2.1 2.6 4.5 4.9 7.2 6.6.5.6 1 1.1 1.6 1.7.4.4.9-.2.6-.6-.1-.1-.1-.1-.1-.2.2-.1.3-.4 0-.6-.6-.4-1.1-.9-1.6-1.3-.2-.2-.3-.4-.5-.6 1 .8 2 1.5 3.1 2.2.3.2.6-.2.4-.4-.6-.6-1.2-1.1-1.8-1.6.3 0 .5-.4.2-.7-9-9.2-13.5-20.5-14.4-33.1.8 6 2.8 11.9 6 17 2.6 5.6 6.8 10.5 12.4 13.2.3.1.5-.2.2-.4-2.7-1.9-5.2-4-7.3-6.4 1.1 1 2.2 1.9 3.5 2.7.2.1.4.1.5-.1 1.6 1.5 3.3 2.9 5.2 4.1.3.2.6-.2.4-.5-.2-.1-.3-.3-.5-.4-.7-1-1.4-1.9-2.1-2.9.1 0 .1-.1.1-.1.2.3.4.5.6.8.3.3.8-.1.6-.4-.4-.6-.7-1.1-1-1.7h.1c.6.8 1.1 1.6 1.7 2.4.2.3.7-.1.5-.4-.6-1-1.1-2-1.6-3 .6 1 1.2 2 1.9 3-.1.6.5.3.3-.1zm-29.2 4.5c0 1.4.2 2.8.3 4.2-.7-3.4-1.3-6.8-1.7-10.2.4 1.9.8 4 1.4 6zm5.2-11-.9-2.1c-.1-.7-.2-1.3-.3-2 .1.3.2.5.3.8-.1.1-.1.1-.1.2 1.6 4.1 3.7 8 6.3 11.5-2-2.6-3.8-5.4-5.3-8.4zm10.7 10.7c.1.1.1.1.2.1l.3.3c-.1-.1-.3-.3-.5-.4zm3 .8c-.8-.7-1.6-1.4-2.3-2.1-.6-1-1.3-1.9-1.9-2.9 1.3 1.8 2.7 3.5 4.2 5zm9.1-11.3c-2.3-4.7-4-9.2-5.1-14 .2 0 .4-.1.3-.3-.9-4.7-1.6-9.3-1.4-14.1 0-.3-.5-.3-.5 0 0 .6-.1 1.2-.1 1.8-.1 0-.2.1-.2.2-.7 9.2 1.2 18.9 6.5 26.6.2.3.6.1.5-.2zm-5.4-40.3c.5-1.9.8-3.9.8-5.9 0 1.9.1 3.7-.2 5.6 0 .3.4.4.4.1.5-2.1.8-4.5.3-6.7-.1-.3-.6-.2-.6.1 0-.9-.1-1.9-.2-2.8-.1-.4-.6-.4-.6 0-.1 3.2-.4 6.3-.6 9.5.2.4.6.4.7.1zm-96-1.7c-.1-.7-.1-1.4-.2-2.1.1.6.2 1.3.2 1.9 0 .3.6.4.6 0-.2-2.8-.2-5.7-.7-8.5 0-.1-.1-.2-.2-.2v-1.4c0-.3-.5-.4-.5-.1-.6 3.5-.4 6.9.2 10.4.1.4.7.4.6 0zm-2.1.2c-.2-4.4-.2-8.7-.2-13.1 0-.3-.5-.4-.5-.1-.8 4.3-.6 8.9.4 13.2 0 .2.3.2.3 0zM78 120.2c-.1 11 .6 21.7-3.2 32.2.2-1 .4-2.1.5-3.1 2-10 2.5-20.3 1.5-30.5 0-.1 0-.1-.1-.1v-.4c-.1-.4-.7-.5-.7 0 0 2.9 0 5.7-.1 8.6-.1-1.5-.2-3-.4-4.6-.1-.5-.8-.5-.8 0 0 7.4.3 14.8-.1 22.1-.2 1.5-.4 3-.7 4.4.8-7.7 1-15.5.5-23.3-.2-5.3-.9-10.6-2.1-15.7-.1-.6-1.1-.4-1 .1.1 1.4.2 2.9.3 4.3-.1-.3-.1-.6-.2-.9-.1-.5-.8-.5-1-.1-.2-1.6-.4-3.2-.7-4.8-.1-.6-1.1-.4-1 .1 0 1.2.1 2.4.2 3.7-.4-2.7-.9-5.3-1.6-7.9-.1-.6-1.1-.5-1 .1.1.9.2 1.9.3 2.8-.2 0-.4.2-.4.5-.1.9-.1 1.8-.2 2.7-.1-.9-.2-1.7-.3-2.6-.1-.4-.7-.3-.7.1 0 .7 0 1.4.1 2.1-.4-3.3-1-6.5-2-9.7-.1-.4-.7-.2-.7.2v.2c-.2-.2-.6-.1-.8.1 0-.9-.1-1.8-.1-2.7 0-.5-.8-.6-.8 0-.1 1.7-.2 3.4-.2 5.1-.1-.5-.2-1-.3-1.6-.1-.4-.8-.3-.8.1.1 2.5.2 5 .2 7.5-.3 0-.5.2-.5.6l-.3 3.6c-.2 0-.3.1-.3.3 0 1.7-.1 3.3-.2 4.9 0 .3-.1.6-.1.9 0-1.3-.1-2.6-.2-3.9.5-6.5.5-13-.2-19.5-.1-.7-1.1-.7-1.1 0 0 1.7-.1 3.4-.1 5.2-.2-2.5-.5-4.9-1-7.3-.1-.5-.9-.4-.9.1.3 5.1.4 10 .3 14.9-.2-.1-.5-.1-.5.2-.5 8.7-1.6 17-3.4 25.6-.1.5.6.7.8.2.1-.3.2-.6.2-.8 0 .3.3.5.6.4-.9 3.7-1.8 7.3-2.8 11.1-.1.4.5.7.7.3 1.4-3.3 2.5-6.7 3.5-10.2-.5 3.2-1 6.3-1.6 9.6 0 .1-.1.2-.1.3-.1.4.5.6.6.3 1.3-3.1 2.5-6.5 3.3-9.9-.4 2.4-.9 4.9-1.5 7.4-.1.5.6.7.8.2.3-1 .6-1.9.9-2.9-.1.5-.2 1.1-.4 1.6-.1.4.5.6.6.2.8-2.1 1.4-4.2 1.9-6.4 0 .3-.1.6-.1.9 0 .4.5.6.8.3-.4 1.9-.9 3.9-1.4 5.9-.1.3.4.4.5.1 2.5-6.2 3.5-13.1 3.5-19.8 0-.2-.3-.2-.3 0-.4 4.2-1.1 8.3-2 12.4 1.3-7.1 2.1-14.5 1.9-21.8 0-.8.1-1.6.1-2.3.6 7.9.7 15.7-.1 23.6-.5 3.3-1.2 6.5-1.8 9.8-.1.3.3.4.4.1 1.5-4 2.3-8.3 2.6-12.6.4-3.2.7-6.4.7-9.6.2 2.2.3 4.4.4 6.6-.8 5.5-1.8 11-3.1 16.5-.1.3.4.4.5.1 1-3 1.8-6.1 2.3-9.2-.5 5.7-1.4 11.2-2.8 16.9-.1.3.4.5.5.1 1.6-4.4 2.7-9.2 3.1-14-.3 4.3-1 8.6-1.7 13.1-.1.4.4.5.6.2.1-.2.1-.4.2-.5.1.1.2.1.3-.1.5-1.2.9-2.5 1.3-3.7.2.2.6.2.7-.2.4-2.4.8-4.9 1-7.4.2-1.8.4-3.7.5-5.6 0-.1 0-.1-.1-.1.1-1.9.1-3.8.2-5.6 0-.2-.1-.3-.2-.3 0-1.4-.1-2.9-.1-4.3.2 2.3.5 4.6.7 6.9-.3 5.2-.6 10.3-.9 15.5-.2 1-.4 2.1-.6 3.1-.1.3.3.4.4.1.1-.5.3-.9.4-1.4.1 0 .2-.1.2-.2.1-.4.2-.9.3-1.4.1 0 .1.1.2.1-.3 2.4-.5 4.7-.6 7.1 0 .4.6.5.7.1.6-2.9 1.1-5.9 1.5-8.9-.1 1.6-.2 3.1-.4 4.7 0 .3.4.3.5.1.8-3.9 1.2-7.8 1.3-11.8 0 2.9.1 5.9.1 8.8-.1 1.9-.1 3.9-.1 5.8 0 .2 0 .5-.1.7 0 .1 0 .1.1.2v.4c0 .6.8.5.8 0 .2 0 .3-.1.3-.3 1-6 1.2-12.6.8-19 .1-.7.1-1.4.1-2.1.1 2.9.2 5.9.2 8.9 0 .1.1.2.1.3-.2 3.7-.4 7.4-.7 11.1 0 .5.7.6.8.1.3-1.8.5-3.6.7-5.4 0 .1.1.3.2.3-.2 1.5-.4 3-.7 4.5-.1.7.9 1 1.1.3l.3-1.5c.1.2.5.4.6.1 4.5-10.2 4.6-21.7 3.4-32.7 0-.5-.7-.5-.7 0zm-21.9-6.4v-.7c0-.2.1-.5.1-.7-.1.4-.1.9-.1 1.4zm5.6-7c0-.1-.1-.1-.1-.2v-2.9c.1 1.3.2 2.6.3 3.8-.1-.2-.2-.5-.2-.7zm3.5 22.2c-.1-.4-.1-.9-.2-1.3.1-.7.1-1.3.2-2v3.3zm-1-2.7s-.1 0 0 0c-.1-2.2-.1-4.4-.1-6.7.1 2.2.1 4.4.1 6.7zm-.1.7v-.1.1zm.3 9.7c0-1.3 0-2.6-.1-3.9 0-.2 0-.3.1-.5.1 1.5.1 3 0 4.4zm6-4.5v-.4c0-.1 0-.1-.1-.2v-1c0-1.5 0-3.1.1-4.6v6.2z" fill="#efe1bc" stroke-width="none" opacity="1" stroke="none"></path></g></g><g id="svga-group-humanbody-back"><path id="SvgjsPath25041" d="M166.5 181.1c-10.9-6.6-27.6-8.4-35-12.1-4.9-2.5-9.1-4.7-8.9-17.8s1.9-42.4 1.9-42.4H75.4s1.6 29.4 1.9 42.4-4.2 15.6-8.9 17.8c-7.4 3.5-24.1 5.4-35 12.1-10.8 6.6-10 18.9-10 18.9v19.7h153.3V200c-.1 0 .7-12.3-10.2-18.9z" fill="#fbd5c0" stroke-width="none" opacity="1" stroke="none"></path></g><g id="svga-group-chinshadow-single"><path id="SvgjsPath25281" d="M93 163.2c2.6 1.6 11.4 1.6 14 .1 4.5-2.5 10.6-9.1 15.6-14 .3-13.8 1.9-40.5 1.9-40.5H75.4s1.4 26.5 1.8 40.3c5.1 4.9 11.2 11.6 15.8 14.1z" fill="#dc9f7d" stroke-width="none" opacity="0.65" stroke="none"></path></g><g id="svga-group-humanbody-front"><path id="SvgjsPath25042" d="M78.7 156.8c.5 4.8 1.7 9.4 3.1 13.9.8 2.3 1.6 4.6 2.6 6.9.8 2 1.7 4.2 3.1 5.9.3.4 1 0 .9-.5-.5-2.2-1.6-4.3-2.4-6.4-.9-2.2-1.7-4.4-2.5-6.6-1.5-4.4-2.8-8.9-4.1-13.3-.2-.4-.8-.3-.7.1zm41.3-1c-1.3 8.2-3.9 16.1-5.4 24.2-.1.4.4.5.6.2 3.1-7.7 4.1-16.1 5.1-24.3-.1-.2-.3-.2-.3-.1zm-25.8 11.9c-.9 3.6 1.9 8.6 6.2 7.6.5-.1.4-.8 0-1-1.4-.5-2.9-.9-3.9-2.1-1.1-1.2-1.5-2.9-1.4-4.5 0-.4-.8-.5-.9 0z" fill="#dc9f7d" stroke-width="none" opacity="1" stroke="none"></path><path id="SvgjsPath25043" d="M177.3 219.7c-.1-6.6-.3-13.1-.3-19.7l-.3-.3c.1 0 .1 0 .2.1s.1.2.1.1v-1.4c0-.5-.1-.9-.1-1.4-.1-.9-.3-1.9-.5-2.8-.5-1.8-1.1-3.6-2-5.3-1.7-3.4-4.4-6.2-7.7-8.1-3.6-2.2-7.6-3.8-11.6-5.1-4-1.3-8.1-2.4-12.1-3.5-4-1.2-8.1-2.2-11.8-4.2-1.9-1-3.6-2.1-4.8-3.6-1.2-1.6-1.9-3.5-2.3-5.5-.8-4-.4-8.2-.3-12.4l.7-12.6 1.5-25.2.1-1.4h-1.4c-8.2 0-16.4 0-24.6.1l-24.6.3h-.9l.1.9c.8 11.9 1.6 23.8 2.1 35.7.1 3 .3 6 .2 8.9-.1 2.9-.4 5.9-1.6 8.6-.6 1.3-1.4 2.5-2.4 3.5s-2.3 1.8-3.6 2.4c-2.6 1.3-5.4 2.2-8.3 3-5.8 1.5-11.6 2.8-17.3 4.7-2.8.9-5.7 2-8.4 3.4-1.3.7-2.7 1.4-4 2.4-1.3.9-2.4 1.9-3.5 3.1-2.1 2.3-3.6 5.2-4.5 8.1-.5 1.5-.8 3-1 4.6-.1.8-.1 1.6-.1 2.4v2.3l-.2 17.9v1.3h1.4l38.3.2c12.8.1 25.5.1 38.3 0 12.8-.1 25.6-.1 38.3-.3 12.8-.2 25.6-.5 38.3-.7h.6v-.5zm-77.2-1.6H61.8l-37 .2-.1-16.6v-2.2c0-.7 0-1.4.1-2.1.1-1.4.4-2.8.8-4.2.8-2.7 2.1-5.3 3.9-7.5.9-1.1 2-2.1 3.1-2.9 1.1-.9 2.4-1.6 3.7-2.3 2.6-1.4 5.3-2.5 8.1-3.5 5.6-2 11.4-3.4 17.1-5.1 2.9-.8 5.8-1.7 8.5-3.1 1.3-.7 2.7-1.5 3.8-2.6 1.1-1.1 2-2.4 2.6-3.9 1.2-2.9 1.5-5.9 1.6-8.9 0-3-.1-6-.2-9l-1.3-34.8 23.5.4c7.7.1 15.4.1 23.1.1-.4 7.9-.8 15.9-1.1 23.8-.2 4.2-.2 8.4-.3 12.6 0 4.2-.2 8.5.8 12.8.5 2.1 1.3 4.2 2.8 6 1.4 1.7 3.4 2.9 5.3 3.8 3.9 1.9 8 2.8 12.1 3.8s8.2 2 12.2 3.3c4 1.3 7.9 2.8 11.5 5 3.2 1.9 5.8 4.7 7.5 8 .9 1.6 1.5 3.4 1.9 5.2.2.9.4 1.8.4 2.7.1.5.1.9.1 1.4V200l-.3 19c-12.6-.2-25.1-.5-37.7-.7-12.7-.1-25.5-.1-38.2-.2z" fill="#cd865f" stroke-width="none" opacity="1" stroke="none"></path></g><g id="svga-group-clothes-single"><path id="SvgjsPath25183" d="M149.9 220.3c-.4-19.5 5.9-44.6 5.9-44.6l-12.6-3.6s-8.7 28.3-45.2 27.1-41.2-27.1-41.2-27.1l-12.6 3.6s6.3 25.2 5.9 44.6h99.8z" fill="#82cbe2" stroke-width="none" opacity="1"></path><path id="SvgjsPath25184" d="m156 174.9-12.6-3.6c-.4-.1-.9.1-1.1.5-.7 2-1.7 4.1-2.9 6-1.1 1.9-2.4 3.8-3.9 5.5-1.4 1.7-3 3.3-4.7 4.8-1.7 1.4-3.5 2.8-5.4 3.9-3.8 2.4-8 4.1-12.4 5.2-4.4 1.1-8.9 1.6-13.4 1.6s-9.1-.4-13.5-1.4c-1.1-.2-2.2-.5-3.3-.8-1.1-.4-2.2-.7-3.2-1.1-2.1-.8-4.2-1.7-6.2-2.9-3.9-2.2-7.5-5.2-10.2-8.7-1.4-1.8-2.6-3.7-3.6-5.7s-1.8-4.1-2.2-6.3c-.1-.3-.4-.5-.8-.4L44 174.9c-.4.1-.6.5-.5.9.8 3.6 1.6 7.3 2.3 11 .7 3.7 1.3 7.4 1.8 11.1.5 3.7.9 7.4 1.2 11.2.3 3.7.4 7.5.3 11.2 0 .6.5 1.1 1.1 1.1l25.2-.1c8.4 0 16.8-.1 25.1-.2l12.5-.1 12.4-.2 24.7-.4c.1-3.8.3-7.6.7-11.3.4-3.7.9-7.4 1.4-11.2.6-3.7 1.3-7.4 2-11.1.8-3.7 1.5-7.4 2.4-11 0-.4-.2-.8-.6-.9zm-3.3 11.6c-.7 3.7-1.2 7.4-1.7 11.2s-.9 7.5-1.1 11.3c-.2 3.8-.3 7.5-.1 11.2l-25.2-.4-12.5-.2-12.4-.1c-8.3-.1-16.6-.2-24.8-.2l-23.7-.1c0-3.4-.2-6.9-.4-10.3-.3-3.8-.8-7.5-1.3-11.3-1.1-7.2-2.5-14.4-4.2-21.5l11.2-3.3c2.5 8.9 8.9 16.1 16.8 20.4 8.1 4.5 17.4 6.2 26.5 6.3 4.6.1 9.2-.3 13.7-1.3s8.9-2.6 12.9-5c4-2.3 7.6-5.4 10.6-8.9 2.8-3.4 5.2-7.1 6.8-11.3l11.1 3.1c-.8 3.5-1.6 7-2.2 10.4z" fill="#49a6c3" stroke-width="none" opacity="1"></path></g><g id="svga-group-head" transform="matrix(1,0,0,1,0,0)"><g id="svga-group-ears-left-move" transform="matrix(1,0,0,1,0,0)"><g id="svga-group-ears-left" transform="matrix(1,0,0,1,0,0)"><path id="SvgjsPath25193" d="M61.3 90s-2.5-2.4-5.4-3.5-6.1.7-7.1 3.7c-1 2.9 1.3 15.1 5 19.5s6.2 4.8 8.7 2.5c2.5-2.3 7-10.8-1.2-22.2z" fill="#fbd5c0" stroke-width="none" opacity="1" stroke="none"></path><path id="SvgjsPath25194" d="M62.6 91.8c.4.6.8 1.3 1.2 1.9.4.6.7 1.4 1.1 2 .3.7.6 1.4.9 2.2.2.8.5 1.5.6 2.4.1.4.2.8.2 1.2l.1 1.2c0 1.7-.2 3.4-.7 4.9-.5 1.6-1.2 3-2.2 4.2-.2.3-.5.6-.8.8-.3.2-.6.5-.9.7-.6.4-1.3.7-2.1.8-.7.1-1.5 0-2.2-.3s-1.3-.7-1.8-1.2c-.6-.5-1.1-1-1.6-1.6s-.9-1.1-1.4-1.8c-1.7-2.6-2.6-5.7-3.4-8.7-.4-1.5-.8-3-1.1-4.6s-.6-3.2-.5-4.9c0-.4.1-.9.2-1.3.1-.2.1-.4.2-.6l.3-.6c.4-.7.9-1.3 1.5-1.8 1.2-1 2.6-1.4 4-1.2.7.1 1.4.3 2 .6.6.3 1.2.7 1.8 1.1 1.2.8 2.3 1.6 3.3 2.6l1.3 2zm-4.7-4.1c-.6-.3-1.2-.6-1.8-.8-.6-.2-1.2-.3-1.8-.3-1.2.1-2.3.6-3.3 1.4-.5.4-.9.9-1.2 1.5-.2.3-.3.6-.4.9-.1.3-.2.6-.2.9-.2 1.4-.1 3 .1 4.6.2 1.5.4 3.1.8 4.6.8 3 1.9 6 3.6 8.2.9 1.1 1.9 2.1 3 2.9s2.2 1.3 3.3 1.1c.5-.1 1.1-.3 1.6-.7.5-.4 1-.8 1.4-1.3.8-1 1.5-2.3 1.9-3.7.5-1.4.7-2.8.7-4.3s-.2-3-.4-4.5c-.6-3-2-5.8-3.7-8.2-1.3-.9-2.4-1.7-3.6-2.3z" fill="#ecb99d" stroke-width="none" opacity="1" stroke="none"></path><path id="SvgjsPath25195" d="M52.6 89.6c3.3.6 5.4 6.1 6 9.8.1.1.1.2.2.3.4.6-.4 1.2-.8.6-.5-.8-1-1.6-1.8-1.9-1.4-.5-2.1 1.1-1.8 2.6.4 1.9 1.6 3 2.6 4.4.1.1 0 .3-.1.2-1.7-1-4.3-4.8-3.1-7.2.9-1.7 2.3-1.4 3.4-.4-.8-2.1-1.4-4.3-3-5.9-.5-.5-1.5-1.4-2.2-1.3-1.3.2-1.3 2.1-1.3 3.4-.1 1.7.1 3.4.4 5 0 .2-.2.2-.3.1-.7-2.4-2-10.4 1.8-9.7z" fill="#dc9f7d" stroke-width="none" opacity="1" stroke="none"></path></g></g><g id="svga-group-ears-right-move" transform="matrix(1,0,0,1,0,0)"><g id="svga-group-ears-right" transform="matrix(1,0,0,1,0,0)"><path id="SvgjsPath25196" d="M138.7 90s2.5-2.4 5.4-3.5 6.1.7 7.1 3.7c1 2.9-1.3 15.1-5 19.5s-6.2 4.8-8.7 2.5c-2.5-2.3-7-10.8 1.2-22.2z" fill="#fbd5c0" stroke-width="none" opacity="1" stroke="none"></path><path id="SvgjsPath25197" d="M138.6 89.9c1.1-1 2.2-1.8 3.3-2.6.6-.4 1.2-.7 1.8-1.1.6-.3 1.3-.6 2-.6 1.4-.2 2.8.3 4 1.2.6.5 1.1 1.1 1.5 1.8l.3.6c.1.2.2.4.2.6.1.4.2.9.2 1.3.1 1.7-.2 3.3-.5 4.9s-.7 3.1-1.1 4.6c-.9 3-1.8 6-3.4 8.7-.4.7-.9 1.2-1.4 1.8-.5.6-1 1.1-1.6 1.6s-1.2.9-1.8 1.2c-.7.3-1.4.4-2.2.3-.7-.1-1.4-.4-2.1-.8-.3-.2-.6-.4-.9-.7-.3-.3-.6-.5-.8-.8-1-1.2-1.7-2.6-2.2-4.2s-.7-3.3-.7-4.9l.1-1.2c0-.4.1-.8.2-1.2.1-.8.4-1.6.6-2.4.3-.7.6-1.5.9-2.2.4-.7.7-1.4 1.1-2 .4-.6.8-1.3 1.2-1.9l1.3-2zm.1.1c-1.7 2.4-3 5.2-3.7 8.2-.3 1.5-.5 3-.4 4.5s.3 2.9.7 4.3 1.1 2.6 1.9 3.7c.4.5.8 1 1.4 1.3.5.4 1 .6 1.6.7 1.1.2 2.2-.3 3.3-1.1 1-.8 2.1-1.8 3-2.9 1.7-2.3 2.8-5.2 3.6-8.2.4-1.5.6-3.1.8-4.6s.3-3.1.1-4.6c0-.4-.1-.6-.2-.9-.1-.3-.3-.6-.4-.9-.3-.6-.7-1-1.2-1.5-.9-.8-2.1-1.3-3.3-1.4-.6 0-1.2.1-1.8.3-.6.2-1.2.5-1.8.8-1.4.6-2.5 1.4-3.6 2.3z" fill="#ecb99d" stroke-width="none" opacity="1" stroke="none"></path><path id="SvgjsPath25198" d="M147.4 89.6c-3.3.6-5.4 6.1-6 9.8-.1.1-.1.2-.2.3-.4.6.4 1.2.8.6.5-.8 1-1.6 1.8-1.9 1.4-.5 2.1 1.1 1.8 2.6-.4 1.9-1.6 3-2.6 4.4-.1.1 0 .3.1.2 1.7-1 4.3-4.8 3.1-7.2-.9-1.7-2.3-1.4-3.4-.4.8-2.1 1.4-4.3 3-5.9.5-.5 1.5-1.4 2.2-1.3 1.3.2 1.3 2.1 1.3 3.4.1 1.7-.1 3.4-.4 5 0 .2.2.2.3.1.7-2.4 2-10.4-1.8-9.7z" fill="#dc9f7d" stroke-width="none" opacity="1" stroke="none"></path></g></g><g id="svga-group-faceshape-wrap" transform="matrix(1,0,0,1,0,0)"><g id="svga-group-faceshape-single"><path id="SvgjsPath25271" d="M143.2 82.9v-.3c-1.3-30.5-20.7-47.3-43.2-47.3S58.1 52.1 56.9 82.6v.3c0 2.4-.5 15.6 3.1 26.5 3.2 9.8 5.7 17.5 13.5 24.1 5.5 4.6 13.8 14.7 19.6 17.9 2.6 1.4 11.4 1.4 14 0 5.8-3.3 14.1-13.4 19.6-17.9 7.8-6.5 10.4-14.3 13.5-24.1 3.4-10.9 2.9-24.2 3-26.5z" fill="#fbd5c0" stroke-width="none" opacity="1" stroke="none"></path><path id="SvgjsPath25272" d="M73.5 133.4c5.5 4.6 13.8 14.7 19.6 17.9 2.6 1.4 11.4 1.4 14 0 5.8-3.3 14.1-13.4 19.6-17.9 7.8-6.5 10.4-14.3 13.5-24.1 3.4-10.9 2.9-24.2 3-26.5v-.3C141.9 52 122.5 35.2 100 35.2S58.1 52.1 56.9 82.6v.3c0 2.4-.5 15.6 3.1 26.5 3.2 9.8 5.7 17.5 13.5 24zM58 89.6c-.2-3.3-.3-6.7 0-10 .4-6.6 1.9-13.2 4.7-19.2 2.8-5.9 6.9-11.2 12.1-15.1C80 41.5 86 39.1 92.2 38c6.2-1 12.6-.7 18.6.9 6.1 1.5 11.7 4.6 16.6 8.7l.9.8c.3.3.6.6.9.8l1.7 1.7c.6.5 1 1.2 1.6 1.8l1.5 1.9c.9 1.4 1.8 2.8 2.6 4.2l1.1 2.2c.4.7.8 1.4 1 2.2 2.6 6.1 3.9 12.7 4.2 19.5-.1 3.4-.1 6.7-.4 10.1-.3 3.4-.7 6.6-1.5 9.9-.4 1.6-.8 3.3-1.3 4.8s-1.1 3.2-1.7 4.7c-1.2 3.2-2.5 6.2-4 9-1.6 2.8-3.4 5.4-5.6 7.5-.5.6-1.1 1-1.7 1.6l-1.9 1.5c-1.4 1.1-2.6 2.2-3.8 3.5-2.5 2.3-4.8 4.7-7.1 6.9s-4.8 4.5-7.2 6.1c-.3.2-1.8 1.3-8 1.1-.8 0-1.5-.1-2.2-.2-.7-.1-3-1.2-3.3-1.4-.6-.4-1.2-.9-1.8-1.3-2.4-1.9-4.8-4.3-7.1-6.6-2.4-2.3-4.7-4.7-7.3-7-.6-.6-1.3-1.1-2-1.7-.6-.5-1.2-1-1.7-1.5-1.1-1-2.2-2.2-3.1-3.5-1.9-2.4-3.4-5.3-4.7-8.2-1.3-3-2.4-6.1-3.6-9.3-1.1-3.1-1.9-6.2-2.5-9.5-.8-3-1.2-6.2-1.4-9.6z" fill="#cd865f" stroke-width="none" opacity="1" stroke="none"></path></g></g><g id="svga-group-mouth-single-move" transform="matrix(1,0,0,1,0,0)"><g id="svga-group-mouth-single" transform="matrix(1,0,0,1,0,0)"><path id="SvgjsPath25358" d="M88.66 128s7.08-5.38 8.29-5.46c.63-.04 3.28 1.37 3.28 1.37s2.49-1.23 3.23-1.22c1.42.01 7.89 6.14 9.05 7 0 0-3.46.51-4.53-.17-1.07-.68-4.87-1.07-5.93-1.54-1.07-.47-5.42-.17-7.68.21s-4.91.31-5.71-.19z" fill="#e28c7c" stroke-width="none" opacity="1" transform="translate(0 2)" stroke="none"></path><path id="SvgjsPath25359" d="M86.86 128.38c4.18 1.86 8.94-.24 13.29-.15 2.61.06 4.99 1.13 7.49 1.74 1.78.43 3.98.89 5.61-.15.19-.12.92-.59.71-.61-1.49.43-3.21.16-4.42-.07-1.07-.21-2.1-.56-3.13-.89-1.94-.61-3.89-1.26-5.94-1.33-4.62-.15-9.75 1.75-14.43.67-.25-.06.55.68.82.79z" fill="#d3715f" stroke-width="none" opacity="1" transform="translate(0 2)" stroke="none"></path><path id="SvgjsPath25360" d="M91.68 132.33c.95 1.46 1.77 2.58 3.56 3.34 1.62.7 3.69.21 5.41.23 1.57.01 3.27.46 4.78-.06 1.68-.58 2.16-1.75 3.22-2.92.42-.65 1.05-1.83.69-1.52-1.08.96-3.05 2.72-4.55 3.13-1.28.35-2.6.03-3.92 0-1.32-.04-2.65.23-3.96.11-2.53-.23-4.55-2.78-6.29-4.13-.16-.14.41.85.53 1.03l.53.79z" fill="#dc9f7d" stroke-width="none" opacity="1" transform="translate(0 2)" stroke="none"></path></g></g><g id="svga-group-eyes-left-move" transform="matrix(1,0,0,1,0,0)"><g id="svga-group-eyes-left" transform="matrix(1,0,0,1,0,0)"><g id="svga-group-eyesback-left"><path id="SvgjsPath25225" d="M89.4 95.2s-.9-2.5-2.2-3.9c-1.4-1.4-5.5-3.6-10.2-1.8-4.7 1.8-6.8 4.7-6.8 4.7s.7 1.8 3.4 3.2c2.7 1.5 6.4 2.7 10.4 1.4s5.4-3.6 5.4-3.6z" fill="#ffffff" stroke-width="none" opacity="1"></path></g><g id="svga-group-eyesiriswrapper-left" transform="matrix(1,0,0,1,0,0)"><g id="svga-group-eyesiriscontrol-left" transform="matrix(1,0,0,1,0,0)"><g id="svga-group-eyesiris-left" transform="matrix(1,0,0,1,0,0)"><path id="SvgjsPath25285" d="M80.1 88.1c3 0 5.5 2.4 5.5 5.5S83.1 99 80.1 99s-5.5-2.4-5.5-5.5 2.4-5.4 5.5-5.4z" fill="#3e4442" stroke-width="none" opacity="1"></path><path id="SvgjsPath25286" d="M80.1 99.3c-3.2 0-5.7-2.6-5.7-5.7 0-3.2 2.6-5.7 5.7-5.7 3.2 0 5.7 2.6 5.7 5.7s-2.6 5.7-5.7 5.7zm0-11c-2.9 0-5.2 2.3-5.2 5.2s2.3 5.2 5.2 5.2 5.2-2.3 5.2-5.2c-.1-2.8-2.4-5.2-5.2-5.2z" fill="#1b2522" stroke-width="none" opacity="1"></path><path id="SvgjsPath25287" d="M80.1 90.6c1.6 0 2.9 1.3 2.9 2.9s-1.3 2.9-2.9 2.9-2.9-1.3-2.9-2.9 1.2-2.9 2.9-2.9z" fill="#000000" stroke-width="none" opacity="1"></path><path id="SvgjsPath25288" d="M78.7 90.5c.6 0 1 .5 1 1s-.5 1-1 1-1-.5-1-1 .5-1 1-1zm3.4 4.7c.2 0 .4.2.4.4s-.2.4-.4.4-.4-.2-.4-.4.2-.4.4-.4z" fill="#ffffff" stroke-width="none" opacity="1"></path></g></g></g><g id="svga-group-eyesfront-left"><path id="SvgjsPath25233" d="M69.4 94.6c0 6.4 4.7 11.5 10.6 11.5s10.6-5.2 10.6-11.5S85.9 83.1 80 83.1s-10.6 5.1-10.6 11.5zm.8-.4s2.1-2.8 6.8-4.7c4.7-1.8 8.9.4 10.2 1.8 1.4 1.4 2.2 3.9 2.2 3.9S88 97.5 84 98.8c-4 1.3-7.7.1-10.4-1.4-2.7-1.4-3.4-3.2-3.4-3.2z" fill="#fbd5c0" stroke-width="none" opacity="1" stroke="none"></path><path id="SvgjsPath25234" d="M80.6 85.4c5.1.1 9.5 4.5 9 9.7 0 .1-.1.1-.1.1l.1.1c-.6 2.6-3.3 5.2-5.9 5.8-.2 0-.3-.2-.1-.3 1.2-.6 2.4-1.2 3.4-2.2 1-1 1.7-2.2 2.4-3.4l.1-.1V95c-.7-5.5-5-10.1-11-8.8-2.5.7-4.5 2.1-6.2 3.8-1.4 1.6-2.2 3.5-3.6 5.1-.1.2-.4 0-.3-.2 1.2-5 7.1-9.7 12.2-9.5z" fill="#ecb99d" stroke-width="none" opacity="1" stroke="none"></path><path id="SvgjsPath25235" d="M67.5 96.9c.9-.7 1.8-1.4 2.6-2.1 4.5 6.5 14.1 6.7 19.3 1 .1 0 .2-.1.2-.2l.2-.2c.2-.2 0-.6-.2-.6-.5-4.2-5-6.7-9-6.6-5.2.1-10.8 3.8-13.8 7.9-.4.5.2 1.1.7.8zm3.1-2.5c2.1-1.8 4.3-3.6 7.2-4.4 4.8-1.4 9.5.5 11.2 5.2-5.5 5.5-13.4 4.8-18.4-.8z" fill="#582311" stroke-width="none" opacity="1" stroke="none"></path></g></g></g><g id="svga-group-eyes-right-move" transform="matrix(1,0,0,1,0,0)"><g id="svga-group-eyes-right" transform="matrix(1,0,0,1,0,0)"><g id="svga-group-eyesback-right"><path id="SvgjsPath25226" d="M110.6 95.2s.9-2.5 2.2-3.9c1.4-1.4 5.5-3.6 10.2-1.8 4.7 1.8 6.8 4.7 6.8 4.7s-.7 1.8-3.4 3.2c-2.7 1.5-6.4 2.7-10.4 1.4s-5.4-3.6-5.4-3.6z" fill="#ffffff" stroke-width="none" opacity="1"></path></g><g id="svga-group-eyesiriswrapper-right" transform="matrix(1,0,0,1,0,0)"><g id="svga-group-eyesiriscontrol-right" transform="matrix(1,0,0,1,0,0)"><g id="svga-group-eyesiris-right" transform="matrix(1,0,0,1,0,0)"><path id="SvgjsPath25289" d="M119.9 88.1c3 0 5.5 2.4 5.5 5.5S123 99 119.9 99s-5.5-2.4-5.5-5.5 2.5-5.4 5.5-5.4z" fill="#3e4442" stroke-width="none" opacity="1"></path><path id="SvgjsPath25290" d="M119.9 99.3c-3.2 0-5.7-2.6-5.7-5.7 0-3.2 2.6-5.7 5.7-5.7 3.2 0 5.7 2.6 5.7 5.7s-2.5 5.7-5.7 5.7zm0-11c-2.9 0-5.2 2.3-5.2 5.2s2.3 5.2 5.2 5.2 5.2-2.3 5.2-5.2c0-2.8-2.3-5.2-5.2-5.2z" fill="#1b2522" stroke-width="none" opacity="1"></path><path id="SvgjsPath25291" d="M119.9 90.6c1.6 0 2.9 1.3 2.9 2.9s-1.3 2.9-2.9 2.9-2.9-1.3-2.9-2.9 1.3-2.9 2.9-2.9z" fill="#000000" stroke-width="none" opacity="1"></path><path id="SvgjsPath25292" d="M118.6 90.5c.6 0 1 .5 1 1s-.5 1-1 1-1-.5-1-1 .5-1 1-1zm3.4 4.7c.2 0 .4.2.4.4s-.2.4-.4.4-.4-.2-.4-.4.2-.4.4-.4z" fill="#ffffff" stroke-width="none" opacity="1"></path></g></g></g><g id="svga-group-eyesfront-right"><path id="SvgjsPath25236" d="M120 83.1c-5.9 0-10.6 5.2-10.6 11.5s4.7 11.5 10.6 11.5 10.6-5.2 10.6-11.5-4.8-11.5-10.6-11.5zm6.4 14.3c-2.7 1.5-6.4 2.7-10.4 1.4-4-1.3-5.4-3.6-5.4-3.6s.9-2.5 2.2-3.9c1.4-1.4 5.5-3.6 10.2-1.8 4.7 1.8 6.8 4.7 6.8 4.7s-.7 1.8-3.4 3.2z" fill="#fbd5c0" stroke-width="none" opacity="1" stroke="none"></path><path id="SvgjsPath25239" d="M119.4 85.4c-5.1.1-9.5 4.5-9 9.7 0 .1.1.1.1.1l-.1.1c.6 2.6 3.3 5.2 5.9 5.8.2 0 .3-.2.1-.3-1.2-.6-2.4-1.2-3.4-2.2-1-1-1.7-2.2-2.4-3.4l-.1-.1V95c.7-5.5 5-10.1 11-8.8 2.4.5 4.5 1.9 6.1 3.7 1.4 1.6 2.2 3.5 3.6 5.1.1.2.4 0 .3-.2-1.1-4.9-7-9.6-12.1-9.4z" fill="#ecb99d" stroke-width="none" opacity="1" stroke="none"></path><path id="SvgjsPath25240" d="M133.3 96.1c-3-4.1-8.6-7.8-13.8-7.9-4-.1-8.5 2.4-9 6.6-.2 0-.4.3-.2.6l.2.2c0 .1.1.2.2.2 5.2 5.7 14.8 5.5 19.3-1 .8.7 1.7 1.4 2.6 2.1.4.3 1-.3.7-.8zm-22.3-.9c1.8-4.7 6.4-6.6 11.2-5.2 2.9.8 5 2.6 7.2 4.4-5 5.6-12.9 6.3-18.4.8z" fill="#582311" stroke-width="none" opacity="1" stroke="none"></path></g></g></g><g id="svga-group-facehighlight-single"></g><g id="svga-group-eyebrows-left-move" transform="matrix(1,0,0,1,0,0)"><g id="svga-group-eyebrows-left-rotate" transform="matrix(1,0,0,1,0,0)"><g id="svga-group-eyebrows-left" transform="matrix(1,0,0,1,0,0)"><path id="SvgjsPath25159" d="M68.1 77.9c1.1 0 2.4-.3 3.5-.4 1.2-.1 2-.5 3.2-.1.5-.1 1.1-.1 1.6-.2.8-.2 1.3-.3 2.1-.1 1.1-.3 2.3-.5 3.5-.5 1.5-.1 3.2-.4 4.7 0h.1c.1 0 .1-.1.2-.1.2-.1.4 0 .5.1 0 0 .1 0 .1-.1.1-.1.3-.1.4 0h.2c.1-.1.1-.2.2-.3.3-.3.8.1.6.4-.1.1-.1.2-.2.3v.2c-.1.3-.2.6-.2.9.5-.4.9-.8 1.4-1.2.2-.1.4.1.3.2 0 .1-.1.2-.2.4.1-.1.3-.1.4-.1.1 0 .2 0 .3-.1.3-.1.6 0 .8-.1h.2c.1-.1.2-.2.3-.2.3-.2.6.2.5.5-.2.3-.3.6-.5.9v.1c.7 1.3.2 3.1-.3 4.5.1.3 0 .6-.3.8-.1.3-.4.4-.6.4-.3.3-.8.4-1.3.5-.6.3-1.1.4-1.7.4-.7.2-1.4.3-2.1.3h-1.2c-.1 0-.2 0-.4-.1-.8.7-2.2.7-3.1 0-.8 0-1.5-.1-2.2-.2-.8-.1-1.8-.2-2.7-.4-1.1.4-2.6.2-3.7-.5-.6.3-1.4.1-2 0-.1 0-.2-.1-.3-.1h-.1c-.7-.1-1.5-.2-2.2-.3-.5-.1-.7-.6-.7-1-.1-1.3-.2-2.6-.2-3.9.1-.4.6-.9 1.1-.9z" fill="#fef6e1" stroke-width="none" opacity="1"></path><path id="SvgjsPath25160" d="M88.7 84.8c.7-.9 1.6-1.5 2.2-2.5.6-1 .9-2 1.2-3.1.1-.2.4-.2.4.1 0 2.1-1.3 5.2-3.5 5.9-.3.1-.4-.2-.3-.4zm-1.8-.2c2-2.2 3.5-4.2 4.4-7.1.1-.3.5-.2.4.1-.5 2.8-2.1 5.8-4.5 7.4-.2.2-.5-.2-.3-.4zm-2 .3c.8-1.3 1.5-2.7 2-4.2.4-1.4.4-2.7.6-4.1 0-.2.4-.2.5 0 .9 2.7-1.1 6.5-2.8 8.5-.1.1-.4 0-.3-.2zm-1.6.1c1.6-2.5 2.6-5.3 3.8-8 .1-.1.3 0 .2.1-.3 1.7-.9 3.3-1.6 4.9-.5 1.2-.9 2.5-2 3.3-.3.2-.6 0-.4-.3zm-1.7-.1c1.1-2.7 1.7-5.5 1.6-8.4 0-.5.7-.5.7 0 .1 3-.5 5.9-2 8.5-.1.2-.4.1-.3-.1zm-3-7.5c1.8 1.6 2.3 5.3 1.5 7.5-.1.2-.3.1-.3 0 0-1.3.1-2.6-.2-3.9-.3-1.2-.9-2.2-1.3-3.3-.1-.3.1-.4.3-.3zm-3 .6c1.3 1.9 1.2 4.6.7 6.7 0 .2-.3.1-.3 0 0-2.3 0-4.3-.8-6.5-.1-.2.3-.4.4-.2zm-6.9.9c1.1.7 2.1 1.7 2.9 2.8.5.7 1.7 1.9 1.6 2.8 0 .1-.1.2-.2.2h-.1c-.1 0-.1-.1-.1-.2v-.1c0-.1.1-.1.1-.2-.1 0-.2-.1-.2-.1-.1-.2-.2-.3-.2-.4l-.3-.6c-.4-.6-.8-1.1-1.2-1.6-.5-.6-1.1-1.1-1.6-1.6.9 1.2 2.1 2.7 2 4.2 0 .2-.2.2-.3 0-.4-1.6-1.4-2.9-2.2-4.4-.1-.1 0-.2.1-.2-.1-.2-.3-.3-.4-.5-.1 0 0-.2.1-.1z" fill="#fffefb" stroke-width="none" opacity="1"></path><path id="SvgjsPath25161" d="M88.1 85.4c1.3-.1 2.5-.4 3.6-1.1v.5c0 .2.3.3.4.1.4-1.1.5-2.3.6-3.5.1-1.4.1-2.8 0-4.3.2-.1.1-.5-.1-.5-.5 0-1 .1-1.6.2-.2 0-.4 0-.6.1l.3-.6c.1-.3-.3-.5-.4-.2-.2.4-.5.8-.7 1.2-.3.4-.6.7-.8 1-.1.1-.1.2 0 .3l.1.1c.1.1.3 0 .4-.1.3-.3.6-.6.8-1 .3.1.6 0 1-.1.5-.1.9-.1 1.4-.3v.2c-.1-.1-.3-.1-.3 0-.7 1.3-1.1 2.8-1.8 4.1-.7 1.2-1.7 2.2-2.6 3.3-.5 0-1.1 0-1.6.1h-2.8c1.8-2.4 3-5.4 3.7-8.3.6-.1 1.2-.1 1.8-.2l-.3.3c-.3.4-.7.8-.7 1.3 0 .2.3.3.5.2.3-.3.4-.8.7-1.1.2-.4.6-.7.9-1.1.2-.2-.1-.5-.3-.4-.1.1-.3.2-.4.3h-.1c-3.6-.4-7.5.1-11.1.4-3.5.3-7.1.7-10.6 1.2-.3 0-.3.3-.3.5-.1 0-.2.1-.2.2-.4 1.7-.3 3.7.3 5.3-.1.2-.1.4.2.5 4.2 1 8.6 1.4 12.9 1.5v.1c-.1.2.3.3.4.2.1-.1.1-.2.2-.3h.4c2.2.2 4.4.1 6.7-.1zm3.6-1.7c-.9.7-1.9 1-3 1.2 1.7-1.3 3.1-3.7 3.6-5.8-.1.7-.1 1.3-.2 1.9-.1.8-.3 1.8-.4 2.7zm-13.1-6.6s-.1.1 0 .2c.1 2.2-.2 4.3-.3 6.5 0 .2.3.3.4.1.9-2 .9-4.6.5-6.7 0 0 0-.1-.1-.1 1.3-.1 2.6-.2 3.9-.2-.3 1.5-.6 2.9-1 4.3-.4 1.3-1 2.4-1.4 3.7h-.3c-4.3-.2-8.4-.9-12.6-1.5-.1-.8-.2-1.6-.2-2.4 0-.9.1-1.8.1-2.7h.1c3.6-.5 7.2-.9 10.9-1.2zm4.1 7.9h-1.4c1.3-2.3 1.9-5.4 2.1-8.1 1.1-.1 2.1-.1 3.2-.2-.9 2.9-2.2 5.4-3.8 8-.1.1-.1.2-.1.3z" fill="#efe1bc" stroke-width="none" opacity="1"></path></g></g></g><g id="svga-group-eyebrows-right-move" transform="matrix(1,0,0,1,0,0)"><g id="svga-group-eyebrows-right-rotate" transform="matrix(1,0,0,1,0,0)"><g id="svga-group-eyebrows-right" transform="matrix(1,0,0,1,0,0)"><path id="SvgjsPath25162" d="M131.9 77.9c-1.1 0-2.4-.3-3.5-.4-1.2-.1-2-.5-3.2-.1-.5-.1-1.1-.1-1.6-.2-.8-.2-1.3-.3-2.1-.1-1.1-.3-2.3-.5-3.5-.5-1.5-.1-3.2-.4-4.7 0h-.1c-.1 0-.1-.1-.2-.1-.2-.1-.4 0-.5.1 0 0-.1 0-.1-.1-.1-.1-.3-.1-.4 0h-.2c-.1-.1-.1-.2-.2-.3-.3-.3-.8.1-.6.4.1.1.1.2.2.3v.2c.1.3.2.6.2.9-.5-.4-.9-.8-1.4-1.2-.2-.1-.4.1-.3.2 0 .1.1.2.2.4-.1-.1-.3-.1-.4-.1-.1 0-.2 0-.3-.1-.3-.1-.6 0-.8-.1h-.2c-.1-.1-.2-.2-.3-.2-.3-.2-.6.2-.5.5.2.3.3.6.5.9v.1c-.7 1.3-.2 3.1.3 4.5-.1.3 0 .6.3.8.1.3.4.4.6.4.3.3.8.4 1.3.5.6.2 1.1.3 1.7.2.7.2 1.4.3 2.1.3h1.2c.1 0 .2 0 .4-.1.8.7 2.2.7 3.1 0 .8 0 1.5-.1 2.2-.2.8-.1 1.8-.2 2.7-.4 1.1.4 2.6.2 3.7-.5.6.3 1.4.1 2 0 .1 0 .2-.1.3-.1h.1c.7-.1 1.5-.2 2.2-.3.5-.1.7-.6.7-1 .1-1.3.2-2.6.2-3.9-.1-.2-.6-.7-1.1-.7z" fill="#fef6e1" stroke-width="none" opacity="1"></path><path id="SvgjsPath25163" d="M111.3 84.8c-.7-.9-1.6-1.5-2.2-2.5-.6-1-.9-2-1.2-3.1-.1-.2-.4-.2-.4.1 0 2.1 1.3 5.2 3.5 5.9.3.1.4-.2.3-.4zm1.8-.2c-2-2.2-3.5-4.2-4.4-7.1-.1-.3-.5-.2-.4.1.5 2.8 2.1 5.8 4.5 7.4.2.2.5-.2.3-.4zm2 .3c-.8-1.3-1.5-2.7-2-4.2-.4-1.4-.4-2.7-.6-4.1 0-.2-.4-.2-.5 0-.9 2.7 1.1 6.5 2.8 8.5.1.1.4 0 .3-.2zm1.6.1c-1.6-2.5-2.6-5.3-3.8-8-.1-.1-.3 0-.2.1.3 1.7.9 3.3 1.6 4.9.5 1.2.9 2.5 2 3.3.3.2.6 0 .4-.3zm1.7-.1c-1.1-2.7-1.7-5.5-1.6-8.4 0-.5-.7-.5-.7 0-.1 3 .5 5.9 2 8.5.1.2.4.1.3-.1zm3-7.5c-1.8 1.6-2.3 5.3-1.5 7.5.1.2.3.1.3 0 0-1.3-.1-2.6.2-3.9.3-1.2.9-2.2 1.3-3.3.1-.3-.1-.4-.3-.3zm3 .6c-1.3 1.9-1.2 4.6-.7 6.7 0 .2.3.1.3 0 0-2.3 0-4.3.8-6.5.1-.2-.3-.4-.4-.2zm6.9.9c-1.1.7-2.1 1.7-2.9 2.8-.5.7-1.7 1.9-1.6 2.8 0 .1.1.2.2.2h.1c.1 0 .1-.1.1-.2v-.1c0-.1-.1-.1-.1-.2.1 0 .2-.1.2-.1.1-.2.2-.3.2-.4l.3-.6c.4-.6.8-1.1 1.2-1.6.5-.6 1.1-1.1 1.6-1.6-.9 1.2-2.1 2.7-2 4.2 0 .2.2.2.3 0 .4-1.6 1.4-2.9 2.1-4.4.1-.1 0-.2-.1-.2.1-.2.3-.3.4-.5.2 0 .1-.2 0-.1z" fill="#fffefb" stroke-width="none" opacity="1"></path><path id="SvgjsPath25164" d="M118.7 85.6h.4c.1.1.1.2.2.3.1.2.5.1.4-.2v-.1c4.3-.1 8.8-.5 12.9-1.5.3-.1.3-.3.2-.5.6-1.6.7-3.7.3-5.3 0-.1-.1-.2-.2-.2.1-.2 0-.4-.3-.5-3.5-.5-7.1-.9-10.6-1.2-3.6-.3-7.5-.8-11.1-.4h-.1c-.1-.1-.2-.2-.4-.3-.2-.2-.5.2-.3.4.3.3.6.7.9 1.1.2.3.4.8.7 1.1.2.2.5.1.5-.2 0-.5-.4-1-.7-1.3l-.3-.3c.6.1 1.2.2 1.8.2.7 2.9 1.9 5.9 3.7 8.3h-2.8c-.5 0-1.1 0-1.6-.1-.8-1.1-1.8-2.1-2.6-3.3-.8-1.3-1.2-2.7-1.8-4.1-.1-.1-.2-.1-.3 0v-.2c.5.1.9.2 1.4.3.3.1.7.1 1 .1.2.4.5.7.8 1 .1.1.2.1.4.1l.1-.1c.1-.1.1-.2 0-.3-.2-.4-.6-.7-.8-1-.3-.4-.5-.8-.7-1.2-.2-.3-.5 0-.4.2l.3.6c-.2 0-.4 0-.6-.1-.5-.1-1-.2-1.6-.2-.3 0-.3.3-.1.5-.1 1.4-.1 2.8 0 4.3.1 1.2.1 2.4.6 3.5.1.2.4.1.4-.1v-.5c1 .7 2.2 1 3.6 1.1 2.2.1 4.4.2 6.7.1zm-10.8-4.7c-.1-.7-.1-1.3-.2-1.9.5 2.1 1.9 4.5 3.6 5.8-1.1-.1-2.1-.4-3-1.2-.1-.8-.3-1.8-.4-2.7zm24.5-2.6h.1c0 .9.2 1.8.1 2.7 0 .8-.1 1.6-.2 2.4-4.2.6-8.3 1.3-12.6 1.5h-.3c-.5-1.2-1-2.4-1.4-3.7-.4-1.4-.7-2.9-1-4.3 1.3.1 2.6.1 3.9.2 0 0 0 .1-.1.1-.4 2.1-.4 4.7.5 6.7.1.2.4.1.4-.1-.1-2.2-.4-4.3-.3-6.5v-.2c3.6.3 7.2.7 10.9 1.2zm-15.1 6.4c-1.6-2.6-2.9-5.2-3.8-8 1.1.1 2.1.1 3.2.2.1 2.6.7 5.7 2.1 8.1h-1.4c-.1-.1-.1-.2-.1-.3z" fill="#efe1bc" stroke-width="none" opacity="1"></path></g></g></g><g id="svga-group-beardwrap" transform="matrix(1,0,0,1,0,0)"><g id="svga-group-beard-single-move" transform="matrix(1,0,0,1,0,0)"><g id="svga-group-beard-single" transform="matrix(1,0,0,1,0,0)"></g></g></g><g id="svga-group-mustache-single-move" transform="matrix(1,0,0,1,0,0)"><g id="svga-group-mustache-single" transform="matrix(1,0,0,1,0,0)"><path id="SvgjsPath25376" d="M99.5 121.4c.5-1.7.2-3.9-2.9-4.1-3-.2-8.7.4-12.4 3-3.7 2.6-2.7 4.6-1.9 5.2.8.6 5.9-.5 5.9-.5l.7-1.3-.2 1.2s3.5-.4 5.3-.7c1.8-.3 3.6-.8 3.9-1s.2.5.2.5 1.1-1.3 1.4-2.3zm2.1 0c-.5-1.7-.2-3.9 2.9-4.1 3-.2 8.7.4 12.4 3 3.7 2.6 2.7 4.6 1.9 5.2-.8.6-5.9-.5-5.9-.5l-.7-1.3.2 1.2s-3.5-.4-5.3-.7-3.6-.8-3.9-1-.2.5-.2.5-1.1-1.3-1.4-2.3z" fill="#fef6e1" stroke-width="none" opacity="1"></path><path id="SvgjsPath25377" d="M85.8 120.1c-1.1.6-2.1 1.6-2.8 2.6-.4.6-1.4 1.8-.9 2.5.1.1.2 0 .2-.1 0-.9 1-2.1 1.6-2.8.6-.7 1.3-1.3 2-1.9.2-.1 0-.3-.1-.3zm.7.4c-1.6 1-2.8 2.7-3.5 4.4-.1.1.1.2.2.1.9-1.7 2.1-3 3.5-4.3.1-.1-.1-.3-.2-.2zm3-.7c-1.7 1.3-3.4 3.2-3.8 5.3 0 .2.2.2.3.1.7-2.2 2.2-3.6 3.7-5.2.1-.2-.1-.3-.2-.2zm2.7-1c-2.3 1.1-4 3.4-4.6 5.9 0 .2.2.2.2.1.9-2.5 2.3-4.3 4.4-5.8.2-.1.1-.3 0-.2zm.1 1.3c-1.5 1-2.7 2.7-3.3 4.4 0 .1.2.2.2.1.9-1.7 1.9-3 3.2-4.3.2-.1.1-.3-.1-.2zm.9 1.8c-.8.6-1.4 1.5-1.9 2.3-.1.1.1.2.2.1.6-.8 1.3-1.5 1.9-2.3.1-.1-.1-.2-.2-.1zm2.5-.4c-.9 1-1.8 1.9-2.8 2.7-.1.1 0 .3.2.2 1.2-.6 2.2-1.6 2.8-2.8 0 0-.1-.2-.2-.1zm1.3.4c-.7.7-1.4 1.4-2.3 2-.1.1 0 .2.1.2.9-.4 1.8-1.1 2.3-2 .1-.2 0-.3-.1-.2zm1.7-2.5c-.3 1.5-.8 2.8-1.8 4-.1.1.1.2.2.2 1.1-1.1 2-2.5 2-4.1-.1-.2-.3-.2-.4-.1zm.2 2.3c-.3.6-.6 1.2-1 1.7-.1.1.1.2.2.1.4-.5.8-1.1.9-1.8h-.1zm-7.6-3.7c-2.1.1-4.2.8-6.1 1.8-1.5.9-3.5 2.1-3.8 4 0 .1.2.2.2.1 1-3.8 6.5-5.3 9.7-5.9.1 0 .1 0 0 0zm24 2.1c1.1.6 2.1 1.6 2.8 2.6.4.6 1.4 1.8.9 2.5-.1.1-.2 0-.2-.1 0-.9-1-2.1-1.6-2.8-.6-.7-1.3-1.3-2-1.9-.2-.1 0-.3.1-.3zm-.7.4c1.6 1 2.8 2.7 3.5 4.4.1.1-.1.2-.2.1-.9-1.7-2.1-3-3.5-4.3-.1-.1.1-.3.2-.2zm-3-.7c1.7 1.3 3.4 3.2 3.8 5.3 0 .2-.2.2-.3.1-.7-2.2-2.2-3.6-3.7-5.2-.1-.2.1-.3.2-.2zm-2.7-1c2.3 1.1 4 3.4 4.6 5.9 0 .2-.2.2-.2.1-.9-2.5-2.3-4.3-4.4-5.8-.2-.1-.1-.3 0-.2zm-.2 1.3c1.5 1 2.7 2.7 3.3 4.4 0 .1-.2.2-.2.1-.9-1.7-1.9-3-3.2-4.3-.1-.1 0-.3.1-.2zm-.8 1.8c.8.6 1.4 1.5 1.9 2.3.1.1-.1.2-.2.1-.6-.8-1.3-1.5-1.9-2.3-.1-.1.1-.2.2-.1zm-2.5-.4c.9 1 1.8 1.9 2.8 2.7.1.1 0 .3-.2.2-1.2-.6-2.2-1.6-2.8-2.8 0 0 .1-.2.2-.1zm-1.3.4c.7.7 1.4 1.4 2.3 2 .1.1 0 .2-.1.2-.9-.4-1.8-1.1-2.3-2-.1-.2 0-.3.1-.2zm-1.7-2.5c.3 1.5.8 2.8 1.8 4 .1.1-.1.2-.2.2-1.1-1.1-2-2.5-2-4.1.1-.2.3-.2.4-.1zm-.2 2.3c.3.6.6 1.2 1 1.7.1.1-.1.2-.2.1-.4-.5-.8-1.1-.9-1.8h.1zm7.6-3.7c2.1.1 4.2.8 6.1 1.8 1.5.9 3.5 2.1 3.8 4 0 .1-.2.2-.2.1-1-3.8-6.5-5.3-9.7-5.9-.1 0-.1 0 0 0z" fill="#efe1bc" stroke-width="none" opacity="1"></path></g></g><g id="svga-group-nose-single-move" transform="matrix(1,0,0,1,0,0)"><g id="svga-group-nose-single" transform="matrix(1,0,0,1,0,0)"><path id="SvgjsPath25333" d="M106.64 111.4c.6.77 2.07 2.61 2.22 4.41.16 1.79-1.13 2.5-1.87 2.46-.74-.04-2.11-.78-2.73-.78-.62 0-2.18 1.95-3.04 2.18-.86.23-1.4-.2-2.18-.94-.78-.74-1.79-1.79-2.5-1.76-.7.04-1.95 1.76-2.65 1.91-.7.16-2.18-1.13-2.26-2.65s.31-3.59.7-4.13 2.15-2.03 2.15-2.03-.35-2.73.2-4.17 1.76-4.91 2.65-6.01 6.01-1.72 7.29.86c1.29 2.57 1.01 8.11.9 9.01-.01 0 .53.9 1.12 1.64z" fill="#fbd5c0" stroke-width="none" opacity="1" transform="translate(0 1)" stroke="none"></path><path id="SvgjsPath25334" d="M94.39 84.73c1.21 1 2.14 2.05 2.6 3.6.51 1.75.01 3.2-.27 4.91-.15.92-.14 1.78.01 2.69.33 2.02.41 3.44-.5 5.37-.99 2.1-2.03 3.99-2.21 6.37-.18 2.41.46 4.64 1.64 6.72.09.16.33.02.25-.15-1.57-3.34-1.63-7.25-.07-10.61.92-2 2.14-3.8 1.88-6.1-.2-1.8-.56-3.26-.18-5.11.2-.97.38-1.92.29-2.91-.2-2.06-1.43-4.03-3.24-5.04-.15-.09-.34.13-.2.26z" fill="#cd865f" stroke-width="none" opacity="1" transform="translate(0 1)" stroke="none"></path><path id="SvgjsPath25335" d="M92.52 111.52c-1.4 1.76-2.28 6.9.72 7.77 1.99.58 2.39-2.9 4.43-1.36 1.09.82 1.37 2.53 3.09 2.35 1.22-.13 1.82-1.29 2.73-1.94 1.65-1.18 3.07 1.33 4.7.14 2.42-1.76.5-5.96-1.34-7.29-.35-.25-.75.29-.45.58 1.15 1.13 2.63 3.3 1.84 5.06-.98 2.14-2.51.04-3.79.12-2.13.15-2.9 3.88-5.25 1.63-.93-.89-1.92-2.81-3.54-1.9-.19.11-.33.28-.47.44-.18.26-.34.53-.48.81-1.6.24-2.48-.22-2.64-1.37-.53-1.62.1-3.4.72-4.88.05-.15-.18-.28-.27-.16z" fill="#cd865f" stroke-width="none" opacity="1" transform="translate(0 1)" stroke="none"></path><path id="SvgjsPath25336" d="M106.36 85.16c-3.97 2.97-1.15 7.57-2.01 11.5-.03.15.17.25.26.11.7-1.22.56-2.54.33-3.88-.53-3.05-.48-5.06 1.64-7.45.12-.14-.05-.41-.22-.28z" fill="#cd865f" stroke-width="none" opacity="1" transform="translate(0 1)" stroke="none"></path><path id="SvgjsPath25337" d="M104.34 100.28c.78 2.8 1 5.46 1.12 8.35.01.12.2.16.22.03.45-2.77-.08-5.86-1.14-8.44-.04-.12-.23-.08-.2.06z" fill="#cd865f" stroke-width="none" opacity="1" transform="translate(0 1)" stroke="none"></path><path id="SvgjsPath25338" d="M104.98 107.12c-.13-2.07-.55-4.75-2.16-6.2-.28-.25-.77-.09-.76.31.03 1.98.82 3.87.82 5.89 0 1.69-.96 3.95-.33 5.52.13.33.49.55.84.34 1.72-1.04 1.7-4.08 1.59-5.86z" fill="#ffe1d0" stroke-width="none" opacity="1" transform="translate(0 1)" stroke="none"></path></g></g><g id="svga-group-hair-front" transform="matrix(1,0,0,1,0,0)"><path id="SvgjsPath25389" d="M155.5 145.7c-1-.6-1.9-1.1-2.7-1.8 0-.1 0-.3-.1-.4-6.5-6.2-10.2-13.3-12.2-20.8 0-.6-.1-1.2-.1-1.8 0 .1.1.2.1.3.4 1.6.8 3.1 1.3 4.6.1.2.2.2.3.2.9 2.3 2.1 4.5 3.4 6.6.8 1.4 1.8 2.7 2.9 4 .1.1.2.1.3.1.6.7 1.2 1.3 1.8 2 .3.3.8-.2.5-.5-1-1.2-1.9-2.4-2.7-3.6-5.7-10-6.4-20.7-5.4-31.7 1.6-6.1 3.5-12.1 5-18.3 0-.2.1-.3.1-.5l.1-.1c1.1-3.2 1.7-6.4 1.9-9.7.2-1.3.3-2.6.3-4 .1-4.8-.1-11.5-3.1-15.8.1-.4 0-.8-.1-1.2-.5-1.1-1.1-2.2-1.7-3.1-1.8-5-4.9-9.6-8.3-13.6-1.4-1.7-2.9-3.2-4.4-4.5-5.4-5.8-12.9-9.8-21-11.2-13.7-2.3-35.4 2.3-35.2 19.7-7.2-2.2-15.4 1.3-20.2 6.8-2.8 3.2-4.5 6.9-5.4 10.9-2 4.6-2.7 9.6-2.2 14.7-.1 1.6.1 3.2.5 4.8.2 2.6.5 5.3.6 7.9 0 .2.3.3.4.1.4-.9.7-1.8.8-2.7.8 1.9 2 3.7 3.7 5.1l.1.1c.2.3.3.5.5.8.4.9.8 1.8 1.1 2.8l.3 1.2c-.1 0-.1.1-.1.2.2.5.3.9.5 1.4.7 3 1.4 5.9 2 8.9.9 7.2.2 14.2-.4 21.8 0 .3.2.5.5.5V126.5c-.1.5-.1 1-.2 1.4 0 .3.5.5.5.2.2-.8.4-1.6.5-2.3 5.4-11.5 2.4-24.1 1.3-36.3-1.4-15.5 2.5-31 19.4-33.9.3 0 .6.1 1 .2.6.1 1.1-.5.8-1-.1-.2-.3-.4-.4-.5.1 0 .2 0 .3-.1.1.2.1.3.2.5s.4.2.6 0c.2.2.3.4.6.6.5.5 1.5 0 1.4-.7h.5c.2.3.6.1.6-.2l.1-.1c.6.5 1.3.9 2.2 1 .4 0 .7-.5.6-.8.1 0 .1-.1.1-.1.7.8 1.5 1.4 2.4 2 .8.5 1.5-.5 1.1-1.2.5.4 1 .8 1.8 1 .5.2.9-.2 1-.6.1 0 .1.1.2.1.3.5.7 1.1 1.1 1.5.7.7 2 0 1.7-1 .5.6 1.6.6 1.8-.1.3.4.6.7 1 1 .6.4 1.7.2 1.6-.7 0-.3-.1-.6-.1-.9.2.5.5 1 .8 1.4.4.5 1.5.1 1.4-.6-.1-.7 0-1.4 0-2 .2-.1.4-.2.5-.3-.1.6-.1 1.3 0 1.9.2.9 1.7.9 1.8 0 .1-.7.3-1.4.7-2-.2.5-.3 1-.3 1.6 0 1 1.4 1.5 1.9.5.3-.5.6-1 1-1.5v.7c.1 1 1.2 1.3 1.8.5.5-.8 1.1-1.4 1.7-1.9-.3.4-.6.9-.7 1.4-.1.5.4 1 .9.7.2-.2.5-.3.8-.5.1.1.3.2.6.2 1-.2 2.1-.3 3.2-.3 4.1.3 7.4 2.1 10.3 4.8 2.6 4 4.4 8.8 5.4 12.8 1 4.2 1.1 8.4.6 12.5-4.3 14.1-9.2 32.2-2.8 46 1.1 4.7 3 9.2 6.1 13.2.2.2.5 0 .4-.2-1.9-3-3.3-6-4.3-9.1 1.4 2 3 3.9 5 5.7 1.6 1.5 3.4 2.8 5.5 3.9.8.4 1.6.1 2.1-.5 1.5 1 3.1 1.7 4.8 2.2.2.1.4-.1.4-.2.3.1.6.3.8.4.5.2.8-.2.7-.6.1 0 .1.1.2.1.2.1.3 0 .4-.1.3.1.6.3.9.4.1-.1.4-.7 0-.9zm-94.3-43.4c-.1-.6-.2-1.2-.4-1.8-.1-.9-.2-1.8-.3-2.6 0-.6-.1-1.2-.2-1.7-.2-1.2-.3-2.4-.4-3.5-.3-3.2-.2-6.4-.2-9.6v-.3c-.1 6.5.9 13 1.5 19.5zm8.5-60.8c-5.7 1.2-11.1 5.6-14.5 9.8 3.3-5.3 8.5-9 15.3-10-.3 0-.5.1-.8.2zm69.7 55.1c-.4 3.2-.7 6.4-.7 9.7-.1.7-.1 1.4-.2 2.1-.1-2.6-.1-5.1-.1-7.7.3-1.5.6-2.8 1-4.1zm1.9 4-.3 3c0 .1-.1.2-.1.3.1-2.1.3-4.2.5-6.2.2-.7.3-1.3.5-2-.2 1.7-.4 3.3-.6 4.9zM76.5 41.9c-.8-.5-1.8-.8-2.7-.8.9 0 1.8 0 2.7.1v.7zm5.8-9c-2.3 1.6-4.2 3.7-5.1 6C80 22.4 100.6 19 114.6 22.6c4.7 1.2 9.1 3.3 12.8 6-2.9-1.6-6.2-2.7-9.8-3.2-.6-.1-1.2-.2-1.8-.2-.4-.1-.8-.2-1.3-.3-9.6-2.2-25.8-.9-32.2 8zm11.9-4.3h-.3c-.9.1-1.8.2-2.8.4 7.5-3.2 17-3.2 24.7-2.3.4 0 .8.1 1.2.2.1 0 .2.1.4.1 7.3 2.3 14.2 6.5 19.2 12.1.1.1.1.2.2.4-.6-.6-1.2-1.1-1.8-1.6-5.2-6.1-13.4-9.9-21.1-10.9-6.4-1-13.3-.4-19.7 1.6zm42.2 94.5c.2.6.3 1.2.5 1.7.6 3.1 1.6 6.2 2.9 8.9-1.8-3.3-2.9-6.9-3.4-10.6zm3.6 5.8c-1.1-3.2-1.9-6.5-2.2-10 .4 2.1.9 4.2 1.5 6.2.4 1.8.9 3.7 1.6 5.5-.3-.5-.6-1.1-.9-1.7z" fill="#fef6e1" stroke-width="none" opacity="1" stroke="none"></path><path id="SvgjsPath25390" d="M154 138.8c-6.8-4.1-10.6-9.5-12.7-15.6-2.8-10.1-2.3-20.6-.6-31.2 1.7-11 4-22.9-.3-33.6-.2-3.2-.7-6.3-1.9-9.3-4-9.9-14.2-16.1-24.7-15.4-8.8.6-22 5.4-24.3 14.9-.3.9-.4 1.8-.4 2.8v.8c0 .1.1.2.2.3.2 1.3.7 2.9 1.9 3.4.2.1.6-.2.3-.4L91 55v-.2c-.2-.2-.3-.5-.4-.7-.2-.6-.4-1.3-.5-1.9v-.6c.1 1.2.5 2.5 1.2 3.7.2.3.8.1.6-.2-.4-.9-.6-1.8-.7-2.7.2 1.1.6 2.2 1.2 3.2.2.2.6.1.5-.2-.1-.4-.3-.8-.4-1.1.2.1.3.2.5.3 0 .2.1.4.1.6.1.3.7.3.6-.1v-.5c.1-.1.1-.2.1-.3.1 0 .3 0 .3-.2.1-2.1.6-4 1.4-5.7-.8 1.7-1.1 3.7-.8 5.9.1.4.6.3.6-.1-.1-7.2 4.9-11.3 11.3-12.9-4.9 3-8.1 8.7-5.8 15.2.1.3.7.3.7-.1-.5-5.4.3-11.2 5.6-14.2l1.2-.6c-4.1 3.4-4.6 9.5-3.4 14.5.1.4.7.3.7-.1-.4-5.1-.3-11.4 4.8-14.3 1-.6 2.1-.9 3.2-1.1 1.5 0 3 .2 4.5.4 1.8.4 3.4 1.2 4.8 2.1-.6-.1-1.2-.1-1.8-.1-7-.2-16.2 4.5-15 12.6.1.5.8.3.8-.1.9-10.6 12.3-12 20.5-8.7 1 1.1 1.9 2.4 2.5 3.6.1.2.3.2.5 0 .4 1 .8 1.9 1.1 2.9-1.1-.8-2.3-1.6-3.5-2.2-1.7-.9-3.8-1.4-5.8-1.3-3.8-.3-7.9.6-9.3 4.4-.3.4-.6.8-.9 1.3-.3.5.4.8.7.4 1.1-1.4 2.4-2.3 3.9-2.9-.7.5-1.2 1.1-1.7 1.9-.2.4.3.7.6.4l1.2-.9c0 .1.1.2.1.2-.1 0-.1.1-.2.1-.3.2-.1.7.2.6.4-.2.8-.3 1.2-.4.1.2.2.3.4.3 9.9-1.5 13.4 5.1 14.6 13.2v1.4c0 .1.1.2.2.2.7 6.3.2 13.4.3 18.2-3.2 19.1-4.4 47.9 17.8 55.8.4.1.6-.4.2-.6-6.7-3-11.2-7.9-14.1-13.8l.6.9c1.1 2.1 2.5 4 4.2 5.8.2.2.7-.1.5-.4-.1-.2-.2-.3-.3-.5.3.3.6.6 1 .9.2.2.5-.1.3-.3-1.3-1.3-2.4-2.6-3.4-4-6.9-12.1-6.6-25.6-3.1-39.3.4-1.4.8-2.9 1.2-4.3-.2 4.2-.6 8.4-.7 12.6-.3 9.4.7 20.5 5.7 28.8.6 1.1 1.2 2.3 1.9 3.4.1.2.4 0 .3-.2-.1-.1-.1-.2-.1-.3 2.2 2.8 5 5.1 8.6 6.7-.1.2.2-.3-.1-.6zM92.8 53c-1.7-2.5 3.2-9.2 4.2-10.3 1.2-1.2 2.5-2.2 4-3l1.2-.3c-5.4 2.8-9.6 7.8-9.4 13.6zm3.4-6.1c3.1-4.9 9.1-7.7 15.4-7.8h1.3c-6 .4-13.4 2.8-16.7 7.8zm33-1.6c-1.1-1-2.2-2-3.5-2.8-4.8-4.2-10.8-6.9-17.3-6.6 6-1.5 12.4-1.2 17.9 1.8 6.8 3.7 10 9.4 11.5 15.8-2.2-3.3-5.1-6.2-8.6-8.2zm6 27.8c-.1-3.1-.5-6.2-1.5-9v-2.2c.3.5.5 1 .8 1.5.2.5.4 1.1.6 1.6.2 2.7.2 5.4.1 8.1zm-1.4-19.7c-.1-.3-.3-.6-.5-1 1.1 1.9 2.1 4 2.9 6.1-.3-.4-.6-.8-.9-1.3-.4-1.2-.9-2.5-1.5-3.8zm-5.4 2.8c1.5.9 2.9 2.2 4 3.7.1.5.1.9.1 1.4-.9-2-2.4-3.7-4.1-5.1zm4.8 42.9c0-.3.1-.6.1-1 .6-4.9 1.6-9.8 2.4-14.7.1 0 .2-.1.2-.2 1-3.4 1.6-7.1 1.7-10.8.3 2.1.4 4.2.5 6.2-1.1 7-3.4 13.6-4.9 20.5zm5.7-28.9c-.4-2.3-1-4.5-1.8-6.6.1 0 .2-.1.2-.2 0-.7-.1-1.3-.2-1.9.1.2.2.4.4.6.7 2.7 1.2 5.4 1.4 8.1zm-2.1-13.4c-.6-1.5-1.3-2.9-2.1-4.2 1.8 2.2 3.1 4.7 4 7.3.1 1 .1 2.1.2 3.1-.5-2.1-1.2-4.2-2.1-6.2zm3 24c.4-2.1.6-4.3.7-6.5 0-1.4-.1-2.7-.2-4.1 0-.9.1-1.8.1-2.7v-1.6c.8 4.9.8 9.9.4 14.7-.4 4.8-1 9.6-1.5 14.4.2-4.8.5-9.6.5-14.2zM78.9 55.4c-13.4-6-22.8 11.8-21.8 22.7 0 .2.3.2.3 0 0-6 1-11.8 4.9-16.5 4-4.9 10.2-7.8 16.4-5.8.2.1.4-.3.2-.4zm62.6 52.8c-.3-8.6 2-16.2 4.7-24.2 4.4-13.2 5-29.4-3.6-41.2-7.5-10.2-22.5-13-34.4-11.3C97.1 33.1 86 41 86.6 53.2c0 .4.6.4.6 0 .1-17.1 18.4-22.4 32.5-20.9 7 .8 14.5 3 19.6 8 5.5 5.4 8.1 13.3 8.9 20.8.9 7.5-.3 14.7-2.6 21.8-1.9 5.7-3.9 11.2-4.7 17.1-1.4 11.5 1.1 23.1 7.1 33 .2.3.6 0 .5-.3-4.1-7.5-6.6-15.8-7-24.5zm-34.3-81.7c-12.8 1.8-26.5 11.9-24.1 26.4 0 .2.4.2.4-.1-.8-14.7 10.6-23 23.8-25.9.3-.1.2-.5-.1-.4zm-21.8 7.8C81.2 38.8 78.8 45 81 51c.1.2.4.1.3-.1-1.7-6.2.9-11.4 4.4-16.4.2-.2-.1-.4-.3-.2zm7.7-7.1c-7.9 2.5-15.4 8.5-15.2 17.5 0 .2.3.2.3 0 .5-9 7.6-13.9 15.1-17.1.2-.1 0-.5-.2-.4zM80.5 54.1c-4.7-4.3-10.8-2-15.7.8-6.6 3.7-11.3 8.5-12.3 16.3-1.1 8.7 2.3 17.5 4.7 25.7 3 10.5 5 21.6-.5 31.8-.2.4.4.8.6.4 7.3-12.2 2.5-26.2-1.1-38.7-2.4-8.3-5.1-18-.7-26.1 3.9-7 17.1-15.1 24.6-9.7.3 0 .6-.3.4-.5zm-3.4-4.5c-9.1-6.8-20.6 4.1-23.2 12.5-.1.2.3.3.4.1 3.3-8.3 13.1-17.5 22.6-12.2.2.2.5-.2.2-.4zm-.8-2.3C74.2 44 70 44.6 67 46.2c-.2.1-.1.4.1.3 3-1.1 6.7-2.1 9 .9 0 .1.3 0 .2-.1z" fill="#efe1bc" stroke-width="none" opacity="1" stroke="none"></path><path id="SvgjsPath25391" d="M138 41.5c-.2-.2-.4.1-.3.3 7.5 9.6 10.3 21 8.6 33-.1.4.5.5.6.2 3-12-.7-24.7-8.9-33.5zm7 19.1c0-.1-.3-.1-.2 0 1 10.8.1 21.2-2.1 31.8-.1.3.3.4.4.1 3-10.3 3.5-21.2 1.9-31.9zm-10.5-17.4c-6.2-7.3-17.7-10.8-26.9-9-7.9 1.5-20 7.6-19.5 17 0 .5.7.5.7 0 .3-11.9 18.7-17.6 28.2-15.9 5.1.9 10.4 3.3 14.4 6.7 5 4.1 6.9 10.7 8.1 16.8 2.3 12-.2 23-3.4 34.5-2.4 8.8-4.3 17.8-1.5 26.8.1.3.6.2.5-.1-3.8-15.2 4.1-28.9 6.1-43.7 1.3-10.2.4-24.9-6.7-33.1zM79 54.2c-11.2-2-18.8 8.6-20.2 18.5-2 14.5 5 28.3 2.3 42.7.6-7.4-.4-14.9-2.9-22 0-.1-.3-.1-.2.1 3.9 12.6 3.4 25.4-1.1 37.8-.1.2.2.3.3.1 1.7-4.1 2.9-8.4 3.5-12.7l.1-.1c4.4-11 .5-22.7-.9-34-1.6-12.9 2.2-31.1 19-29.7.4-.1.4-.6.1-.7zm-1.7-3.9C67 47.2 57.7 54.6 54.2 63.9c-.1.2.2.3.3.1 4.3-9.1 12.2-15.3 22.7-13.3.3.1.4-.4.1-.4zM76 45.8c-7.6-1.5-13.7-.7-18.6 5.7-4.1 5.3-5.8 11.9-4.8 18.4 0 .2.3.1.3 0-.4-5.6.6-11.4 3.7-16.2 4.7-7.3 10.9-8.6 19.2-7.4.4.1.5-.4.2-.5zm53.1-9C114 22.1 87 31 84.2 52c0 .3.4.4.4.1 5-20.5 27.6-28.5 44.2-15.1.2.2.4 0 .3-.2zm-46.1 6c-1.7 2.2-3.4 5-1.7 7.6.1.2.4 0 .3-.2-1.5-2.5.2-5.1 1.6-7.3 0-.1-.1-.2-.2-.1zm68 99.8c-8.2-9.9-13.3-21.4-13.5-34.3 0-.2-.2-.2-.2 0-.1 12.8 4.3 25.5 13.5 34.6.1 0 .3-.2.2-.3zm-3.6-1.5c-5.2-3.4-9.1-7.7-11.4-13.6-.1-.3-.5-.2-.4.1 1.9 5.9 6 11.1 11.6 13.8.2.2.4-.1.2-.3z" fill="#fffefb" stroke-width="none" opacity="1" stroke="none"></path></g><g id="svga-group-glasses-single-move" transform="matrix(1,0,0,1,0,0)"><g id="svga-group-glasses-single" transform="matrix(1,0,0,1,0,0)"></g></g></g></g></g><rect id="svga-credit-rect" width="200" height="15" x="0" y="185" fill="#ecf0f1" opacity="0.5" style="display: none;"></rect><text id="svga-credit-text" font-family="Avenir Next, Roboto, Helvetica, Arial, sans-serif" font-size="10px" text-anchor="start" font-weight="400" size="10px" anchor="start" weight="400" fill="#333333" x="33.40447998046875" y="182.60824704170227" style="display: none;"><tspan id="SvgjsTspan24693" dy="13" x="33.40447998046875">Created on AvatarMaker.com</tspan></text></g></svg>