<svg width="20" height="20" viewBox="0 0 20 20" fill="none" xmlns="http://www.w3.org/2000/svg">
<path d="M17.0156 0.875H2.48438C1.32187 0.875 0.375 1.82187 0.375 2.98438V17.5156C0.375 18.6781 1.32187 19.625 2.48438 19.625H17.0156C18.1781 19.625 19.125 18.6781 19.125 17.5156V2.98438C19.125 1.82187 18.1781 0.875 17.0156 0.875ZM2.48438 2.28125H17.0156C17.4028 2.28125 17.7188 2.59719 17.7188 2.98438V12.0556L14.1019 8.43875C13.9706 8.3075 13.7925 8.2325 13.605 8.2325H13.6022C13.4147 8.2325 13.2337 8.3075 13.1034 8.4425L9.05625 12.5525L7.35656 10.8594C7.22531 10.7281 7.04719 10.6531 6.85969 10.6531C6.67875 10.625 6.48937 10.7281 6.35812 10.8659L1.78125 15.5394V2.98438C1.78125 2.59719 2.09719 2.28125 2.48438 2.28125ZM1.78688 17.5438L6.86625 12.3556L12.7556 18.2188H2.48438C2.1075 18.2188 1.80281 17.9169 1.78688 17.5438ZM17.0156 18.2188H14.7469L10.0528 13.5434L13.6078 9.93406L17.7188 14.0441V17.5156C17.7188 17.9028 17.4028 18.2188 17.0156 18.2188Z" fill="#FACC15"/>
<path d="M6.81379 8.2353C7.61219 8.2353 8.25941 7.58808 8.25941 6.78968C8.25941 5.99128 7.61219 5.34406 6.81379 5.34406C6.01539 5.34406 5.36816 5.99128 5.36816 6.78968C5.36816 7.58808 6.01539 8.2353 6.81379 8.2353Z" fill="#FACC15"/>
</svg>